<?xml version="1.0" encoding="UTF-8"?>
<svg id="Layer_2" data-name="Layer 2" xmlns="http://www.w3.org/2000/svg" viewBox="0 0 331.19 535.36">
  <defs>
    <style>
      .cls-1 {
        fill: #191818;
      }

      .cls-2 {
        fill: #f9f3ea;
      }

      .cls-3 {
        fill: #e4612b;
      }
    </style>
  </defs>
  <g id="Layer_1-2" data-name="Layer 1">
    <g>
      <path class="cls-1" d="M147.56,82.64c1.55,8.16,6.49,12.48,9,18s4.5,12.18,7,18c1,2.33,1.99,4.67,3,7,2.05,4.71,3.51,10.2,6.16,14.84,1.9.53,3.92,0,5.84.16,2.95.25,5.46-.11,8,0,4.66.21,8.68,1.1,13.55,1.04,6.78-.08,14.32-2.01,21.44-1.05,0-4.15-3.15-7.38-5-10.99-3.31-6.47-8.58-13.35-7.89-20.38.22-2.29,1.74-4.49,1.89-5.62,4.87,2.54,5.92,7.71,8.56,11.94.91,1.46,3.2,2.65,3.44,3.06.77,1.33,1.8,3.86,3,6,.31.55.26,2.8,1.09,4.38.78,1.46,5.59,10.1,6.11,10.41,2.36,1.37,6.51-.69,8.8-.78s4.69.16,7,0c4.28-.29,8.75-.53,13-1,2.02-.23,3.99-.7,6-1,1.24-.18,8.93-.24,7.99-2.49-.82-1.96-12.86-12.6-15.51-15.5-1.29-1.41-2.15-3.16-3.44-4.61-.97-1.09-2.91-1.25-3.05-1.41-2.97-3.38.87-11.82.81-15.51-.04-2.36-1.52-4.76-1.76-7.13-.21-2.12,1.07-4.15.95-5.35l11,2c-.79,2.23-.51,3.72-2.17,6.34-2.39,3.77-9.27,6.41-3.54,11.37,1.2,1.04,3.59,1.13,3.71,1.29.16.22-.36,1.71.25,2.69l24.77,23.79c3.52,1.63,8.41-.72,11.98-1.48,4.81-1.03,5.61-1.44,10-3,2.77-.98,9.3-1.99,11.08-4.42,6.7-9.18-19.41-19.72-26.08-19.58-.25-3.15-3.99-10.85,0-10,11.53,4.34,31.27,8.32,35.33,22.17,5.69,19.42-8.49,62.74-18.15,80.5-17.04,31.31-41.5,53.75-73.2,69.87l13.8,43.19c6.74,6.26,16.45,6.96,18,18.02,1.07,7.64-2.24,12.77-6.58,18.55,17.36,51.89,33.09,104.29,49.53,156.48,2.99,9.49,14.05,27.25-.17,32.26-7.48,2.63-12.21-2.95-16.76-8.33l-17.18-53.82-2.13-.87-138.01-4.99-63.45-5.04c1.19,11.55-4.36,33.58-16.29,38.22-4,1.56-20.59,6.63-24.26,6.79-35.55,1.53-51.58-72.88-11.46-85.52,4.17-1.31,20.74-3.44,22.07-4.93l69.92-157.09c-.03-2.48-13.39-9.48-16.31-11.64-21.32-15.79-42.57-44.16-52.15-68.85-5.59-14.39-13.31-44.4-10.29-59.25,1.74-8.57,18.85-17.53,26.77-19.73-1.09,3.73-.77,7.26-1,11-3.16.78-16.13,9.73-13.94,12.94.55.8,5.86,1.62,6.94,2.06,2.44,1,3.91,2.03,7,3,4.45,1.4,8.51,2.06,13,3,1.76.37,3.87,2.29,6.48,2,1.64-.18,2.84-1.99,3.03-1.98.8.02,1.03,2.73,2.2,3,1.8.42,6.97.79,9.29.98.96.08,4.03.36,4.02-.51-2.49-6.35-4.05-12.98-6.02-19.49-2.73-9.05-6.76-12.53-10-23,6.24-1.83,13.12-2.24,19-5-.36,1.56-2.71,15.44-2.69,16.32.06,4.22,3.24,7.16,3.69,8.68,1.29,4.28,4.48,22.76,7.99,24.51,2.47,1.23,16.72,2.26,20.52,2.48,6.28.38,13.14.02,19.49.01,2.12,0,7.94,2.2,8.84-1.59.19-.8-1.9-10.29-4.84-9.41,1.01-4.52-5.11-13.8-7-18-.28-.62.18-2.62-.45-4.01-2.62-5.79-6.67-4.21-9.42-7.62-3.13-3.89-4.7-9.82-6.13-14.37l14-2ZM57.55,424.64l69.58-158.95c1.23-3.15-3.17-4.48-4.36-1.33l-67.69,151.31c-3.02,2.5-.46,11.09,2.46,8.98ZM193.42,276.79c-19.73.13-38.98-3.4-57.76-9.06l-17.09,41.92c22.71-5.9,44.82-11.73,68.54-11.04,3.25.09,7.61,3.01,8.45-1.46.45-2.39-1.09-19.7-2.14-20.36ZM310.55,526.64l-.22-5.27c-27.4-82.82-51.78-166.61-78.27-249.73.12-3.36-5.3-3.11-6.38-1.89-1.32,1.49,1.91,11.18,2.61,13.65,18.99,66.67,42.63,135.62,64.25,201.75,2.23,6.81,10.94,35.57,14,39,.62.7,3.84,2.72,4.01,2.48ZM225.56,302.63c-3.22-8.51-5.18-18.46-8.73-26.76-.53-1.23-.53-2.95-2.26-3.23l2.66,27.77c1.17,2.79,5.93,2.19,8.33,2.22ZM203.69,300.51c1.74,1.08,5.45.34,5.91-2.39.87-5.12-3.41-18.33-3.05-24.48-1.13,1.02-4.89.63-5.05,1.58-.45,2.56,1.11,24.62,2.19,25.29ZM228.39,311.8c-7.11-.85-14.21-2.35-21.34-3.15-25.65-2.9-64.15-1.21-87.73,10.26-3.97,1.93-13.39,12.03-12.63,16.1.66,3.49,16.66,8.07,20.27,7.62,2.95-.37,11.11-7.31,14.91-9.16,20.94-10.22,57.51-11.59,79.46-4.11,5.1,1.74,9.58,4.66,14.21,7.28,1.26-1.69-6.77-21.13-7.16-24.84ZM259.57,334.64c5.52-1.82-.65-14.56-3.01-11.99l3.01,11.99ZM231.56,345.64c-6.49-9.17-20.06-11.69-30.63-12.86-18.76-2.08-40.74.34-57.74,9-3.9,1.99-5.11,3.14.13,4.61,11.4,3.21,27.08,2.43,38.7,2.22,16.61-.31,33.11-.62,49.54-2.97ZM192.56,374.65c-32.53,2.42-64.84-7.96-90.43-27.99l-1.78,2.28c-9.38,26.02-25.1,51.95-34.26,77.73-.79,2.21-1.75,3.4-1.11,5.98.48,1.95,5.88,11.9,7.63,11.61,9.11-3.56,18.7-5.95,27.93-9.13,29.62-10.21,63.54-21.83,92.29-33.71,2.84-1.17,18.52-6.82,14.73-10.76-.83-.86-14.4,2.91-16.93,2.96-2.53-1.8,1.41-15.63,1.93-18.96ZM255.54,422.64c-9.09-2.91-4.43-7.99-3.95-14.46.91-12.43-2.22-27.12-10.06-37.01-2.36-2.98-6.58-8.22-10.4-5.56-2.44,1.7,1.65,2.54,2.97,3.96,10.97,11.82,15.62,28.24,13.45,44.07-1.56.28-2.31-.16-3.54-.95-3.38-2.18-20.33-20.88-22.45-24.55-2.62-4.53-2.85-11.3-3.01-16.5h-3.99c1.01,5.55.35,12.11,1.09,17.41,1.09,7.85,19.75,25.13,26.45,30.55l29.96,32.04c1.17-.63.3-2.98.04-4.04-3.01-12.19-9.49-24.33-11.55-36.96-2.65-.24-1.62-.05-1.97,1.5-.83,3.7-1.47,7.02-3.03,10.5ZM194.52,411.67c-.99-.67-3.26.21-3.94,1.47l7.97,9.5c.43-1.5-3.54-10.64-4.03-10.97ZM198.55,437.64c1.38-1.24-14.93-19.59-16.45-21.76l-27.54,10.27,43.99,11.49ZM265.56,458.63c-4.75-4.31-16.08-20.32-21.04-22.52-2.34-1.04-6.57,1.33-9.47,1.52-6.36.42-13.76.42-19.55-2.43-2.45-1.21-12.18-9.93-13.94-8.55,5.32,5.77,9.27,13.29,15.29,18.2l48.71,13.78ZM41.2,436c-10.28-9.79-21.34-7.27-28.08,4.71-8.03,14.26-4.12,41.47,8.96,51.91,16,12.77,27.89-1.41,30.33-17.62,1.82-12.11-2.14-30.36-11.21-39ZM127.06,439.64c13.32,1.42,28.93-1.05,42.5,0l-27.57-8.94c-2.08-.66-21.79,6.84-20.43,7.93,2.06-.78,4.2.87,5.5,1.01ZM239.55,459.66l-36.73-10.77c-30.27-1.52-60.44-1.81-90.8-2.2-3.6-.05-6.8-1.36-11-1.08-2.04.13-19.7,5.31-20.46,6.06-.49.49-.23,2.71,1.48,1.99l157.51,6.01Z"/>
      <path class="cls-3" d="M147.56,82.64c-2.73-14.37-.55-34.28,8.17-46.33,5.33-7.36,12.07-9.35,14.55-19.45.71-2.89,1.34-15.41,2.41-16.08,7.62-4.74,18.93,13.28,21.35,18.87,7.35,16.98-1.57,30.36,5.64,46.36,1.28,2.85,4.46,9.73,7.87,8.14,4.28-1.99,9.06-10.54,9.75-15.28,1.24-8.52-1.62-22.41,11.78-11.26,7.95,6.61,23.48,26.93,24.48,37.02.12,1.21-1.16,3.24-.95,5.35.24,2.38,1.72,4.78,1.76,7.13.06,3.69-3.78,12.13-.81,15.51-2.5,1.24-7.75,1.46-8.83-1.66-.99-2.87,1.23-14.88.87-19.87-.91-12.5-8.87-25.87-18.54-33.44-2.68,5.42-3.82,11.49-7.5,16.47-7.77,10.53-24.08,16.16-36.22,10.23-4.75-2.32-15.26-16.74-8.07-18.58,5.37-1.38,5.64,7.54,9.31,10.33,1.4,1.06,10,3.97,9.99,2.01-1.28-6.1-4.33-12.3-5.74-18.26-2.18-9.22,1.82-18.6.47-28.47-.99-7.27-5.33-12.81-9.24-18.74-2.36,4.14-2.36,8.9-4.68,13.3-3.41,6.48-10.33,10.53-14.23,16.77-12.02,19.21-3.25,34.52-2.83,53.71.04,1.88-.02,3.09-1.76,4.2-2.51-5.52-7.45-9.84-9-18Z"/>
      <path class="cls-3" d="M264.56,86.64c.27-.75,1.15-1.56,1.54-2.92,1.98-6.94,1.58-23.9,12.43-12.55,4.62,4.83,12.21,21.03,16.04,22.47-3.99-.85-.25,6.85,0,10,.34,4.25-.25,8.72,0,13,11.83-3.61,10.26,2.88,15,11-4.39,1.56-5.19,1.97-10,3-2.47-10.74-2.42-5.4-8.29-6.18-7.36-.98-4.17-13.73-4.72-19.31-.47-4.75-6.22-20.69-10.5-22.5-1.73-.73-1.56,1-1.94,2-2.88,7.66-4.65,15.43-11.55,20.99-.11-.16-2.51-.26-3.71-1.29-5.73-4.96,1.15-7.6,3.54-11.37,1.66-2.61,1.38-4.11,2.17-6.34Z"/>
      <path class="cls-3" d="M133.56,84.64c1.43,4.55,3,10.48,6.13,14.37,2.75,3.41,6.8,1.83,9.42,7.62.63,1.39.17,3.39.45,4.01-19.47,2.21-22.31-20.19-26.74-33.79-.32-.98.16-3-1.75-2.2-.54.23-3.94,3.72-4.51,4.5-7.3,9.92-2.85,24.63-12,33.5-.46-1.52-3.63-4.46-3.69-8.68-.01-.88,2.34-14.76,2.69-16.32,2.06-8.98,11.98-25.77,23.34-21.83,2.74.95,5.5,15.15,6.66,18.83Z"/>
      <path class="cls-3" d="M84.56,92.64c3.24,10.47,7.27,13.95,10,23-10.76,4.23-14.3-9.83-17.56-16.99-.36-.8-.21-2.85-1.93-2.01-5.94,2.9-1.04,19.44-7.06,25.95-1.95,2.11-6.22,1.69-5.45,6.05-3.09-.97-4.56-2-7-3-1.71-7.13,5.53-6.49,6.57-7.93.96-1.33.32-5.16.43-7.07.23-3.74-.09-7.27,1-11,1.27-4.35,10.84-20.66,15.97-18.55,2.64,1.09,4.06,8.39,5.03,11.55Z"/>
      <path class="cls-3" d="M117.3,11.82c7.81-1.59,15.82,13.74,16.26,20.35.44,6.63-7.08,29.77-15.58,23.55-3.43-2.51-10.03-20.87-10.41-25.58-.47-5.91,3.33-17.01,9.72-18.32ZM122.54,45.64c2.43-2.04,3.47-11.18,2.95-14.43-.76-4.76-7.58-14.97-9.7-5.84-1.24,5.33,1.55,14.45,4.54,18.99.48.73.57,2.66,2.22,1.28Z"/>
      <path class="cls-3" d="M263.43,24.78c.54.35,3.06,10.84,3.15,12.4.2,3.41-.64,7.05-1.74,10.25-2.63,7.67-7.94,15.69-14.71,6.15-5.02-7.07-5.12-17.43.93-23.93,2.14-2.3,9.33-6.83,12.37-4.87ZM259.55,32.65c-8.68,1.82-7.46,10.45-4.99,17,5.4.33,6.46-15.3,4.99-17Z"/>
      <path class="cls-2" d="M207.55,390.65c-.83-.86-14.4,2.91-16.93,2.96-.19-.13-.33-.33-.45-.59-4.69,1.23-9.03,4.67-13.56,6.44-5.77,2.25-11.59,4.39-17.44,6.45-10.24,3.62-19.22,9.57-29.33,13.39-11.77,4.44-24.15,8.11-36.31,11.33-8.75,2.32-17.71,3.91-26.19,7,1.83,3.27,4.2,6.81,5.26,6.64,9.11-3.56,18.7-5.95,27.93-9.13,29.62-10.21,63.54-21.83,92.29-33.71,2.84-1.17,18.52-6.82,14.73-10.76Z"/>
      <path class="cls-2" d="M156.56,100.64c1.74-1.11,1.8-2.31,1.76-4.2-.42-19.19-9.19-34.51,2.83-53.71,3.9-6.23,10.82-10.28,14.23-16.77,2.31-4.4,2.32-9.16,4.68-13.3,3.91,5.93,8.25,11.47,9.24,18.74,1.35,9.88-2.64,19.25-.47,28.47,1.41,5.96,4.46,12.15,5.74,18.26,0,1.96-8.59-.94-9.99-2.01-3.67-2.79-3.94-11.71-9.31-10.33-7.19,1.84,3.31,16.26,8.07,18.58,12.15,5.93,28.45.3,36.22-10.23,3.68-4.99,4.81-11.05,7.5-16.47,9.67,7.57,17.63,20.94,18.54,33.44.36,4.99-1.86,17-.87,19.87,1.08,3.13,6.33,2.9,8.83,1.66.14.15,2.08.32,3.05,1.41,1.29,1.45,2.15,3.19,3.44,4.61,2.65,2.9,14.68,13.54,15.51,15.5.94,2.25-6.75,2.3-7.99,2.49.09-4.72-10.62-22.24-15.53-17.03-.99,1.05-4.08,10.03-4.97,10.04-7.65-11.76-9.75-28.59-24.5-11.01-.24-.41-2.52-1.59-3.44-3.06-2.64-4.23-3.69-9.4-8.56-11.94.59-4.28.91-12.12-5.27-10.85-2.47.5-15.79,9.64-18.26,11.83-4.39,3.9-7.5,8.04-8.49,14.02-3.47-1.92-.38-6.03-5.47-6.07-4.4-.03-6.22,4.06-9.52,6.08-2.5-5.82-4.51-12.53-7-18Z"/>
      <path class="cls-2" d="M228.39,311.8c.39,3.71,8.42,23.15,7.16,24.84-4.62-2.63-9.11-5.54-14.21-7.28-21.95-7.48-58.52-6.11-79.46,4.11-3.8,1.85-11.96,8.79-14.91,9.16-3.61.45-19.61-4.13-20.27-7.62-.77-4.06,8.66-14.17,12.63-16.1,23.57-11.47,62.08-13.16,87.73-10.26,7.13.8,14.22,2.3,21.34,3.15Z"/>
      <path class="cls-2" d="M310.55,526.64c-.18.24-3.39-1.78-4.01-2.48-3.05-3.43-11.77-32.19-14-39-21.62-66.13-45.25-135.08-64.25-201.75-.7-2.47-3.93-12.17-2.61-13.65,1.08-1.22,6.51-1.47,6.38,1.89,26.48,83.12,50.86,166.91,78.27,249.73l.22,5.27Z"/>
      <path class="cls-2" d="M41.2,436c9.07,8.64,13.03,26.89,11.21,39-2.44,16.21-14.33,30.39-30.33,17.62-13.08-10.44-16.99-37.65-8.96-51.91,6.75-11.98,17.8-14.5,28.08-4.71ZM25.31,443.88c-13.55,3.6-8.62,34.94,3.98,37.54,16.5,3.4,13.25-19.78,8.07-29.08-2.5-4.49-6.35-9.97-12.06-8.46Z"/>
      <path class="cls-2" d="M104.56,112.64c9.15-8.86,4.71-23.58,12-33.5.57-.77,3.97-4.27,4.51-4.5,1.91-.8,1.43,1.22,1.75,2.2,4.43,13.6,7.26,36,26.74,33.79,1.89,4.2,8.01,13.48,7,18-.47,2.12-4.75,7.41-4,11-6.35.01-13.21.37-19.49-.01-3.8-.23-18.05-1.26-20.52-2.48-3.51-1.74-6.7-20.23-7.99-24.51ZM121.48,136.56c.79-.54,2.13-14.59,6.74-15.82,4.12-1.09,6.9,12.05,13.8,10.95,7.06-1.12-1.08-7.68-2.3-9.72-5.4-9.01-5.18-19.22-16.7-7.37-4.15,4.27-9.06,13.38-7.27,19.33.62,2.08,4.15,3.69,5.72,2.62Z"/>
      <path class="cls-2" d="M239.55,459.66l-157.51-6.01c-1.71.72-1.97-1.5-1.48-1.99.76-.75,18.42-5.92,20.46-6.06,4.2-.28,7.4,1.04,11,1.08,30.36.39,60.54.68,90.8,2.2l36.73,10.77Z"/>
      <path class="cls-2" d="M231.56,345.64c-16.43,2.35-32.93,2.66-49.54,2.97-11.62.22-27.3,1-38.7-2.22-5.24-1.48-4.03-2.63-.13-4.61,17.01-8.66,38.98-11.08,57.74-9,10.57,1.17,24.14,3.69,30.63,12.86Z"/>
      <path class="cls-2" d="M271.51,445.38c-4.98-7.42-10.05-14.77-15.55-21.81-.24-.31-.45-.65-.65-1.01-8.77-2.92-4.19-7.97-3.72-14.38.91-12.43-2.22-27.12-10.06-37.01-2.36-2.98-6.58-8.22-10.4-5.56-2.44,1.7,1.65,2.54,2.97,3.96,10.97,11.82,15.62,28.24,13.44,44.07-1.56.28-2.31-.16-3.54-.95-3.38-2.18-20.33-20.88-22.45-24.55-2.62-4.53-2.85-11.3-3.01-16.5h-3.99c1.01,5.55.35,12.11,1.09,17.41,1.09,7.85,19.75,25.13,26.45,30.55l29.96,32.04c1.17-.63.3-2.98.04-4.04-.18-.74-.38-1.48-.59-2.22Z"/>
      <path class="cls-3" d="M210.56,103.64c-.16,1.12-1.67,3.33-1.89,5.62-.69,7.04,4.59,13.92,7.89,20.38-14.56-.13-14.37-11.72-16.02-22.49-.17-1.14.49-2.05-1.45-1.48-9.33,2.7-10.53,9.03-13.63,16.37-.81,1.92-3.05,4.02-3.49,5.59-1.15,4.1,4.2,8.74,4.6,13.01-2.54-.11-5.05.25-8,0l-7.01-18-4.99,3c-1.01-2.33-2-4.67-3-7,3.3-2.01,5.12-6.11,9.52-6.08,5.09.04,2,4.15,5.47,6.07.99-5.98,4.1-10.12,8.49-14.02,2.46-2.19,15.79-11.33,18.26-11.83,6.17-1.26,5.86,6.58,5.27,10.85Z"/>
      <path class="cls-2" d="M57.55,424.64c-2.93,2.12-5.48-6.48-2.46-8.98l67.69-151.31c1.19-3.15,5.58-1.82,4.36,1.33l-69.58,158.95Z"/>
      <path class="cls-2" d="M186.56,140.64c-.4-4.28-5.75-8.92-4.6-13.01.44-1.57,2.68-3.67,3.49-5.59,3.11-7.34,4.31-13.67,13.63-16.37,1.94-.56,1.27.35,1.45,1.48,1.65,10.77,1.47,22.36,16.02,22.49,1.85,3.61,5,6.84,5,10.99-7.12-.97-14.67.96-21.44,1.05-4.87.06-8.9-.83-13.55-1.04Z"/>
      <path class="cls-2" d="M262.56,105.64c6.9-5.56,8.67-13.33,11.55-20.99.38-1,.21-2.73,1.94-2,4.28,1.81,10.04,17.75,10.5,22.5.55,5.58-2.64,18.33,4.72,19.31,5.88.78,5.82-4.56,8.29,6.18-3.57.76-8.46,3.11-11.98,1.48l-24.77-23.79c-.61-.98-.09-2.47-.25-2.69Z"/>
      <path class="cls-2" d="M265.56,458.63l-48.71-13.78c-6.01-4.91-9.97-12.44-15.29-18.2,1.76-1.38,11.48,7.35,13.94,8.55,5.79,2.85,13.19,2.85,19.55,2.43,2.9-.19,7.13-2.56,9.47-1.52,4.96,2.2,16.29,18.21,21.04,22.52Z"/>
      <path class="cls-2" d="M62.56,128.64c-.77-4.35,3.5-3.93,5.45-6.05,6.02-6.51,1.11-23.05,7.06-25.95,1.72-.84,1.57,1.21,1.93,2.01,3.26,7.15,6.8,21.22,17.56,16.99,1.96,6.5,3.53,13.13,6.02,19.49.01.88-3.05.6-4.02.51-1.92-3.48-3.63-15.7-7.65-15.75-3.39-.04-12.44,7.93-13.35,11.75-4.49-.94-8.55-1.6-13-3Z"/>
      <path class="cls-3" d="M222.56,118.64c14.75-17.58,16.85-.75,24.5,11.01.88,0,3.98-8.98,4.97-10.04,4.91-5.21,15.62,12.3,15.53,17.03-2.01.3-3.98.77-6,1-.02-2.08-4.99-11.44-6.99-10-.51.37-3.79,9.71-6.01,11-2.31.16-4.68-.09-7,0-.4-6.61-5.2-12.66-7.98-18.55l-8.02,4.55c-1.2-2.14-2.23-4.67-3-6Z"/>
      <path class="cls-2" d="M198.55,437.64l-43.99-11.49,27.54-10.27c1.52,2.17,17.84,20.52,16.45,21.76Z"/>
      <path class="cls-2" d="M309.56,127.64c-4.74-8.12-3.17-14.6-15-11-.25-4.28.33-8.75,0-13,6.66-.14,32.77,10.4,26.08,19.58-1.77,2.43-8.31,3.44-11.08,4.42Z"/>
      <path class="cls-2" d="M127.06,439.64c-1.3-.14-3.44-1.79-5.5-1.01-1.36-1.09,18.35-8.59,20.43-7.93l27.57,8.94c-13.57-1.05-29.18,1.42-42.5,0Z"/>
      <path class="cls-3" d="M75.56,131.64c.92-3.82,9.96-11.79,13.35-11.75,4.02.05,5.72,12.28,7.65,15.75-2.32-.2-7.5-.56-9.29-.98-1.17-.28-1.4-2.99-2.2-3-.18,0-1.39,1.8-3.03,1.98-2.61.29-4.72-1.63-6.48-2Z"/>
      <path class="cls-2" d="M241.56,138.64c-2.29.09-6.44,2.15-8.8.78-.52-.3-5.33-8.94-6.11-10.41-.83-1.57-.78-3.82-1.09-4.38l8.02-4.55c2.78,5.89,7.58,11.94,7.98,18.55Z"/>
      <path class="cls-2" d="M203.69,300.51c-1.08-.67-2.64-22.73-2.19-25.29.17-.95,3.92-.56,5.05-1.58-.36,6.15,3.92,19.36,3.05,24.48-.46,2.73-4.17,3.48-5.91,2.39Z"/>
      <path class="cls-2" d="M166.56,125.64l4.99-3,7.01,18c-1.92-.16-3.94.37-5.84-.16-2.65-4.63-4.11-10.12-6.16-14.84Z"/>
      <path class="cls-2" d="M55.56,125.64c-1.08-.44-6.4-1.26-6.94-2.06-2.19-3.21,10.79-12.16,13.94-12.94-.12,1.92.53,5.74-.43,7.07-1.04,1.44-8.27.8-6.57,7.93Z"/>
      <path class="cls-2" d="M261.56,137.64c-4.25.47-8.72.71-13,1,2.22-1.29,5.51-10.63,6.01-11,2-1.45,6.97,7.92,6.99,10Z"/>
      <path class="cls-3" d="M156.56,128.64c2.93-.89,5.02,8.61,4.84,9.41-.9,3.8-6.72,1.59-8.84,1.59-.75-3.59,3.53-8.88,4-11Z"/>
      <path class="cls-2" d="M259.57,334.64l-3.01-11.99c2.35-2.56,8.52,10.17,3.01,11.99Z"/>
      <path class="cls-2" d="M194.52,411.67c.49.33,4.46,9.47,4.03,10.97l-7.97-9.5c.69-1.26,2.95-2.14,3.94-1.47Z"/>
      <path class="cls-2" d="M122.54,45.64c-1.65,1.38-1.74-.55-2.22-1.28-2.98-4.54-5.78-13.67-4.54-18.99,2.13-9.12,8.95,1.09,9.7,5.84.52,3.25-.52,12.39-2.95,14.43Z"/>
      <path class="cls-2" d="M259.55,32.65c1.47,1.7.42,17.33-4.99,17-2.48-6.55-3.69-15.18,4.99-17Z"/>
      <path class="cls-1" d="M25.31,443.88c5.7-1.52,9.56,3.97,12.06,8.46,5.17,9.3,8.43,32.48-8.07,29.08-12.6-2.6-17.53-33.94-3.98-37.54Z"/>
      <path class="cls-3" d="M121.48,136.56c-1.57,1.07-5.1-.55-5.72-2.62-1.78-5.95,3.12-15.05,7.27-19.33,11.52-11.85,11.29-1.64,16.7,7.37,1.22,2.03,9.36,8.6,2.3,9.72-6.91,1.1-9.68-12.05-13.8-10.95-4.61,1.23-5.96,15.28-6.74,15.82Z"/>
    </g>
  </g>
</svg>