<?xml version="1.0" encoding="UTF-8"?>
<svg id="Layer_2" data-name="Layer 2" xmlns="http://www.w3.org/2000/svg" viewBox="0 0 110.92 231.03">
  <defs>
    <style>
      .cls-1 {
        fill: #1d2425;
      }

      .cls-2 {
        fill: #fdf7ec;
      }

      .cls-3 {
        fill: #df602a;
      }
    </style>
  </defs>
  <g id="Layer_1-2" data-name="Layer 1">
    <g>
      <path class="cls-1" d="M76.88,146.07l-13.46,2.92c-2.62,2.56-1.18,12.46-1.48,16.52-1.37,18.61-2.47,37.4-4.01,55.99-.22,2.69-.98,8.6-3.69,9.37-3.46.71-5.01-1.1-5.36-4.32-2.37-21.63,3.8-43.65,5.06-65.04.22-3.76-.03-7.63-.12-11.39-3.18-.72-11.26-3.7-13.41-1.13-3.58,15.52-10.58,29.61-16.97,44.03-1.45,3.27-2.86,11.69-6.44,12.55-2.39.57-4.92-2.71-4.96-5.02-.09-5.62,10.97-27.12,13.65-34.28,1.48-3.95,7-18.52,6.3-21.59-9.54-5.96-18.74-11.81-24.23-21.99-3.44-6.39-8.77-23.1-7.59-29.94,2.08-12.09,25.26-16.14,35.4-17.6,16.78-2.42,46.01-4.27,61.35,2.38,17.67,7.65,16,21.78,9.19,37.17-4.56,10.32-12.74,18.78-21.72,25.31l-.51,1.51c2.33,9.26,4.43,18.64,7.32,27.73,3.56,11.2,10.64,25.11,12.53,36.51,1.13,6.85-5.02,9.02-8.31,2.27-4.74-9.74-9.88-27.22-13-38-2.28-7.88-4.2-15.84-5.55-23.94ZM45.44,104.01c3.36.96,10.59-.7,14.5,0l7.07-21.39c-13.21-7.36-16.57,10.72-22.89,18.09-.68,1.15.38,3.03,1.33,3.31ZM82.84,82.1c-2.96-.36-5.62-2.38-7.97.36-1.35,1.58-7.88,19.69-6.94,20.55,3.42.03,10.78.53,13.09-2.41,1.61-2.04,2.78-17.4,1.82-18.5ZM46.93,82.01c-3.75-.3-7.79.42-10.95,2.54-.86.58-10.39,10.86-11.09,11.91-.82,1.23-1.25,1.97-.95,3.54l10.98,1.54c2.15-1.08,13.13-18.48,12.01-19.52ZM88.94,98.01c4.93.57,9.02-3.51,11.04-7.5,0-2.26-6.18-7.19-8.54-7.52-1.86-.26-1.46.04-1.51,1.5-.15,4.69-1.11,8.89-1,13.52ZM24.94,86.02c-2.58-.71-16,5.15-15.99,6.49,2.01,2.19,4.16,4.5,7.37,4.58l8.61-11.07ZM20.26,125.68c13.89,14.89,38.99,18.72,56.59,8.75,10.5-5.95,21.12-18.35,23.07-30.42-24.19,11.27-49.87,10.89-75.42,4.92-2.24-.52-12.29-4.06-13.06-3.93-1.92.32-.99,1.63-.67,2.64,1.55,4.93,6.03,14.33,9.49,18.04Z"/>
      <path class="cls-3" d="M58.55,60.66c-.15.33-2.6.94-1.62,3.35-5.1.9-4.17-6.06-5.51-9.99-1.17-3.42-5.15-8.46-5.49-11.6-.66-6.08,7.94-12.08,5.78-19.7-.71-2.49-5.3-7.12-5.56-9.36-.17-1.49,4.27-13.12,5.29-13.36,1.64-.15,2.25,1.08,2.49,2.49.69,3.91-.67,7.86.67,12.33,1.05,3.48,4.87,6.37,5.31,9.75.69,5.29-3.69,12.34-5.8,17.1,2.34,6.88,7.79,11.52,4.42,18.98Z"/>
      <path class="cls-3" d="M29.44,22.02c1.89-.02,2.41,9.21,2.97,11.02,1.27,4.11,4.61,5.87,4.61,11.47,0,8.05-6.08,8.96-6.95,12.21-.48,1.78,2.04,8.74-.65,9.3-6.34-1.27-8.04-8.36-5.73-13.75.82-1.91,3.1-3.12,4.11-4.88,2.84-4.99-.92-6.09-2.17-10.56-1.55-5.58.29-10.39,3.8-14.8Z"/>
      <path class="cls-3" d="M76.9,28.04c1.65,4.83,4.36,9.31,4.83,14.52.36,4.03-3.41,6.67-3.56,10.13-.15,3.43,7.54,8.79,1.16,12.27-1.95.43-9.9-9.07-10.15-11.6-.41-4.2,4.47-7.48,4.81-9.89.45-3.22-2.4-5.2-2.87-8.21-.55-3.54,1.85-7.82,5.79-7.21Z"/>
      <path class="cls-2" d="M20.26,125.68c-3.46-3.7-7.94-13.1-9.49-18.04-.32-1.02-1.24-2.32.67-2.64.77-.13,10.81,3.4,13.06,3.93,25.54,5.96,51.22,6.35,75.42-4.92-1.96,12.07-12.57,24.47-23.07,30.42-17.61,9.97-42.7,6.14-56.59-8.75Z"/>
      <path class="cls-2" d="M45.44,104.01c-.95-.27-2.01-2.15-1.33-3.31,6.33-7.36,9.69-25.45,22.89-18.09l-7.07,21.39c-3.91-.7-11.14.96-14.5,0Z"/>
      <path class="cls-2" d="M82.84,82.1c.96,1.11-.21,16.46-1.82,18.5-2.31,2.93-9.67,2.44-13.09,2.41-.94-.85,5.59-18.97,6.94-20.55,2.34-2.74,5.01-.72,7.97-.36Z"/>
      <path class="cls-2" d="M46.93,82.01c1.12,1.04-9.86,18.44-12.01,19.52l-10.98-1.54c-.3-1.57.13-2.31.95-3.54.7-1.04,10.23-11.33,11.09-11.91,3.17-2.12,7.21-2.84,10.95-2.54Z"/>
      <path class="cls-2" d="M88.94,98.01c-.12-4.63.85-8.83,1-13.52.05-1.46-.36-1.76,1.51-1.5,2.36.33,8.55,5.26,8.54,7.52-2.03,3.99-6.11,8.08-11.04,7.5Z"/>
      <path class="cls-2" d="M24.94,86.02l-8.61,11.07c-3.22-.08-5.37-2.39-7.37-4.58-.02-1.34,13.41-7.2,15.99-6.49Z"/>
    </g>
  </g>
</svg>