<?xml version="1.0" encoding="UTF-8"?>
<svg id="Layer_2" data-name="Layer 2" xmlns="http://www.w3.org/2000/svg" viewBox="0 0 366.85 341.61">
  <defs>
    <style>
      .cls-1 {
        fill: #d04c31;
      }

      .cls-2 {
        fill: #0c0a0a;
      }

      .cls-3 {
        fill: #f3f2f2;
      }
    </style>
  </defs>
  <g id="Layer_1-2" data-name="Layer 1">
    <path class="cls-3" d="M310.86,191.96c-.1,2.12-.8,4.03-1.96,5.79l4.57.6c-.22-1.48-.23-3.08-.02-4.57l-1.75,1.75,2.16-.87-3.16-2.41c.41,4.63-.4,9.22-2.54,13.36h4.32c-.86-1.18-.83-2.52.28-3.53l-3.93-3.03c-1.5,2.43-2.24,5.21-3.35,7.82-.96,2.26-2.11,4.45-3.39,6.56-2.59,4.27-5.77,8.12-9.4,11.54-7.71,7.26-17.35,12.13-27.62,14.59-6.19,1.48-12.54,2.04-18.9,1.82-2.55-.09-3.3,3.4-1.26,4.66.89.55,1.79,1.1,2.68,1.66l-.51-3.93c-.79.63-1.71,1.09-2.65,1.42-2.57.88-2.28,4.97.66,4.91,1.48-.03,2.96-.06,4.44-.08l-2.16-3.76c-.39.62-.89.98-1.6,1.18-3.11.89-1.81,5.51,1.33,4.82,1.43-.32,2.85-.28,4.27.07l-.6-4.57c-1.56,1.06-3.29,1.83-5.17,2.04-3.16.37-3.27,4.76,0,5,1.44.1,2.85-.03,4.27-.3,2.82-.53,2.09-4.9-.66-4.91h-2.25c.22,1.63.44,3.27.66,4.9,1.77-.35,3.42.18,4.86,1.2l1.93-4.57c-2.89-.49-5.78-.98-8.67-1.47l-.66,4.91c4.04-.36,7.84.88,11.74,1.73s8.17,1.31,12.29,1.63,8.03.74,11.98-.32,7.17-2.97,10.38-5.09c1.03-.68,1.54-1.95,1.02-3.12-.47-1.07-1.75-1.87-2.95-1.45-7.84,2.75-16.06,3.83-24.35,3.22l.66,4.91c3.07-1,6.25-1.03,9.45-1.2,3.44-.18,6.74-.61,9.92-1.99,2-.86,1.37-4.12-.6-4.57-4.09-.94-8.21-1.64-12.37-2.17l.66,4.91c3.52-.9,6.92-2.23,10.14-3.91,2.33-1.22,1.07-4.53-1.26-4.66l-6.26-.36,1.77,4.27c2.11-1.8,4.81-2.98,7.57-3.26l-.66-4.91c-2.07.34-4.66.33-6.44,1.54-2.06,1.4-2.39,4.21-1.4,6.35,2.06,4.44,7.73,4.49,11.36,2.03,3.31-2.25,5.5-6.21,5.36-10.24-.09-2.68-1.76-4.83-4.66-4.28-2.37.45-4.73,1.22-7.06,1.84l1.93,4.57c3.12-1.5,5.81-3.71,8.47-5.9,2.91-2.4,5.93-4.72,8.74-7.23,1.26-1.13,2.28-2.46,2.97-4.01s1.09-3.04,1.77-4.49c1.33-2.83,3.21-5.24,5.58-7.27l-4.27-1.77c-.16,1.65-.32,3.42-1.04,4.94-.81,1.71-2.4,2.45-3.95,3.36-1.86,1.09-3.32,2.44-4.6,4.16-1.15,1.54-2.05,3.26-3.36,4.68-2.18,2.36,1.35,5.91,3.54,3.54,1.52-1.65,2.59-3.59,3.91-5.38s2.91-2.55,4.68-3.64c1.95-1.2,3.48-2.74,4.39-4.86s1.2-4.47,1.42-6.79-2.79-3.03-4.27-1.77c-2.4,2.05-4.45,4.58-5.92,7.38s-1.84,5.99-4.1,8.11c-2.6,2.45-5.52,4.61-8.28,6.88-2.59,2.14-5.17,4.28-8.22,5.75-2.6,1.25-.75,5.27,1.93,4.57,1.19-.31,2.38-.62,3.57-.94.56-.15,1.11-.29,1.67-.44.32-.08.64-.17.95-.25.64-.09.64-.17-.02-.22l-.9-.9c.62.84-.27,3.09-.77,3.98-.75,1.35-1.91,2.52-3.38,3.06-.68.25-1.54.44-2.24.1-.4-.19-.52-.55-.77-.8-.09-.17-.07-.29.04-.37-.33.29-.37.4-.14.33.07.07,1.13-.21,1.2-.22,1.21-.2,2.42-.39,3.63-.59,2.75-.45,2.14-5.2-.66-4.91-4.18.42-7.91,1.99-11.11,4.72-1.76,1.51-.22,4.15,1.77,4.27l6.26.36-1.26-4.66c-2.85,1.49-5.83,2.61-8.95,3.41-1.19.31-1.97,1.55-1.79,2.74.2,1.33,1.18,2,2.46,2.17,3.71.48,7.39,1.16,11.04,1.99l-.6-4.57c-2.71,1.17-5.79,1.23-8.69,1.37-3.19.15-6.43.32-9.49,1.32-2.74.89-2.15,4.7.66,4.91,8.67.64,17.47-.52,25.68-3.4l-1.93-4.57c-2.92,1.93-5.97,3.77-9.4,4.64-3.69.94-7.66.32-11.4,0s-7.49-.78-11.17-1.64c-3.91-.91-7.86-2.01-11.91-1.64-1.24.11-2.3.87-2.46,2.17-.13,1.13.55,2.53,1.79,2.74,2.89.49,5.78.98,8.67,1.47s4.3-2.89,1.93-4.57c-2.55-1.81-5.68-2.3-8.71-1.71-2.81.55-2.1,4.9.66,4.91h2.25c-.22-1.63-.44-3.27-.66-4.9-.98.19-1.95.19-2.94.12v5c2.78-.32,5.37-1.15,7.7-2.73,1.7-1.15,1.61-4.03-.6-4.57-2.32-.57-4.6-.58-6.93-.07l1.33,4.82c1.96-.56,3.5-1.75,4.58-3.47,1-1.6-.3-3.8-2.16-3.76-1.48.03-2.96.06-4.44.08l.66,4.91c1.82-.62,3.36-1.51,4.86-2.7,1.31-1.04.73-3.16-.51-3.93-.89-.55-1.79-1.1-2.68-1.66l-1.26,4.66c11.97.41,24.03-1.95,34.78-7.26,9.62-4.75,17.97-11.99,23.98-20.88,1.67-2.47,3.14-5.07,4.38-7.78,1.33-2.92,2.14-6.15,3.83-8.88,1.54-2.49-1.88-4.89-3.93-3.03-2.61,2.38-3.16,6.71-1.06,9.59,1.03,1.41,3.38,1.82,4.32,0,2.53-4.9,3.71-10.39,3.23-15.89-.13-1.44-1.52-3.07-3.16-2.41l-2.16.87c-.75.3-1.62.85-1.75,1.75-.34,2.46-.34,4.76.02,7.22.34,2.3,3.51,2.19,4.57.6,1.65-2.49,2.51-5.34,2.65-8.31.15-3.22-4.85-3.21-5,0h0Z"/>
    <path class="cls-3" d="M82.57,297.17c-3.03.02-5.61-1.09-8.25-2.46-2.81-1.46-5.61-2.92-8.42-4.37l-1.93,4.57c3.91,1.19,7.43,3.31,11.2,4.86,3.9,1.61,8.04,2.42,12.18,3.2,2.72.51,4.43-3,1.93-4.57-2.72-1.7-5.75-2.9-8.92-3.47l-.66,4.91c3.62-.23,7.21,0,10.76.79l.66-4.91c-3.66.19-7.34.07-10.96-.45-1.33-.19-2.69.33-3.08,1.75-.32,1.17.4,2.88,1.75,3.08,4.08.59,8.17.84,12.29.63,2.69-.14,3.55-4.27.66-4.91-3.97-.88-8.03-1.23-12.09-.97-1.24.08-2.3.89-2.46,2.17-.14,1.14.55,2.52,1.79,2.74,2.78.5,5.33,1.46,7.72,2.96l1.93-4.57c-4.09-.77-8.23-1.53-12.08-3.16s-7.34-3.7-11.29-4.9c-2.68-.81-4.46,3.25-1.93,4.57,3.09,1.61,6.18,3.23,9.28,4.82,3.13,1.6,6.36,2.73,9.91,2.7,3.22-.02,3.22-5.02,0-5h0Z"/>
    <path class="cls-3" d="M70.29,227.82c-3.75,1.67-7.53,3.28-11.23,5.03-3.3,1.56-6.52,3.4-9.19,5.93-5.27,5.01-7.23,12.23-8.32,19.18-.66,4.22-1.75,8.93-.23,13.08.97,2.66,4.69,2.21,4.91-.66.16-2.09.47-4.13.92-6.18l-3.67,1.49c1.73,1.2,2.27,3.49,1.65,5.43h4.82c-.88-2.09-1.16-4.2-.62-6.41l-4.18,1.1c1.86,2.34,3.25,5.05,4.16,7.89.59,1.85,3.64,2.69,4.57.6.63-1.42,1.01-2.85.85-4.42l-4.91.66c.45,1.28.89,2.56,1.34,3.85.66,1.91,3.5,2.62,4.57.6,1.71-3.25,2.21-6.73,1.62-10.34-.26-1.59-2.41-2.28-3.67-1.49-2.92,1.83-1.96,5.46.33,7.37s5.61,2.72,8.42,3.23c6.38,1.15,12.94.6,19.37.34,14.06-.56,28.13-1.21,42.14-2.57,8.03-.78,16.04-1.8,24-3.14,2.8-.47,2.11-4.97-.66-4.91-9.95.22-19.92.44-29.85-.34-4.83-.38-9.64-1.01-14.39-2.01-1.98-.42-4.12-.76-6-1.55-.69-.29-1.43-.68-1.95-1.2-.2-.2-.36-.35-.48-.68.13.39.04-.37.05-.47l-2.5,2.5c10.68-1.24,21.45,1.11,30.6,6.77l1.93-4.57c-9.28-2.51-18.59-4.96-28.19-5.85-2.85-.26-3.32,4.18-.66,4.91,9.96,2.72,19.91,5.44,29.87,8.17l-.6-4.57c-2.04,1.48-4.45,1.97-6.92,2.28-3.05.38-6.11.68-9.18.94-6.18.52-12.37.81-18.57.89-3.25.04-3.18,4.78,0,5,7.31.51,14.62,1.02,21.93,1.52,3.66.25,7.31.51,10.97.76,3.04.21,6.35-.45,6.72-4.04.14-1.36-1.26-2.48-2.5-2.5-10.27-.13-20.54.06-30.8.58v5c14.5-1.4,28.92-3.54,43.19-6.41l-1.93-4.57c-4.3,2.5-9.32,3.01-14.19,3.38-5.91.45-11.83.77-17.75,1.02s-11.78.22-17.61.93-11.04,2.56-16.63,3.78c-3.01.65-6.01.89-9.08.6-3.28-.31-6.51-1.18-9.7-1.99l-.66,4.91c8.96,1.03,17.92,2.06,26.91,2.66,7.95.53,17.04,1.69,24.35-2.24,1.78-.96,1.55-4.21-.6-4.57-9.21-1.54-18.48-1.6-27.71-.21-2.84.43-2.08,4.9.66,4.91,11.4.04,22.79-.5,34.13-1.63,1.24-.12,2.3-.86,2.46-2.17.14-1.2-.56-2.43-1.79-2.74-11.91-3.03-24.24-3.56-36.46-4.02v5c9.77-.75,19.53-1.5,29.3-2.24l-.66-4.91c-5.14,1.5-10.39,2.55-15.71,3.05-1.24.12-2.3.86-2.46,2.17-.13,1.13.55,2.53,1.79,2.74,1.06.19,2.13.37,3.19.56,1.33.23,2.69-.36,3.08-1.75.33-1.21-.41-2.84-1.75-3.08-1.06-.19-2.13-.37-3.19-.56l-.66,4.91c5.77-.55,11.48-1.6,17.04-3.23,2.61-.76,2.24-5.13-.66-4.91-9.77.75-19.53,1.5-29.3,2.24-3.18.24-3.25,4.88,0,5,11.79.45,23.65.92,35.13,3.84l.66-4.91c-11.34,1.13-22.73,1.67-34.13,1.63l.66,4.91c8.28-1.25,16.8-1.17,25.05.21l-.6-4.57c-3.12,1.68-6.68,2.01-10.17,2.03-4.21.02-8.44-.25-12.64-.54-8.66-.61-17.3-1.6-25.92-2.59-2.83-.32-3.35,4.23-.66,4.91,5.9,1.5,11.83,2.83,17.94,2.01,5.73-.77,11.13-2.94,16.81-3.92s12.1-.93,18.12-1.16,12.17-.55,18.25-1c6.08-.45,12.32-1.01,17.7-4.14,2.54-1.48.78-5.12-1.93-4.57-13.84,2.79-27.81,4.88-41.87,6.23-1.34.13-2.5,1.06-2.5,2.5,0,1.3,1.14,2.57,2.5,2.5,10.26-.52,20.53-.72,30.8-.58l-2.5-2.5c.01-.12.45-.89.42-.95,0,0-.31.04-.23.05-.55-.05-1.11,0-1.66-.05-1.58-.11-3.16-.22-4.74-.33-3.16-.22-6.31-.44-9.47-.66-6.31-.44-12.63-.88-18.94-1.32v5c6.53-.08,13.05-.4,19.55-.97,3.13-.27,6.25-.58,9.36-1,2.92-.39,5.85-1.05,8.28-2.81,1.67-1.21,1.63-3.96-.6-4.57-9.96-2.72-19.91-5.44-29.87-8.17l-.66,4.91c9.14.85,18.03,3.28,26.86,5.67,2.76.75,4.33-3.08,1.93-4.57-9.82-6.08-21.65-8.78-33.12-7.45-1.41.16-2.41,1.02-2.5,2.5-.21,3.64,2.88,5.92,5.92,7.12,3.67,1.45,7.86,2.02,11.74,2.62,8.4,1.29,16.89,1.69,25.38,1.71,4.86,0,9.72-.1,14.58-.2l-.66-4.91c-12.52,2.11-25.17,3.35-37.84,4.19-6.29.42-12.58.73-18.88,1.01-6.07.27-12.16.63-18.24.69-3.06.03-6.15-.08-9.15-.76-1.43-.32-2.87-.75-4.2-1.37-.46-.21-.92-.4-1.24-.74.28.29-.41-.44-.27-.37-.09-.15-.1-.18-.03-.06.11.49-.08.94-.57,1.34l-3.67-1.49c.36,2.21-.08,4.51-1.12,6.49l4.57.6c-.45-1.28-.89-2.56-1.34-3.85-.41-1.17-1.47-1.98-2.74-1.79-1.12.17-2.3,1.2-2.17,2.46.07.64.11,1.29-.16,1.9l4.57.6c-1.18-3.72-3.02-7.05-5.44-10.1-1.18-1.49-3.77-.59-4.18,1.1-.74,3.02-.59,6.19.62,9.07.44,1.04,1.21,1.84,2.41,1.84,1.13,0,2.08-.78,2.41-1.84,1.33-4.17-.42-8.62-3.95-11.07-1.29-.9-3.34,0-3.67,1.49-.55,2.47-.91,4.98-1.1,7.51l4.91-.66c-.79-2.17-.6-4.41-.31-6.66.25-1.92.53-3.84.87-5.75.72-3.99,1.73-8.01,3.86-11.5s5.51-5.86,9.14-7.73c4.26-2.19,8.73-4.01,13.11-5.95,1.23-.55,1.52-2.35.9-3.42-.74-1.27-2.18-1.45-3.42-.9h0Z"/>
    <path class="cls-3" d="M133.72,165.05c-.2.01-.15,0,.17-.02.19-.01.37-.02.56-.03.37,0,.75,0,1.12.01.72.02,1.43.05,2.15.02,1.37-.06,2.75-.27,4.07-.63,2.74-.74,5.22-2.12,7.38-3.95.76-.64.88-1.88.52-2.73-.42-.99-1.26-1.41-2.28-1.54.22.03.17.02-.14-.02-.18-.03-.35-.06-.53-.1-.35-.07-.7-.16-1.05-.26-.3-.09-.6-.18-.9-.29-.13-.04-.25-.09-.38-.14.18.08.13.06-.15-.06-1.13-.52-2.17-1.2-3.19-1.92-2.03-1.44-4.05-2.94-6.54-3.48-1.27-.28-2.76.38-3.08,1.75-.29,1.27.38,2.77,1.75,3.08,4.31.97,8.62,1.94,12.92,2.91v-4.82c-.3.08-.61.15-.91.2.56-.08-.38,0-.48,0-.31,0-.61,0-.92-.03-.15-.01-.7-.09-.25-.02-1.22-.2-2.4-.54-3.58-.91-2.47-.77-4.97-1.57-7.58-1.5-1.58.04-2.9,1.57-2.41,3.16.38,1.24,1.04,2.38,2.03,3.23s2.57,1.05,3.54,0c.86-.93,1.06-2.63,0-3.54-.12-.1-.23-.21-.35-.32-.31-.28,0,.07-.12-.13-.08-.13-.16-.27-.23-.41-.18-.36.16.51-.04-.17l-2.41,3.16c.32,0,.63,0,.95.01.1,0,1.04.12.52.04.63.1,1.26.24,1.88.4,1.22.32,2.4.73,3.61,1.09,2.64.79,5.39,1.27,8.11.54,2.32-.62,2.45-4.27,0-4.82-4.31-.97-8.62-1.94-12.92-2.91l-1.33,4.82c.31.07.61.14.9.24.15.05.29.1.44.16-.24-.11-.23-.1.04.02.56.28,1.1.58,1.63.92,1,.65,1.95,1.38,2.93,2.05,2.5,1.72,5.26,2.7,8.27,3.07l-1.77-4.27c-.12.11-.25.21-.38.32.18-.14.16-.12-.08.06-.23.17-.47.33-.71.49-.52.34-1.05.64-1.6.92-.22.11-.44.21-.67.31.39-.17-.47.17-.55.2-.54.19-1.1.35-1.65.49-.28.07-.56.13-.84.18-.12.02-.24.04-.36.06.26-.03.24-.03-.07,0-.57.06-1.15.09-1.72.09-1.56,0-3.04-.09-4.59.17-1.29.22-2.13,1.88-1.75,3.08.45,1.4,1.69,1.98,3.08,1.75h0Z"/>
    <path class="cls-3" d="M150.22,162c19.57-1.69,39.13-3.39,58.7-5.08s38.95-3.37,58.43-5.06c10.39-.9,21.24-1.18,31.16-4.69,1.27-.45,2.12-1.71,1.75-3.08-.34-1.23-1.8-2.2-3.08-1.75-8.61,3.05-17.83,3.48-26.86,4.26-9.69.84-19.38,1.68-29.07,2.52-19.4,1.68-38.8,3.36-58.2,5.04-10.94.95-21.89,1.89-32.83,2.84-1.35.12-2.5,1.07-2.5,2.5,0,1.26,1.15,2.62,2.5,2.5h0Z"/>
    <g>
      <path class="cls-2" d="M366.41,143.27c-.76-.66-1.6-.74-2.53-1.53-1.32-1.13-1.85-2.73-2.43-4.36-1.28-3.64-1.82-7.05-4.09-10.29-2.59-3.69-6.17-4.89-10.3-6.25-3.52-1.16-6.94-3.36-10.63-3.79-3.47.15-7.32-.49-10.63,0-2.67.39-5.76,3.5-7.91,2.88-.06-.02-.15-.1-.27-.24-3.23.33-6.41-.48-9.5-1.61-1.26.15-2.78.3-3.61.66-4.73,2.03-8.83,8.81-9.24,13.85-.27,3.37,3.12,9.34,1.56,11.47-1.62,2.21-44.79,5.21-51.09,5.92-27.91,4.15-55.95,7.01-84,10-8.83.94-19.31,3.47-28,3.01-1.94-.1-1.57.13-1.49-2,3.5-.24,6.99-.67,10.5-1.02.95-.1,3.48.54,2.5-1.47-2.39-4.89-12.44-4.06-13-4.51-.12-.09-.11-2.9,0-2.99.37-.31,5.1,0,6.28.23,3.27.6,5.65,2.81,8.73,3.77-.17-.78.39-2.19-.13-2.84-.32-.4-2.75-.84-3.85-1.67-4.59-3.41-3.33-21.89-12.95-25.05-14.49-4.76-43.26,13.93-42.04,29.95.29,3.81,5.28,12.3,7.97,15.11,2.33,2.44,5.3,3.11,7.22,6.78,3.35,6.41,2.25,29.55,10.49,31.58,3.15.78,9.02-6.16,9.86-8.82,2.25-7.16-3.91-11.96-.54-19.05,3.47-.79,1.31,3.12,2.43,5.06l5.55,9.94c.6-2.95,2.39-5.34,3.29-8.21.95-3.03,1.31-9.03,2.2-10.8,1.35-2.7,12.17-4.4,11.52-9.98-1.7,1.5-2.44,3.53-4.64,4.86-1.36.82-9.74,3.76-10.36,3.14-.1-.1-.13-2.64.05-2.92.26-.4,6.88-1.97,8.92-3.6,1.57-1.26,2.28-3.85,3.66-4.34,1.61-.57,4.02-.87,3.37,1.87,4.9-3.16,12.91-2.09,18.54-3.9,11.73,3.34.04,14.44,4.96,21.89,1.84-1.41,1.36-3.84,2.29-5.71,1.68-3.35,4.74-6.31,5.79-10.3.73-2.79-1.64-4.69.38-6.53,4.27-.45,24.79-4.2,26.61-1.52,2.25,3.32-1.69,7.34-2.33,9.8-1.5,5.81,1.59,8.97,1.6,14.11-3.48,1.6-8.19,5.88-11.82,6.73-2.79.65-5.21-1.71-9.31,1.39-1.86,1.41-2.76,5.26-4.27,6.98-3.68,4.21-39.37,13.88-47.72,17.28-5.53,2.25-16.64,9.52-21.23,9.84-3.66.25-7.02-1.45-10.49-2.09-.48-2.52,1.61-4.24,1.95-6.52.85-5.57-.27-12.8-1.68-18.25l-3.28-7.21c.87,8.4,1.84,15.51-.71,23.8-1.09,3.55-6.61,12.08-1.31,14.71,1.83.91,8.2-.46,7,1.98-2.01,4.11-8.04,4.39-11.51,1.53-2.11-1.74-2.06-4.92-4.83-3.88-3.97,1.49-4.06,5.69-4.65,8.87.75-1.61,8.6.33,10,1.5-1.61,4.66-11.54,1.82-10-1.5-.03.16-.93.64-1.03,1.56-.37,3.26,3.42,4.07,3.03,5.93-.98,4.64-8.31-1.77-8.95-6.03-2.74-18.39,16.34-19.25,17.97-34.94,2.02-19.46-4.1-25.38-12.85-40.18-4.28-7.24-3.39-9.51-1.68-17.35,2.05-9.38,4.85-15.27,4.53-25.49-.28-9.08.25-6.07,3.03-13.94.7-1.98.74-5.63,1.4-6.6,1.37-2.04,20.62-3.2,24.06-2.95,3.67.26,9.85.62,10.28,4.72l1.71,14.28,8.46-18.55c8.56-.88,20.44-.29,26.06-7.94,4.29-5.86-.39-12.93,4.5-18.5,3.75,8.62,9.01,16.01,2.5,24.99,5.36.86,9.18-7.17,9.05-11.46-.17-5.49-4.8-11.21-5.84-16.25-1.96-9.52,4.72-19.24,5.68-28.89.36-3.64.43-7.45-.91-10.89-.11-.89,1.93-.59,2-.51,1.01,1.17,2.92,8.49,3.05,10.45.53,8.07-4.25,15.93-3.01,23.02.83,4.77,11.04,12.7,13.47,18.52,4.47,10.71-2.71,28.49-15.74,26.76-6.03-.8-10.65-5.86-16.76-5.26,2.78,2.5,5.66,2.97,7.55,6.45,2.53,4.66,6.08,27.84,10.05,29.01,1.87.55,4.73-2.02,5.22-3.64.92-3.01-1.12-7.1-.85-10.8.21-2.9,1.96-9.34,4.26-4.22,1.21,2.68-.25,4.88,4.1,3.55,3.4-1.04,4.59-8.57,4.67-11.84,7.41-.2,10.39,3.23,12.69,9.81,3.25,9.31-.94,18.99.37,28.6-.3,1.85-9.76,1.38-11.57,1.58-12.95,1.41-22.64,7.41-25.52-9.46-.21-1.24.88-3.14-1.44-2.51-5.31,1.42-4.47,10.58-4.55,14.96-5.44.89-9.51,1.72-14.97.03.6,2.74,1.45,3.98,4.49,4.09,18.27-2.55,36.49-4.7,54.88-6.22,3.47-1.1.32-9.49,2.06-11.94.69-.97,5.1-1.47,6.84-2.16,2.78-1.09,14.05-6.93,13.6-10.1-1.14-7.98-30.7-20.7-38.88-21.68-.48-1.98,1.03-4.94,3.31-4.82l34.69,15.82c.58-15.83-4.6-32.26-10.81-46.68-11.13-25.83-29.36-48.35-55.92-59.08-2.99-1.21-8.54-1.93-10.63-3.15-1.29-.75-2.61-7.7-4.3-8.11-1.46-.35-4.93-.15-6.33.53-2.08,1.01-2.99,4.81-4.64,5.35-.96.32-7.09.39-7.36.14-1.97-1.79,4.46-7.14.51-6.99-2.68,1.55-3.13,6.12-5.54,7.46-3.18,1.77-11.71,2.63-15.95,4.05-6.01,2.02-11.48,6.04-17.04,7.96-4.86,1.68-9.97,1.88-14.98,4.02-16.97,7.26-30.85,24.54-29.22,43.78l-7.83,20.68c-3.86.58-5.89-3.38-9.51-3.93-7.07-1.08-15.57.39-18,7.92-.51,1.59-.18,4.28-.6,4.89-.26.38-2.31.62-3.21,1.26-15.22,10.95.03,25.27,5.54,37.19,1.42,3.07,7.28,16.19,5.64,18.52-.56.8-4.82,2.13-5.64,4.85-.79,2.66-.43,8.19.94,10.69,1.3,2.37,7.19,5.94,6.44,8.71-.59,2.17-6.14,9.3-7.75,12.24-19.91,36.63-17.19,77.41,23.29,97.07,15.82,7.68,33.69,8.22,50.89,9.61,1.63,1.3-.26,1.77-1.4,2.08-2.19.6-4.3,1.17-6.6.92-.02,1.14-.24,1.99.52,3.02,1.15,1.54,9.38,9.34,11.25,10.93,17.52,14.92,39.42,25.56,62.53,27.67,5.15-.13,10.31-.24,15.45-.59,2.08-.14,4.16-.32,6.24-.5.02-.16.04-.32.06-.48,25.42-3.75,47.21-22.11,59.47-44.03,8.63-15.43,14.78-33.17,14.48-51.02,2.61-.43,1.78.4,2.27,2.18.52,1.9.96,8,1.91,8.65,1.29.88,18.13,2.86,18.82,2.18.57-2.12-1.73-7.82,1.99-7.01-.11,3.44,1.3,5.61,3.34,7.25,2.28-.79,4.58-1.28,6.91-1.65-.33-.1-.66-.22-.98-.36-2.88-1.29-5.83-6.71-6.2-9.83-.4-3.43.36-5.65,1.39-7.52-2.4.54-5.19.29-7.84.53-.97.44-1.98.67-3.01.57-2.65-.27-15.79-5.56-16.46-7.63.77-5.79-1.94-12.33-1.09-17.82.57-3.7,4.02-8.36,4.7-13.29,1.91-13.8-5.73-17.31-6.57-25.98-.17-1.78.95-3.22.84-4.74-.12-1.72-4.44-7.58-6.34-7.39-4.31.42-19.98,12.73-25.64,15.4-3.22,1.51-5.54,3.12-7.02-1.05-2.85-8.03,4.78-10.51,2.77-16.77-.52-1.63-3.49-3.06.68-3.74,7.16-1.16,15.81-.4,23.03-.97,16.55-1.3,33.34-4.12,49.98-5.02,3.82-.21,7.7.16,11.51,0,.19,3.09-.34,6.38.06,9.44.43,3.33,3.06,7.6,2.89,10.99-.19,3.95-4.24,7.15-2.79,11.9,1.04,3.41,9.74,5.07,9.81,8.1.58,3.56-7.81,21.73-6.98,22.57.81.82,2.32.22,3.25-1.25,1.34-2.13,3.51-7.82,4.52-10.47.76-2.02,2.8-10.91,3.29-11.23.23-.15,2.84-.15,2.94-.04,2.01,2.34-4.01,18.57-5.52,21.98-3.93,8.9-9.43,15.98-17.53,21.47-2.1,1.42-11.11,4.94-11.5,5.5-2.1,2.97.69,9.63,3.59,11.52,11.45,7.42,26.67-10.46,31.35-19.56,3.16-6.14,4.59-12.64,7.13-18.87.34-.84.74-2.5,1.44-3.4.48-3.25.94-6.42,1.83-9.68.73-2.66,1.05-5.6,3.45-7.28,3.98-2.77,9.05-2.82,12.88-4.86.03-.05.07-.09.1-.14.34-.42.59-.89.75-1.41.37-1.19.48-.98.34.65,0,.06,0,.1,0,.16.03-.02.06-.04.09-.07,0-.12,0-.22,0-.35,0-.8.05-1.6.13-2.4.12-1.56.25-3.12.57-4.65.83-3.99,2.88-5.12,5.71-7.65,3-2.68,5.88-6.56,7.49-10.27,1.47-3.39,1.91-7.08,3.01-10.61.08-.95.31-1.86.68-2.72.08-.56.38-.96.89-1.21.26-.33.52-.4.8-.25.1-.08.21-.14.33-.15.73-.09,1.43-.24,2.1-.46-.41.03-.81.07-1.15.17-1.69.5-7.6,1.34-7.88,1.63-.35.35-1.21,7.82-1.79,9.71-2.71,8.77-8.66,17.01-18.31,18.21-.82,3.52,2.53,1.21,3.88,2.11.38.25,1.23,3.53,1.16,4.36-.45,5.58-14.06,7.6-18.54,7.6-6.35.01-23.11-3.94-21.31-12.36.96-4.48,3.38-2.87,4.81-3.73,1.24-.74-2.65-5.91-3.21-7.29-2.8-6.9-3.32-19.27,3.85-23.56,1.32-.79,8.72-3.14,9.86-3.14h29.5c2.05,7.94-10.06,14.18-16.41,13.94-4.85-.18-12.62-4.78-17.58-.43-.15,3.56,4.47-1.63,5.99,2,.82,1.96-4.97,2.69-2.99,4.49.69.63,3.96-1.72,5.53-1.96,3.55-.53,10.48-.26,13.18,2.25,1.3,1.2,1.43,4.39,3.28,4.71,1.2-3.1-1.55-5.74-1.89-7.66-.64-3.6,10.36-4.46,12.83-5.9,2.72-1.59,3.58-5.33,5.98-5.99,4.06-1.12,8.9-.12,13.09-.44.03.17.01.3-.01.43.11-.06.22-.12.32-.19.1-.1.19-.21.29-.31-.21-.64-.36-1.29-.44-1.67ZM111.55,199.2c-2.1-7.05-1.47-17.37-4.51-23.49-2.03-4.09-7.88-6.99-10.79-10.21-11.31-12.53-1.68-23.96,9.69-31.31,1.72-1.11,2.94-2.64,5.31-2.19.68,2.64-.99,1.72-1.91,2.55-6.48,5.85-16.21,11.5-13.89,21.74,1.1,4.85,9.6,8.95,12.8,13.19,7.39,9.79,2.38,21.22,4.99,32.5-1.43.24-1.38-1.75-1.69-2.79ZM114.74,160.04c-9.73,1.38-5.69-19.79,2.23-10.77,2.3,2.62,1.77,10.2-2.23,10.77ZM244.25,187c2.55-.27,2.89,1.42,3.06,3.46.39,4.58-1.76,9.93-2.07,14.54-2.14.09-1.88.44-1.99-1.48-.33-5.7,1.59-10.81,1-16.52ZM187.25,218.99c.81.11,2.85-.16,2.99,0,1.04,1.23-3.19,25.38-4.52,26.98-.9,1.08-2.98,1.52-3.47,1.02-1-1.01,5.5-24.19,5-28ZM98.26,225c1.85,1.8,11.52,1.62,12,2,.12.09.11,2.9,0,2.99-.84.72-14.34-.03-12-5ZM100.79,252.04c8.16-2.23,14.34-2.91,22.46-1.04-4.89-2.38-10.66-2.99-16-4,1.05-6.29,5.05-2.69,9-2,3.17-3.66-4.85-.69-4-4.49.06-.28,3.51-3.77,4-4.02,4.35-2.24,6.72,3.2,9,5.81.2.23,4.66,2.36,1.49,2.71-2.58.28-5.55-2.31-7.49,0,.13.02.65.75,1.56.93,2.86.58,6.82.26,9.71,1.3,1.96.71,7.14,6.36,3.38,5.63-3.51-.68-6.93-2.27-10.65-1.87.4.09,1.58,1.22,2.91,1.55,2.09.51,12.54,2.08,13.09,2.46,1.1.77.16,1.77-1.25,2.23-10.82,3.56-25.35,1.5-36.31-1.18-1.34-.33-2.54-.05-3.44-1.56-.36-1.69,1.26-2.1,2.54-2.45ZM135.8,89.95c5.31.32,11.06,2.01,16.45,2.05,2.87,2.43-8.23,4.9-9.49,5-4.06.33-6.64-.85-10-1.01-13.95-.68-27.99-1.51-41.91.11-4.81.56-9.83,2-14.6,2.89-1.62-8.9,8.62-7.38,14.51-7.98,13.78-1.41,31.1-1.91,45.03-1.06ZM95.25,42c-2.97,10.82-13.15,22.17-22.87,27.62-4.27,2.39-6.02,1.78-1.83-1.83,3.91-3.37,9.82-7.01,13.08-10.87,3.1-3.67,5.38-8.84,8.41-12.64.95-1.19,1.11-2.74,3.21-2.28ZM50.79,52.99c.56-1.66-.27-3.57,2.46-2.99.06-.34-.09-.72,0-1,2.94-9.65,15.46-20.06,25.02-23.48,11.41-4.09,20.04-.53,14.38,12.38-3.02,6.9-11.59,18.79-17.37,23.63-11.84,9.9-32.33,14.74-24.48-8.53ZM16.34,162.46c.12-6.61,7.2-4.92,7.91-5.46.85-.64-2.73-18.67-3.52-20.99-2.9-8.56-15.75-19.69-14.51-27.48.93-5.84,6.72-4.6,10.71-2.72,9,4.26,13.92,17.26,16.81,26.18,3.51-4.6-1.14-13.82-3.69-18.3-3.18-5.6-6.49-7.18-9.8-11.16-11.04-13.26,3.81-18.64,14.03-8.07,7.25,7.5,9.75,17.86,12.46,27.53,1.86-1.32,1.44-2.32,1.27-4.2-.76-8.5-4.42-10.55,1.81-18.72,4.05-5.31,16.95-16.19,23.79-13.95,3.59,1.18.76,11.22-.91,13.83-2.92,4.57-9.35,6.55-14.46,7.05.21,2.3,3.36,1.59,3.98,2.02.6.42-2.47,8.1-2.73,9.72-.41,2.53.19,5.47-.43,7.57-.52,1.77-7.22,6.22-5.82,7.68l7.46-5.04c2.46-9.82,3.31-18.5,12.04-24.96,2.42-1.79,8.79-3.2,10.38-.87,2.13,3.11-2.76,12.07-3.62,15.63-.89,3.67-.65,8.23-1.35,11.65-1.28,6.31-4.29,17.87-8.05,22.95-.61.83-1,1.96-2.35,1.64-1.44-.35-.7-3.97-3.5-2.99,1.42,11.24-2.88,20.28-15,21,.33,2.02,2.57.58,3.02,3.46,1.6,10.3-2.2,13.37-12.31,11.31-9.47-1.93-23.81-13.98-23.62-24.32ZM122.51,272.75c-20.7,3.71-59.76,4.42-79.25-3.27-25.22-9.95-30.99-39.1-20.2-62.18,2.97-6.35,9.64-11.52,10.2-18.31,7.41,2.25,12.17,5.22,19.02-.47,6.36-5.28,2.33-9.16,4.48-13.52.92-1.86,4.04-2.94,5.51-4.49,3.61-3.79,3.78-9.35,9-12,.81-.41,2.35-.92,2.96-.49.11.08.31,1.84.81,2.65,10.89,17.44,13.38,33.99,4.71,53.31-4.11,9.16-5.14,6.88-12.41,11.59-7.59,4.91-15.03,10.17-21.07,16.93,4.02,1.6,7.19-4.51,9.63-6.37,2.1-1.61,15.64-9.63,17.36-8.13.46,2.1-1.09,2.26-2.28,3.21-2.87,2.29-6.57,4.18-9.62,6.38-1.77,1.28-10.7,7.29-11.17,7.83-.59.69-3.72,8.02-3.88,9.11-1.5,9.78,6.34,13,14.71,14.21,13.68,1.97,27.16,1.95,40.74,1.24,6.57-.34,14.54.01,20.99-1.01,1.16-.18,2.35-.67,2.51-1.98l-34-7.01c-.23-3.02,2.17-3.08,4.5-3.08,12.26.03,30.76,7.61,43.1,8.01,3.43.11,8.34-3.99,8.4,1.06-8.28,1.91-16.35,5.26-24.74,6.76ZM75.25,254.99c-1.63,1.38-15.52-2.25-18.62-2.89-1.62-.33-3.84.85-3.38-1.6,1.3-1.94,2.31-1.45,4.2-1.28,5.76.53,11.88,2.85,17.8,2.77-.11.81.16,2.85,0,2.99ZM152.4,253.35c-2.05-6.45,4.47-24.79,4.85-32.35-1.76-.1-4.11,1.09-4.8,2.7-1.86,4.38-3.94,15.84-4.95,21.06-.27,1.42-.32,2.82-.25,4.24-3.01,3.57-17.51-14.73-17.03-20.48.12-1.39.93-2.31,2.08-2.98l38.9-14.09c1.31-.41,6.56-.85,7.05-.45,1.94,1.62-4.41,3.28-3.77,4.73l-8.21,36.85c.04,2.68,2.86,2.53,4.98,2.42.28.22-.52,1.28-.99,1.51-2.99,1.5-16.77.28-17.87-3.16ZM220.73,250.98c-1.09,1.84-.02,5.02-1.24,7.76-4.28,9.57-31.37,22.56-42.24,20.26.82,2.09,6.81,5.6,8.66,5.8,1.02.11,7.86-2.96,10.12-3.52,5.26-1.32,11.33-2.6,16.73-2.3,1.33.07,4.95,1.49,5.48,1.01,1.7-1.56-3.96-3.31-5.02-4.47-1.42-1.55-3.31-5.43-.47-6.52,2.85-1.09,2.37,1.31,3.44,2.5,3.22,3.56,9.18,1.51,9.95,4.12,1.24,4.19-4.79,14.4-4.91,19.37-1.07,1.34-1.91.16-1.99-1.48-.16-3.16.12-6.36,0-9.51-10.03,7.29-24.28,9.69-35.68,4.19-3.04-1.47-9.44-7.56-11.81-7.23-.35.05-.77,3.38-3.5,2.04-.25-5.85,4.75-12.9,10.99-12.99-3.46,6.49,4.82,4.92,8.75,3.24,7.53-3.21,17.86-15.06,24.23-20.77,1.62-1.45,8.73-5.84,8.99-7.05.49-2.3-4.09-2.85-4.11-5.24-2.01-1.24-4.76,2.29-6.8,3.36-1.09.57-6.57,2.93-7.05,2.45-.91-3.86,2.13-3.07,4.51-4.99,3.5-2.82,7.79-7.78,7.57-12.5-.28-5.89-4.01-7.66-9.05-9.06-1.17-.32-3.86-.35-4.03-.45-.13-.08-.13-2.91,0-2.99.32-.19,6.52-1.05,7.4-.99,5.15.37,9.75,4.36,10.55,9.53,1.09,7.01-3.14,9.08,2.37,15.14.73.81,2.16,1.02,3.16,2.33,4.88,6.44-3.34,6.17-4.99,8.97ZM217.93,184.17c3.75-2.62,8.1-5.71,12.01-7.99,1.57-.92,7.46-4.5,8.7-4.13,1.73,1.13,2.67,3.29,2.57,5.33-2.43,5.73-6.65,41.33-9.16,43.42-.33.27-7.79,2.17-8.2,2.08-1.99-.44-4.69-7.07-3.5-9.27l5.41-30.59c-2.36,2-6.32,3.29-7.95,6.04-2.22,3.73-4.48,22.15-7.11,22.92-2.83.82-10.46-10.9-10.48-12.48-.04-2.96,14.48-13.05,17.71-15.31ZM316.27,136.52c-1.43,1.17-7.3,2.01-9.73,3.27-1.88.98-2.76,2.93-4.78,3.21-4.46-4.66-3.34-17.83,3.17-19.81,8.61-2.62,15.25,10.13,11.34,13.33ZM336.19,135.94c-6-.65-10.92-1.37-16.94.06-1.26-19.58,20.33-19.56,16.94-.06ZM357.25,138.99c-1.4.63-5.7-1.36-5.99-1-.46.57-.13,7.1-2.49,6-2.06-.97-1.07-3.92-1.66-4.83-1.11-1.7-13.63-.54-7.32-9.14,6.23-8.48,18.92-.97,17.47,8.97Z"/>
      <path class="cls-1" d="M83.25,239c-.03.16-.93.64-1.03,1.56-.37,3.26,3.42,4.07,3.03,5.93-.98,4.64-8.31-1.77-8.95-6.03-2.74-18.39,16.34-19.25,17.97-34.94,2.02-19.46-4.1-25.38-12.85-40.18-4.28-7.24-3.39-9.51-1.68-17.35,2.05-9.38,4.85-15.27,4.53-25.49-.28-9.08.25-6.07,3.03-13.94.7-1.98.74-5.63,1.4-6.6,1.37-2.05,20.62-3.2,24.06-2.95,3.67.26,9.85.62,10.28,4.72l1.7,14.28,8.46-18.55c8.56-.88,20.44-.29,26.06-7.94,4.29-5.86-.39-12.93,4.5-18.5,3.75,8.62,9.01,16.01,2.5,24.99,5.36.86,9.18-7.17,9.05-11.46-.17-5.49-4.8-11.21-5.84-16.25-1.96-9.52,4.72-19.24,5.68-28.89.36-3.64.43-7.45-.91-10.89-.11-.89,1.93-.59,2-.51,1.01,1.17,2.92,8.49,3.05,10.45.53,8.07-4.25,15.93-3.01,23.02.83,4.77,11.04,12.7,13.47,18.52,4.47,10.71-2.71,28.49-15.74,26.76-6.03-.8-10.65-5.86-16.76-5.26,2.78,2.5,5.66,2.97,7.55,6.45,2.53,4.66,6.08,27.84,10.05,29.01,1.87.55,4.73-2.02,5.22-3.64.92-3.01-1.12-7.1-.85-10.8.21-2.9,1.96-9.34,4.26-4.22,1.21,2.68-.25,4.88,4.1,3.55,3.4-1.04,4.59-8.57,4.67-11.84,7.41-.2,10.39,3.23,12.69,9.81,3.25,9.31-.94,18.99.37,28.6-.3,1.85-9.76,1.38-11.57,1.58-12.95,1.41-22.64,7.41-25.52-9.46-.21-1.24.88-3.14-1.44-2.51-5.31,1.42-4.47,10.58-4.55,14.96-5.44.89-9.51,1.72-14.97.03-.17-.78.39-2.19-.13-2.84-.32-.4-2.75-.84-3.85-1.66-4.59-3.41-3.33-21.89-12.95-25.05-14.49-4.76-43.26,13.93-42.04,29.95.29,3.81,5.28,12.3,7.97,15.11,2.33,2.44,5.3,3.11,7.22,6.78,3.35,6.41,2.25,29.55,10.49,31.58,3.15.78,9.02-6.16,9.86-8.82,2.25-7.16-3.91-11.96-.54-19.05,3.47-.79,1.31,3.12,2.43,5.06l5.55,9.94c.6-2.95,2.39-5.34,3.29-8.21.95-3.03,1.31-9.03,2.2-10.8,1.35-2.7,12.17-4.4,11.52-9.98.32-.28.53-.7,1-1,4.9-3.16,12.91-2.09,18.54-3.9,11.73,3.34.04,14.44,4.96,21.89,1.84-1.41,1.36-3.84,2.29-5.71,1.68-3.35,4.74-6.31,5.79-10.3.73-2.79-1.64-4.69.38-6.53,4.27-.45,24.79-4.2,26.61-1.52,2.25,3.32-1.69,7.34-2.33,9.8-1.5,5.81,1.59,8.97,1.6,14.11-3.48,1.6-8.19,5.88-11.82,6.73-2.79.65-5.21-1.71-9.31,1.39-1.86,1.41-2.76,5.26-4.27,6.98-3.68,4.21-39.37,13.88-47.72,17.28-5.53,2.25-16.64,9.52-21.23,9.84-3.66.25-7.02-1.45-10.49-2.09-.48-2.52,1.61-4.24,1.95-6.52.85-5.57-.27-12.8-1.68-18.25l-3.28-7.21c.87,8.4,1.84,15.51-.71,23.8-1.09,3.55-6.61,12.08-1.31,14.71,1.83.91,8.2-.46,7,1.98-2.01,4.11-8.04,4.39-11.51,1.53-2.11-1.74-2.06-4.92-4.83-3.88-3.97,1.49-4.06,5.69-4.65,8.87ZM155.75,102v1c.65-.33.65-.67,0-1Z"/>
      <path class="cls-3" d="M58.25,106c.21,2.3,3.36,1.59,3.98,2.02s-2.47,8.1-2.73,9.72c-.41,2.54.19,5.47-.43,7.57-.52,1.77-7.22,6.22-5.82,7.68l7.46-5.04c2.46-9.82,3.31-18.5,12.04-24.96,2.42-1.79,8.79-3.2,10.38-.87,2.13,3.11-2.76,12.07-3.62,15.63s-.65,8.23-1.35,11.65c-1.28,6.31-4.29,17.87-8.05,22.95-.61.83-1,1.96-2.35,1.64-1.44-.35-.7-3.97-3.5-3,1.42,11.24-2.88,20.28-15,21,.33,2.02,2.57.58,3.02,3.46,1.6,10.3-2.2,13.37-12.31,11.31-9.47-1.92-23.81-13.98-23.62-24.32.12-6.61,7.2-4.92,7.91-5.46.85-.64-2.73-18.67-3.52-20.99-2.9-8.56-15.75-19.69-14.51-27.48.93-5.84,6.72-4.6,10.71-2.72,9,4.26,13.92,17.26,16.81,26.18,3.51-4.61-1.14-13.82-3.69-18.3-3.18-5.6-6.49-7.18-9.8-11.16-11.04-13.26,3.81-18.64,14.03-8.07,7.25,7.5,9.75,17.86,12.46,27.53,1.86-1.32,1.44-2.32,1.27-4.2-.76-8.5-4.42-10.55,1.81-18.72,4.05-5.31,16.95-16.19,23.79-13.95,3.59,1.18.76,11.22-.91,13.83-2.92,4.57-9.35,6.55-14.46,7.05Z"/>
      <path class="cls-3" d="M364.37,146.29c.65-.21,1.27-.5,1.86-.86.02-.13.04-.26.01-.43-4.19.31-9.03-.68-13.09.44-2.4.66-3.25,4.4-5.98,5.99-2.47,1.44-13.46,2.3-12.83,5.9.34,1.92,3.09,4.56,1.89,7.66-1.85-.32-1.98-3.51-3.28-4.71-2.7-2.5-9.63-2.78-13.18-2.25-1.58.24-4.84,2.58-5.53,1.96-1.98-1.8,3.81-2.53,2.99-4.49-1.51-3.63-6.14,1.56-5.99-2,4.96-4.35,12.73.25,17.58.43,6.35.24,18.46-6.01,16.41-13.94h-29.5c-1.13,0-8.53,2.35-9.86,3.14-7.17,4.29-6.65,16.67-3.85,23.56.56,1.38,4.44,6.54,3.21,7.29-1.44.86-3.86-.75-4.81,3.73-1.8,8.41,14.96,12.37,21.31,12.36,4.48,0,18.09-2.03,18.54-7.6.07-.82-.79-4.1-1.16-4.36-1.35-.9-4.7,1.41-3.88-2.11,9.65-1.19,15.6-9.43,18.31-18.21.58-1.89,1.44-9.36,1.79-9.71.28-.29,6.19-1.13,7.88-1.63.33-.1.74-.13,1.15-.17Z"/>
      <path class="cls-3" d="M222.57,239.68c.73.81,2.16,1.02,3.16,2.33,4.88,6.44-3.34,6.17-4.99,8.97-1.09,1.84-.02,5.02-1.24,7.76-4.28,9.57-31.37,22.56-42.24,20.26.82,2.09,6.81,5.6,8.66,5.8,1.02.11,7.86-2.96,10.12-3.52,5.26-1.32,11.33-2.6,16.73-2.3,1.33.07,4.95,1.49,5.48,1.01,1.7-1.56-3.96-3.31-5.02-4.47-1.42-1.55-3.31-5.43-.47-6.52s2.37,1.31,3.44,2.5c3.22,3.56,9.18,1.51,9.95,4.12,1.24,4.19-4.79,14.4-4.91,19.37-1.07,1.34-1.91.16-1.99-1.48-.16-3.16.12-6.36,0-9.51-10.03,7.29-24.28,9.69-35.68,4.19-3.04-1.47-9.44-7.56-11.81-7.23-.35.05-.77,3.38-3.5,2.04-.25-5.85,4.75-12.9,10.99-12.99-3.46,6.49,4.82,4.92,8.75,3.24,7.53-3.21,17.86-15.06,24.23-20.77,1.62-1.45,8.73-5.84,8.99-7.05.49-2.3-4.09-2.85-4.11-5.24-2.01-1.24-4.76,2.29-6.8,3.36-1.09.57-6.57,2.93-7.05,2.45-.91-3.86,2.13-3.07,4.51-4.99,3.5-2.82,7.79-7.78,7.57-12.5-.28-5.89-4.01-7.66-9.05-9.06-1.17-.32-3.86-.35-4.03-.45-.13-.08-.13-2.91,0-2.99.32-.19,6.52-1.05,7.4-.99,5.15.37,9.75,4.36,10.55,9.53,1.09,7.01-3.14,9.08,2.37,15.14Z"/>
      <path class="cls-3" d="M178.25,211c1.94,1.62-4.41,3.28-3.77,4.73l-8.21,36.85c.04,2.68,2.86,2.53,4.97,2.42.28.22-.52,1.28-.99,1.51-2.99,1.5-16.77.28-17.87-3.16-2.05-6.45,4.47-24.79,4.85-32.35-1.76-.1-4.11,1.09-4.8,2.7-1.86,4.38-3.94,15.84-4.95,21.06-.27,1.42-.32,2.82-.25,4.24-3.01,3.57-17.51-14.73-17.03-20.48.12-1.39.93-2.31,2.08-2.98l38.9-14.09c1.31-.41,6.56-.85,7.05-.45Z"/>
      <path class="cls-3" d="M53.25,49c2.94-9.65,15.46-20.06,25.02-23.48,11.41-4.09,20.04-.53,14.38,12.38-3.02,6.9-11.59,18.79-17.37,23.63-11.84,9.9-32.33,14.74-24.48-8.53.56-1.66-.27-3.57,2.46-2.99-.19,1.05-1.53,2.38-1,4,.97.12,2.07-.14,3,0,.11.02.44.9,1.3.81,4.18-.4,10.35-10.94,2.7-9.81-2.15.32-4.1,3.01-6,4ZM78.25,30c-1.83-1.83-12.41,5.2-10.99,8.99,5.47,1.27,11.46-3.34,10.99-8.99ZM75.32,44.92c.1.15,2.93,1.03,3.52,1.07,3.14.25,9.98-7.15,7.96-10.04-3.2-4.58-14.02,5.28-11.48,8.97ZM70.25,51c-4.35-2.12-14.19,6.29-11.55,10.04,3.35,4.76,13.92-5.14,11.55-10.04Z"/>
      <path class="cls-3" d="M232.04,220.8c-.33.27-7.79,2.17-8.2,2.08-1.99-.44-4.69-7.07-3.5-9.27l5.41-30.59c-2.36,2-6.32,3.29-7.95,6.04-2.22,3.73-4.48,22.15-7.11,22.92-2.83.82-10.46-10.9-10.48-12.48-.04-2.96,14.48-13.05,17.71-15.31,3.75-2.62,8.1-5.71,12.01-7.99,1.57-.92,7.46-4.5,8.7-4.13,1.73,1.13,2.67,3.29,2.57,5.33-2.43,5.73-6.65,41.33-9.16,43.42Z"/>
      <path class="cls-3" d="M152.25,92c2.87,2.43-8.23,4.9-9.49,5-4.06.33-6.64-.85-10-1.01-13.95-.68-27.99-1.51-41.91.11-4.81.56-9.83,2-14.6,2.89-1.62-8.9,8.62-7.38,14.51-7.98,13.78-1.41,31.1-1.91,45.03-1.06,5.31.32,11.06,2.01,16.45,2.05Z"/>
      <path class="cls-3" d="M111.25,132c.68,2.64-.99,1.72-1.91,2.55-6.48,5.85-16.21,11.5-13.89,21.74,1.1,4.85,9.6,8.95,12.8,13.19,7.39,9.79,2.38,21.22,4.99,32.5-1.43.24-1.38-1.75-1.69-2.79-2.1-7.05-1.47-17.37-4.51-23.49-2.03-4.09-7.88-6.99-10.79-10.21-11.31-12.53-1.68-23.96,9.69-31.31,1.72-1.11,2.94-2.64,5.31-2.19Z"/>
      <path class="cls-3" d="M304.93,123.19c8.61-2.62,15.25,10.13,11.34,13.33-1.43,1.17-7.3,2.01-9.73,3.27-1.88.98-2.76,2.93-4.78,3.21-4.46-4.66-3.34-17.83,3.17-19.81Z"/>
      <path class="cls-1" d="M123.25,251c.4.09,1.58,1.22,2.91,1.55,2.09.51,12.54,2.08,13.09,2.46,1.1.77.16,1.77-1.25,2.23-10.82,3.56-25.35,1.5-36.31-1.18-1.34-.33-2.54-.05-3.44-1.56-.36-1.69,1.26-2.1,2.54-2.45,8.16-2.23,14.34-2.91,22.46-1.04Z"/>
      <path class="cls-3" d="M336.19,135.94c-6-.65-10.92-1.37-16.94.06-1.26-19.58,20.33-19.56,16.94-.06Z"/>
      <path class="cls-3" d="M357.25,138.99c-1.4.63-5.7-1.36-5.99-1-.46.57-.13,7.1-2.49,6-2.06-.97-1.07-3.92-1.66-4.83-1.11-1.7-13.63-.54-7.32-9.14,6.23-8.48,18.92-.97,17.47,8.97Z"/>
      <path class="cls-3" d="M116.25,245c.92.16,2.08-.16,3,0,.13.02.65.75,1.56.93,2.86.58,6.82.26,9.71,1.3,1.96.71,7.14,6.36,3.38,5.63-3.51-.68-6.93-2.27-10.65-1.87-4.89-2.38-10.66-2.99-16-4,1.05-6.29,5.05-2.69,9-2Z"/>
      <path class="cls-3" d="M95.25,42c-2.97,10.82-13.15,22.17-22.87,27.62-4.27,2.39-6.02,1.78-1.83-1.83,3.91-3.37,9.82-7.01,13.08-10.87s5.38-8.84,8.41-12.64c.95-1.19,1.11-2.74,3.21-2.28Z"/>
      <path class="cls-3" d="M190.25,218.99c1.04,1.23-3.19,25.38-4.52,26.98-.9,1.08-2.98,1.52-3.47,1.02-1-1.01,5.5-24.19,5-28,.81.11,2.85-.16,2.99,0Z"/>
      <path class="cls-3" d="M116.97,149.27c2.3,2.62,1.77,10.2-2.23,10.77-9.73,1.38-5.69-19.79,2.23-10.77Z"/>
      <path class="cls-1" d="M116.25,245c3.17-3.66-4.85-.69-4-4.49.06-.28,3.51-3.77,4-4.02,4.35-2.24,6.72,3.2,9,5.81.2.23,4.66,2.37,1.49,2.71-2.58.28-5.55-2.31-7.49,0-.92-.16-2.08.16-3,0Z"/>
      <path class="cls-3" d="M75.26,252c-.11.81.16,2.85,0,2.99-1.63,1.38-15.52-2.25-18.62-2.89-1.62-.33-3.84.85-3.38-1.6,1.3-1.94,2.31-1.45,4.2-1.28,5.76.53,11.88,2.85,17.8,2.77Z"/>
      <path class="cls-3" d="M148.25,167c-1.7,1.5-2.43,3.53-4.64,4.86-1.36.82-9.74,3.76-10.36,3.14-.1-.1-.13-2.64.05-2.92.26-.4,6.88-1.97,8.92-3.6,1.57-1.26,2.28-3.85,3.66-4.34,1.61-.57,4.02-.87,3.37,1.87-.47.3-.68.72-1,1Z"/>
      <path class="cls-3" d="M245.24,205c-2.14.09-1.88.44-1.99-1.48-.33-5.7,1.59-10.82,1-16.52,2.55-.27,2.89,1.42,3.06,3.46.39,4.58-1.76,9.93-2.07,14.54Z"/>
      <path class="cls-3" d="M110.26,227c.12.09.11,2.9,0,2.99-.84.72-14.34-.03-12-5,1.85,1.8,11.52,1.62,12,2Z"/>
      <path class="cls-3" d="M83.25,239c.75-1.61,8.6.33,10,1.5-1.62,4.66-11.54,1.82-10-1.5Z"/>
      <path class="cls-1" d="M55.25,54c-.93-.14-2.03.12-3,0-.53-1.61.81-2.95,1-4,.06-.34-.09-.72,0-1,1.9-.99,3.85-3.68,6-4,.51,3.76-4.01,5.16-4,9Z"/>
      <path class="cls-2" d="M155.75,102c.65.33.65.67,0,1v-1Z"/>
      <path class="cls-2" d="M70.25,51c2.37,4.9-8.2,14.8-11.55,10.04-2.64-3.75,7.2-12.16,11.55-10.04Z"/>
      <path class="cls-2" d="M75.32,44.92c-2.54-3.69,8.28-13.55,11.48-8.97,2.03,2.9-4.82,10.29-7.96,10.04-.58-.05-3.41-.92-3.52-1.07Z"/>
      <path class="cls-2" d="M78.25,30c.47,5.65-5.53,10.26-10.99,8.99-1.42-3.8,9.16-10.82,10.99-8.99Z"/>
      <path class="cls-2" d="M55.25,54c-.01-3.84,4.51-5.24,4-9,7.66-1.13,1.48,9.42-2.7,9.81-.87.08-1.19-.8-1.3-.81Z"/>
    </g>
  </g>
</svg>