<?xml version="1.0" encoding="UTF-8"?>
<svg id="Layer_2" data-name="Layer 2" xmlns="http://www.w3.org/2000/svg" viewBox="0 0 320.14 564.56">
  <defs>
    <style>
      .cls-1 {
        fill: #9b957c;
      }
    </style>
  </defs>
  <g id="Layer_1-2" data-name="Layer 1">
    <g>
      <path class="cls-1" d="M120.03,474.56c.09-1.66-.57-4.13,1.63-4.86,6.14-2.01,6.46,1.98,6.84,1.86,1.06-.33,1.96-1.73,4.07-1.95,3.49-.37,16.7.9,18.01-.99,1.97-2.83-1.12-23.91.44-29.07l3,.02c-4.59,6.46-.9,3.98.75,5.17,1.44,1.04-.17,3.5,2.72,3.88,4.5.59,5.37.54,6.51-3.57-5.7.79-6.24-3.94-.99-5.49.85,3.89,2.93,6.7,2.01,11-4.49-1.03-5.59-2.64-4.98,3.01,1.81-1.11,2.22-1.35,2,.98,1.93.49,0-2.21,1.98-1.98l1.02,4.99,2.99-8.99v20c0,.11-1.86-.41-2.06.65-.58,2.94.5,7.38,3.57,8.35.57-3.65,2.78-1.35,2.5,1.5-.1.97-3.88-1.22-5-.48,6.07,4.33,1.86,4.56.92,7.43-2.61,8,.3,7.71,6.06,11.56.5-7.71,14.44-4.72,20.46-7.06.87.15,1.87,6.7.56,8.05,5.83-1.07,6.87,2.46,5.01-4.96,4.04-1.42,6.38-1.86,5.77,3.23s-5.34,1.97-9.11,2.76c-.3.06-1.83,3.66-3.67,1.98-.34-.31,2.8-9.01-1.49-7.99-2.69.64-1.49,5.44-1.7,5.76-.68.99-3.14,1.33-3.8,4.75-.22,1.13,4.12-.76,2.99,2.48-3.36-.81-5.71,1.35-8.56,1.95-.93.2-3.73.74-3.43-.94,4.56.45,8.21-4.86,7.98-9.01-1.94-.05-.54,3.08-2.5,3.99-3.05,1.41-1.83-2.07-3.48-1.99l1.98,4.99c-6.04,1.54-2.1-3.02-5.99-2.98l.99,4.99c-3.68-2.61-5.42.67-2.48-4.98l-6.51,1.99,2.99,1.98c-2.41.33-4.99,1.66-5.99,4,1.26.03,11.94-2.46,8.99.99-1.9,2.23-8.15,1.46-4.99,10.01h-4.01s1.01,2,1.01,2c-3.58.89-2.07-1.18-4-1.99l-.02,2.99c2.59-1.39,8.33,1.93,6.02,4-.27.24-2.32-.29-3.3-.02-.81.22-1.46,4.61-1.71.02-1.61-.49-.38,1.54-1.69,1.98-.59.19-6.36,1.16-6.7,1.11-.58-.09-1.67-5.75-1.61,1.91-1.52-.09-2.01-4.55-2.03-5.55-.03-1.58.31-5.64.99-6.81.81-1.4,4.38.83,3.05-4.64,3.46,2.1-.28,6.57,4.98,3.98.44-1.71-1.56-.6-1.92-1.08-.17-.23,1.42-3.64-1.3-4.73-1.07-.43-2.4,1.2-2.77.83-2.02-2.06,3.51-1.65,1.98-4-.17-.27-5,.82-6.34.63-3.7-.53-7.59-2.97-11.65-2.64l1.99-1.98-12-2.02,1-2.99-6.01-.51c4.68-.53,5.98-.12,6-5.5l-2.98,1v-6c8.47,1.31,16.54,3.1,24.98,4l1.02-11c-2.53.56-5.22-1.11-7.49-.96-1.2.08-2.03,1.37-3.61,1.46-3.91.23-3.57-2-5.13-2.82-2.57-1.35-5.42.2-6.78-4.67l3.02-.02c-.63-7.98-1.23-2.43-5.52,0-2.79-2.76,5.22-1.52,2.5-3.99-.3-.27-6.33.83-7.99,1-.24,4.38-4.43,1.5-2.99,0,.98-.08,2.01.09,2.99,0ZM162.03,455.57c-2.63-.5-2.09.57-1.99,2.98h.98s1.01-2.98,1.01-2.98ZM126.53,493.56v1c.65-.33.65-.67,0-1ZM170.03,496.56c-1.38-.31-2.66.54-2.99,1.98h2.99s0-1.98,0-1.98ZM183.02,500.55c.5-4.16-1.48-4.16-.98,0h.98ZM131.52,502.58c-.99.7.54,1.37,1.02,1.96.99-.66-.47-1.32-1.02-1.96ZM135.53,503.56v1c.65-.33.65-.67,0-1ZM184.53,504.56v1c.65-.33.65-.67,0-1ZM166.03,518.56c.21-.21.14-4.86.51-5.99-1.66,2.18-3.95,2.19-6.51,1.98-1.53,1.1,4.32,5.67,5.99,4ZM157.53,514.56v1c.65-.33.65-.67,0-1ZM158.03,526.55c.2-.2-.1-2.18,0-2.99h-.98c.62,3.31-1.86.81-2,.99-1.58,1.92,2.23,2.76,2.99,2ZM154.03,525.56h-2.99s1.01,2.99,1.01,2.99c.41.48,2.63-1.76,1.98-2.99Z"/>
      <path class="cls-1" d="M237.03,472.56c1.17-1.34-1.29-7.98-1.08-9.35.16-1.04,2.98-1.24,3.06-2.14.03-.33-2.79-3.09-1.9-5.88.55-1.73,3.96-2.18,4.92-1.62.22.13-.86,4.27-1,4.98,7.52-2.38,9.22,1.05,4,6.52,3.01.83,1.96,2.71,1.99,5.49-2.42.56-2.15-1.72-3.34-2.71-.53-.44-2.05-.04-2.45-.5-.69-.78.29-3.01-.7-2.78-4.38,1.01-1.18,3.59-1.5,6.99l1.48-1.99c1.58,2.37,8.65,2.47,6.25,5.83-.33.46-2.17-.48-1.74,1.16,4-.57,4.95.12,4,4.35-.23,1.05-2.5-.02-2.01,2.15,7.35,4.86,2.04-3.47,3.01-4.48,2.68.3,3,2.42,6,.99l.99-1.99,11.94,47.45c-.65,3.33-6.26-1.29-6.92,1.54l2.91,2.75c-1,9.53,5.64,4.16,7.93,7.92,1.22,2.01,5.04,20.21,3.94,22.14s-16.06,6.65-10.77-.79c1.63-.42.63,1.43,1.18,1.74.73.42,3.64.42,3.81.25,2.08-1.98-5.94-7.22-8-6l5-3.98c-2.5-2.39-4,2.48-5.99.99-2.53-1.91,2.82-7.99,5.98-6.99l.99,4.99-1-9.99c-1.1,1.45-4.89,2.03-5.9.9-.76-.84,1.02-4.12-1.08-3.9.52,1.32-1.06,4.72-.9,4.91.38.44,2.29-.65,1.88,1.08-2.91,1.4-3.09-2.07-3.49-2-1.17.2.37,2.37-1.49,2.01.02-3.81-2.09-7.11-2.96-10.57-.37-1.47.28-3.34-.03-4.73s-6.43-2.51-1.02-4.16c-3.01-4.05-1.81-10.59-3.04-14.84-.25-.86-1.95-.69-1.99-1.28-.06-1.18,1.79-4.16,1.01-5.42-.2-.32-3.83,2.4-3.71-4.71.03-1.8,1.36-2.75,1.56-4.03s-1.02-3.15-.85-3.26c.69-.45,3.31.96,3-.99-2.89-1.81-4.15-2.67-7.99-2.01l.5,3.99-2-3.01c-1.82,4.92-1.47-.75-6,.29-.19.04-2.81,2.39-3,2.44-3.15.75-6.27.63-9.49.29.82,2.84,1.71,2.88-1.52,4-.83.29.13-2.53-1.47-2-1.92,5.71-1.64,1.51-2.76,1.05-.83-.34-6.03-1.29-6.25-1.07l-2,4c-1.78-5.34,3.43-4.21,4.01-5.01.37-.51-1.17-2.77-1.02-2.98.31-.42,8.57-3.15,10-3.02.03-2.21-3.91-.25-4.89-1.1-.44-.37-1.07-5.65-1.11-6.9l-3.99,5c1.99-2.33-.34-8.19,1.1-9.89.1-.11,1.59.72,1.94.41,1.09-.95.67-2.97,1.08-3.37.86-.82,12.4,1.28,14.43,1.77,1.68.41,2.82,1.31,6.44,2.09.96.21,2.35,1.62,4.01,1.01l-.02,4.98,1.01-6.99c-.97.09-2.06-.14-2.99,0ZM213.02,476.55c.72-1.4-.63-2.67-.98-1.99-.72,1.4.63,2.67.98,1.99ZM223.03,482.56c-.21-1.28.34-2.89-.04-4.25l-3.96-3.74c3.34,5.6-5.41,7.5,4,7.99.43,2.7,1.35,2.58,3.51,3.99l.5-3c7.09-.38,4.67,2.81,5,3,.83.47,4.54-.29,6,0-.32-1.92-2.93-.17-2.02-3.5.09-.32,3.6-.56,2.02-2.49-.23-.28-5.03,1.5-6.98-1.01l-.02,3c-2.6-1.07-5.98.11-7.99,0ZM234.02,477.55c.72-1.4-.63-2.67-.98-1.99-.72,1.4.63,2.67.98,1.99ZM236.53,476.56v1c.65-.33.65-.67,0-1ZM234.53,478.56v1c.65-.33.65-.67,0-1ZM239.53,484.56v1c.65-.33.65-.67,0-1ZM249.02,487.55c.72-1.4-.63-2.67-.98-1.99-.72,1.4.63,2.67.98,1.99ZM266.53,546.56v1c.65-.33.65-.67,0-1ZM263.53,549.56v1c.65-.33.65-.67,0-1ZM268.53,554.56v1c.65-.33.65-.67,0-1Z"/>
      <path class="cls-1" d="M237.03,472.56c-.13.02-.75,2.03-2,1-1.05-.86,1.91-.9,2-1Z"/>
      <path class="cls-1" d="M293.61,339.02c4.5,3.96,2.62.48,4.12-2.2.37-.66,2.42-2.89,3.29-3.26-.02,2.26-.77,4.69-1.79,6.69-.57,1.11-5.75,9.48-6.21,9.84-.66.52-4.49-.15-4.98.47-.21.26,3.14,2.52.49,6.08-.68.91-2.19-.11-2.34.08-7.97,9.67-17.84,20.03-28.65,27.82-2.27,1.64-13.91,7.46-14.36,8.15-.18.27.96,1.76.87,1.84-3.26.51-7.1,1.72-8.5-1.99l-3.5,3c-2.21-3.89,2.5-7.58,2.07-10.43-.16-1.11-2.53.12-2.08-1.56,3.85,1.68,9.75-6.74,10.71-6.99,1.27-.33,3.88.26,4.29-.03.28-.2-1.29-2.79.27-4.69,3.23-3.94,6.41-2.04,6.68-2.31.13-.13.07-2.3.98-3.53,1.19-1.6,4.22-2.38,5.73-3.8,1.38-1.31,4.76-5.94,6.07-6.74,1.59-.97,3.7.34,4.13.01.59-.45,3.79-8.41,4.73-9.84,4.91-7.5,8.84-1.67,9.4-2.09l1.02-6,3.98,2.99.02-6.99c1.77-.11.66,2.29,1.55,3.97.23.43,1.42.96,2.02,1.48ZM290.02,346.55v-3.99h-.98v3.99h.98Z"/>
      <path class="cls-1" d="M86.17,406.42c.97.61,3.5-.08,4.86.13l-1-3.99,3.98-.52c-1.29.99-.56,3.39-1.17,4.3-1.32,1.96-5.13-1.13-2.81,5.22l-1.98-1.02c-1.93,4.8,2.12,6.12,2,6.49-.26.8-1.77,1.8-1.66,3,.08.86,1.7,1.59,1.51,3.75-.22,2.47-2.5,5.57-3.22,7.78-.33,1.02.59,2.65.34,2.9-.49.48-2.8,1.12-5.56,4.01-1.05,1.1-2.78.69-2.4,2.06,2.43-1.46,2.86,10,2.67,11.34-.42,3.02-3.64,8.94-3.69,12.67-3.38-1.75-6.55-4-7.98.51l2.98,2.48-3.99.02c1.35,1.97,2.18,2.94,2.12,5.53-.05,1.74-3.97,1.81-2.11,3.45,1.08.96,4.74-2.75,6.58-3,1.65-.23,3.37.83,4.76.64,2.98-.4,11.42-3.26,13.24-.71,1.33,1.86-.47,3.55-.5,4.65-.02.57,2.05.27,1.93.9-.05.27-2.79,4.37-3.03,4.51-.38.21-4.89-4.13-7.97-.99l-.52-4.01c-4.12.17-4.96,2.47-6.22,2.98-1.59.64-4.83-1.33-4.28,2.03h-.97c.3-4.57-3.82-.31-5.48-.37-.69-.03-5.47-2.37-6.53-3.12,5.1,1.44,3.13-2.75,6.99-.49,1.21-4.47-1.73-3.76-1.94-4.04-1.69-2.21,3.99-1.96,1.94-3.96-.27-.27-5.22,3.79-6.98,3-1.14-1.26,6.8-31.78,8.09-32.89.7-.6,5.33-.21,6.42.88-1.08-3.28.66-2.77.79-3.04.78-1.76-1.81-2.24,2.7-1.95l-7.01-2.57c2.69-5.52,3.16-15.88,6.04-20.69.39-.66,1.98-.65,2.04-1.36.12-1.48-2.88-7.36,1.89-3.59.31.24-.55,1.61,1.04,1.22-.21-2.35.19-2.08,2-.98,1.27-2.74-2.01-3.23-1.98-3.46.09-.82,1.68-3.73,2.5-4.54,1.11.71.77,4.31,1.64,4.86ZM71.03,446.55c.11-.11.69-2.44.52-2.97-4.53,1.26-1.94,4.41-.52,2.97ZM79.03,446.55l-2.99-2.99c-.33,3.25-.26,3.32,2.99,2.99ZM87.02,480.55c.72-1.4-.63-2.67-.98-1.99-.72,1.4.63,2.67.98,1.99ZM93.03,479.57c-1.4-.72-2.67.63-1.99.98,1.4.72,2.67-.63,1.99-.98Z"/>
      <path class="cls-1" d="M130.03,243.56l3,4.99h-4c1.38-1.48-.06-3.52,0-3.99.02-.18.85-.58,1-1Z"/>
      <path class="cls-1" d="M129.03,244.56c-2.41.76-2.2-4.06-3.99-1.99-1.11,1.28,2.23,5.78,1.99,5.99-4.35-2.04-2.5.52-3.96,1.54-2.03,1.4-7.11-1.39-10.37-.57-1.47.37-1.21,3.57-1.68,4.04-2.56,2.57-1.81-3.83-1.98-4.01-.58-.61-6.1,1.24-6-.98,5.07-.61.99-7.31,2-11.01l1,2.99c1.69.46.5-1.9,1.5-2.04,1.38-.2,5.22,2.23,6.18,3.27.31.34-.9,2.61,1.3,2.78.06-4.33,1.38-4.32,5-3l.52-5.99.47,1.98c9.74-2.65.45-3.62-3.99-2,3.82-3.74-2.49-7.29,3.01-9.47-1.05-4.1-3.32-.06-3.02-3.51l-1.98,2.99c-.08-2.42-.13-4.82.25-7.24.64-4.13,7.57-22.03,10.56-23.65,1.08-.58,3.09-.2,4.63-1.2,2.5-1.63.1-4.07,6.55-1.91.7-1.8-.04-9.91,1-10.53,1.23-.75,2.86.7,3,.54.53-.62-.8-4.9,5-4.01.46.41,1.15,11.79.96,12.38-.72,2.25-4,.6-3.94,2.61,8.2-.77,3.75,6.52,4.11,6.93.39.44,2.29-.65,1.88,1.07-4.24,1.35-5.44-3.56-6.02-3.99-.68-.5-3.18,3.42-3.96,2.99.49-1.55-1.58-2-1.69-2.23-2.03-4.25,1.93-1.67,4.67-2.77l-3.99-1,1.99-1.98c-4.07-.22-3.33,2.1-4.6,3.89-1.4,1.97-3.12-.3-1.39,5.1-3.75-.53-3.14.66-2.99,4l1.97-.53c-.05,2.01-2.57,3.53-2.65,3.76-1.43,3.96-1.57,10.18-2.38,14.22-.64,3.22-3.06,6.97-2.43,10.72.33,1.98,2.48,1.68,2.47,2.43,0,1.05-2.02,3.89.55,4.37.53.1,9.26-1.18,10.29-.74.15.07.25,1.38.87,1.74,4.14,2.39,2.62-.3,4.06-.9,2.35-.98,15.28-.3,18.72-.04,1.23.09,3.71-.83,3.5.97l-20.99.02c1.8,1.14,1.53,8.43.99,8.98-.33.34-8.91,1.08-9.5,1.04-4.32-.27-1.64-6.56-2.5-8.03-.05-.09-.9.63-1.99.3-.75-.22-1.53-1.67-1.99-1.3-.22.18.2,1.59-.01,2-.07.13-.93.98-1,1ZM143.53,179.56v1c.65-.33.65-.67,0-1Z"/>
      <path class="cls-1" d="M254.03,135.56c-3.87.8-1.05-4.09-2.15-5.84s-6.64-1.3-3.87,2.35c-1.88,2.26-2.86-2.35-2.92-4.16-.26-8.33,2.22-12.63,4.84-19.15,2.01-5-1.42-7.27,7.1-6.22-2.44-4.35,1.4-4.33,1.48-.01l3.52-.98c.75-3.94-2.68-.52-2.99-.99-1.96-3,5.86-4.12-1.02-4-.32-2.02,1.72-4.69,3.53-5.01.54-.09.4,1.94.9,1.93,1.44-.03,4.35-1.78,6.58-.93.43-1.65-1.77-.47-2.04-1.63-2.05-8.74,15.8-19.17,18.92-14.24,1.49,2.35-1.99,8.53-3,11.04-.26.64-1.38.72-1.8,1.61-.63,1.37-1.3,12.15-5.49,8.11-1.17-1.13.51-2.64-3.58-.88-1.21-5.59,3.14-1.29,3.99-2,1.96-1.65-2.04-2.13-2.08-2.59-.1-1.16,2.24-4.93-.46-5.4-4.24-.75-3.57,4.34-2.45,6.98-4.97-.29-8.86-.33-5.86,5.37,2.63,4.99,6.95,4.97,4.86-1.35l3.01,2.98,1.98-1.99.02,7.99,2.51-1.01c1.72,4.47.03,6.47-2.17,9.88-.54.83-1.9,1.03-2.07,1.33-.15.25-.48,5.6-.28,5.81.24.25,4.68-.38,6.08,1.68,2.43,3.6-1.37,5.92-1.07,6.31.14.17,3.21.48,3.83,1.15.49.54.1,5.04-2.35,4.87-.33.06-1.16-4.37-1.47-.52l6,2.02c-4.57.7-4.85,1.05-5,5.51l1.99-1.02,2.01,4,.5-3.98,2.5,2.5-1.99,1.49c5.82-.15,3.77,4.79,0,7.01.87-2.51-1.47-2.87-1.69-3.26-.4-.7,1.94-1.34-1.84-2.76-2.84,5.48-1.33-1.66-1.52-1.93-.33-.47-5.97-.83-4.97-6.05l5-1.99c-1.78.06-2.86-2.06-4.49-2.05-.44,0-.64,3.79-2.49,2.04-.47-.45-2.82-10.7-4.07-12.41.26-1.49,5.97.07,3.92-5.95-.95-2.79-5.37-1.17-5.85-1.66-.36-.36-1.33-8.42-2.02-9.99-1.94.37-3.63,7.76-4.01,8-.25.16-1.89-1.28-2.82-.89-.28.12-2.6,4.04-4.16,4.39,2.86.72,1.51,2.23,2.33,4.21.16.37,1.69.38,1.67.77-.08,1.79-3.41,3-3.84,4.18-.5,1.39.58,5.64.83,7.34.51-.55,2.72-1.31,2.99-1-1.03,4.87,1.06,11.08.92,15.4-.03.98-1.83,12.36-2.05,12.98-.5,1.46-2.53,1.41-2.75,1.73-.25.37,1.03,2.13.94,3.25-.05.61-1.69.56-1.98,1.39-.58,1.65-.4,4.85-1.3,6.03-.8,1.05-6.4.5-6.77.21-.19-.15,1.63-3.37,1-3.99-.4-.39-2.62.65-3.01-.51-.82-2.45,2.38-.62,2-2.48l-3.97-.5c1.01-1.07,1.32-2.52,2.01-3.77.46-.83,3.82-4.85,3.81-5.2-.09-3.73.92-7.91.72-10.08-.22-2.36-3.72-3.99.45-4.96.05-.92-1.77-.07-2.04-1.12-1.22-4.78,1.35-2.71,3.29-3.39.94-.33.65-1.84,1.2-1.82.73.03,1.81,1.01,2.89.75,1.87-.44,1.49-2.74,1.65-2.92ZM280.53,86.56v1c.65-.33.65-.67,0-1ZM277.53,94.56v1c.65-.33.65-.67,0-1ZM246.02,162.55c.72-1.4-.63-2.67-.98-1.99-.72,1.4.63,2.67.98,1.99ZM251.03,165.56h-1.99s0,3.99,0,3.99c1.99-.53,2.24-2.13,1.98-3.99ZM247.04,171.57l-1-3.01v5.99s.98-1.99.98-1.99l3,.99v-3s-2.98,1.01-2.98,1.01Z"/>
      <path class="cls-1" d="M46.03,250.56c-.9,4.51-3.78,3.67,1,8.99-6.75,1.31-15.62,1.4-21.76,4.77-2.03,1.12-5.15,6.97-6.72,2.23-4.48,4-2.3-.59-6.52,0,.9,6.07-7.6.33-5.52,7.97,2.19-1.71,4.94.27,7.51.04-.46,2.19-4.52.8-4.01,3.98h-.97c.36-3.44-3.08-1.82-3.8-2.31-2.18-1.48-5.53-6.24-5.23-9.17l7.02-.52c.78-4.02-2.85-.02-4-1-2.68-2.27,4.97-1.37,3-3.99l-3.02-.5,3.02-1-3.01-.99c2.18-4.74,6.2-4.08,10.22-5.59.89-.33.81-1.92,1.36-1.93,1.06-.02,2.47,1.17,3.8,1.09.7-.05.66-1.76,1.32-2.06,2.67-1.23,21.4-6.12,23.84-6.06.44.01.97-.15,1.36.13.33,1.23,1.02,2.69,1.09,3.92-2.39-.86-2.31-2.05-2.48-2-1.57.41-4,2.37-3.56,4.48l6.05-.47Z"/>
      <path class="cls-1" d="M46.03,248.56c1.2.43,4.82.76,5.01,1.51.75,2.99-3.12.67-5.01.49.11-.52.04-1.4,0-2Z"/>
      <path class="cls-1" d="M92.04,388.56c4.03-5.38,2.82-2.27,6.63-.12,2.69,1.51,6.83,1.74,6.37,6.12l3.99-2.99c-2.95,4.88,2.63,1.35,3.02,5.99.24.31,2.56-2.11,2.98-2.99l-5.99-2c2.34-.52,4.51.73,6.63.91,1.37.11,3.21-1.03,3.36-.93.27.18.34,3.83,1.65,4.09,1.63.32,4.05-1.11,5.91-1.13,5.37-.07,8.33,2.38,11.39,2.58,4.96.31,10.87-.58,16.06.96-2.36,3.01-5.91-.27-8.99.52.07,2.49,4.68,1.94,4.85,2.16.23.3,1.3,4.63,1.14,4.82-1.64,2.01-2.13-2.03-2.49-2.02-1.86.04-2.02,1.67-3.49,2.03,1.15-2.94-1.92-4.12-4.01-3-.4.22,1.56,7.08-1.17,8.82-1.81,1.13-15.83-.86-18.16-2.03s-.48-3.93-4.66-1.81c-.47-3.41,4.21-1.82,2.99-5.99-4.52.97-1.36-2.5-4.02-6-1.68-.28-.99,2.59-2.54,2.91-.96.2-2.65-1.13-3.85-1.01-.96.1.22,2.51-2.08,2.1-.51-.09-.59-3.12-5.06-3.1-2.44.01-.61,2.33-2.44,2.09l.46-2.99c-2.18-.98-4.55-1.8-5.47.98l4.02.52c-3.93,7.27,5.1,3.25,7.98,8.48-4.32.24-7.06-4.32-11.99-1.98,1.12-5.7-1.97-3.33-2.82-4.14-.46-.44-.24-3.18-.94-4.61-1.55-3.16-5.69-4.28-4.25-9.26,2.89-.11,3.73,2.39,4.49-1.02l.51,3.01ZM144.03,400.57c-2.09-.29-2.28-.1-1.99,1.99l1.99-1.99Z"/>
      <path class="cls-1" d="M290.03,165.56l.5,3.01.5-3.01c6.14,3.09,1.02,10.02,2.06,15.42l-6.05,1.59c-.45,1.68,1.92.46,2.07,1.56.29,1.98-1.66,3.61-1.93,5.18-.87,5.13,2.35,7.5-3.14,13.54-1.78,1.96-6.66,3.2-8.74,6.97-.61,1.11-1.14,7.92-2.3,8.75-.76.55-3.56-3.27-3.94,2.59-.09,1.36,1.13,3.17.96,3.39s-1.48-.19-2,0c.08.99-.07,2.01.01,3l3.99-1.99-2,12-1.99-1.01c1.06,2.38-.48,5.35-.07,7.37.24,1.17,2.5-.02,2.05,1.63l-1.9.45.91,2.55c-3.1.26-4.86-2.61-7.99-.98l5.01,1.5c-1.38,8.64-1.49,5.45-6.53,1.51-.96,1.76,2.21,1.68,2.51,1.99,3.02,3.24-5.08.99-5.88-.13-1.21-1.69,2.15-5-1.33-6.62-2.44-1.14-4.42,2.24-4.77,1.74.09-.81-.2-2.8,0-2.99.53-.54,13.06.99,14.99.99.87-2.71-1.58-1.5-1.98-2.7-1.74-5.32-.67-16.13,4.98-18.29-.41-5.04-1.49-1.26-3.49-5l-4.5,6.99c.38-3.63,1.32-14.03,5.99-13,1.12-2.53-2.07-1.88-2.01-2.48.33-3.58,4.23-1.92,5.13-3.1,1.02-1.34-.08-3.99.35-5.43,2.04-6.92,8.71-16,10.45-24.62.48-2.38-.24-8.09.08-8.36.3-.25,3.04.26,4.27-.04,1.48-.36,1.03-3.53,5.73-3.96ZM285.53,181.56v1c.65-.33.65-.67,0-1ZM286.03,191.55c.25-.25-.14-3.02,0-3.99l-3.98,3.01c-.41,1.65,3.84,1.13,3.99.98ZM267.02,241.55c.72-1.4-.63-2.67-.98-1.99-.72,1.4.63,2.67.98,1.99ZM258.53,245.56v1c.65-.33.65-.67,0-1ZM264.03,249.56c-1.16-1.14-3.22.43-.49,1.99.87.13.56-1.92.49-1.99Z"/>
      <path class="cls-1" d="M291.03,165.56h-1c.59-.05-.32-.67,1,0Z"/>
      <path class="cls-1" d="M204.03,148.56c1.48-4.62,1.88-8.02,2.01-12.99,2.76,1.72.1,6.28,4.98,4.99v-2.99s-2.99,1-2.99,1c.29-3.85-.16-7.24,3.98-5,1.25-5.76-2.94-4.27-6.99-5.49,2.05-1.4,3.55-1.54,3.01-4.5,1.48-.5.73,3.89,2.97,1.99.24-.2,2.7-4.69,2.33-5.78l4.68-4.21c-.33,2.21.55,5.39.02,7.35-.26.96-1.94.58-2,.66-.33.45,1.82,1.81,1.93,3.42s-1.66,7.83-1.91,11.1c-.19,2.47-1.2,1.36-3.02,1.47l3.01,1c-.89,4.9-.88,11.19-.56,16.3.24,3.79,3.73,8.8-1.46,7.73l1.02,5.96c1.66.44.44-1.85,1.6-2.07.94-.17,4.91.68,5.23,1.22,1.74,2.85-2.85,6.24-1.85,9.85,3.88,1.03.48-3.75,2.99-3.99-1.55,3,6.06,5.41,4,7.99-1.76,2.2-2.08-3.06-2.98-1.99-1.55,6.94-12.19-1.99-14.48-5.02-1.71-2.26-8.4-18.17-7.54-18.98.32-.31,2.66.3,3,0,1.94-1.72-2.78-2.53-3-3.53-.09-.4,1.6-4.22,2-5.46-1.15,1.12-3.24-.42-.5-2,.86-.13.57,1.92.5,2ZM217.03,120.57c-1.4-.72-2.67.63-1.99.98,1.4.72,2.67-.63,1.99-.98ZM214.03,149.56l-6.97-.52c.73,3.74,2.19,2.85,3.11,3.64,1.25,1.07.81,1.8.89,1.86.84.57,3.76-4.31,2.97-4.98ZM215.02,175.55l.52-2.97c-1.53,1.02-2.49,3.15-.52,2.97Z"/>
      <path class="cls-1" d="M214.03,104.56c-.14-1.29.19-2.77,0-4,.21,1.28,2.32,1.56,0,4Z"/>
      <path class="cls-1" d="M209.03,102.56c.09-1.57,1.3-3.24,1-5h-3.01c1.78-5.53,4.72-9.77-2.99-10,2.2,3.43-1.24,8.97-3.57,5-.86-1.47.57-3.18.06-4.05-.39-.66-2.22-1.01-2.9-2.05-.77-1.19-3.97-7.18-3.49-7.83.31-.42,2.32.65,1.89-1.06l-3.99-.02c1.05-5.61,5.69-4.36,5.49,1,3.53-5.33-1.41-5.51-2.97-6.98-1.29-1.22-1.76-4.86-4.03-6.01l-.51,2.99c-1.65.17-1.12-2.22-2.5-2.99-2.11-1.17-.84,2.49-2.48,1.99-.63-3.44-3.18-5.81-4.55-8.97-.55-1.27-3.35-10.47-3.45-11.58-.25-2.89,1.26-5.42,0-8.38l3.98-1.06,1.02,7.99c2.24-.37-.04-3.48,3.51-4.02,2.28-.35,5.72,6.84,6.21,8.79.96,3.86.21,7.56,1.27,11.22l-5.48-1.01c-1.73.08.39,4.82,1.47,4.01.09-.06-.26-1.87.64-2.06,2.15-.44,6.49,2.02,9.31.08,1.17,8.82,10.11,12.9,11.08,21.98l-3,.99,3.98.49c-2.8,4.08,1.5,1.93,2.02,2.52,1.93,2.22-2.5,1.52-2,2.99l2.99,1-3.99,2.01c4.48-.78,3.5,2.92,4,6.01-.04-.23-1.07-3.43-1.99-2.99l-1.02,3.48,2-.5,1.01,4.01c-1.87,1.97-3.23-.25-5-1,.28.14,2.95.37,3.01-.5,0-1.01-2.09-.32-3.01-.5Z"/>
      <path class="cls-1" d="M209.03,102.56c-.02.31-.04.98,0,1-.79-.34-2.73.65-3.01-.51-.7-2.92,1.76-.74,3.01-.49Z"/>
      <path class="cls-1" d="M226.03,266.56c.77-.5,4.6-3.01,4.75-3.26.68-1.12-.09-3.14,1.19-4.28.94-.84,6.66.66,7.5.56,1.15-.13-.14-2.53,1.55-2.02l2,4.98,2.02-3.51c-2.46-.36-1.77-3.01-2.11-3.32-.66-.6-2.92.12-4.2-.17-.85-.2-.24-1.76-2.15-2.06-5.06-.81-4.69,2.08-5.17,2.13-3.29.35-10.63-1.43-14.71-.43l-13.66-5.11c3.31-4.08,4.22.5,4.6.55,1.93.25,9.9-.97,9.39-4.05l-2.99-.99,5.99-1-1.99,1.98,4.99,1.01c-2.59-4.27,2.8-3.9,6.51-5.01l1.99,1.01-4.49,2c3.43-2.02.54,3.14,4.98-1.01-1.12,2.7,1.19,5.81,3,4.01.29-.29,1.18-6.68,2.02-8l1,3.99c1.56.05,1.67-2.6,2.1-2.89.35-.24,2.73,1.34,3.89.88l-.99-6.99c1.12-.41,3.61,1.13,3.91.88.45-.38-.66-2.27,1.08-1.88-1.11,4.24,2.46,9.8-.99,12.5,2.88.91,1.66.83,1,3.49,5.77-1.22,3.37,2.22,4.06,2.9.87.86,4.72-1.2,3.93,1.59-1.62,5.67-5.58,3.46-5.87,3.72-.1.09-.29,3.01-1.1,1.8-.36-.53.78-2.4-1-1.99.57,7.25-.8,3.81-1.81,4.23-.76.32-3.95,5.83-8.19,3.77l2.99,1.98c-3.44-1-4.16,3.5-5.62,3.91-.63.18-1.3-.91-1.38-.9,1.72.08,2.93-4.54,3.01-5.99-1.13.43-3.72-1.07-3.91-.9-.44.38.66,2.29-1.08,1.89l-.5-1.99c-1.5,5.16-4.53,1.26-5.5,2ZM226.03,247.57c-1.4-.72-2.67.63-1.99.98,1.4.72,2.67-.63,1.99-.98ZM235.53,249.56v1c.65-.33.65-.67,0-1ZM237.53,250.56v1c.65-.33.65-.67,0-1ZM219.53,251.56v1c.65-.33.65-.67,0-1ZM222.02,253.55c.72-1.4-.63-2.67-.98-1.99-.72,1.4.63,2.67.98,1.99ZM249.03,252.57c-1.4-.72-2.67.63-1.99.98,1.4.72,2.67-.63,1.99-.98ZM244.53,254.56v1c.65-.33.65-.67,0-1ZM251.53,254.56v1c.65-.33.65-.67,0-1ZM251.53,256.56v1c.65-.33.65-.67,0-1ZM241.53,263.56v1c.65-.33.65-.67,0-1Z"/>
      <path class="cls-1" d="M222.03,269.56c-.04.33.05.68,0,1-1.35.83-2.79,1.72-2.01-.49.39-1.1,1.74-.22,2.01-.51Z"/>
      <path class="cls-1" d="M226.03,266.56c1.2,5.1,2.82,1.71,7.01,2.01-1.66,2.6-.33,1.37.99,2.99-1.53.34-3.1,1.64-3.49,1.64-.83,0-2.39-2.18-4.86-1.72-1.21.23-1.04,3.86-3.65,3.07.12-1.28-.21-2.79,0-4,.72-.45,1.5-.7,1.98-1.51l-1.98.51c3-3.25,1.5-1.39,4-3Z"/>
      <path class="cls-1" d="M173.03,27.56c.16-.16,2.38-3.45,1.99-4-.15-.21-4.07,1.41-4.99.99.68-4.96,3.71-1.64,3.99-1.99.18-.23.55-2.79-.73-3.01-6.57-1.12.23-1.95.49-2.19.54-.5.2-2.25,1.27-3.25,1.17-1.1,6.45-3.22,8.23-4.58,3.71-2.83,9.84-9.98,14.81-9.5,4.46.43,4.68,4.01,3.74,7.83-.63,2.55-3.13,7.38-5.78,4.71l.99,2.99c-.51.47-2.62-1.31-2.99-.99-1.91,1.67,2.06,2.18,2.06,2.55.11,4.62-7.6,14.64-5.13,20.36l-6.34,2.05c-2.15-.62-3.39-9.13,1.38-6.45l-4.99-1.52c1.94-2.58-.41-1.71-1.42-3.06s.25-4.06-3.08-2.96c-.61.2-.74,1.97-1.47,2.45-.64.42-1.97-.51-2.03-.43-.2.25,1.58,5-.98,4.99l-3.01-3.99c.7,1.18,3.3-.32,3.99-1ZM187.4,10.15c-.36-.31-.3-.89-.41-.97-2.66-1.77-.6,5.48-.94,6.36l1-2.99c1.29-.58,1.08,4.21,2.98,1.99,1.54-1.8-1.63-3.55-2.63-4.4Z"/>
      <path class="cls-1" d="M224.03,393.56c.17.13-.32,2.29,2.51,3,.99.25-.26-2.49,1.48-2-1.57,2.68,3.95,5.93,2,7.99-.9.96-4.35-2.26-5.99-.99-1.29-2.2,4.06-2.2,1.48-5.02l-8.48,3.03c-.43,1.74,6.29,1.66,3.99,3.98-.38.38-7.41,1.01-9.03,1.48-4.32,1.25-8.32,3.96-12.97,3.52l1.01-2.99c-3.6-1.1-6.41-.47-10.01,0l1,5.99c-3.28-1.52-3.56-4.16-7.99-2.99l4,2c-.82,3.56-6.99,1.46-6.84-1.32.31-5.61,6.93-.1,8.84-1.7.26-.22-1.19-1.93-.87-3.26.26-1.06,2.18-2.12,1.86-2.7-.3-.54-3.98-2.6-4.98-1.02.14-7.79,2.79-3.53,6.37-4.04.71-.1.54-1.76,1.3-1.95,2.27-.54,5.26.48,7.62-.05,1.55-.35,7.42-4.69,12.24-4.95,3.27-.17-.06,2.42.52,3.88.04.1,1.36.67,1.94,1.1-2.03-.34-2.3-.03-2,1.99,1.76.49,1.99-.25,3-.99,2.5-1.86,1.77-3.72,2.04-3.97.79-.75,4.92,1.22,5.96,1.97-1.03-4.86,2.42-1.82,5.99-3,.77,3.19-4.32,2.06-5.99,3Z"/>
      <path class="cls-1" d="M216.03,395.56c-1.12.17-.94-.96-1-1,.72.12,1.09.1,1,1Z"/>
      <path class="cls-1" d="M70.01,337.56c.14.1.25,1.99,1.46,3.02,4.67,4,17.42,10.58,20.39,15.64,2.75,4.69-1.26,2.92-.82,3.83.65,1.34,3.2.86,2.99,2.49-3.66.53-2.65,5.7-7.77,3.34-1.81-.84-.61-3.98-5.22-1.31v-3.02c-.19-.21-3.98,2.4-5-.49-.31-.86,1.44-.3,1.62-.71.37-.87-.7-2.14.89-2.78,1.01-.41-.27,2.5,1.48,1.99l.02-2.99c-4.46.66-7.82-.71-11.53-2.98l-.96,1.97c-1.29-3.67-8.39-6.77-9.6-8.72-.59-.96-.13-6.98.09-7.27,1.74-2.34,1.78,2.62,2.99,1.99-2.73-5.44,2.35-2.19,5.53-2.47.85-.07,2.57-2.13,3.45-1.52ZM64.53,339.56v1c.65-.33.65-.67,0-1ZM73.98,345.62c-3.54-2.49-.28,2.9-.22,3.55.15,1.58-1.1,3.59-.72,5.38,1.6.35.4-1.3,1.73-1.95.97-.47,2.86.13,3.77-1.04l-.02,2.97,3.51-4.97c-.53-.71-6.15-1.58-7.26-2.07s-.69-1.81-.79-1.88ZM84.03,351.56c-1.09-1.09-3.08.9-1.99,1.99s3.08-.9,1.99-1.99Z"/>
      <path class="cls-1" d="M28.03,322.55c.23.2,2-.4,2.73.21.41.34,5.06,8.81,5.26,9.31.91,2.29-3.19,1.21-4.98,2-2.72,1.2-1.1,4.65-.52,4.48,2.03-.58,2.02-2.55,3.5-2.98,1.24,4.06,2.11,8.98-.97,12.5,1.8.04,2.71-.6,4.72.15.26.1,4.03,3.63,4.09,3.9.34,1.42-1.85,6.98-.84,9.43l-4.99-3.5c3.93-.55.35-3.72,1-4.49,1.82-2.14,2.09,3.1,2.98,1.99.25-.32,1.26-3.75,1.01-3.99-6.56,2.15-4.6-1.15-6.51-2-2.16-.97-.82,3.65-3.51,1.52-1.18-.94-7.79-9.49-8.82-11.18-2.04-3.36-9.81-19.7-9.16-22.63,1.79.09,2.08-5.47,3.98-3.71,1.42,1.31-.14,5.74.02,6s3.2-1.99,3.82,2.74c.17,1.29-.97,3.14-.84,3.25.18.16,1.83-.34,2.67.29,1.13.85,1.94,3.52,4.33,3.71.87-2.67-2.81-2.75-2.99-3.02-.43-.67,2.45-2.31,1.99-2.96-.05-.07-1.22.22-1.62-.39-.47-.72-.21-2.01-.62-2.39-1.25-1.14-3.85,1.5-2.74-5.24l1,2.99h.97c-.59-2.86,2.66-1.7,3.02-2,.61-.51-2.49-4.84-.01-4.99.01,2.65,2.35,5.36,2.72,7.63.17,1.03-1.03,3.08-.71,3.36ZM40.02,358.55c.72-1.4-.63-2.67-.98-1.99-.72,1.4.63,2.67.98,1.99Z"/>
      <path class="cls-1" d="M41.03,180.56c-1.76,4.19,1.73,6,1.95,6.71.88,2.78-.89,9.03,2.04,8.29v.97c-3.73.64-2.52,8.26-5.48.02-2.75.82-2.01,2.43-2.84,3.65-.49.72-2.06-.23-1.65,1.33l3.99,1.01.49-2.98c1.28.77,2.21,2.69,1.33,3.88-.33.45-2.25-.58-1.81,1.1,3.03,1.36,2.95-1.99,3.49-2,1.14-.03-.35,2.46,1.49,2l-.5-3.99c1.42.89,3.67,5.08,4.8,5.69s2.89-.03,3.52.48c.42.33,3.34,7.52,6.18,8.34l-2.98.49c-.44,1.65,1.71.48,2.02,1.61,1.22,4.41-6.61,9.07-8.8,3.63-.41-1.02-.05-3-.24-3.26-.11-.14-2.07,1.51-3.56.15-2.12-1.94-4.07-8.35-7.43-9.64l1.98-2.49c-6.83-1.14-8.13-11.22-10.96-16.54l6.95-1.47-2.98,3.5c1.16.55,2.62-1.12,4.02-.09,1.88,1.38-.58,5.38,2.95,4.57-.14-1.11-1.67-2.91-.87-3.89.39-.48,2.29.6,1.86-1.08-5.57-1.47-1.28-2.07-.46-4.04.91-2.18-2.71-6.69,1.46-5.97ZM35.02,195.55c.5-4.16-1.48-4.16-.98,0h.98ZM46.03,206.56h-2.99s0,.98,0,.98l2.98,1.01v-1.99ZM43.53,208.56v1c.65-.33.65-.67,0-1Z"/>
      <path class="cls-1" d="M170.03,185.55c.96.34,4.71.15,5.06.49,1.67,1.64,1.38,16.15,1.04,19.09-.22,1.89-1.99,1.31-1.96,1.87.59,9.26-.3,4.14-4.19,7.98-.87.86-2.74,6.23-3.93,5.56-.67-2.76-3.36-3.26-3.95-6.59-.45-2.57,1.58-9.81,1.92-12.92s-.68-8.24,0-10.76c.26-.95,4.69-5.24,6-2.73l.52-4.98-.52,2.98Z"/>
      <path class="cls-1" d="M310.03,263.56c-.24-.12-.43-1.6-1.58-1.77-2.09-.3-4.44,1.27-7.41-1.25l6.98-3.01-1.98-4.98c1.68-.09.67,2.3,2.93,2.55,1.56.17,3.02-2.2,5.05-1.55l-3.01,3.49c3.03.72,1,1.57,1.34,2.25.13.26,1.5.19,1.66.93.23,1.09-.94,2.83,0,4.31-1.6.29-2.67-.31-4-.99.25.1,1.87,4.71,2.98,3.99-.69-3.3,3.07-1.36,3.94-2.1.47-.4-.17-2.62.08-2.87.1-.11,2.88-.12,2.98-.02.6.58-1.43,14.23-1.63,16.68-.09,1.1.86,3.06.63,3.31-1.85,2.02-2.23-4.13-3.99-1.99-.59.71,1.19,5.03-.99,4.99-.71-4.85,4.11-9.16-3.01-8.01.8-1.93,2.86-.41,2-3.99-8.07-1.65-3.75,3.6-5.06,4.94-.51.52-6.58.81-7.94.05.14,1.39-.32,3.05-.03,4.35.27,1.18,2.44,0,2.01,1.64-6.56,0-2.62-9.69-11.99-6,1.02-1.73,4.33-1.68,0-1.99-2.17-2.47,7.65-4.31,8.99-4.55s2.85.64,2.95.53c.29-.32,1.21-5.57,3.03-6.48l-5.98-2.48c2.1.9,9.87-.47,11-.01ZM319.02,266.55c.5-4.16-1.48-4.16-.98,0h.98ZM298.53,277.56v1c.65-.33.65-.67,0-1Z"/>
      <path class="cls-1" d="M206.45,206.14c2.49,3.12,5.86,11.12,4.38,14.95-.09.24-5.11,2.42.21,1.96,2.68,3.29-6.65,5.89-7,5.5s.59-3.57-2.02-3.5c3.35-.79,1.78-3.57,2.01-6.5-3.96,2.2-2.08-1.52-4.84-.24-.94-4.22-.47-.09-2.15.23-1.35-2.63,2.05-3.3,2.04-3.51-.08-1.68-1.89-3.09-2.02-5.03s1.41-4.27.97-6.46l-3.99.99c-.21-7.68,5.56-5.23,10.05-1.52.87.72,1.58,2.13,2.37,3.12ZM199.53,204.56v1c.65-.33.65-.67,0-1Z"/>
      <path class="cls-1" d="M61.03,485.56c-.18-1.68-2.15-3.44.44-2.95,3.09.59,3.51,2.62,3.73,2.73.17.08,6.42-1.54,2.82,1.21-.39.3-5.99-.66-6.99-.99.38,3.45,1.54,6.01,1,9,4.28-2.08,2.51.56,3.96,1.5,2.33,1.5,7.27-.97,1.53,4.5-2.53-5.39-2.77,3.53-6.49,2.01l3.99,2-2.01,1.5,2.02,3.48c-2.95-.4-3.46.08-3.01,3.01-5.34-.1-6.51-3.21-7.01-8l-1.98,1.01c2.07-4.47-1.05-5.18-1.13-6.46-.2-3.51,2.57-6.88,2.13-10.54l1.98,1.99.02-7.99c1.74.9,3.08,2.36,4.99,3Z"/>
      <path class="cls-1" d="M149.04,137.54c2.14,1.97,1.56-3.48,3.99-1.98,1.61,3.83-5.17,8.74-5.01,4h-.98c.55,3.84-3.06-.3-4.01,2.98,2.48-1.07,8.05,3.02,8.5,2.99.78-.04,1.3-2.77,1.99-3.01,1.01-.34,2.86-.6,2.4,1.41s-2.52,9.43-3.4,10.61c-5.68,7.61-19.14-1.44-8.52-8.5-3.35-.98-2.2-3.04-2.55-3.52-.46-.63-4.24-1.37-2.43-2.97.4-.35,8.16-1.08,9.52-4.01.9.21.27,1.79.49,1.99Z"/>
      <path class="cls-1" d="M54.93,362.69c.15.16.51,2.13,1.11,2.85l-3.01,1c1.56-.09,3.15.9,4.6.93,4.47.09,4.1-3.41,5.41,4.09l1.98-1.01c.55,6-4.33,2.79-4-.99l-1.49,3-1.49-3.01c.16,1.08-.31,2.59-.06,3.46.22.8,15.94,6.24,8.06,10.03l2.99,4.5c-8.63-4.63-15.51-11.54-23.05-17.59-.09-2.66,7.27-9.04,8.95-7.27Z"/>
      <path class="cls-1" d="M164.03,81.56c.18-.16,1.24.03,1.96-.55,1.02-.83.52-2.72,2.03-2.45l1.02,6.48c-2.44,2.51-1.7-3.42-4.01-1.48-.16.13.49,3.85.59,4.02.79,1.35,3.61.92,3.45,5.48-.07,2.04-1.2,3.04-1.48,4.4-.43,2.15,1.88,4.7-2.57,5.1-.31,1.96,2.38.54,3.01,1,.21.15-1.73,3.6-1.02,5-.21.23-3.85-.87-3.99-1.02-2.37-2.53,3.62-1.34,2.99-2.97l-4.99-.02c-.44-1.58,1.36-.63,1.67-1.25.81-1.63.29-3.93,2.31-5.25-.67-.55-3.69.61-3.85.42-1.32-1.58-3.66-12.77-2.12-14.9l1.98,1.98c.05-1.57,1.9-3.03,3.01-3.99h-2.99s0-1.99,0-1.99h2.99s0,1.99,0,1.99Z"/>
      <path class="cls-1" d="M190.03,240.55l-5,.02c.5,3.15,6.15.85,7.01,2,.21.28-.82,5.8-.01,6.99l-1.98-1.01c-.64,9.68-3.78,3.09-6.8,1.03-.84-.57-2.62-.28-3.93-1.31-1.18-.93-6.52-8.18-5.27-9.71,5.26,3.21,12.47-2.52,15.99,1.99ZM184.03,240.57c-4.16-.5-4.16,1.48,0,.98v-.98Z"/>
      <path class="cls-1" d="M56.03,262.56c-1-5.11-5.3.33-6.5-4.01l-3.5,4c-.4-1.65,1.63-.37,2-1.72.25-.93-.3-2.41.11-3.13.76-1.36,6.45-.64,6.39,1.86,2.89-2.18-1.78-4.78,3.5-4.01.32-1.89-1.9-.42-2.81-1.21-.38-.33-.03-1.83-.87-2.72-1.67-1.78-4.21-5.6-4.5-5.85-.9-.78-3.14.69-2.81-1.2,3.35-.69,5.85-1.46,8.94.6.76.5.88,2.28,1.72,2.46,2.92.64,4.93-3.89,5.24,3.5.03.61-2.15-.12-1.84,1.83.35,2.2,3.97,2.83,3.2,6.36l1.72,1.22c-1.37-.07-5.12-1.68-5.99-.99-2.28,1.82,2.59,1.74,1.99,2.98-2.86,1.42-3.14-2.09-3.5-2-.8.19.46,1-2.5,2.01.17.89-.13,2.04,0,3.01l1.99-1.02c-.12,5.38-1.24,7.33-6.99,8-.34-1.94,2.7.07,2-2.48-.32-1.17-2.35.35-2-1.5,5.09.61,4.1-.4,3.99-5.01-1.8-.4-.64,1.63-.99,1.99-.5.51-2.8.17-1.99-1.48.94-1.92,2.92-1.15,3.99-1.52ZM59.53,248.56v1c.65-.33.65-.67,0-1Z"/>
      <path class="cls-1" d="M260.03,278.56c-.64,1.14-2.72,1-3,0,.96-.08,2.03-.06,3,0Z"/>
      <path class="cls-1" d="M246.03,290.56c-.14-.09-.94-2.17-1.61-2.94s-2.34-.95-2.46-1.66c-.88-5.19,9.21-6.12,12.34-8.37,1.48-1.07,6.31-7.55,6.89-7.94.53-.36,2.18.95,3.8.43,1.3-.42,3.3-2.61,4.56-3.51.21-.09,1.99,3.05,2.84,3.65.98.69,2.96-.4,2.65,1.33l-8.99-1.99v3.02c-5.96-2.95-2.49,3.84-1,6.98-1.76.64-3.82-.91-5-.99.3-.53.68-3.96.99-5-1.4.16-4.17,4.36-3.99,5-1.37.11-2.62.88-4,1.01-.85,2.75,1.75,1.92,2.53,2.93,2.35,3.05-4.51,3.56-6.53,3.07l.99,5.99c-.94-.78-3.75-.84-3.99-1,.84.84-.72,3.27-1.99,1.99s1.17-2.83,1.99-1.99Z"/>
      <path class="cls-1" d="M78.04,73.56c.66,1.43-1.2,4.81-1.02,4.99.52.51,5.85-.05,6,2l-8.51-1.97,2.5,2.96c-1.62-.8-2.19,2.88-2.97,2.01-.08-.09.19-1.39-.71-1.99-1.32-.88-3.67-1.94-5.3-1.99l2.99,2.98c-6.19,2.77-3.17-1.07-3.99-2-.28-.32-3.15,1.75-4-.51l4.51-7.47,1.51,5c2.51.02,4.68-1.33,4.5-3.98-5.55,4.96-6.76-1.11-1.51-3.53l-1.99-1.49c4.39.95,8.22,2.92,10.97,6.5l-2.97-1.51ZM73.03,78.57c-1.4-.72-2.67.63-1.99.98,1.4.72,2.67-.63,1.99-.98Z"/>
      <path class="cls-1" d="M196.04,251.56l-1.01,1.98,8,1.02c-.15,2.11-3.4,1.58-3.86,2.13-.67.8.22,3.48-.13,3.86-.27.29-5.98-.6-7.78,1.23-.85.87-.61,2.95-1.49,3.57-.64.45-2.31-.05-2.61.27-.64.68.24,3.54-.11,3.93-.3.34-7.45-.24-9-.02,3.03-5.05,3.48-1.37,7.99-1,.43-1.64-1.74-.46-2.02-1.63-.23-.97-.18-5.86.2-6.24.23-.23,1.58.01,2.42-.5.44-.27.5-1.64.97-1.67,1.49-.08,4.06,2.41,4.41,2.05,1.8-4.03-.55-2.59-.85-3.48-.43-1.27,2.17-7.33,4.87-5.51Z"/>
      <path class="cls-1" d="M46.03,295.56l-2.01,11c-2.18-.91-5.37-.82-7.53-.12-2.3.75-.77,2.15-2.45,2.11-3.54-11.45.93-15.12,11.99-12.99Z"/>
      <path class="cls-1" d="M158.03,54.55c-.77,6.02,1.24,2.68,2.55,3.88,1.91,1.75,5.91,18.4-1.54,15.12l2.99-2.98c-5.57.96-11.33-6.15-8.92-11.21.48-1.02,3.12-1.41,1.92-4.81h2.99Z"/>
      <path class="cls-1" d="M80.94,218.47c-6.63,2.2-9.18,1.1-12.91-4.42,5.62-3.64.97-4.6.98-4.98.25-8.1,15.68,2.08,11.92,9.4Z"/>
      <path class="cls-1" d="M105.03,488.56c.9-.52,3.83-1.29,3.97.49.24,2.92-5.88,4.39-.98,6.51l1-2c-.51,1.27,1.04,4.68.9,4.88-1.14,1.63-5.12,2.37-7.2,1.11s-4.6-2.38-7.88-3.32c-1.56-.45-7.33-1.19-7.82-1.69-2.59-2.62,5.33-1.4,6-1.99l.49-3,6.01,6c.87-3.34,1.6-.88,4.49-1.01.24-.19-2.66-4.86,0-5.99-.62,4.45,1.83,3.79,1,0Z"/>
      <path class="cls-1" d="M105.03,488.56c-.25.14-.92-.16-1,0l.5-.98c.61.11.41.59.5.98Z"/>
      <path class="cls-1" d="M103.15,256.38c.37.34,1.67-.69,2.37-.84-.7,5.83,2.92-2.96,4.51,1.01l-1,3-3.99-.99c-1.04,3.11,2.09,4.23,1.99,4.49-.11.3-4.21,4.39-4.51,4.5-1.79.89-1.4-1.91-1.9-1.91-2.24,0-6.55,1.91-9.58.91-.74-1.86,1.44-2.82,2.62-2.92,2.18-.2,1.27,3.1,2.36,1.92,2.87-3.09-1.42-7.33,6.01-7l-1.99-1.48,2.5-2.5c.93-.31.23,1.47.61,1.82Z"/>
      <path class="cls-1" d="M144.02,202.56c.36.4-.58,3.56,2.02,3.5l-2,1.49,4.99,1.02-2,3.99c3.17-.21,3.35-.33,3.01,3-4.56.08-8.49,1.07-10.79-3.75-1.23-2.57-.22-3.46-.42-4.76-.1-.62-2.72-.2-1.78-2.97.29-.86,6.74-1.77,6.98-1.51Z"/>
      <path class="cls-1" d="M10.03,286.56c.36.35,1.11,8.88,0,9.99l8.99,1.02-2.99,1,2,2.98c-4.33.03-10.07,4.46-7.99-2.99-8.45,3.31-2.38-14.28-.02-12Z"/>
      <path class="cls-1" d="M185.04,472.57c.15.2,3.82-.93,4.99,0-.45,2.83-4.35.51-5,2.49-.29.88,1.97.15,2.05,1.05.32,3.78-1.39,6.54-5.37,5.43-1.6-.45,1.32-1.36-3.18-1.14-.33.02-1.64-3.5-5.49-1.85-.39-3.97,7.35-6.16,7.01-2.01.26.38,5.65-4.6,3.99-6.98,1.96-.31.52,2.39,1,3.01Z"/>
      <path class="cls-1" d="M245.03,177.56c2.95,4.02-14.39,12.7-17.98,7.5,2.34-4.31,8.19-.22,6.98-5.5,4.73,2.48,5.82-4.03,10.99-1.99Z"/>
      <path class="cls-1" d="M66.5,190.1c2.6,3.01,2.44,5.67-1.02,8.43-5.18-1.85-.31-2.01-.45-2.46-.32-1.03-4.19-.57-4.5-3.5-1.2,2.85.95,4.78-3.5,3.99l2-2.5c.33-.9-1.44-.25-1.77-.66-1.08-1.31,3.36-10.1,9.24-3.29Z"/>
      <path class="cls-1" d="M88.03,246.56c-1.55-.23-3.4.17-5,0-1.82-11.54,10.5-5.22,18-7.99v6.99s-4,0-4,0c6.35-10.04-4.38.41-9.51-3.97-.03,1.68.6,3.09.51,4.98,4.82.73,4.26,5.38-1,3.99-.42-.37.96-3.13,1-3.99Z"/>
      <path class="cls-1" d="M69.37,227.28c.05.13,3.43.67,1.66,2.28-.27.25-5.01-2.81-6.98-.99-.43,1.77,1.71.65,1.99.99.56.7-.84,2.94-1.49,2.97-2.93.16-9.23-9.05-8.5-9.98l3.51.03.97,3.96c3.2-2.12,2.41-3.77,1.52-6.99,7.26,1.17,5.33,2.96,7.32,7.72Z"/>
      <path class="cls-1" d="M146.04,216.55c.46-.36,2.85.7,4.1.46s4.53-2.7,4.85-2.44c.2.17.15,1.76,1.01,2.37.64.45,3.42-.47,2.95,1.99-.05.25-2.62,3.95-2.92,4.14-3.31,2.08-13.58-3.7-9.98-6.53ZM155.03,221.57c-1.4-.72-2.67.63-1.99.98,1.4.72,2.67-.63,1.99-.98Z"/>
      <path class="cls-1" d="M89.03,268.56c.65,8.78-.45,4.28-3.35,6.07s-3.29,5.49-3.66,5.93c-.26.31-3.74-2.33-3.98-2.01-.45.59.96,3.32-1,3-2.39-4.9.44-3.51,1.04-4.7.56-1.11.06-2.53.2-2.77,3.04-5.03,6.3.02,6.73-.53l-1.97-4.51,5.97-.49Z"/>
      <path class="cls-1" d="M301.04,308.55c.13.14.65-.04.97,0-1.61-2.37,5.6-2.16,5.9-1.94,1.05.81,2.27,8.26-.91,7.51-1.56-.37-11.51-4.72-10.97-6.06.27-.68,2.05-2.25,2.49-3.5,1.73.68,2.07,3.5,2.52,3.99Z"/>
      <path class="cls-1" d="M235.03,240.57l-12.71,1.53c-2.44.6-6.57-.93-8.56-.39-.75.2-7.17,5.63-7.72,4.85-.58-4.09-.08-5.33,3.75-6.73l25.23.74Z"/>
      <path class="cls-1" d="M108.03,482.56c-.6-.08-1.89.16-2,0-.29-.4.21-7.26-1-9,2.61.19,11.78-2.99,9.99,2.49-.31.94-6.51,2.49-6.99,6.51.64.09,1.34-.06,1.99,0,.28,2.09.1,2.27-1.99,1.99.03-.65-.08-1.35,0-1.99Z"/>
      <path class="cls-1" d="M172.03,247.57c.07,2.18-4.44.41-5,.99-1.07,1.11,1.06,4.8,2,5.99-3.97-.27-7.49,2.66-10.51,4.99-.05-1.04.24-3.5.56-4.23.58-1.34,2.31-.12,1.94-1.74-4.98,2.31-4.97-.83-5.67-1-2.08-.52-5.06.31-7.32-.02-.16-4.88,7.27,1.17,4-4.99,3.16-.72,1.52,2.61,3.39,4.09,2.14,1.7,7.3.68,9.18-1.03,3.08-2.82-1.36-5.18,7.42-3.06Z"/>
      <path class="cls-1" d="M210.02,236.55l-1.98-1.99-.02,3.99c-.25.32-2.59-1.64-3.86-.9-.47.27-2.4,7.29-3.64,3.92-3.2-8.63,5.51-5.39,5.53-12.02,4.43,1.17,3.25,3.33,3.98,7Z"/>
      <path class="cls-1" d="M32.02,182.55c-.57-.59-4.82,2.51-4.98.02,4.35-1.69,5.58-1.28,4-6.01,4.52-2.04,8.16,6.69,5.51,8.99-4.46,3.86-4.11-2.57-4.53-3Z"/>
      <path class="cls-1" d="M78.03,158.56c-.14-.14-4.11.12-1.99-1.99s1.84,1.86,1.99,1.99c1.26,1.09,5.82-2.27,5.99-2-.94,2.98,2.45,8.8.02,10.51-.34.24-4.31,1.31-4.59,1.27-1.43-.2-.61-3.77-3.42-2.78l-.99,4c-1.8-8.67,4.26-3.12,4.98-4,1.02-1.24-.84-5.88-1.99-7Z"/>
      <path class="cls-1" d="M189.77,150.81c2.55,2.56.18,5.15-.75,7.74-1.72.42-.64-1.5-1.07-1.88-.29-.25-2.78,1.29-3.91.88l1.01-8.99c1.22.84,3.9,1.42,4.72,2.25Z"/>
      <path class="cls-1" d="M244.03,218.55c-1.38,5.63,3.55,4.53,4,5.03,1.57,1.74-2.05,3.24-2.01,4.97-1.93.35-.47-2.32-1.04-2.92-.49-.51-4.63.2-5.95-.08,1.99-2.82-.7-1.7-.94-2.02-.96-1.29,4.67-6.29,5.94-4.98Z"/>
      <path class="cls-1" d="M284.35,157.29c.4.43,1.72.19,2.27.62.03,2.03,6.2,2.46,4.4,4.64-.19.23-5.63-.92-5.83-1.14-.14-.15.65-1.59.36-1.89-1.55-1.62-5.04.14-4.53-2.96l-1.98,2.99c.38-1.56-2.08-6.36.51-6.99,3.92-.96,3.71,3.57,4.8,4.74Z"/>
      <path class="cls-1" d="M158.77,121.83c3.28,3.43-.19,3.58-.76,4.42-1.87,2.74.24,4.18-5.97,3.3.81-2.78,3.33-11.28,6.73-7.72Z"/>
      <path class="cls-1" d="M198.84,295.81c.39.59-.1,2.16.34,2.56.84.77,3.18-.73,2.84,1.17-4.16,1.7-7.79.9-11.99,0-.36-1.54,1.38-.71,2.04-1.65s.74-3.09,1.01-3.32c.22-.19,5.59.98,5.75,1.22ZM195.02,298.55c.72-1.4-.63-2.67-.98-1.99-.72,1.4.63,2.67.98,1.99Z"/>
      <path class="cls-1" d="M241.02,292.57c.46,1.71-2.01.41-2.09,1.57s1.34,3.23,1.1,3.41c-4.04-.94-8.77,2.95-11.99-.5,1.87-1.53,4.11,1.74,5.53-.49.43-.68-2.56-3.35,2.46-1-1.8-4.94,1.41-4.26,5-2.98Z"/>
      <path class="cls-1" d="M165.73,551.27c-1.93,2.45-7.74,1.58-10.69,2.28-.22-2.11,2.99-.26,3.91-1.13.27-.26-.24-1.8.76-2.9s4.38-3.5,5.85-2.09l.49-3.86c2.33.72.68,6.44-.31,7.71Z"/>
      <path class="cls-1" d="M169.03,110.56v3.99c-1.74.52-.5-2.43-1.49-1.99-1.41.63-2.67,2.91-5.51,2.01l4,3.98c-10.22,2.15-5.23-8.59,2.99-7.99Z"/>
      <path class="cls-1" d="M91.03,103.56c-1.29-8.26,2.03-5.2,2.9-6.05.81-.79-1.02-4.16,1.09-3.94,1.25,2.03-.14,5.19,0,6.41s2.44-.14,1.99,1.57c-.81.28-3.8.83-3.99,1.03-2.03,2.11,2.53,1.57,1.99,2.98-.93-.11-2.21.22-3,.01-.26-.66.36-1.62-1-2Z"/>
      <path class="cls-1" d="M92.03,105.56c.38.97.33,2.6.92,3.37.21.28,5.33,2.65,5.9,3.79.35.72-2.22,14.4-3.76,15.42-.67.45-2.77-.91-3.05-.59-.21.23.52,2.25-.59,3.1-4.69,3.59-7.21-2.35-.42-3.58-1.44-2.15-.85-5.19-3.98-3.51-1.01-3.58,2.79-.69,2.98-2.99-1.1-.94-3.89.17-3.98,0-.47-.89.08-11.04-.02-13.49-.07-1.72-.95-3.34-1.04-5.06-.19-3.66,2.54-6.62-.96-10.45,1.08-.07,2.25.24,3.32,0,.66-.14,1.03-3.92,2.67-2.01.41.47-1.35,2.7-1,2.98.26.21,6.53,1.2,4,4-.19.22-3.97-1.64-4.98,1.52l1.97.97c-3.79,5.57-2.28,3.6,1.02,4.51.15.96-.37,1.63,1,2ZM87.53,106.56v1c.65-.33.65-.67,0-1Z"/>
      <path class="cls-1" d="M176.03,174.56c.2.22,4.91-.1,5.8,1.21.42.62.18,2.46.74,3.72.84,1.9,3.07,1.58,1.45,5.07-2-1.24-3.25-3.36-5.98-3.01l2.01-1.49c-5.49-2.64-.18-1.3.99-3.49-5.38,1.43-4.62-1.69-5-2.01-.08-.07-1.32.87-1.98.53l1.48-3.52c1.15.23.14,2.61.5,3Z"/>
      <path class="cls-1" d="M88.87,149.35c-.26.24-4.53.67-5.83,3.21l-1-6c1.09.35,1.72.82,2.98.55,2.79-.6,3.18-2.2,5-3.54.05,1.44-.21,4.92-1.15,5.79Z"/>
      <path class="cls-1" d="M164.03,531.56c-1.84,2.96,1.79,4.6.99,7.99l-1-2.99h-.98c-1.21,5.54-5.05-.04-6.99-2.51,5.64,2.1,4.09-1.45,7.98-2.48Z"/>
      <path class="cls-1" d="M71.03,280.56c.16,6.39-4.21,2.14-5,2.98-.46.49.97,3.33-.99,3,2.25-7.73-.19-2.83-4.01-6.98,3.71-1.74,6.3.87,10,.99Z"/>
      <path class="cls-1" d="M167.04,35.55l3.99-.99c-.34,2.04-3.04-.13-.99,2.98h-8.01c1.04-1.17.73-4.48,1.12-4.87.51-.51,3.51.25,4.39-1.1l-.5,3.98Z"/>
      <path class="cls-1" d="M81.89,293.75c.55.41-.76,2.74,3.45,1.12l5.69,3.69-12.99-2.01c-.29-.36,2.45-3.83,3.85-2.8Z"/>
      <path class="cls-1" d="M83.03,492.55c-.4.36-7.79-1.23-7.99-2.98,3.47,1.22,5.18-3.14,5.49-3.01,2.12.9,2.29,3.99,2.5,5.99Z"/>
      <path class="cls-1" d="M161.03,556.56c.14.14.11,3.73-.07,3.92-.2.22-4.88.57-5.92,1.07-1.46-3.27,4.54-6.48,5.99-4.99Z"/>
      <path class="cls-1" d="M50.03,541.56c.49-.63,3.28-3.87,3.51-3.99,2.16-1.12.8,2.48,2.48,1.99l2-3.99c-1.28,3.12-1.28,7.54-2.01,10.31-.27,1.03-3.3.05-.97,4.68-.4.43-4.88.35-6.07.65-3.92,1-5.29,4.04-7.93-.64,2.23.82,3.77.67,5.99-.02-1.13-1.15-3.52-7.36-3-7.98,2.31-2.71,1.28,4.82,3.99,2.99l.11-2.54c2.89,1.64,1.55-1,1.9-1.45-.83.84-9.47-.87-7-2.99.32-.28,3.06.74,3.49-2.01.96.91,5.38,3.13,3.51,5Z"/>
      <path class="cls-1" d="M192.15,287.4c.29.25,1.7-.9,1.83-.81.55.37,1.31,5.7,1.05,6.96-3.28-.1-5.32-5.71-3.98-7.99,1.7-.42.61,1.4,1.1,1.84Z"/>
      <path class="cls-1" d="M287.92,255.68c.18.15,1.65,4.15,1.67,4.38.41,3.35-2.3,2.07-3.83,2.49-1.35.37-.07,2.4-1.72,2l-.51-3.01-1.49,2.01.47-3.97c1.79,1.56,3.54.33,5.52-.03l-4.99-2.47c.69-1.44,3.99-2.17,4.88-1.39Z"/>
      <path class="cls-1" d="M237.75,435.89c.26.12.25,1.48.96,1.65,1.6.38,5.2-.99,5.31,1.01-1.69.18-7.23,1.1-8.4.85-2.53-.55-2.84-5.76,2.13-3.51Z"/>
      <path class="cls-1" d="M171.03,398.57c-2.47,8.5-10.98,1.2-4.49,0,1.41-.26,3.04.09,4.49,0Z"/>
      <path class="cls-1" d="M94.65,293.96c7.12,3.18-2.66,6.23-5.61-.39,2.4-.7,3.41-.59,5.61.39Z"/>
      <path class="cls-1" d="M246.04,448.57c-1.92,2.54.63,1.6,1.34,3.25,1.05,2.41.1,5.82-3.34,4.73-.45-1.65,1.77-.59,2.02-1.48,1.1-3.83-2.37-2-2.89-2.6-1.25-1.44-.23-5.42,2.87-3.9Z"/>
      <path class="cls-1" d="M207.46,486.13c.69.71,1.92-.04,1.56,1.41-3.42-.81-3.41,2.28-4.13,2.86-.23.19-4.41-1.52-5.86-.86,1.25-2.85,7.28-1.17,7.01-4.98h.96c-.07.58.04,1.14.45,1.57Z"/>
      <path class="cls-1" d="M40.02,166.55v6.01c-3.06-2.1-.97.67-2.98.99-.16-4.52-2.81-6.46,2.98-7Z"/>
      <path class="cls-1" d="M76.03,375.55c-1.08.18-3.31-.43-3.95.1s1.24,3.79-2.04,2.9c.89-2.43-1.08-3.68,1.99-4.48l-2.98-3.01c2.57.31,5.86,2.08,6.98,4.5Z"/>
      <path class="cls-1" d="M83.01,248.56l3.03,5.51-3.96.43c.01-2.42-2.94-6.71.92-5.94Z"/>
      <path class="cls-1" d="M207.03,120.55c-1.67,1.73-2.91-2.4-2.92-3.56-.02-2.89,1.67-6.21.93-9.43l1.99,12.99Z"/>
      <path class="cls-1" d="M82.03,291.55c-.13.16-3.75,1.24-3.99,1,2.2-3.78-2.22-2.47-.99-6.99.87.77,5.81,4.95,4.99,5.99Z"/>
      <path class="cls-1" d="M102.04,250.55c-.28.29-6.88.22-8-.49,3.31-.76,4.24-4.94,5.49-.51l2.49-2.99c-.14.97.25,3.74.01,3.99Z"/>
      <path class="cls-1" d="M196.04,286.55c-2.46-1.92,6.79-4.9,7.97-1.5l-7.97,1.5Z"/>
      <polygon class="cls-1" points="98.03 290.55 94.04 288.56 93.04 292.56 93.04 286.56 98.03 290.55"/>
      <path class="cls-1" d="M178.03,159.56c-.35-.35-3.01-.23-3-1.99,3.71-1.05,2.81,1.86,3,1.99.45.3,3.44-.22,3.98,1.52,1.08,3.51-4.06,4.4-3.99,2.98,3.15.47.62-3.89.01-4.5Z"/>
      <path class="cls-1" d="M154.03,284.57c.22,1.8-2.26.88-3.49.97-2.64.2-11.31,1.66-9.02-1.96l12.51.99Z"/>
      <path class="cls-1" d="M213.03,107.56c.55,7.67-1.93,2.32-5.99,1.99l5.99-1.99Z"/>
      <path class="cls-1" d="M61.94,290.64l3.09,3.91c-4.82,1.22-9.84-1.41-3.09-3.91Z"/>
      <path class="cls-1" d="M51.84,526.79c.72.42,3.35,4.92.68,5.76-1.23-.32.24-2.58-1.01-3-2.44-.83-.61,2.39-2.48,2,.78-2.48-1.16-7.04,2.8-4.76Z"/>
      <path class="cls-1" d="M281.03,247.55c-2.46-.64-5.04-.51-7.51-.92-1.88-.31-2.94.79-2.48-2.07,3.04,1.53,8.26-.32,9.99,2.99Z"/>
      <path class="cls-1" d="M233.03,419.55c-1.08.08-2.3-.27-3.33-.02-1.25.31,0,2.44-1.66,2.02l-.99-4.51c2.48-.05,2.48,1.55,3.47-1.49l2.51,3.99Z"/>
      <path class="cls-1" d="M101.03,476.56c.23,4.17-1.31,5.1-4.99,5.99l4.99-5.99Z"/>
      <path class="cls-1" d="M49.03,357.55c.67.67-1.05,3.51-1.07,4.44-.02,1.08,2.52-.15,2.06,1.55-5.75.69-2.26-3.29-3.97-6.5.1-.3,2.87.4,2.98.51Z"/>
      <path class="cls-1" d="M8.01,277.57l3.02,3.98-4.52.98c.24-2.34-1.93-5.78,1.5-4.96Z"/>
      <path class="cls-1" d="M42.03,542.51c-.11.11-2.22.36-2.99,1.05l1-6.99c1.2-.06,2.2,5.72,1.98,5.95Z"/>
      <path class="cls-1" d="M194.02,197.57c.41,1.73-1.48.63-1.88,1.07-.26.28,2.44,4.76-.1,4.91,1.46-4.57-2.67-3.58-3-6.99l4.99,1.01Z"/>
      <path class="cls-1" d="M166.03,407.57c-1.02,2.6-5.77,1.9-7.99,1.98l7.99-1.98Z"/>
      <path class="cls-1" d="M196.03,472.56c-.21,4.43-2.93,2.14-4.99.98l4.99-.98Z"/>
      <path class="cls-1" d="M96.03,246.55c-5.17.67-5.85-1.52-1.01-2.99l1.01,2.99Z"/>
      <path class="cls-1" d="M68.03,97.56c-.14-.4-1.15-1.9-1.01-1.99,2.74.17,4.34-1.2,4.01,1.99-.74.25-2.17-.22-3,0Z"/>
      <path class="cls-1" d="M71.03,97.56c.46-.15,1.42-2.54,3-2.01.63-1.15-5.73-2.71-1.51-2.98,4.15,2.76.23,7.37,6.52,5.99-1.63,3.41-2.5,14.5-5.51,15.99l-2.48-1.99c-.5,5.71-3.65,4.28-8.01,5.01.33,2.08,4.8-.39,5.99,1,1.66,1.95-2.35,2.1-2.84,3.62-.56,1.7-.06,3.75-.93,6.1-1.02,2.77-11.77,16.16-14.36,17.67-1.07.62-2.78.51-2.88.61-.21.22,1.4,2.22.93,2.84-1.7,2.25-1.53,1.18-3.49,5.08-2.41,4.78-2.51-.18-3.93-.92-1.52-.79-2.2,4.85-5.47.49.87-.86,2.07,1.36,3.05-.03,2.21-3.15,3.51-6.76-2.08-5.46-1.41-6.69,5.93-9.96,9.02-13.78,3.36-4.17,17.58-23.24,18.79-26.37.2-.51-.86-1.9-.6-3.11.44-2.04,2.1-3.84,1.49-6.5.38-1.47,1.45-1.01,2.32-1.24.24.7.88,2.26.89,2.55.04,1.03-2.34-.32-1.89,1.44,3.24.79,3.69-1.14,4-3.99Z"/>
      <path class="cls-1" d="M254.03,474.56c1.81,2.07-1.78,5.03-3.97,1.49,2.16,1.18,2.43-3.26,3.97-1.49Z"/>
      <path class="cls-1" d="M162.01,217.58c.15.09,1.28,2.38,2.02,2.97-4.74,1.06-4.89-4.75-2.02-2.97Z"/>
      <path class="cls-1" d="M281.03,259.57c.16.19-.06,1.37,0,1.98-8.31-1.86-2-4.43,0-1.98Z"/>
      <path class="cls-1" d="M63.03,263.57c-.53,1.99-2.13,2.25-4,1.98.53-1.99,2.13-2.25,4-1.98Z"/>
      <path class="cls-1" d="M44.03,348.57c1.53,1.87-1.86,3.16-2.99.47-.99-2.37,2.84-.65,2.99-.47Z"/>
      <path class="cls-1" d="M171.03,285.56c-.1-.06.06-.66,0-1,1.64,0,.74,1.41,0,1Z"/>
      <path class="cls-1" d="M128.03,292.56c-1.27,3.69-2.33,1.31-3.01,2.01-.2.2,1.6,2.55-2.01,4.42-1.41.73-13.84-.03-15.36-.55-1.89-.65-1.35-3.57-2.61-4.41-1.43-.95-4.58.52-4.02-2.46l-1.97,1.99c-.34-3.71-.36-6.3,4-6.01l-3.01-4.98c3.31,0,8.51-.11,9.01,3.98,1.77.42.64-1.68.99-2,.29-.26,3.54,3.2,4.99,2,1.28-1.06-2.75-3.21-2.97-4.5,5.51.3,12.46-14.42,17.41-13.55.99.17.43,1.91.57,2.06-2.47-1.05-5.39,3.65.99,4,.47-.65-.54-3.81-.99-4,.1.11,1.22-.27,1.69.33s.09,2,.53,2.45c.87.9,3.57-1,2.77,2.21l-2.94-.5c1.67,1.8-.2,1.05-.81,2.02-.11.18.79,1.23.68,1.38-.57.79-2.07-.91-3.92,3.09.15-.28,2.5-1.4,3-.99-.46,4.17-4.37,3.54-3,.99-1.01,2.19-1.47,4.2-1.51,6.98,4.86-2.58,6.16,3.43,5.52-4.97,1.68-.45.45,1.93,1.59,2.08,1.61.22,4.35-1.69,6.41-1.08-1.74,2.26,4.72,5.37-2,4.98l1.99-1.98c-3.88-.78-2.67,1.13-3.99,3.98.63.53,5.89-3.05,4,2l4.01-.98-.5,2c3.18.24,3.6-6.92,5.76-7.7,2.83-1.03,6.76,1.88,7.73-.81.35-.97-2.36-.02-2-.99,2.14-2.83,2.48-5.12,6.51-2.53-2.02-5,2.86-4.97,6-7.96l-3.02,5.96c2.17-2.36,5.44-3.02,8.5-2.99.5-1.48-3.88-.72-1.98-2.97.08-.1,1.36-.33,2.34-1.15.49-.41.59-1.7,1.19-1.91,3.31-1.14,2.17,1.62,2.46,2.04-.89.24-2.31-.69-1.99.99,1.25-.31,3.66,2.35,3.98,2.01,1.4-1.46-1.29-2.01-1.99-3,3.04-.82,5.84-6.31,4.51-.24-4.12-1.96.62,3.97.48,4.22-.08.15-2.53,2-2.69,2.02-2.09.31-3.57-1.88-5.8,2-3.93-5.46-3.22-.91-2.49,3-.46,0-.78-.02-.98.5.02.63.95.45.98.5,3.08,4.89,3.62,2.02,7.52,1.98,4.92-.04,4.24,2.85,4.5,3.01.67.42,2.38-2.83,3.98-1.98l-1,7.99c-1.27-.55-8.35-2.66-8.99-2-.46.48.96,3.33-.99,3,.49-1.9-1.86-1.71-2.02-2.5-.56-2.65,2.28-.48,2-2.48-4.73.77-2.38-4.81-7.98-5.01l.97,4.51c-6.23-2.05-1.08,4.37-2.4,6.5s-7.67,3.2-9.96,1.98c-2.93-1.56,4.83-3.33,5.38-5.98-3.69-.18-5.04,1.51-8,2.01l1.01,1.98c-2.17-.07-4.46-.79-4.02,2h-.97c.44-2.91-6.96-2.88-9.5-3-2.33-.11-3.98,2.44-4.54-1.99h-.96s-1.52,2.98-1.52,2.98l-2.5-2.49,1.99-1.49c-3.81.59-3.18-.61-3-4.01-1.29-.45-1.88.97-1.99,1-.91.19-3.02-.51-3.01.5.13.85,2.44.64,3.01.5ZM129.03,276.57c-1.4-.72-2.67.63-1.99.98,1.4.72,2.67-.63,1.99-.98ZM165.03,281.57c-1.4-.72-2.67.63-1.99.98,1.4.72,2.67-.63,1.99-.98ZM158.53,283.56v1c.65-.33.65-.67,0-1ZM160.53,283.56v1c.65-.33.65-.67,0-1ZM162.02,287.55c.72-1.4-.63-2.67-.98-1.99-.72,1.4.63,2.67.98,1.99ZM166.03,287.57c-4.16-.5-4.16,1.48,0,.98v-.98ZM109.02,289.57l-4.99-1.01v3.99c1.07,1.09,4.65-1.73,4.99-2.98ZM155.53,289.56v1c.65-.33.65-.67,0-1ZM109.04,292.55c1.46.33,2.09-.42,2.97-1.5-.99-.43-3.95,1.03-2.97,1.5ZM183.03,293.55c-1.15-3.79-2.24-4.04-2.99,0h2.99Z"/>
      <path class="cls-1" d="M128.03,292.56c.11-.03-.11-.94,0-1,.37-.2.76.11.98.5.04.62-.96.45-.98.5Z"/>
      <path class="cls-1" d="M167.03,77.55c-1.86.27-3.46,0-4-1.98,1.86-.27,3.46,0,4,1.98Z"/>
      <path class="cls-1" d="M287.03,249.56c.55.55-1.44,5.2-1.99,3.99v-3.99s1.99,0,1.99,0Z"/>
      <path class="cls-1" d="M104.03,475.56v3.99c-.55,1.21-2.54-3.44-1.99-3.99h1.99Z"/>
      <path class="cls-1" d="M175.02,177.57c.14.14-.05.65,0,.98h-3.99s0-1.99,0-1.99c.23-.22,3.82.85,3.99,1.01Z"/>
      <path class="cls-1" d="M123.03,483.57c.16.14-1.17,3.35-1.49,3.99-2.57-1.13-.19-5.41,1.49-3.99Z"/>
      <path class="cls-1" d="M194.03,476.57c-.34,1.45-1.61,2.29-2.99,1.98v-1.99s2.99,0,2.99,0Z"/>
      <path class="cls-1" d="M68.03,287.56c.31,1.38-.54,2.66-1.98,2.99v-2.99s1.98,0,1.98,0Z"/>
      <polygon class="cls-1" points="282.02 257.56 279.04 256.54 279.04 255.57 282.02 254.56 282.02 257.56"/>
      <path class="cls-1" d="M72.03,484.56c1.09,1.09-.9,3.08-1.99,1.99s.9-3.08,1.99-1.99Z"/>
      <path class="cls-1" d="M103.03,480.56c1.09,1.09-.9,3.08-1.99,1.99s.9-3.08,1.99-1.99Z"/>
      <path class="cls-1" d="M57.03,526.57v.98s-2.98,1.01-2.98,1.01c-.5-2.63.57-2.09,2.98-1.99Z"/>
      <path class="cls-1" d="M108.03,251.56c1.09,1.09-.9,3.08-1.99,1.99s.9-3.08,1.99-1.99Z"/>
      <path class="cls-1" d="M218.03,282.56c1.09,1.09-.9,3.08-1.99,1.99s.9-3.08,1.99-1.99Z"/>
      <rect class="cls-1" x="67.04" y="256.56" width=".98" height="3.99"/>
      <path class="cls-1" d="M36.03,155.56c1.09,1.09-.9,3.08-1.99,1.99s.9-3.08,1.99-1.99Z"/>
      <path class="cls-1" d="M37.03,336.55c-2.09.29-2.28.1-1.99-1.99l1.99,1.99Z"/>
      <path class="cls-1" d="M36.02,162.55h-.98c-.5-4.16,1.48-4.16.98,0Z"/>
      <path class="cls-1" d="M241.03,173.56c.07.07.38,2.12-.49,1.99-2.73-1.56-.67-3.13.49-1.99Z"/>
      <path class="cls-1" d="M161.03,222.55c-2.09.29-2.28.1-1.99-1.99l1.99,1.99Z"/>
      <path class="cls-1" d="M164.03,221.56c.07.07.38,2.12-.49,1.99-2.73-1.56-.67-3.13.49-1.99Z"/>
      <path class="cls-1" d="M276.03,261.57v.98c-4.16.5-4.16-1.48,0-.98Z"/>
      <path class="cls-1" d="M186.03,270.57l-1.99,1.99c-.29-2.09-.1-2.28,1.99-1.99Z"/>
      <path class="cls-1" d="M289.02,277.55h-.98c-.5-4.16,1.48-4.16.98,0Z"/>
      <path class="cls-1" d="M33.03,276.57v.98c-4.16.5-4.16-1.48,0-.98Z"/>
      <path class="cls-1" d="M10.03,283.57v.98c-4.16.5-4.16-1.48,0-.98Z"/>
      <path class="cls-1" d="M213.03,286.56c.07.07.38,2.12-.49,1.99-2.73-1.56-.67-3.13.49-1.99Z"/>
      <path class="cls-1" d="M44.02,356.55c-.35.68-1.7-.59-.98-1.99.35-.68,1.7.59.98,1.99Z"/>
      <path class="cls-1" d="M46.02,354.55c-.47.97-1.93-1.98-1.5-2.97,1.08.89,1.83,1.51,1.5,2.97Z"/>
      <path class="cls-1" d="M162.03,121.57c.68.35-.59,1.7-1.99.98-.68-.35.59-1.7,1.99-.98Z"/>
      <path class="cls-1" d="M113.04,484.56c.47-.97,1.93,1.98,1.5,2.97-1.08-.89-1.83-1.51-1.5-2.97Z"/>
      <path class="cls-1" d="M216.02,288.55c-.35.68-1.7-.59-.98-1.99.35-.68,1.7.59.98,1.99Z"/>
      <path class="cls-1" d="M214.02,285.55c-.35.68-1.7-.59-.98-1.99.35-.68,1.7.59.98,1.99Z"/>
      <path class="cls-1" d="M157.03,410.57c.68.35-.59,1.7-1.99.98-.68-.35.59-1.7,1.99-.98Z"/>
      <path class="cls-1" d="M198.03,477.57c.68.35-.59,1.7-1.99.98-.68-.35.59-1.7,1.99-.98Z"/>
      <path class="cls-1" d="M161.03,405.57c.68.35-.59,1.7-1.99.98-.68-.35.59-1.7,1.99-.98Z"/>
      <path class="cls-1" d="M124.03,493.57c.68.35-.59,1.7-1.99.98-.68-.35.59-1.7,1.99-.98Z"/>
      <path class="cls-1" d="M112.03,495.57c.68.35-.59,1.7-1.99.98-.68-.35.59-1.7,1.99-.98Z"/>
      <path class="cls-1" d="M53.03,524.57c.68.35-.59,1.7-1.99.98-.68-.35.59-1.7,1.99-.98Z"/>
      <path class="cls-1" d="M199.02,251.55c-.35.68-1.7-.59-.98-1.99.35-.68,1.7.59.98,1.99Z"/>
      <path class="cls-1" d="M168.02,245.55c-.35.68-1.7-.59-.98-1.99.35-.68,1.7.59.98,1.99Z"/>
      <path class="cls-1" d="M43.02,545.55c-.35.68-1.7-.59-.98-1.99.35-.68,1.7.59.98,1.99Z"/>
      <path class="cls-1" d="M158.02,564.55c-1.97.18-1.01-1.96.52-2.97l-.52,2.97Z"/>
      <path class="cls-1" d="M263.04,224.56c1.97-.18,1.01,1.96-.52,2.97l.52-2.97Z"/>
      <path class="cls-1" d="M69.02,292.55c-.35.68-1.7-.59-.98-1.99.35-.68,1.7.59.98,1.99Z"/>
      <path class="cls-1" d="M145.03,216.57c.68.35-.59,1.7-1.99.98-.68-.35.59-1.7,1.99-.98Z"/>
      <path class="cls-1" d="M117.02,486.55c-.35.68-1.7-.59-.98-1.99.35-.68,1.7.59.98,1.99Z"/>
      <path class="cls-1" d="M194.03,194.57c.68.35-.59,1.7-1.99.98-.68-.35.59-1.7,1.99-.98Z"/>
      <path class="cls-1" d="M152.53,403.56c.65.33.65.67,0,1v-1Z"/>
      <path class="cls-1" d="M189.53,478.56c.65.33.65.67,0,1v-1Z"/>
      <path class="cls-1" d="M176.53,480.56c.65.33.65.67,0,1v-1Z"/>
      <path class="cls-1" d="M169.53,32.56c.65.33.65.67,0,1v-1Z"/>
      <path class="cls-1" d="M118.52,486.58c.55.64,2.01,1.3,1.02,1.96-.48-.59-2.01-1.26-1.02-1.96Z"/>
      <path class="cls-1" d="M181.53,34.56c.65.33.65.67,0,1v-1Z"/>
      <path class="cls-1" d="M198.53,493.56c.65.33.65.67,0,1v-1Z"/>
      <path class="cls-1" d="M244.53,493.56c.65.33.65.67,0,1v-1Z"/>
      <path class="cls-1" d="M266.53,94.56c.65.33.65.67,0,1v-1Z"/>
      <path class="cls-1" d="M285.53,137.56c.65.33.65.67,0,1v-1Z"/>
      <path class="cls-1" d="M265.53,555.56c.65.33.65.67,0,1v-1Z"/>
      <path class="cls-1" d="M263.53,556.56c.65.33.65.67,0,1v-1Z"/>
      <path class="cls-1" d="M122.03,115.55c5.39,2.07,4.87-2.17,8.51-4.99.59,3.35,3.04.17,5.24,2.25.99.94,3.23,7.91,3.22,9.38,0,.6-1.76,6.11-1.98,6.36-1.08,1.19-3.83-3.34-5.42-4.08-1.42-.65-2.83-1.51-3.56.58-.36,1.03,2.49-.28,1.99,1.48-3.75-.42-1.21,3.01-1.35,5.36-.2,3.29-.85,6.11-4.64,5.67-.49,1.72,2.25.51,2,1.48-.85,3.31-3.69,1.57-4.59,4.41-.57,5.07.69-1.12,2.07.1,3.31,2.92-3.84,4.2-4.49,5.51l2.99,2.49c-3.57-.74-2.88,1.34-4,3.99l3.99.5c-6.47,10.07-13.07,20.61-24.99,24.5-.03-3.02,3.33-1.8,1.98-5.99l-5.5,2.98c.64-3.08-1.11-.99-1.49-2.97l1.99-1-5.99-.02,4.99-2.49-3.99-3.49,4.52,1.98-.52-1.95,6.98-1.02-4.99,4.5c-.25.74,3.2-.11.99,2.49,8.44,1.17,4.35-6.88,5.08-9.37.48-1.65,3.35-1.54,4.5-2.55.26-.23,4.02-4.99,4.19-5.3,1.52-2.61-2.27-5.07,4.24-2.77-1.25-4.95,3.34-2.28,4-3.01.51-.56-1.34-4.76,1.99-4.01.26-1.81-2.15-.02-2.09-2.45.06-2.6,2.3-4.83,2.11-7.53l1.98,3.99c-1.62-4.06,0-9.15-.29-12.37-.16-1.79-2.21-3.95-2.38-6.26-.21-2.87.38-10.46,3.67-11.37l-.99,5ZM126.03,118.57c-1.4-.72-2.67.63-1.99.98,1.4.72,2.67-.63,1.99-.98ZM126.53,120.56v1c.65-.33.65-.67,0-1Z"/>
      <path class="cls-1" d="M130.54,189.58c1.01.9-1.51,2.54-1.49,1.49l1.49-1.49Z"/>
      <path class="cls-1" d="M202.53,228.56c.65.33.65.67,0,1v-1Z"/>
      <path class="cls-1" d="M148.53,241.56c.65.33.65.67,0,1v-1Z"/>
      <path class="cls-1" d="M150.53,242.56c.65.33.65.67,0,1v-1Z"/>
      <path class="cls-1" d="M200.53,257.56c.65.33.65.67,0,1v-1Z"/>
      <path class="cls-1" d="M315.53,260.56c.65.33.65.67,0,1v-1Z"/>
      <path class="cls-1" d="M46.01,271.61c.53.78-1.35,8.67-.99,8.94.18.14,4.37.77,4.6.73,1.09-.17,1.04-2.54,2.04-2.79,4.71-1.15,7.81,6.18,6.36,10.06-1.94-1.74-6.81-.38-7.86-1.13-.47-.33-2.64-7.28-5.13-5.86,2.53,4.68-1.62,6.82-6,5l3.99,2.5c-.26.69-2.17,1.21-2.79,1.28-2.97.31-10.88-2.18-13.19-4.29l6.98.5-1.99-1.98,3.97.5c-.91-4.23-7.14-2.65-6.97-6.5,1.82-.21,4.09.54,5.76-.27.95-.46,6.09-7.22,5.72-8.71.82,1.24,5.23,1.64,5.49,2.03ZM42.53,281.56v1c.65-.33.65-.67,0-1Z"/>
      <path class="cls-1" d="M44.53,357.56c.65.33.65.67,0,1v-1Z"/>
      <path class="cls-1" d="M234.53,484.56c.65.33.65.67,0,1v-1Z"/>
    </g>
  </g>
</svg>