<?xml version="1.0" encoding="UTF-8"?>
<svg id="Layer_2" data-name="Layer 2" xmlns="http://www.w3.org/2000/svg" viewBox="0 0 306.75 331.45">
  <defs>
    <style>
      .cls-1 {
        fill: #9b957c;
      }
    </style>
  </defs>
  <g id="Layer_1-2" data-name="Layer 1">
    <g>
      <path class="cls-1" d="M114.73,208c1.29.58,1.08-4.2,2.99-1.99.95,1.11-4.34,6.04.51,6.01,3.13-.02,2.04-6.21,4.48-4.01.31.28,2.12,6.76,2.01,7.99l-2.49-1.99c-2.51,1.13-2.31,4.8-2.51,5.01-.4.41-2.78-1.17-2.98-1.02-.27.19-.62,5.03-2.52,6-2.51,1.28-.51-3.47-2.47-2.98-.66,10.12-3.62,3.26-6.01,5,1.13,1.01,1.78,4.36,2.27,4.78.68.57,2.44.02,2.67.25.62.62-1.89,8.14-2.45,9.02-.8,1.28-2.8-.62-3.98.88-2.09,2.65.56,7.74-3.02,9.06-.99.36,0-2.35-.99-1.99-2.47.89-5.71,10.12-9.01,9.03-.96-.97.12-2.4-1.48-2.03,1.4,4.45-2.62,4.52-2.98,5.04-.96,1.36,3.8,4.87,3.97,6.95l-3.99.02c-.48,1.78,2.24.45,1.99,1.48-.35,1.48-2.35,2.36-2.89,3.34-4.36,8.02-9.54,15.82-15.09,22.65-5.23,6.44-10.77,15.37-20.02,12.52l1.99.99c1.16,5.83-4.11.61-7.98,3.02l2.99,1.98c-7.82-.87-3.57,8.28-10.99,7.02-.21,1.71,2.92,1.31,2.98,2.49s-10.64,3.8-7.99,5.49c.7.45,3.31-.96,3.01,1l-4.99-1c1.24,3.88-3.12,3.43-6.5,3.44-5.18,0-6.21-2.12-7.15-2.36-.79-.2-1.79.96-3.72-.15-4.87-2.8-12.71-14.48-10.8-20.46-3.57-.64-.33-10.94,3.16-8.46-3-4.32,1.84-7.98,1.85-8.46.03-1.61-1.3-2.2-.16-5.3,1.28-3.47,5.33-2.39,5.84-3.19,1.38-2.14.14-9.13,4.43-11.56.27-.15,4.81.38,4.99.56.53.53-.33,4.6.05,4.96.75.72,5.26-1.99,4.02,2.99.47-1.11,4.03-4.18,4-4.48-.31-2.93-6.33-5.34-9.01-4.52,1.15-3.72.96-9.57,6-9.99l-.99,3.99c1.39-.49,7.3-1.32,8.06-.51.56.6,3.3,7.05,2.93,8.51l-2-2.99-1,2.99-1.98-1.99c3.7,6.9-5.13,4.84-2.02,10.99-.15.2-2.89-1.67-4.76.24-2.1,2.14,1.21,5.43-2.22,4.78.15,1.79,3.57.17,1.49,3.99-.19.35-4.3,5.25-4.59,5.45-.98.7-2.77.43-2.92.56-.17.15,1.15,2.58,1.06,4.42-.15,3.29-3.94,12.05,1.57,13.31.3.07,5.89.21,6.18.09.25-.1,1.78-2.97,3.71-3.84l2.49,2c-2.54-3.85,3.4-4.36,5.51-7.99l1.49,1.99c.08-1.21-.4-2.66.24-3.77,3.55-6.21,12.31-12.46,16.79-17.97,2-2.47,4.31-8.01,5.91-9.81,1.48-1.66,3.93-1.29,4.07-1.44.4-.43-1.17-2.49-.9-2.88.39-.58,4.85-3.44,5.39-6.11-1.22,4.74,1.48,2.5,5.49,3.99.29-1.52-1.73-1.09-2.51-1.98-1.61-1.85,3.29-2.03,4.35-.79.7.82-.72,3.11,1.16,2.78-1.73-4.01,2.05-5.26,2.06-5.6,0-.27-.92-3.28-1.06-3.39-1.96-1.59-2.8,2.8-3.01,2.99-1.04.92-2.97-.52-1.96-1.97.96-1.37,7.14-3.21,8.26-4.03.97-.71.58-1.75.87-2.11.83-1.04,1.68-.91,1.72-1,1.18-2.51-2.36-2.4-3.16-2.88-2.83-1.72,3.52-6.41,4.34-7.71,1.7-2.69-.8-5.35,4.94-4.31l-1.99-1.48c1.22-4.11,6.31-6.69,7.47-8.57,1-1.62.73-2.27,2.48-4.7,4.44-6.18,7.64-13.08,14.05-17.75l1.01,1.5ZM113.73,215.01c-.33,1.46.42,2.09,1.5,2.97.43-.99-1.03-3.95-1.5-2.97ZM44.22,309.01v1c.65-.33.65-.67,0-1Z"/>
      <path class="cls-1" d="M272.55,36.85c-.84.52-3.32,0-4.87.6-1.75.68-2.63,2.41-4.45,2.57l-2.51-3c2.2,4.96-2.83,9.09-6,12.5l1.99,1.49c-5.27-2.1-2.76,1.57-3.91,3.54-2.33,3.99-13.89,12.68-18.11,16.95-1.55,1.57-2.94,4.66-4.44,5.65-1.34.88-9.62-.15-3.54,3.37-2.56,2.24-2.99,5.5-6.98,5.56,2.2,2.33-2.24,3.1-4.24,4.94-10.4,9.56-19.87,22.48-30.39,30.93-5.84,4.69-15.43,6.54-15.17-3.43.14-5.69,2.51-4.98,3.84-7.19.93-1.53.7-3.83,1.92-5.84,6.03-9.97,23.24-24.34,31.77-32.73,3.83-3.76,2.89-11.34,12.27-7.75-1.8-2.62.4-1.66.97-2.71,1.59-2.89,3.17-7.3,5.02-9.82,2.42-3.31,22.9-20,26.82-22.18,1.3-.73,2.35-1.53,3.7-.31-1.53-6.45.67-2.68,3.25-4.19.5-.29.73-1.99,1.81-2.64,2.91-1.74,8.61-2.78,11.44-.65,1.38,1.04,1.12,13.54-.19,14.36ZM235.71,47.01c-1.09-1.09-3.08.9-1.99,1.99s3.08-.9,1.99-1.99Z"/>
      <path class="cls-1" d="M279.72,84.01c.71-.5,4.52,1.12,2.51-1.8-3.91,1.34-.62-2.67,2.48-1.21l-4-1,2.01-4.99c2.16-.6,2.61.88,2.01,2.51-.31.85-2.47-.14-2.02,1.48l5,.52c-.04,4.48-3.63,3.19-4,3.52-.22.19,1.01,3.96-1.03,5.45,1.12,1.27,1.68-3.51,4.02-1.47.46.4-1.49,1.53-1.57,2.43-.26,2.93,2.03,5.29-2.42,7.56l-2.01-2.99,1,4.99c-.66.06-1.34-.04-2,0-.12-.96.09-2.02-.01-2.99-1.85-.44-.34,2.01-1.49,2s.37-2.44-1.49-2.01c-.35,3.37-.21,3.2,2.99,3,.67,5.29-.26,2.1-2.02,4.76-3.04,4.59-6.18,11.23-11.43,14.3-1.59.93-4.13.79-4.42,1.07-.19.18-.52,3.41-1.43,5.08-1.54,2.84-9,8.81-11.78,11.25-9.45,8.27-21.3,17.82-33.2,24.56-.77.44-1.05,3.71-2.72,1.98-.45-.47.57-4.93-4.01-4.01l3-2.98c-4-.05-8.23,1.95-11.99,0,1.75,4.81.58,3.49-.63,5.41-.51.82-.26,2.18-.5,2.4-.44.42-4.33.42-4.76.07-.57-.48-.26-4.54-1.73-4.93-4.74-1.27-5.2,4.54-1.61,5.99,2.22.9,3.4-.91,6.09,2.68.47.63,2.08.81.15,1.89-1.29.72-11.1,3.95-12.76,4.22-1.94.32-12.58.36-13.25-1.24,2.13-.15,5.22-7,6.14-7.31.69-.23,2.32,1.16,2.84.83,1.25-.81-1.29-6.18,6.01-3.02l-5.99-3c-3.32-3.09,13.31-5.6,13.87-6.17.44-.45.07-2.05.13-2.83,1.74,1.11,2.23,1.29,2-.98,1.93-.5,0,2.21,1.98,1.98.39-1.41,1.28-3.75,2.34-4.67,2.39-2.05,13.64-7.79,14.39-8.61.66-.72.38-2.64,1.22-3.3.61-.47,2.12.79,2.82.4.59-.33,6.49-7.36,7.6-8.53,2.56-2.67,5.37-6.39,7.99-8.94s5.32-4.29,8.01-6.94c3.03-3,5.88-3.06,6.13-3.34.83-.91,1.11-2.91,2.07-4.01,4.2-4.82,9.02-9.21,13.02-12.43,1.25-1.01,3.55-4.15,5.08-4.46,2.06-.42,7.33,5.11,11.34,1.82.45-1.83-2.08-.36-2-1.49.06-.94,1.16-.2,1.74-.73.64-.57.19-1.72.27-1.77-1.45,2.87-6.03-.57-5-1.99.69-.95,7.15-2.27,5,1.99ZM277.71,93c.5-4.16-1.48-4.16-.98,0h.98ZM267.71,103.01c.25-.27,1.21-7.07-.98-7-.37,1.07,1.12,3.82,1,3.98-.31.43-4.15.1-4,2l3.98,1.01ZM181.71,169c1.14-1.16-.43-3.22-1.99-.49-.13.87,1.92.56,1.99.49Z"/>
      <path class="cls-1" d="M123.73,148.02c.61.65,3.53-2.7,2.98.48-1.92,2.14-5.48,3.83-3.02,7.03l-2.97-.02c1.69,4.12,1.54,1.67,3.49,1.66.59,0,.45,1.22.87,1.46,1.11.64,2.53.3,2.63.39,1.15,1.09-1.84,4.94-4.01,4.49,1.92,1.13,3.39,2.18,4.01,4.49-1.08.08-2.3-.27-3.33-.02-1.27.31,0,2.44-1.66,2.02-2.09-3.67,1.03-2.81,1.06-3.58.17-4.66-5.44-3.55-3.07-.43l-5.01.02,3.99,3c-.24,1.81-3.25.31-1.99,3.49.36.9,7.69,3.66,0,2.99,2.22,1.21.76,5.33.99,5.5.78.55,2.51.26,1.99-1.4l.55,1.46c-2.94.81-3.09,3.68-3.88,4.56-1.61,1.81-4.93,4.12-6.32,5.73-6.02,6.93-14.79,19.89-21.63,25.36-1.91,1.53-4.46,1.27-6.71,1.31,1.45,2.84,3.82.43,1.8,4.29-2.81,5.37-7.79,7.94-11.42,12.06-.67.76-.66,2.33-1.36,3.11-3.61,3.98-7.98,10.59-13.01,11.54l1.99,1.98c-4.02-.28-5.86,4.65-8.62,6.88-1.33,1.07-10.15,6.31-11.36,5.13.1-3.58,2.82-4.41-2-4l2.04-1.49c.91-3.41-3.13-3.93-4.87-2.24-.8.78,1.02,3.57-2.17,2.74-.94-4.62,3.5-4.01,2-5.99l6.99-.02-2.99-1c-.45-1.72,1.42-.61,1.88-1.07.28-.28-2.12-5.67-.74-7.78.35-.54,2.49-.46,3.14-1.05,3.37-3.11,6.99-8.06,9.71-10.62,4.12-3.87,9.16-6.73,13-10.96l-1.99-.99c2.03-2.7,5.19-5.15,7.27-7.56,5.86-6.78,11.72-11.95,16.19-20.01l10.05-8.95c.9,3.62,2.49.93,5.49,1l-1.02-2.99c6.82,1.18-.09-6,1.01-7,3.23-.06,9,0,6.49,4.03-.6.97-3.64.46-2.48,3.96,1.73.44.37-1.99,1.62-2.1s2.88,1.53,3.34.61c-.11-1.8-.86-5.5-.68-6.87.12-.94,1.66-1.66,1.75-3.13.02-.38-3.53,0-1.58-5.56.16-.47,4.29-6.64,4.64-6.87s2.41,1.34,2.91.92c-1.52-4.49,4.65-8.42,2.01-13.99,2.27.17,1.7,3.68,2,4.01ZM123.71,161.02l-2.98-1.01c-.5,2.63.57,2.09,2.98,1.99v-.98ZM125.22,160.01v1c.65-.33.65-.67,0-1ZM47.71,247.01c-1.09-1.09-3.08.9-1.99,1.99s3.08-.9,1.99-1.99ZM49.71,254c.72-1.4-.63-2.67-.98-1.99-.72,1.4.63,2.67.98,1.99Z"/>
      <path class="cls-1" d="M130.71,88.01c.88,1.13-1.54,10.31,1,12.99-3.64.79-.85-3.79-3.5-4.99-3.83-1.72-.88,4.56-5.49,3,.46,2.9,3.72.69,3.99.99,1.85,2.1-4.06,2.03-1.99,3.99.43.4,2.97-1.16,3.99-.99l-1.99,2.01c4.27,4.29-.89,2.27-1.96,6.55-.49,1.97,5.34,2.2-1.03,2.45l3,.99c.08,1.95-.88,4.15-3,4.01-.4,1.74,1.52.63,1.89,1.08.25.3-1.12,5.85-3.9,3.92l-.5-3.02c-.92,3.79-1.82,1.06-3.95.95-1.08-.06.17,2.52-1.54,2.06-.37-7.07.39-25.03,6.26-29.71,1.42-1.13,3.63-.74,4.5-1.58.24-.23,2.53-6.89,4.22-4.7ZM128.71,93c.72-1.4-.63-2.67-.98-1.99-.72,1.4.63,2.67.98,1.99Z"/>
      <path class="cls-1" d="M152.72,173.02l-.51,2.96,7,.03c3.22.91-5.42,5.56-5.79,5.95-1.26,1.33-2.45,4.72-4.37,6.93-1.07,1.23-4.25,4.61-5.34,5.52-2.49,2.09-1.7-.84-2.95-1.77-.5-.37-1.71.06-2.06-.25-2.03-1.8-2.98-4.82-1.99-7.36-7.56,2.14-3.53-1.63,1-3.57.91-.39,2.06.47,2.79.24.16-.05.18-1.52.87-1.67,3.17-.68,6.21,1.89,5.35-3.01l1.98,1.99c1.26-1.23,1.04-6.76,4.01-5.98ZM143.99,188.8c-.84-1.55.68-3.96-1.25-3.78l-2.01,3.48,4.51,2.5c2.27-1.95-1.12-1.95-1.25-2.19ZM146.72,187l-1.99-1.99c-.29,2.09-.1,2.28,1.99,1.99Z"/>
      <path class="cls-1" d="M197.73,9l2.98-2.99c.1,1.01-1.28,5.7-.99,5.99,1.96,2,1.98-3.9,4-1.98.18.17-1.7,3.31-1.75,4.67-.17,4.52,4.56,7.33-5.24,9.33l2.99,1c.44,2.7-8.66,3.38-8.99,2.99-2.25-2.65,3.55-1.28,2.98-2.99l-3.99-3.01,4.51,1.99c2.27-2.81-1.98-1.57-2.4-2.06-.73-.87,1.2-4.59-2.1-3.94v-.97c3.31.4,1.09-1.74,1.69-3.78.77-2.64,3.75-11.73,6.32-4.24Z"/>
      <path class="cls-1" d="M153.51,53.23c.2.09,2.96,3.07,2.2,3.78-6.15-2.27-2.99.19-4.08,1.89-.21.33-7.69.12.57,3.12l.52-3.02c3.82,1.65,2.36,7.51,3.99,11-2.99-.31-6.7-1.5-7.01-4.98-1.73-.44-.63,1.61-1.04,1.92-.35.26-2.24-1.35-2.86-.86-.47.36.65,2.37-1.07,1.93-2.51-4.5,1.45-5.88,1.78-7.63.19-1-1.09-2.6-.7-3.21.28-.43,6.65-4.4,7.7-3.93Z"/>
      <path class="cls-1" d="M306.73,64.02c.19.24-.81,5.77-1.01,6-1.31,1.4-6.48-4.31-8-3,.65,2.83,3.7,3.78,5.99,5.01l-2.01,2.97-.99-2.99c-1.82-.39-.63,1.68-.99,1.99-2.09,1.78-1.84-2.01-2.5-2.01-.78,3.35-3.57,1.78-6.49,2.01.11-2.53,2.74-3.03,3.35-5.98.29-1.42-.36-2.63-.34-4.01,4.93,2.77,3.58-.58,4.97-1.54,1.19-.82,7.78,1.21,8.04,1.55ZM297.71,71c.72-1.4-.63-2.67-.98-1.99-.72,1.4.63,2.67.98,1.99Z"/>
      <path class="cls-1" d="M181.72,34.01c-.23-.6-1.29-1.8-1.01-1.99l3-1c-8.44-2.69-5.1,1.01-6.08,1.86-1.51,1.31-5.52-.28-4.43-2.9.23-.54,5.52-4.96,6.77-6.13.94-.88,1.22-3.75,3.26-.86.32.45-.57,4.29.98,5.01,2.83-3.55-1.97-7.44,3.49-9.99l-1.98,6.99c1.25.6,1.16-4.27,2.99-1.99.32.39-.95,2.16-.72,3.32s1.91,2.06,1.78,4.04c-.11,1.65-6.38,3.52-8.05,3.63,1.08,2.85,1.19,4.04,5,4.01l-3.53,3.98-4.46-3c-.32-1.96,2.41-.54,3-.99,1.26-.96-3.14-3.7-2.99-4.51.77-.66,1.93.58,2.98.51ZM182.22,29.01v1c.65-.33.65-.67,0-1ZM185.22,29.01v1c.65-.33.65-.67,0-1Z"/>
      <path class="cls-1" d="M162.72,159.02c-2,2.81.73,1.7.96,2.01,1.71,2.21-4.38,3.15-4.96,4.49-.86,1.96,2.02,1.26,2.03,1.99.02,1.52-3.05,3.87-2.05,6.49l-1.98-1.99-2,3-1-9,1.98,1.99c.84-3.92,2.87-3.88,1.01-8.99h6Z"/>
      <path class="cls-1" d="M162.73,55l1.98-1.98c-.65,3.63,2.86-.52,4.01,2.98-1.8,1.01-5.23-.29-6.35-.04-1.83.4,1.31,3.82-3.64.03-.44-1.6,1.4-.7,1.65-1.16s-.26-1.31,0-1.79c1.37-2.57,3.48-1.52.34-5.02l3.99-1.01-1.98,7.99Z"/>
      <path class="cls-1" d="M127.71,145c-1.59,1.7-2.87-2.74-3.13-2.91-.81-.52-3.48,1.74-4.87.43-2.72-2.21,1.47-1.18,1.01-2.01-.73-1.31-2.71-2.09-1.99-4.5.85-.95,6.1,4.79,6.87,5.62.6.64,3.24,2.17,2.12,3.37Z"/>
      <path class="cls-1" d="M130.66,131.09c.17.13-.18,2.03.62,1.98,1.87-.1,2.79-3.16,2.42,1.94-2.42-1.92-1.74.74-2.68.97-8.54,2.08-2.13-6.29-.37-4.9Z"/>
      <path class="cls-1" d="M134.72,141.01c-1.44,1.01-1.78,3.58-5,1.5l7.99-6.5c.73,4.53-.38,3.17-2.99,4.99,1.06-1.06,3.11.88,1.99,1.99s-3.06-.93-1.99-1.99Z"/>
      <path class="cls-1" d="M138.71,158c-1.76-.04-2.21-6.71-1.95-6.96.3-.29,2.47.32,2.87-.07.79-.8-1.03-4.17,1.08-3.95l-2,10.99Z"/>
      <path class="cls-1" d="M122.73,179.01c1.72-1.92-1.63-6.37-1-6.99,2.12-2.13,8.46,4.45,1,6.99Z"/>
      <path class="cls-1" d="M133.71,90.03c.51.43-1.4,3.03,3,.99v3.99c-2.95.41-5.27-1.58-5-4.49-.11-.88,1.86-.61,2-.49Z"/>
      <path class="cls-1" d="M212.72,0c.16,1.4-.34,3.05-.03,4.36.29,1.19,2.45-.01,2.02,1.64l-5.99-1c1.17-2.42,4.04.8,2.98-3.99l-1.99-.99h2.99Z"/>
      <path class="cls-1" d="M149.72,73.01c.28-.19,1.67.37,2.25-.02,1.27-.84.19-2.28,1.74-1.97,2.02,6.75-6.82,7.88-9.98,11.99.45-2.86-2.76-5.66-5.01-3.99s2.61,1.78,1.99,2.98h-5c1-1.55-.31-7.74,0-7.99.21-.16,1.93.28,2.51-.98.33,1.9-2.37,5.66,1.49,4.97v-4.99s2.5,4.01,2.5,4.01l2.01-6.01c.53,2.39,1.9,1.62,2.49,2,.86.54,1.63,1.45,2.52,2.01.93-.19.28-1.87.48-2.01Z"/>
      <path class="cls-1" d="M146.72,73.01c-.73-.67.6-2.96,2.49-3.01.89-.02.62,2.9.51,3.01s-2.89.1-3,0Z"/>
      <path class="cls-1" d="M129.71,111.01c.18.15,1.89,3.98-.47,2.99-2.68-1.13-1.4-4.52.47-2.99Z"/>
      <polygon class="cls-1" points="172.72 32.02 165.73 36.01 168.87 31.17 172.72 32.02"/>
      <rect class="cls-1" x="162.72" y="58.01" width="2.99" height="1.99"/>
      <rect class="cls-1" x="140.72" y="69.02" width="3.99" height=".98"/>
      <path class="cls-1" d="M288.72,91.02l-1.99,1.99c-.29-2.09-.1-2.28,1.99-1.99Z"/>
      <path class="cls-1" d="M132.71,102.02v.98c-4.16.5-4.16-1.48,0-.98Z"/>
      <path class="cls-1" d="M31.73,257.01h.98c.25,1.83.06,2.92-1.5,3.97l.52-3.97Z"/>
      <path class="cls-1" d="M162.71,63.02c.68.35-.59,1.7-1.99.98-.68-.35.59-1.7,1.99-.98Z"/>
      <path class="cls-1" d="M157.71,66c-.35.68-1.7-.59-.98-1.99.35-.68,1.7.59.98,1.99Z"/>
      <path class="cls-1" d="M275.71,86.02c.68.35-.59,1.7-1.99.98-.68-.35.59-1.7,1.99-.98Z"/>
      <path class="cls-1" d="M137.71,161c-.35.68-1.7-.59-.98-1.99.35-.68,1.7.59.98,1.99Z"/>
      <path class="cls-1" d="M120.71,207c-.35.68-1.7-.59-.98-1.99.35-.68,1.7.59.98,1.99Z"/>
      <path class="cls-1" d="M174.22,175.01c.65.33.65.67,0,1v-1Z"/>
      <path class="cls-1" d="M204.22,12.01c.65.33.65.67,0,1v-1Z"/>
      <path class="cls-1" d="M185.22,35.01c.65.33.65.67,0,1v-1Z"/>
      <path class="cls-1" d="M255.22,53.01c.65.33.65.67,0,1v-1Z"/>
      <path class="cls-1" d="M161.22,59.01c.65.33.65.67,0,1v-1Z"/>
      <path class="cls-1" d="M158.22,68.01c.65.33.65.67,0,1v-1Z"/>
      <path class="cls-1" d="M120.22,124.01c.65.33.65.67,0,1v-1Z"/>
      <path class="cls-1" d="M135.22,158.01c.65.33.65.67,0,1v-1Z"/>
      <path class="cls-1" d="M133.22,159.01c.65.33.65.67,0,1v-1Z"/>
      <path class="cls-1" d="M192.22,161.01c.65.33.65.67,0,1v-1Z"/>
    </g>
  </g>
</svg>