<?xml version="1.0" encoding="UTF-8"?>
<svg id="Layer_2" data-name="Layer 2" xmlns="http://www.w3.org/2000/svg" viewBox="0 0 323.58 405.21">
  <defs>
    <style>
      .cls-1 {
        fill: #9b957c;
      }
    </style>
  </defs>
  <g id="Layer_1-2" data-name="Layer 1">
    <g>
      <path class="cls-1" d="M19.04,369.96c-5.19-6.69-15.02-18.87-15.82-27.49-.25-2.72-.5-5.83-.29-8.06.03-.31-3.59-1.48-1.88-5.45l2.98-.48c-2.86-3.08-1.41-7.32-3-11h4c-2.06-.51-4.95-6.39-5.02-8-.03-.6,1.84-.37,2.04-1.16.5-1.99-.52-4.79-.02-6.71.2-.76,3.68-.67,2.01-2.64-.31-.36-2.38.82-1.99-.99,5.31.52,2.12-1.31,2.05-3.59-.01-.34,2.96-.35.95-5.42l2.98,1c-.72-5.99.86-10.82,3.09-16.22,1.08-2.62.66-2.37,1.09-3.64.08-.23,3.24-2.04,3.82-3.14.11.9-1.45,11.05,1,9,.37-.31-.82-2.4,1-1.99-.18,2.04,1.77,2.4,3.01,3.5-5.66,2.99-.31,1.78.75,2.17,1.24.45,1.09,2.12,1.96,2.32,1.23.29,3.81-.35,4.26.05.3.27,1.34,7.68,1.05,7.95-.26.24-5.62.06-7.01,1.02,2.29,6.96,3.25.27,4.71-.04,1.24-.27,3.64.45,4.25-.06s-1.12-3.55,1.53-2.9l11.9,19.63c4.05,3.84,8.29,7.47,13.11,10.37,1.06.64,6.62,3.9,7.02,3.98.83.17.51-1.79,1.44-2.45.59-.42,1.98.54,2.04.45.26-.4-.81-3.47-.11-5.52s2.9-3.24,3.13-5.47l1.97,1.98c-.45-1.36,1.59-1.98,1.69-2.28.76-2.29-.72-5.94,1.32-6.71,1.22,7.67,3.27,15.37,1.78,23.26-1.85,9.8-7.97,13.52-17.78,11.73l.52-2.97c-1.45,1.2-4.07.32-5.7-.33-4.39-1.74-16.73-11.97-20.06-15.71-2.88-3.24-4.89-9.32-8.74-12.5l1.99-1.48c-6.22,2.67-4.27-7.68-5.41-9.03-1.32-1.55-4.34-.74-4.59-.99-.73-.71,2-5.58-.51-5.99-.82-.13-4.78,3.69-5.19,4.3-.51.76-.09,2.23-.63,3.39-.19.42-2.69.46-1.66,3.3l1.98-1.99c1.4,5.97.48,12.4,1.13,18.37.27,2.48,3.39,13.66,2.71,14.48-.44.52-2.25-.54-1.82,1.12,3.57-.07,2.28,6.58,3.22,9.29,1.85,5.3,13.6,23.24,18.18,27.36,3.6,3.24,11.67,9.32,15.26,11.14,5.03,2.55,2.07,5.01,2.33,5.23.3.25,5.36-2.08,6.99,1.51.44.96-3.14-.18-1.51,1.5,1.47,1.58,4.2,1.21,5.79,2.01,1.06.53.61,1.87.72,1.98.19.19,1.97-.39,1.95.44-.08,2.31-3.13,9.73-6.46,9.53-.93-1.73,3.56-4.31,3.58-4.62.06-1.16-.93-2.23-.99-2.93-.03-.36,3.62-.51,1.92-2.43-.24-.27-6.91-.13-7.27-.04-2.54.59-2.86,6.53-6.01,5.84-4.51-1-15.92-9.51-19.93-12.81-5.89-4.84-8.36-8.27-12.8-13.99,1.06,1.06,3.11-.88,1.99-1.99s-3.06.93-1.99,1.99ZM16.74,278.25c-.52-.5-1.94-.31-2.6-.85-1.14-.94-.62-2.66-2.09-2.43-.41,3.86,2.9,6.56,5.98,7.99.29-.36-.8-4.25-1.29-4.72ZM14.03,284.96c.5-4.16-1.48-4.16-.98,0h.98ZM20.05,284.96l-1.01-1.5c-3.2,5.11.91,3.33,3.53,3.7,1.01.14-.25,2.24,1.46,1.8l-.99-3.99,3.99-1c-1.77.53-4.26-1.13-5.44-1.06-1.09.06.15,2.51-1.55,2.05ZM17.04,286.96c.59-1.18-1.42-3.44-1.98-2.99l-1,4,2.98-1.01ZM19.54,290.96v1c.65-.33.65-.67,0-1ZM8.54,296.96v1c.65-.33.65-.67,0-1ZM7.03,299.96c.72-1.4-.63-2.67-.98-1.99-.72,1.4.63,2.67.98,1.99ZM7.04,345.95l-1.99-1.99c-.29,2.09-.1,2.28,1.99,1.99ZM58.54,388.96v1c.65-.33.65-.67,0-1Z"/>
      <path class="cls-1" d="M267.05,313.96c-5.05,2.34-3.33-2.38-4.03-2.99-2.03-1.77-3.18,1.91-3.4,1.9-1.03-.06-7.3-.64-7.57-.91-.32-.32-.17-7.73-1.5-8.99l-11.92,18.08c-5.92,9.01-19.49,14.8-25.86,20.87-2.99,2.85-.14,2.08-6.06,5.03-.69.35-.55,1.92-1.1,1.9-6.08-.29-12.65-3.46-11.34-10.15.59-3.02.68-3.17.95-6.26.05-.59,1.6-.33,1.79-1.16.66-2.9.61-7.21,1.05-10.3,1.34.02,1.91,3.4,3.8,2.8,1.61-.5,4.49-6.99-.81-6.3l4.99-2.52-2.99-2.97,6-2.02-1.99-5.98c3.35-.86,1.46,2.43,2,3,2.01,2.13,1.64-2.55,2.99-2,.32,2-1.11,8.46-2.23,9.75-1.28,1.47-5.37.03-3.65,4.63.64,1.71,3.42,1.77,4.88,2.62.51-.75-.9-7.43,2-7.99.72,2.86-2.03,11.5,2.51,10.02,5.04-5.41,9.78-11.45,15.17-16.36l15.83-24.66.5,4,6.99-1.02-4.99-1c.13-2.1,3.72.15,3.01-2.98,1.84.61.69,2.27,3.69,2.78,7.41,1.25,4.18-3.28,4.49-3.68.37-.47,2.2.61,1.8-1.1l-2.99-1c1.46-.33,2.88,1.16,2.49-1.01-1.59-8.93-4.81,1.38-5.6,1.94-1.18.83-4.55-2.28-4.89-1.93-2.07,2.09,2.53,1.6,1.98,2.99-.73-.09-3.88-.83-3.99-1-.29-.4,3.2-6.95,3.58-7.05,3.77-1.06,9.66.9,10.98,5.01,1.98,12.01,3.27,23.93,3.45,36.05ZM259.04,285.96l-.99,2c-5.21-2.3-5.27,5.4-3.97,7.99.07.13,2.16-1.37,2.95.54.9,2.15-3.07.7-1.99,3.47,1.6.91,4.52.2,5.73.7,2.01.83,1.53,3.79,4.26,3.31-.74-4.36,1.14-11.7-5-10l3-1c1.09-5.99-5.5.29-4-7.01ZM253.04,292.97c-1.04-1.02-4.01,1.99-2.99,2.99s4.01-1.99,2.99-2.99ZM250.05,300.96c.22.26,6.14-2.54,2.48-4-.25-.1-3.11,3.27-2.48,4Z"/>
      <path class="cls-1" d="M163.04,283.96c.06-2.93,1.93-5.43,1.9-7.52-.03-2.52-3.22-5.71-2.88-8.93.12-1.18,2.69-5.86,3.46-7.58,2.89-6.48,7.48-12.1,9.54-18.97l3.98,2c-1.97-4.75,2.4-10.8,6.5-13.02,4.19.69-2.32.81-.48,3.02.19.23,4.37-1.89,5.99-1,.76-3.05-5.55-2.68-1.49-4.99.21-.12,1.24,3.64,4.49,1.99.86-2.9-2.29-1.74-2.89-3.61-1.88-5.82,5.93-11.76,11.3-11.38.57.04.56,1.37.97,1.62,1.45.89,4.08-.34,2.34,3.13-.09.17-1.3.33-1.67.95-2.74,4.55,2.19,3.84,1.95,4.78-.34,1.33-3.24,4.4-3.98,6.02l3.98.49c-.66,2.8-.46,6.85-3.98,7.01-.47,1.93,2.21-.03,1.99,1.98-7,2.58-1.25-2.77-6.99-1.98-.98,2.68,1.83,1.59,2.02,2.63.27,1.47-.33,3.18-.01,4.68.17.84,1.85.24,2.05,2.11.45,4.29-2.32,1.9-2.99,2.61-.9.94,1.81,6.27-1.06,7.95,6.35,2.28,2.92-.09,3.26-.79.25-.52,2.93.5.74-4.19,1.38-.28,2.41.34,2.82,1.67,1.29,4.22,1.59,12.71,2.43,17.57.65,3.75,3.31,7.66,1.74,11.74-1.45-.93-7.46-7.51-8.98-5.99-.58.58.28,4.83.99,5.99l-2.99-.99c.12,1.13-.22,2.47-.04,3.5.21,1.26,3.39-.51,3.03,1.49l-3.98,3c.02-1.76.16-3.52-.23-5.27-1.93-8.48-4.84-18.32-5.65-27.35-.39-4.39.76-8.16.36-12.39l-7.31,9.69c-.71,1.22-6.4,14.26-7.17,13.32l-1.01-4c.77,7.42-3.33,10.1-7.99,4.01,1.07,2.55-1.99,3.23-1.97,3.46.1,1.05,2.15,3.5,2.02,4.99-.08.93-2.18-1.37-1.06,5.56-.71-2.8-2.71.81-3,1ZM202.04,227.98c-1.4-.72-2.67.63-1.99.98,1.4.72,2.67-.63,1.99-.98ZM198.04,244.98c-4.16-.5-4.16,1.48,0,.98v-.98ZM194.54,246.96v1c.65-.33.65-.67,0-1ZM193.31,251.76c-.96-1.38.76-3.97-1.25-3.79.74,3.01-2.37,10.35,2.98,8.98.36-1.86-1.74-.32-2-1.5-.54-2.42,1.63-1.13,1.96-1.52,1.63-1.92-1.55-1.97-1.69-2.18Z"/>
      <path class="cls-1" d="M166.04,282.96c.37,2.29.62,5.24,1.04,7.28.06.3,3.64,3.82,3.96,4.71l-1.99,2c-6.32-2.58-2.01,1.43-6,2.03,1.72,4.08,2.3-.38,4.97-.53-.29,3.08-6.66,5.2-6.94,5.57-.43.56.53,5.55,1.96,5.94-.07-1.08-.73-5.13.99-4.99l3,6.99c-1.63.42-.5-1.65-1.64-2.03-.78-.26-1.78.18-2.35.03.33,4.93,2.98,7.22,3.03,7.65.27,2.16-1.61,7.12-1.12,10.93.2,1.52,3.07,1.72,1.08,6.43-5.51-1.06-6.14-.64-3.48-5.98-.81.43-5.29,2.18-5.5,1.98-2.11-2.05,2.53-1.62,1.99-2.99-3.44-1.22-2.84,1.92-3.01,1.98-3.27,1.25-.45-5.1-.44-5.45.1-3.97-1.5-7.72.27-12.15.76-1.89,4.85-3.21,4.16-5.9-.33-1.29-2.9,1.67-3.96-1,2.05-1.98,4.24.91,2.99-3.87-.21-.79-1.77-.58-1.88-.73-1.45-2.05,2.16-2.23,3.47-3.81,1.07-1.29,1.18-3.48,1.67-3.9.71-.61,2.53-.01,2.74-.2s-.85-3.88-1.02-4c-.5-.39-3.72,1.44-4.98,1,.2-5.29.89-3.95,4-5.99-.1,4.8,3.38.48,3-1Z"/>
      <path class="cls-1" d="M260.04,315.97c-.12,1.41-2.88,1.67-3,3.51-.03.39,1.4.41,1.65.84.78,1.37-.12,4.05,2.34,2.16l1-4.51c-.23,2.94.92,1.96,3.01.99.4,2.69,1.06,4.6-.06,7.24-.34.8-1.81.74-1.8,1.21,0,.87,1.11,2.25.92,4-.35,3.27-.41,9.03-4.06,7.57l1.99.99c-1.13,6.03-2.75,12.07-6.5,17.01-2.15-8.41-4.77,1.31-5.63,1.93-.65.47-3.55-1.32-4.86-.91l3.99,3.99-3.98-1.99-2.01,4.98,4.99-1.99c3.02,7.34-2.64,7.87-4.47,11.03-.8,1.39-.35,3.77-.52,3.98-.28.33-4.62-1.57-5.99-1l1.99,1.98c-2.9-.25-5.21,3.09-7.53,5.02-1.67,1.4-4.95.87-4.45,4.99l2.97-1.51c-2.7,5.53-9.13,6.83-13.7,10.37-3.52,1.01-11.52-5.34-11.33-9.29.03-.57,1.5-.58,1.61-.82.27-.59-.18-1.46.06-1.73,2.8-3.17,6.07-.69,6.37-1.01.77-.85-1.97-6.05,5.98-.5-5.04-2.2-2.73,3.56-1.48,3.47.51-.04,2.63-3.5,5.49-.98,1.05-6.06-1.27-5.88-6.47-4.99-1.51-.05-.26-4.81,2.94-4.95,5.42-.24,2.21,3.62,2.53,3.93,1.21-.25,4.57,1.79,4.99-.5.16-.9-3,2.38-2.01-3,.23-1.26,3.39.51,3.02-1.49l-2.99-2.02,1.99.49c-.57-7.13,2.79-6.36,5.66-9.83,4.15-5.01,10.35-15.11,13.55-20.96,1.09-1.99,1.24-5.35,2.3-6.8.71-.97,2.42.2,2.49.1,1.47-2.13-2.01-1.98-2.04-2.56-.02-.36,1.32-6.16,1.52-6.54.58-1.04,2.13.36,2.57-.43,2.34-4.22-.98-12.22,6.94-11.46ZM262.04,334.98c-1.4-.72-2.67.63-1.99.98,1.4.72,2.67-.63,1.99-.98ZM248.03,353.96c.5-4.16-1.48-4.16-.98,0h.98ZM253.54,351.96v1c.65-.33.65-.67,0-1ZM246.04,355.98c-1.4-.72-2.67.63-1.99.98,1.4.72,2.67-.63,1.99-.98ZM240.54,364.96v1c.65-.33.65-.67,0-1ZM237.99,375.88c-3.17-7.73-6.07-2.54-3.93,3.08l3.93-3.08Z"/>
      <path class="cls-1" d="M80.04,191.96c1.98.31.54-2.52,1-3.01.57-.6,3.53.25,3.99,1.52.5,3.17-2.02-.12-2.87.53-.43.33-.59,2.47-1.62,2.95l-.5-2-6,1.01,2.99,1c-1.48,2.21-2.44,3.46-4.99,2,1.16,3.23,6.38,3.74,5.46.01l3.53.99c-3.58,4.65-2.9,9.56-10,8.98l-1-3c2.39,3.89-5.08,9.34-4.98,10.51.11,1.28,4.43,3.37,2.16-1.27,2.07.54,1.69-5.26,3.8-3.23.25.24,1.26,4.59,1.09,5.32-.23,1.01-2.18.98-2.57,1.61-.23.36-.64,5.68-1.6,8.29-1.1,2.98-.37,1.43-.96,4.17-1.31,6.11-3.17,12.18-2.96,18.6l-1.98-1.01c1.47,5.14-1.69,4.66-1.98,5.05s3.04,6.44,3.68,8.75c1.92,6.86,3.72,14.02,3.28,21.21l-2.48-3.99c-2.54,3.35-5.02,4.87-3.49,8.99,2,.22.04-2.47,1.97-1.98-.79,3.28,6.31,2.21,7.02,3l-1.49,3.99c-1.62-.27-3.4-3.72-3.65-3.8-.75-.24-2.22,1.39-3.83.37-.25-.16-4.04-3.96-4.09-4.25-.29-1.56.99-3.33.96-4.88-.03-1.21-1.37-2.03-1.41-3.5-.02-.8,1.28-6.68,1.53-6.92,2.1-2.03,1.59,2.51,2.97,1.99,1.79-3.27-.71-4.78-1-7.99-2.15-.31-.17,4.3-1.48,3.98-.38-.09-3.12-1.13-3.25-1.24-1.2-.99-.41-3.84-2.25-3.74v7.99s1.98-1.99,1.98-1.99c1.3,2.74-2.01,3.16-2.03,3.56-.04,1.08,2.59,5.2.05,5.43-.77-3.78-1.53-7.82-1.94-11.65-.55-5.16-1.18-15.4-.72-20.69.17-1.95,1.38-3.07,1.65-4.19.13-.52-2.88,0-2-1.94,1.02-2.25,5.67-.33,5.01-3.5h.97c-.39,2.81,1.84,2.03,4.01,1.98l-2.99-1.98c2.19.71,4.26-4.77,4-5-.94-.82-6.06-.29-5-6.02l1.96,1,1.04-3.99,1.98,1.99c-1.07-2.61,2.03-3.25,2.02-3.48-.21-3.49-5.98-1.71-3.53-4.56,1.26-1.47,3.53.39,1.52-3.96l5.01-.51c-3-1.47-3.81-4.17-6-6.49,3.55-.31,3.28-6.92,6.43-9.09,1.37-.95,2.81-.55,3.78-1.02.89-.43.83-1.62,1.03-1.71.94-.42,1.93.89,2.6.58.4-.19.02-3.28,5.16-.76l1-3.01v4ZM64.03,212.96c.72-1.4-.63-2.67-.98-1.99-.72,1.4.63,2.67.98,1.99ZM60.54,273.96v1c.65-.33.65-.67,0-1ZM61.04,277.97c-2.09-.29-2.28-.1-1.99,1.99l1.99-1.99Z"/>
      <path class="cls-1" d="M175.04,147.96c1.43.22,1.62-3.83,1.62-4.67,0-2.99-1.46-7.96-.68-10.76.16-.56,4.93-.26,4.14-4.95-4.68-1.51-6.04-4.72-6.08-9.61l-1.98,1.99.97-6.51-2.97.52c1.13-5.19-3.19-11.64,1.98-15-1.14,5.84,5.88,8.83,10.42,7.98,1.19-.22-.11-2.47,1.58-1.98-.36,1.68,2.43,8.53,2.01,8.99-1.58,1.71-3.53-5.12-5.99-2.98l2.99,2.97-3,2.01,3.01.52c.22,2.4-4.4,4.51.49,7.49-.07-2.9,2.24-4.65,4.01-2.01,2.6,3.89,1.89,19.56-6.51,17.02-.05,1.67,2.73,1.7,2.99,2.01,1.74,2.05-3.94,2.01-1.99,3.97.18.18,4.09.57,4.99,1l-1.99-1.98c.97.14,3.74-.25,3.99-.01.57.54.96,15.58-2.97,13.48,2.68,3.71-.37,3.03-1.32,4.77-2.08,3.8-4.49,8.6-5.72,12.75l-2.48-2-3.49,3.99c-.05-3.54-3.09-5.29-4.64-7.25-.3-.39.55-1.51-.35-2.25-2.69-2.21-1.35,1.87-3.02,1.5.09-4.08,3.79-8.44,6.01-12.26.35-.6,1.72-.72,1.81-.94.37-.9-.75-2.13-.58-3.15.19-1.15,1.74-1.97,1.74-2.15v-17c0-.7-1.43-6.11-1-6.49h2s0,20.99,0,20.99ZM178.03,148.96c.72-1.4-.63-2.67-.98-1.99-.72,1.4.63,2.67.98,1.99Z"/>
      <path class="cls-1" d="M110.04,139.96c.48,1.91.71,4.04.99,5.99-1.83.31-.54-1.78-1.18-2.76-.42-.65-3.75-1.38-4.8-2.24-1.08,4.68,2.16,2.31,2.98,3.02.27.23-.76,6.73-1.01,6.98-2.53,2.49-2.2-6.38-3-7l-3.98,1.99c-.81-2.27.81-4.94.87-6.56.02-.44-2.62-2.57-2.49-7.77.1-3.89,2.67-6.65,2.64-7.05-.16-2.55-2.18-4.39-2.74-6.41-.33-1.18-2.71-11.73-2.27-12.16.27-.26,2.13.09,2.97-.54,1.76-1.33-.77-4.72,5.47-3.58,1.06.19.43,2.26.55,3.06,1.63.43.49-1.73,1.63-2.01,5.15-1.25,4.95,4.41-.64,3.02l1.01,2.98c1.52.39.72-1.47,1.65-2.02,1.33-.78,2.82-1.03,4.33-.97.35,1.84-1.55.34-2,1.5-.91,2.34,2.05.44,1.99.96l-.98,3.53h3s-.99-4.99-.99-4.99l4.85,3.69-.87,5.3c-1.26.1-2.65-.1-3.79-.65-1.54-.74-.6-2.56-2.19-2.34,1.38,4.19,3.19,1.55,2.99,6.99,2.31-.3,7.27-2.19,6.01-5,2.33.1.95,2.79,1.09,2.9,1.98,1.44,7.94-1.17,8.94,5.63.37,2.5-2.15.54-2.03,2.46,1.38.19,3.8.28,4.77,1.24.48.47,4.67,11.18,4.99,12.51,2.47,10.44,1.4,23.96,1.09,34.65-.55,1.91-5.93,1.11-7.86,1.62v-2.99s-1.99,0-1.99,0v2.99s1.99,0,1.99,0c-.26.07-2.21,2.83-3.99,2-.98-2.3.77-7.41-1.01-9,.91.75,5.7-1.13,2.99-3.99-.66.11-3.98,3.18-2.99,3.99-.18-.16-1.53.32-1.87-.1-.53-.64.56-6.23,1.06-7.22.93-1.83,2.88-1.02,2.81-2.67l-2.99-.5c3.62-3.63.77-4.22-.24-6.8-3.16-8.07-5.78-15.8-9.77-24.71l4.01-.5-4.01-.5c-.86-2.89-1.24.47-1-6-.95.12-2.52.21-3.34-.12-1.82-.73-.96-3.02-2.65-2.87-.73,4.16.72,8.1.99,11.99-.37.1-.81-.14-.98.5-.05.63.86.41.98.5.06,1.66-.03,3.35,0,5.01l-1.97-1.01c-.17.63.15,1.54-.02,2.01-2.22,6.03-3.32-.01-6,3.99l7-.99c.2.41.8.68,1,1ZM133.04,156.98c-1.4-.72-2.67.63-1.99.98,1.4.72,2.67-.63,1.99-.98ZM133.04,159.98c-1.4-.72-2.67.63-1.99.98,1.4.72,2.67-.63,1.99-.98Z"/>
      <path class="cls-1" d="M110.04,138.96c.87.53,2.73-1.24,1.99,3-.38.86-1.58-1.34-1.99-2-.09-.35.13-.86,0-1Z"/>
      <path class="cls-1" d="M110.04,138.96c-.12-.13-.67.08-1,0-.13-.26.12-.7,0-1,.29.3.78.87,1,1Z"/>
      <path class="cls-1" d="M109.04,137.96c-.34-.35-1.52-.08-1-2,1.53-.08.75,1.38,1,2Z"/>
      <path class="cls-1" d="M110.04,129.96c-.01-.33.02-.67,0-1,.55-.16,1.82.22,2,0,.62-.78-1.19-3.82-1-3.99,3.38-2.92,3.23,8.24-1,4.99Z"/>
      <path class="cls-1" d="M116.04,126.96c-.44-.98.01-.95,0-1v1Z"/>
      <path class="cls-1" d="M249.04,194.97c.19.1-1.32,2.39.47,4,2.5,2.25,4.96-1.14,2.53,5.98h4.01c-.67,4.06-3.02,7.28-4.15,11.36-1.31,4.73-1.08,9.75-2.08,13.92-1.76,7.35-6.57,10.42-13.86,8.28-4.57-1.34-1.94-7.92-2.05-11-.08-2.42-1.13-5.8-.95-8.07.16-1.92,1.81-1.32,2.02-2.12.32-1.23-.19-7.5.14-8.71.13-.47,3.92-5.86,3.98-6.27.23-1.65-1.64-4.29-1.04-6.37,2.95-1.06,1.94,3.54,4.48,2.99,1.5-.33,2.52-6.11,6.52-3.99Z"/>
      <path class="cls-1" d="M128.41,209.71c.63.92,2.29.45,2.59,3.84.27,3.04-1.08,5.46-.95,8.41l2.98-2,.02,3c2.49-.11.96-5.12,2.02-5.99.18-.15,4.54.09,4.75.19.24.11,1.59,3.71,4.21,2.79.54-1.4-4.03-.88-1.99-2.98.11-.11,2.38-.42,2.98-1.02.03,3.56.74,4.33,4.01,3.01l-4.91,10.38c-5.73.91-1.19,2.46-2.5,4.63-1.89,3.13-6.98.55-7.59,1l1.89,4.53-2.4,1.44.5-4.97-2.49,2.01-1.48-2-2.01,2.01,2.98,1.97c-4.88,2.78-13.1-3.45-8.01-6.99,3.13,9.39,6.65,4.46,1-2.49-1.19-1.46-7.14-4.88-5.86-6.43.2-.24,2.59.38,1.87-1.57s-4.22-2.42-3.06-7.98c.16-.76,4.93.43,3.07-5.53,2.36.08,1.63,5.6,2,6l1.98-.49c-2.01-1.46.08-5.24-.09-5.45-.36-.44-2.29.69-1.88-1.06,1.7.19,3.98-1.29,5.44-.99,1.55.32.7,2.4.92,2.73Z"/>
      <path class="cls-1" d="M133.04,308.96c-5.04.08-4.61-4.52-5.01-5.01-.19-.23-2.97,1.82-4.02.53-.26-2.34-1.32-3.53-1.96-5.04-.09-.2,3.17-1,2-3.48,1.96-.32.54,2.5.99,3,.54.58,4.66-1.37,5.99-1.02v4.01c5.89-2.18,3.08-.05,5.07,2.41,1.24,1.53,3.16,1.17,2.93,2.58h-1.99c-.45.57,6.69,10.94,4.99,13-1.81,2.19-2.01-3.01-2.98-1.99-.72.76-2.37,3.8-4.01,4.98l3.99,2-2.99,1c.89.24,4.75,1.92,4.89,2.15.16.27-1.26,1.57-.89,1.85,1.95,1.45,3.02-3.19,3.5-2.99,1.55.67,1.17,3.44,1.64,3.85.99.86,4.08-.96,3.86,1.13l-14.92-.02-4.08-16.44,1.99.48c1.07-2.27.63-4.89,1.02-7,1.09-.02,2.86-.69,3-1.99-.8.11-1.93-.24-2.51-.03s-.39,1.48-.49,2.03Z"/>
      <path class="cls-1" d="M184.81,63.32c4.19,1.86-1.58,6.66,4.21,3.14l-4.99,13.51-1.98-2.99-2,4.99c.89-3.67-1.65-6.39-4-9l1.99,10.99c-4.35.83-7.89-.86-2.98-3.49-4.68-1.73-1.94-3.57-2.02-7.5l-2.96,2.53,6-14.54c1.91,1.66,7.57,1.84,8.73,2.35Z"/>
      <path class="cls-1" d="M162.05,335.97c1.1,5.89-2.18,3.31-3.01,4-.45.37,1.47,3.34,1,4l-2-.5c.24,2.17.5,3.92-1.99,3.5-.42,1.7,1.46.62,1.81,1.09.96,1.27-2.13,6.19-3.28,7.01-1.29.92-2.17-.18-2.9-.04-.8.15-.6,1.9-1.22,1.95-1.34.11-4.37-1.79-6.43-1.03,1.98-2.6-.88-1.45-1.57-3.88-.56-1.99-.5-4.07-.42-6.1l2.98,1.5-1.99-3.5c1.77-.86,8.48,1.46,9,.99,2.23-2.02-2.02-12.33,10.01-9ZM158.04,337.97c-.96-.9-3.22,1.59-3.97,2.5,1.66.19,5.74-.84,3.97-2.5ZM155.53,342.98c-.99.7.54,1.37,1.02,1.96.99-.66-.47-1.32-1.02-1.96ZM149.04,352.98c-4.16-.5-4.16,1.48,0,.98v-.98Z"/>
      <path class="cls-1" d="M314.04,221.96c1.18,4.43,4.93,11.68,5.02,16.49.05,2.84-2.61,1.11-4.02,1.51l1,3.99c-3.45.57-4.04-1.66-5.51-4l-.98,4c-2.73-2.03-1.56-5.18-2.52-7.99l-3.98,1.99c-.7-4.74.97-1.3,3-3.52l-1.99-2.98c3.01-3.29.84-.07,2.97.49-.06-2.16,2.07-2.47,3.45-4.08.96-1.11-.44-3.82,3.56-2.92.21-1.14-1.15-1.36-2-1.99,1.08.1,2.07.19,2-1Z"/>
      <path class="cls-1" d="M314.04,221.96c-.55-.09-1.71-.67-2-1,.03-1.72.04-3.57,1.99-4,.27,1.5-.34,3.69,0,5Z"/>
      <path class="cls-1" d="M312.04,222.96c-.18-.13-.81.15-1.28-.08-1.32-.65.21-2.73-4.71-.93l2.99-2.98c-9.41,2.82.02-4.13,1-3.01-.63,3.29.63,3.43,2.01,5-.01.67,0,1.34,0,2Z"/>
      <path class="cls-1" d="M119.04,358.97c0,3.08-.16,6.13.29,9.21.63,4.29,3.96,9.62,3.83,12.31-.02.43-3.61,5.56-3.74,7.55-.81.16-5.21-.89-5.35-1.12-2.16-3.44,2.27-2.71,2.73-3.14.15-.14,1.4-3.66,1.26-3.8-.16-.16-4.22-1.08-4.45-1.07-1,.02,1.05,3.58-4.56.05.24-2.57,4.66-1.67,5-1.99.44-.41-1.06-2.58-1.04-3.43.01-.58,1.83-.45,2.02-1.23.3-1.24.25-4.51.09-5.91-.27-2.43-2.27-.6-2.08-2.41,1.04.31,2.5-1.2,2.89-.89.46.37-.63,2.28,1.1,1.88-.3-2.77-2.28-5.95,2-5.99Z"/>
      <path class="cls-1" d="M158.04,198.96c.25-1.41.06-2.59,1-3.99-.68-.59-11.51,2.71-12-.99,3.38.23,4.08-4.63,5.99-5.54,2.85-1.35,5.72,1.32,5.1-3.34l1.42.55-.52-2.69-3.97,3.51c1.66-1.09,1.41-4.32,2.21-5.27.97-1.15,4.24-.84,4.68-1.34.89-1.02-1.5-4.72,2.09-3.89-3.51,10.04,1.72,7.35,2.93,9.07,1.75,2.49-5.9,13.52-8.92,13.92-.15.85.26,1.97-.1,2.89-1.31-.59-2.75.39-2.95-1.14l-2.94.26c.72,2.6,5.14,1.53,4.9,4.34-.06.69-6.27,11.43-6.82,12.02-2.54,2.78-2-2.18-3.15-3.81-.95-1.34-6.67-3.07-5.92-5.04.6-1.56,3.69-2.33,4.49-3.57.64-1-.85-3.52,1.5-4.51,1.44-.6,2.5.58,3.39.53.7-.04.5-1.78,1.27-1.97,1.86-.46,4.34.25,6.33-.01ZM161.54,183.96v1c.65-.33.65-.67,0-1Z"/>
      <path class="cls-1" d="M135.02,191.99c-.45,1.8,1.08,4.07,1.02,5.39-.02.52-1.41.43-1.91,1.38s.09,2.36-1.07,3.72c-3.21,3.75-9.11,1.6-13.02.48-.17-.23,2.89-4.69,3.16-4.77,1.79-.56,3.2,3.23,4.71-1.85.37-1.23-.1-2.42-.87-.69l-.49,1.32c-.85-2.51-4.33-.81-4.5-1-.33-.36.86-3.74,1.12-3.93.47-.35,10.04,1.1,11.85-.05Z"/>
      <path class="cls-1" d="M312.04,265.97c-.08,4.61-1.11,5.61,4.01,5l-1.51,2.97c1.17.04,6.3-1.25,6.5-.99.45.6-.97,3.32,1,3.01l1-5.99c2.7,11.11-4.97,9.19-12.98,10.01-1.06-4.47-1.42-8.07-.03-12.54.44-1.42-.6-1.77,2.02-1.46Z"/>
      <path class="cls-1" d="M121.83,285.82c-.18.25-1.38.05-1.57.31-1.16,1.55,3.23,4.25,2.78,6.32-9.99,6.79-7.67-2.88-8.13-3.35-.61-.63-3.33-.62-3.73-1.27-2.98-4.86,3.42-3.58,3.8-3.94.79-.75-1.64-3.56,2.54-2.9,2.06.33,3.16,2.16,4.51,3.51.24.53.11.9-.2,1.34Z"/>
      <path class="cls-1" d="M290.04,155.96c-1.78-.56-3.21-1.59-5-2.01.2-2.05,3.15-1.49,3.81-2.24.28-.32,1.38-7.58,2.2.27,2.51-1.73,1.73-.31,2.99,1.99h-5c-.09.07.89,1.97,1,2Z"/>
      <path class="cls-1" d="M297.04,152.96l1.99-2.99-4.99,1.98c1.93-3.48.6-2.58-2-4.5,5.85-2.65,8.78-.9,9.01,5.5,1.67.27,1.01-2.58,2.55-2.94.5-.12,4.36,1.24,5.2,1.66.95.46,1.91,3.93,3.23,2.29.79-.98-.86-7.31-3.99-4v-5s4.99,0,4.99,0v-4.99c-4.25-1.75-5.17,2.08-5.49,1.99-1.72-.48-2.14-3.26.17-3.89.62-.17,6.67.09,7.27.42,1.82.98,6.75,8.29,1.05,6.49.39,1.18,1.09,2.12,1.06,3.48-.12,5.72-4.79,6.86-2.05.52h-3c2.07,2.59,0,4.58-.06,6.44-.03,1.06,2.6-.11,2.05,1.54-9.38,1.62-4.08,8.17-4.91,14.58-.27,2.12-.8.49-.99,5.91-.21,6.25-.88,4.35-3.52,7.6-.77.94-.3,4.58-2.58,2.91-.14-.1-.05-4.38-2-1.98-.33.4.31,3.9-.02,5.32-.06.24-4.54,2.52-1,3.66l4.01-3.5-1.99-1.49c1.01.16,3.6-.3,4,0,.2.15.17,4.82,0,4.99-.36.35-9.18-1.94-6.48,4.02l3.47-1.02.99,3.51-2.48-1.51c1.22,6.05-2.98,2.58-5-1l-1.48,1.99c-2.27-13.04-1.6-26.56,2.98-39l-1.98,1.02.5-6.98c-1.85,1.39-3.76.53-5.51-.02.72.2,3.11-1.53,4-2,.95-.5,1.93-.87,3-1-1.06,1.06.88,3.11,1.99,1.99s-.93-3.06-1.99-1.99ZM311.54,146.96v1c.65-.33.65-.67,0-1ZM301.54,183.96v1c.65-.33.65-.67,0-1ZM298.04,186.97c-1.98.01-3.47-.68-2.99,1.48l2.5,2.51.49-3.99Z"/>
      <path class="cls-1" d="M315.03,309.97c1.87,2.59-3.31,2.96-1.88,4.91.15.2,2.82-.11,1.9,3.08.62.72,3.48-5.56,2.99-1.5s-2.08,11.79-4.99,14.51c.48-1.22-1.23-2.49-.89-2.89.38-.46,2.29.62,1.88-1.1l-2-.02c-.45-1.95,2.22.03,2-1.98l-3-2.01,3.02-.5c-.04-1.13-1.74.14-2.02-1.01-.65-2.62,2.09-.43,2-2.48-1.11.35-3.71-1.06-3.9-.9-.45.38.64,2.3-1.08,1.88-2.61-3.89,2.84-4.2,2.97-5.49.2-1.98-8.05.51-6.97-4.5,2.59,4.46,9.66-.44,9.98,0Z"/>
      <path class="cls-1" d="M180.03,87.96c-1.49.49-.72-3.87-2.98-1.99-.22.19-1.82,5.25-1.78,5.54.32,2.23,6.49,3.2,6.76,3.47.34.33-3.53,5.99-1.01,8.98-2.7.66-2.2-3.81-4.27-4.68-1.36-.57-3.52-.16-3.73-.32-.26-.2,1.27-4.66,1.11-6.51-.21-2.5-2.08-3.44-2.12-4.97-.01-.45,4.55-1.53,5.79-2.19,1.53-.82.67-2.51,2.22-2.32v4.99ZM175.54,94.96v1c.65-.33.65-.67,0-1Z"/>
      <path class="cls-1" d="M119.04,341.96c-2.3-2.03-4.96,3.14-5.98,2.01-.18-.2-2.19-4.79-2.01-4.99.31-.35,2.42.78,1.99-1-.72.08-1.51-.19-1.96-.76-4.24-5.44,1.2-1.77,3.47-7.23,2.31,1.68,1.13,4.59,1.94,7.04.62,1.88,2.84,2.77,2.55,4.94Z"/>
      <path class="cls-1" d="M122.65,320.4c4.7,2.64.5,7.06,1.39,11.56l-4.75-2.18c-.99-3.78-1.78-7.05-.23-10.82,1.18.5,2.46.81,3.59,1.44Z"/>
      <path class="cls-1" d="M277.65,382.62c-2.49,3.73-3.78,2.72-6.93,3.33-.58.11-1.15,3.94-2.68,2.01-.22-.28,1.63-5.25,0-6.99l2.49,1.99c1.71-1.97,3.86-3.02,6.5-3.01l-1.99-1.98c4.1-.22,4.83,1.33,2.61,4.64Z"/>
      <path class="cls-1" d="M320.04,240.97c-2.15,2.53,3.09,15.01,2,15.99-3.3.97-3.56-1.26-5.99-2.01l4.99,1.01c-.67-2.72-.4-6.53-3.74-4.64-.8.45-.38,3.95-4.25-.86l4.99-3c-5.12-1.95-.58-2.28-.26-2.71,1.09-1.45-1.23-4.53,2.26-3.78Z"/>
      <path class="cls-1" d="M136.04,177.96c.95.97.72,7.21-3.43,7.08-.84-.03.22-2.92-2.57-2.07l-1.99,1.98,1-6c1.3-.38,2.73.89,3.56.93.21,0,1.58-3.82,3.43-1.93Z"/>
      <path class="cls-1" d="M121.03,302.96c-.17.18-1.43-.12-1.99.01.25,1.6,2.83.52,2.01,3.99l1.98-1.99c2.81,8.34-.95,3.24-1.91,4.05-.46.4.65,2.36-1.07,1.94-.14-.8.44-1.76-.52-2.01-2.6-.67-.44,2.1-2.48,2,.08-3.39-1.35-5.8,2.98-5,.45-1.63-1.76-.62-2.02-1.48-1.15-3.82,5.37-4.11,3.02-1.51ZM118.54,306.96v1c.65-.33.65-.67,0-1Z"/>
      <path class="cls-1" d="M316.04,302.96c3.96-.32,3.28.09,1.99,3.49l3.02.52c-1.04,4.11-3.71-1.14-5,0-2.19,1.93,4.65,1.83.49,3.99-2.97-3.44-1.57-6.54-1.6-9.57,0-.48-3.72-.36-1.38-2.43l4,.03-1.51,3.97Z"/>
      <path class="cls-1" d="M308.03,194.96c.95,1,2.93,10.56-2.53,9.8-5.08-.71,1.37-5.05,1.48-5.4.12-.4-1.97-7.55,1.05-4.39Z"/>
      <path class="cls-1" d="M310.97,326.03c.24.24,1.88,6.66-.92,4.94-.49,1.93,2.21,0,1.99,1.97-4.16.12-1.36,5.24-5.99,4.01l1.99-.99c.61-1.36-.02-6.52.22-6.78.19-.19,3.73-.53,1.79-2.23-.52-.46-3.32.97-3-.99,1.02.15,3.52-.33,3.93.06Z"/>
      <path class="cls-1" d="M281.04,159.97c.96,1.06.13,2.34-1.31,3.26-2.29,1.46-4.04,3.58-6.69,3.73.59-1.28,6.9-8.2,7.99-6.99Z"/>
      <path class="cls-1" d="M306.05,308.96l2.98-14.99c.09,3.97-.42,8.7-1.39,12.52-.26,1.01.24,2.23-1.59,2.48Z"/>
      <path class="cls-1" d="M298.04,344.96c.3-.24.68-5.69,3.98.52-1.6.28-2.19-1.01-2,1.46-1.62.46-.4-1.58-1.98-1.98v5s1.99-1.99,1.99-1.99c-.38,1.99,1.26,4.61.86,6.31-.68,2.88-5.01,2.53-5.85,4.68,10.46-1.95,2.15,6.05-.62,9.39-.67.8-.55,2.6-1.35,3.21-.85.65-2.28-.6-2.85-.3-.49.26.51,3-3.67.68v3c-2.16-1.53-.01-3.91-3.51-3.98.18,1.87,1.25,9.86-3,6.99-.36-.24-.06-7.05,3-6.99-.37-3.75.55-3.96-3-4.49,3.54-4.71,4.13-7.74,10.99-7.5-.03,1.94-2.93.78-3,3.48-.02.66,2.21.93,3,1.51.57-5.82,10.21-12.01-1.98-9.01.88-1,.71-5.85.98-5.99.69-.36,2.91.22,4.01-.02.4-1.62-3.63-.48-1.97-2.97.09-.14,2.43-2.01,2.59-2.02.88-.04,3.06,1.25,3.38,1ZM297.04,348.98c-1.4-.72-2.67.63-1.99.98,1.4.72,2.67-.63,1.99-.98ZM294.04,350.98c-1.4-.72-2.67.63-1.99.98,1.4.72,2.67-.63,1.99-.98ZM299.04,350.98c-1.4-.72-2.67.63-1.99.98,1.4.72,2.67-.63,1.99-.98ZM295.54,351.96v1c.65-.33.65-.67,0-1ZM293.04,364.98c-1.4-.72-2.67.63-1.99.98,1.4.72,2.67-.63,1.99-.98Z"/>
      <path class="cls-1" d="M264.04,188.97c-.14,5.28-6.66.81-9.99,1.99-.66-3.75,2.35-.85,4.5-.97,1.89-.11,3.57-1.18,5.49-1.02Z"/>
      <path class="cls-1" d="M61.77,292.75c-.08.16-2.21,2.02-2.71,2.2-3.63-7.89,4.92-6.75,2.71-2.2Z"/>
      <path class="cls-1" d="M319.04,268.96c-.87.65-6.91-1.15-5-2.99.17-.16,4.26-1.04,4.49-1.01,1.83.2.82,3.77.52,4Z"/>
      <path class="cls-1" d="M321.04,282.96l-2,1,1.5,1.01-4.5.99c-.51-2.88,3.05-1.6,2-5l2.99,1.99Z"/>
      <path class="cls-1" d="M260.04,141.96l-.5,7.98c-1.96-1.67-.76-3.94-1.22-6.7-.37-2.19.47-1.16,1.72-1.28Z"/>
      <path class="cls-1" d="M75.04,399.97l-3.01,3.49,3.01,1.49c-5.99,1.51-5.15-3.98,0-4.98Z"/>
      <polygon class="cls-1" points="306.04 330.96 302.05 329.95 304.01 328.96 305.05 324.97 306.04 330.96"/>
      <path class="cls-1" d="M273.04,177.96c-2.95,1.04-3.12-6.09-1.49-6.99l1.49,6.99Z"/>
      <path class="cls-1" d="M314.04,260.95h-4.99c-1.15-.52,4.35-3.65,4.99,0Z"/>
      <rect class="cls-1" x="256.05" y="192.97" width="2.99" height="1.99"/>
      <path class="cls-1" d="M249.04,143.96h-1.99s0-2.99,0-2.99c1.45.34,2.29,1.61,1.98,2.99Z"/>
      <rect class="cls-1" x="319.05" y="258.97" width=".98" height="4.99"/>
      <path class="cls-1" d="M210.04,316.97c1.09,1.09-.9,3.08-1.99,1.99s.9-3.08,1.99-1.99Z"/>
      <path class="cls-1" d="M303.04,333.95c-2.63.5-2.09-.57-1.99-2.98h.98s1.01,2.98,1.01,2.98Z"/>
      <path class="cls-1" d="M244.04,184.97c1.09,1.09-.9,3.08-1.99,1.99s.9-3.08,1.99-1.99Z"/>
      <path class="cls-1" d="M57.03,268.96h-.98c-.5-4.16,1.48-4.16.98,0Z"/>
      <path class="cls-1" d="M170.04,289.96c-.07.07-2.12.38-1.99-.49,1.56-2.73,3.13-.67,1.99.49Z"/>
      <path class="cls-1" d="M106.04,99.98v.98c-4.16.5-4.16-1.48,0-.98Z"/>
      <path class="cls-1" d="M290.04,157.98v.98c-4.16.5-4.16-1.48,0-.98Z"/>
      <path class="cls-1" d="M275.04,171.97c1.14,1.16-.43,3.22-1.99.49-.13-.87,1.92-.56,1.99-.49Z"/>
      <path class="cls-1" d="M142.03,213.96h-.98c-.5-4.16,1.48-4.16.98,0Z"/>
      <path class="cls-1" d="M259.04,137.98c.68.35-.59,1.7-1.99.98-.68-.35.59-1.7,1.99-.98Z"/>
      <path class="cls-1" d="M178.04,102.98c.68.35-.59,1.7-1.99.98-.68-.35.59-1.7,1.99-.98Z"/>
      <path class="cls-1" d="M74.04,306.98c.68.35-.59,1.7-1.99.98-.68-.35.59-1.7,1.99-.98Z"/>
      <path class="cls-1" d="M279.03,372.96c-.35.68-1.7-.59-.98-1.99.35-.68,1.7.59.98,1.99Z"/>
      <path class="cls-1" d="M316.03,259.96c-.35.68-1.7-.59-.98-1.99.35-.68,1.7.59.98,1.99Z"/>
      <path class="cls-1" d="M150.04,197.98c.68.35-.59,1.7-1.99.98-.68-.35.59-1.7,1.99-.98Z"/>
      <path class="cls-1" d="M261.04,184.98c.68.35-.59,1.7-1.99.98-.68-.35.59-1.7,1.99-.98Z"/>
      <path class="cls-1" d="M304.03,336.96c-.35.68-1.7-.59-.98-1.99.35-.68,1.7.59.98,1.99Z"/>
      <path class="cls-1" d="M249.03,146.96c-.35.68-1.7-.59-.98-1.99.35-.68,1.7.59.98,1.99Z"/>
      <path class="cls-1" d="M279.53,367.98c.55.64,2.01,1.3,1.02,1.96-.48-.59-2.01-1.26-1.02-1.96Z"/>
      <path class="cls-1" d="M222.04,13.96c1.5-2.91,6.15-8.12,9.63-8.91,2.33-.53.77,1.84,1.87,1.93.93.07.02-1.78,1.13-2.04,5.07-1.2,5.72,1.64,9.87-4.94,4.55,2.97,3.38,5.92,1.34,10.31-1.15,2.47-4.87,5.72-5.49,6.89-4.19,7.94-4.5,22.49-8.03,29.55-.52,1.04-1.2,1.33-2.31,1.23v.97c3.69-.42,1.36,3.08,1.18,5.54-.07,1.02.91,2.27.84,2.91s-3.55.42-2.01,2.54c.08.11,1.72-.33,1.98.67.64,2.48,0,7.06.35,9.68.22,1.64,1.98,3.32,1.73,5.03-.11.75-2.71,1.39-3.67,2.53-2.03,2.42-1.2,6.51-5.42,4.08l-.5,3.04-3.4-.14c.26-4.14-3.43-9.39-3.94-12.65-.32-2.07.84-3.73.61-5.5-.32-2.44-3.21-9.82-1.62-11.6,1.36-1.52,6.27.39,3.84-7.14-1.36-.24-3.04,2.55-3.03-.52,0-1.74,1.53-9.02,2.1-10.73.26-.77,3.25-1.46,1.93-4.76,2.19-1.38,5.76,3.43,6.99.49.99-2.38-2.47-1.05-2.9-1.53-.53-.6.09-2.89-.09-3.96l-2.01,3-1.98-1.99c-3.27,4.98-9.48,9.15-14.05,13.45-3.33,3.13-5.35,8.94-10.96,7.55l2.98,1.48c-2.61,8.2-4.64,3.6-10.97,3.52-.38,3.98,4.43-.2,3.02,5.33-.24.93-4.56,1.95-4.04,4.65-2.21-1.47.48-3.37-4-3.49,3.94.99,5.37-7.07,3.96-8.45-.38-.38-4.07.46-4.93-1.54,2.69-2.92,4.91-7.12,7.39-10.09,5.99-7.18,11.42-12.14,18.86-17.37,1.7-1.19,1.78-4.72,5.23-4.08.77.14.13,2.34,1,2.04,1.89-.64-.09-3.55,1.9-5.05,1.02-.77,4.12-1.55,5.6-1.94-.15.29.3,1.26-.14,1.82-.8.99-3.98.31-3.85,2.17,4.57.26,7.74-.72,10-4.98-2.09-.2-4.04.47-6,.99ZM224.04,32.97c-3.22-.87-2.5,3.24-.49,4.99l.49-4.99ZM227.04,44.96c-.27-1.85.2-4.07-.01-6-1.64-.43-.46,1.74-1.63,2.02-1.31.31-2.96-.16-4.36-.02.12,3.93,3.75,3.55,6,3.99.17,1.19.57,2.81,1.99,3-.11-.8.24-1.93.04-2.5-.23-.66-1.47-.39-2.03-.5ZM191.05,44.97l-.52,2.97c1.53-1.02,2.49-3.15.52-2.97ZM193.04,50.96c-.65.08-1.34-.06-1.99,0-.46,2.92,2.19,3.44,1.99,0,.65-.08,1.34.06,1.99,0l-1.01-4.99c-2.53.33-1.06,3.75-.99,4.99ZM197.05,47.95c1.84.25,2.92.06,3.97-1.5l-3.97.52v.98Z"/>
      <path class="cls-1" d="M174.54,102.96c.65.33.65.67,0,1v-1Z"/>
      <path class="cls-1" d="M160.54,177.96c.65.33.65.67,0,1v-1Z"/>
      <path class="cls-1" d="M259.04,170.96c-.32,3.26,1.13,7.71-1.47,10.08-.79.72-4.13,1.05-2.53,2.92.31.36,2.38-.82,1.99.99l-4.51.99.02-2.97c-1.13.7-1.64,2.97-2.48,3.52-3.67,2.38-2.54-.96-3.36-2.14-.4-.59-2.58-1.67-2.67-2.9-.05-.65,1.61-.31,1.86-.97.74-1.92-3.37-2.78,3.14-5.02-1.48.24-1.89-2.38-2.02-2.47-2.31-1.58-1.96,4.06-3.98,1.97-1.42-1.47,1.71-4.22,1.77-4.48.26-1.17-.51-4.79.24-6.51,2.18-.07.42,4.47.98,5,.37.35,3.66-.36,4.02-.02.52.5-1.12,4.23.98,4-.2-2.01.42-4.43,0-6.32-.16-.71-3.16-.72-1.97-3.68.04-.1,2.77,2.48,2-.99l-3.02-.5,3-1.49c-7.36-1.25-3.8-1.1-4.3-4.35-.13-.87-1.4-1.6-1.43-2.94-.03-1.83,1.38-4.47.75-6.72,2.09,0,.21,3.37,1.96,4.58.94.65,2.47-.52,3.4-.31,1.9.42,5.2,6.07,7.13.73,3.26,3.43,3.87,6.56,2.5,11-4.47-2.15-3.55.42-6.99,2.5.09,3.61,5.3,3.12,6,3.5,1.87.98-.99,2.82-1.01,3,1.39-2.71-2.4-3.16-3.74,1.77-1.05,3.84,2.54,4.47,2.73,4.23.58-.78-1.01-3.26-.82-4.42s1.7-1.33,1.83-1.58ZM253.03,157.96c.72-1.4-.63-2.67-.98-1.99-.72,1.4.63,2.67.98,1.99ZM250.54,157.96v1c.65-.33.65-.67,0-1ZM254.54,157.96v1c.65-.33.65-.67,0-1Z"/>
      <path class="cls-1" d="M253.54,186.96c.65.33.65.67,0,1v-1Z"/>
      <path class="cls-1" d="M237.32,89.71c1.09,2.54,6.43,9.77,8.73,14.55.39.82,3.46,1.21,1.98,5.2l2-.5c-1.95,4.16.42,2.25,1.31,4.24,1.81,4.07,3.13,9.62,4.93,14.04,1.22,2.99,4.35,4.59,2.76,9.73-1.08-.87-5.55-.4-5.99,0-2.59,2.37,4.93,1.29,2.99,3.99l-3.99-.99c-.41,1.66,1.67.36,2,1.72.24.96-.36,2.65.1,3.2.64.76,4.01-1.5,2.88,3.07-3.54.3-.49-3.25-4.99-1l.99-3.99-2.5,1.98c1.22-4.01.13-3.97-1.51-6.97l-1.97,1.99c1.56-6.67-3.13-1.81-4.01-4.5-.34-1.04,2.49.29,1.99-1.49-.83-.1-2.33.34-2.85-.14-.97-.89-2.6-11.3-3.22-13.11-.25-.73-3.83-3.19-4.43-4.81-.55-1.5.59-2.82,0-4.9-.78-2.78-7.32-7.35-8.4-13.79-.18-1.06,2.84-2.56,2.89-4.82,0-.4-1.97-.44-1.95-.87.01-.31,1.69-5.68,1.87-5.94,1.46-2.1,7.47.22,6.1-4.63,2.61,1.3,1.34,6.56,2.27,8.74ZM254.54,127.96v1c.65-.33.65-.67,0-1Z"/>
      <path class="cls-1" d="M55.54,228.96c.65.33.65.67,0,1v-1Z"/>
      <path class="cls-1" d="M54.54,230.96c.65.33.65.67,0,1v-1Z"/>
      <path class="cls-1" d="M317.54,259.96c.65.33.65.67,0,1v-1Z"/>
      <path class="cls-1" d="M317.54,261.96c.65.33.65.67,0,1v-1Z"/>
      <path class="cls-1" d="M135.54,332.96c.65.33.65.67,0,1v-1Z"/>
    </g>
  </g>
</svg>