<?xml version="1.0" encoding="UTF-8"?>
<svg id="Layer_2" data-name="Layer 2" xmlns="http://www.w3.org/2000/svg" viewBox="0 0 3888 3380">
  <defs>
    <style>
      .cls-1 {
        fill: #212121;
      }
    </style>
  </defs>
  <g id="Layer_1-2" data-name="Layer 1">
    <g>
      <path class="cls-1" d="M60,2160l-6,2-1.14,4h-.86l-2,10-18,22-.7,1.22-1.3.78-.21,1.86-1.62,2.83-.17-.7-4,8,2,10,1.71,1.14.29.86,1.33.22,2.67,1.78h32l8,14,12,6h12l4.25-2.83,23.75-3.17,4-2,4-3.33,4-2.67.08-.73,3.92-3.27,8-20,12-6,10-8h12l20,6v4l-4,12,5.65.94.35,1.06h6l6-8,.36-1.09,7.64-10.91,8,2,4,4,10,4,4,8,4,20-6,2-2,10h-8l-4,4,2,8,16,2,8,10,4,2,2,2,1.11-.44.89.44,2.29-1.71,5.71-2.29,8-2,12,20,12,14,18,14h12l38-2,18-6,26-8,.64-4.45,1.36.45,1.67-10h10.33l8,10h28l20-8,8,4h12l12,2h18l38-6h16l14-8,16-2h8l8-2,8-6,22-12,24-4,20-10h12l10,4,14-2,14-2,8,8h28l-2-4-10-4-6-6h8l36-10,24-6,12,2,8,10,8,2v6h-4l-2,1-6,1-6,2-6,2-34,8-6,6,2,4,22-2h16l-2,2-20,10-8,8,2,12-24,2-10,6-4,8h6l6-2,21.33-6.67,18.67-5.33,14-10,18,2,4-4,14.14-7.71,14.01-6.59,25.85-9.69,36-12,16-4.8,6.67-1.87,21.33-5.33v-.64l12-3.36v4h-4l-32,14-58,22-34,14-20,8-10,12-20,8-36,10-12,6,4,6,1.78-.22.22.22,3.33-.67,26.67-3.33,20-4,30-14,24-6,14-6,8,3.56v.44l10,4-8,6-8,6-24,12-16,10-6,10,2,10h-22l-3.43,1.71-2.57.29-10,6-.29.86-1.71,1.14-14,2-20,12-20,6-4,8-10,2v.27l-6.21,1.41-3.79.32-24,6-14,6-46,16-30,10-16,8-26,8-5.65,2.12-.35-.12-26,10-6.59,3.84-1.41.16-16,10v6h10l18-4v-.5l6-1.5,20-4,5.33-2h2.67l8-4,20-4,16-2,20-12,10.67-2h5.33l16-4,16-10,22-4,12-4,16.67-8.33,1.33.33,14-8,24-4,6.67-2h3.33l10-4-6,6-16,6-36,14-30,8-18,8-20,6-2,6v14l1.43,2.14-7.43,1.86-24,12-12,6-50,18-32,12-4,8,2,8,10,2,8-2,18-6,22.4-6.4,15.6-3.6v-.86l4-1.14,22-8,38-8-1.04,5.22-10.96,12.78-14,6-12,6-20,8-6,10-20-2-1.18.24-2.82-.24-1.71,1.14-4.29.86-14,10-10,10-12,6-20,4-6,2-6,2-3.69,1.54-18.31,6.46-6,6-2,14-14,8-32.62,11.86-1.38.14-10,4-2,6h10l32-6,26-8,18-4v4l-14,6-20,6-6,4,.67,1.33-.67.67,1.2.4.8,1.6,2.5-.5,1.5.5,16-4,34-12,38-14,60-14,44-6h24l2,6-14,2-32,14-40,12-32,16-38,16v8h26l14-4,6-8,12-6,40-10,5-1.67,9-2.33,32-12,28-8,26-8h12v6l-20,10-8,4-20,4-8,4-16,4v.36l-6,1.64-24,12-10,10-22,4-14,4-38,18-34,12-14,6-2,2-8,8,12,2-6,2-18,6-28,6-20,8-6,6,6,6h26l14-6,46-14,16-8,48-14,32-8,72-24,22-4-4.29,5.71-5.71,4.29-16,8-22,4-18,8-30,8-8,8,2,8h10l7.33-2h.67l3-1,11-3,20-4-2,4-14,6-18,12-30,6-28,10-3.5,2h-2.5l-8,6-12,8-16,8-20,8-10,12-24,9.6-4,.4-10,4-.75,1.5-1.25.5-18,4-26,8-18,6v6h10l28-8,9.33-2h.67l9-2h11l2,2,10,10h10l10-2,27.37-9.58,28.63-8.42h14l10,4,12,2-2,6-28,10-4,8,6,4h16l-6.55,4.36-1.45-.36-4,4-8,16-5,5-15,5-66,20-32,10-4,8h12l18-6h16v4l-10,8v10h-4l-30,14-24,6-30,10-26,10-2,6,16,6,12,10h18l14-2,2-2,32-4v4l-26,10-42,12-20,12-2,8,10,4v4h1.6l2.4,6h14l8-2,22-12,16-4,16-4,34-10,42-12,22-2,2,4-6,6-78,26-28,8-48,14-34,14-22,6-4,2-16,8v12l-8,4v4l8,12h12l18-6,48-10,8-4,20-6v6h-6l-2,6,10-2,36-12,26-8,26-12,16-2v4l-4,2-10,10-15.33,7.67-26.67,8.33-24,28-16,6-4.8,2.4-1.2-.4-6,4-4,8,8,2,6-2-.55-.18,4.55-1.82,10-2,12,6,30,2,2,2,17.6,3.2,6.4,4.8,14,6h18l16-2,78-6,56-6,38-8,34-10,7.47-2.13.53.13,76-22,56-14,84-22,105.8-26.07.2.07,32-8,16-2,4,6,6-2-.29-.29,4.95-1.98,1.33.27,8-4,24-8,10-8,10-4,.4-.4,47.6-13.6,52-14,42-14,60-18,50-16-2,4-10,6-24,10-7.33,3.67-2.67.33-6,4-2,8h8l16-8,18-6,76-20,36-6,30-4-12.5,5-25.5,9-70,24-66,22-42,16-16,4-48,12-72,16-16,6-4,10-18,2-24,6,2,4,24,8h12l18-6,48-10,38-6v6l-22,6-32,8-22.29,6h-1.71l-28,8-18,6-30,8-31,10.33-1-.33-10,4-13.33,11.67-12.67,6.33-18,2-30.86,10.29-53.14,13.71-22.15,6.46-5.85,1.54-.8.4-12.34,3.6h-2.86l-4,2-2,8h32l14,6h18l72-12,58-12,56-14,30-4,14-6,34-10,18-2-13.5,6-17.77,6.18-.73-.18-16,6v6h14l20-4,38-12,18-4,4-4,38-12,84-26,54-14,108-36,56-22,18-2,2,6-24,10-52,20-80,24-36,14-152,52-22,4-6,4-42,10-44,12-40,10-110,26-88,24-88,28-72,28-30,16-10,10-2,14,8,6,12,10h.86l5.14,4h12l62-12,140-28,114-24,54-12,70-16,112-28,58-16,58-18,50-14,65.52-20.16.48.16,38-12,66-22,64-20h14l4,2,8-8,34-12,7.43-2.29,20.57-5.71,30-10,28.88-11,19.33-6.72,29.79-8.28,12-8h22l4-2,48-20,50-18,42-14,30-10,72-24,22-6-2,4-40,18-8,6,8,2,16-6,20-6,30-8,16-4,4-1.33,10-2.67,10-4,24-8,1-1,9-3-10,10-4,8,10,2,4.74-.53,5.26.53,18-4,1.08-1.08,10.52-2.92h.4l14-4,52-10,10-6,2-8h-8l-44,6,8-8,16-4,36-10,32-6,8-10,40-20,6-6-4-8h-10l-3.5,1.5-4.5.5-.4,1.6-5.6,2.4v10l-10,6-15,4h-1l-14,4-18,6,1.25-2.5,18.75-7.5,16-12,2-14,6-2,.67-.67,3.33-1.33,5.67-2h.33l28-10,5.65-2.12.35.12,42-16,22-10,28-10,2,14,10,2,4-4,18-4v-4l-6-6-4-10,6-2,26-8,30-10,20-10,16-8,30-10,36-14,6,2-2,8-20,10-6,6h10l14-6,44-18,2-4-12,2-18,2,2-10,14-2,2.5-3.5,1.5-.5,2.67-5.33,2.08-2.92,11.25-3.75,1.57-1.04,11.23-2.96h3.2l12-4,20-10,20-2-2,8-20,12v4h10l25-11,7-3,30-12,58-14,26-4,2,4-11.33,6.48-26.67,9.52-18,6-8.5,2.5-1.5-.5-24,8-2,6h8l38-12,6.4-2,13.6-4,4.47-1.65,7.53-2.35v-.42l26-9.58,46-16,22-10,30-10,6-2,18-4,3-2h1l2-2,16-8,12-2,2,4h4l6-8,28-14,12-8,10-10,28-16v-.21l3.09-1.79h.91l6-4,18-16,2-8h-6l-28,8h-20l-14-6,2-6,12-8,10-2,2,10h8l8-8-6-2,2-8,12-14,12-4,12-8,6-10,2-20,2.4-.8,1.6.8,8-4,18-10,10-10,2-16-10-2-10,6-20-6-10-4v-12h4l4-6-2-12-10-2-30,10-6-2,14-4,8-4,20-12,12-14v-12l-6-10-10-2-3.5,2h-2.5l-8,6,6-18,6-10,22-2,4-10h12l2-2-6-18-.8-.8-1.2-3.2-3-1-3-3-4-8,10-4,2-18,2-4v-8l-2-10,4-6,6-18,2-32h16l2-4v-22l-2-16,2-8,14-4v-4l-14-2-6-4-10-10-20,2-6,4-8.75,5-7.25,3.22-16,1.78h-20l-4-4v-14l2-4,12-2,4-6v-14l-2-4v-12l8-20v-32l-6-8v-14l-4-4-16-4-16-8-3.67-1.83-2.33-8.17h4l18-14v-10h-6l-8,10-10,4-4-14h-14l-2,2-4,14-10.5-1.5-5.28-3.17-6.22-9.33-12-16h-18l-6,6-18-2-2,4-6,6-8-2-4-12-10-6-16,8-10,2-6-4v-12l6-10,10-8,20-12,1-1,5-3,5-7,7-7h12l-3-1,9-1,16-10,32-14,7.09-3.82,4.91-2.18,1-1,13-7,12-6-.1-.41,14.1-7.59,24-12,8-4,20-14,2-10h-8l-18,14-16,2-2-2h-10l-18,16-16,10-6,2h-16l-20,14v-8l-1.78-.89-.22-1.11-.91.55-1.09-.55-5.14,4.29-2.86,1.71-10.67,6.67-13.33,5.33-2.31,1.54-1.69.46-2,2-12,8-32,20-16,12-32,12-4.94,3.53-1.06.47.24.12-8.24,5.88h-20l-2,2-12,6h-14l-2,2-10,2-8-10-18-8h-20l2-10,8-14,12-6,16-12,10-6,8-4-4-16,4-4,18-10,1.2-4h.8l4-16h4l8-14,12-10,6-10,18-14,20-16,12,2,2-18,18-22,.86-1.71.64-.79,6.35-7.5h.15l12.6-14.4,7.8-7.2,9.6-8.4,1.89-2.21,4.11-3.79,7.59-6.21.41.21,14-12,24-24,10-4v6l.75-1.5,1.25,7.5h10l6-4,24-22,10-10,10-12,.13-.67,5.87-7.33-4-12h4v4l8,4,8.33-10h3.67l2,2h10l-2,12h-4l-10,10-14,10-4,8-8,2-16,14-28,28-4,8h-4l-6,6,4,2,8-6,5.5-4.5,4.5-3.5-.05-.14,12.05-9.86,28-26,12.86-10h1.14l4-4,10-6,12-10,18-18,10,2-2,12,2,6,10-8,14-6,12-14-2-8-8-2-10,8v-8h4l4-8,16,2,4,8,.94.24,1.06,1.76,3-.75,3,.75v-1.5l2-.5,4-10v-22l2-6,24-18,14-10,4.29-5,5.71-5,12-2,4,2,4,2-8,8v4h6l6-4,4-10-.38-2.67.38-1.33-.71-.94-1.29-9.06,12-14,24-12,16-14v-4h4l2-12h-10l-16,4-2,4-8,2v-6l12-8,16-18v-1.33l3.8-5.07.2.4,4-6v-14l2-14,6-22-2-20-2-12v-14l8-10-8-8,1.12-9,2.78-7.4.1.4,2-6,12-16,2-26,10-4v4h4v4l4,2,2-14,7.06-8.47.94.47,2-4-2-14,10-2,18,2,4-4,2-10,22-4,6-4v-10l-.71,2.86-1.16-11.63,5.88-13.22,6-9.43,6-8.57.19-1.16,1.81-2.84-.8-3.2.8-4.8-4-6h-10l-10,4-1.2.8-2.8,1.2-5,4-9,6-10-2-8-2-8,6-20,8-10,6,2-12v-20l6-8,2-10h-6l-12,22-.73,2.18-7.27,13.82-12,10,2-6v-8h-12l1.59-7.94,13.14-16.06,7.27-8,5.6-6.4,10.61-11.49,11.79-10.11v-4h4l11.43-7.14,6.57-2.19,2.29.76.91,4.57-1.2,6-2,2v10h6l4-8h14l4-4v-12l-8-4-4-8-10-10-14,2-3,2h-1l-14,10-18,24-6,2,6-28-6-10-8-2-8,4v-16l-6-8-4-10,16-4,2-10h-12l4-14,8-20,2-14-10-2-6-2-18-8-8-5.33v-.67l-10-6v-26l2-8v-12l-8-10-8,2-2,10-11-2.75-7-5.25-8,2-10-2-10,2,6,10,6,18-4-4-18-10-44-18-10-10-24,2-4-6-6-10-16-8-6-12-16,2-2-6-2-18h4l10,2,8,2,2-4,12-20,2-14-10-6h-18l-8,6,2,14-6-2-2-12-8-18-34,4-4,4h-14v-4l-16.47-7.32-1.53-10.68,7.89-6.32,10.11-1.68,10,6,6-2,.67-.67,3.33-1.33v-2l2-2,2-10h4l8.4,5.6,9.6,8.4,2.47,1.06,3.53,2.94,4.71.59,3.29,1.41,3.43-.57,4.57.57,4-2,6-28,10-20,6-4,16-4,8-4,18-20,2-12-10-10-10,2-8,8-20,6-14,12-2,14h-14l-4,2-2,6h-4l-8,10-6,12-3.56,2.22-.44-.22-12,8h-14v-4l12-2,4-8-8-6-10-4v-10l-8-20,20-4,8-8-4-20,18-2,8-12,1-2,3-4v-2l2-4,2-18-18-6-8,2v14l4,4v8.4l-8,1.6-2-10-4-6-2-18h8v-8l6-10-2-12-.35,1.41-1.65-7.41-8-6v-4l12-4,9.6-2.4,14.4-1.6,6,6,10-2-4-12,6-6,7-2h9l10-6,14-24,12,2,6-6-2-16h8l4-4,6-14h32l10-6,6-10,12-6,18-6h14l8-4,24-8,2.88-1.6,1.12-.4.24-.35,13.76-7.65,10-2,2,4h6l2-8h4l14-6,20-8,32-10,16-8,2.67-2h1.33l4-4,16,4,6-6,14-6,18-10,4.17-5,5.83-5,14-4,22-10-2-4h-10l-22,6-10,2-4-6-.31.62-1.75-2.19.06-.42-2-2h-12l-30.61,4.17-27.39,1.83-12,4-14,8,6,14h16l-2.93,4.4-13.07,5.6-20,4-6,4.5-14,3.5,6-8,16-2,12-8v-4l-4-2-2-6h4v-4h-12l-18,6-16,6,2,4h22l-20,8-18,4-8,4-22,6-22,2,3.14-4.71,5.81-3.63,1.04.35,6-4,9.69-4.31,12.31-3.69,16-8v-6l8,2,4-6,18-8v-10h4l.5-.5,13.5-1.5.67-.22,1.33.22,4-2,8-12h10v4h4l2-8h6l10-4v-4l-4-2-22,2-10,4-16,8-18,2-2-4-.8-.2-1.2-1.8-3,.75-3-.75-18,10h-18l-10,4-34,8v-12.67l4-1.33,39.27-16.36.73.36,20-8,1.33-.67,10.2-3.57.47.24,16-6,34-10,4-4h-14l-18,4-3.14.86-6.86,1.14-18,6-8.31,1.38-5.87-.84-3.82-2.55h-6l-28,8-28,8v.25l-6,1.75-17.69,10.62-20.31,7.38-22,6,6-18,9-12.6,6.78-4.07,11.84-5.46.39.13,8-4,24-10,12-4,12-4,6.86-2.29,1.14.29,16-6,24-8,14-6,2-8-24,4-10,6-36,6v-12l-8-6v-6l22-18v-10l-2-2h-24v-6h-4l-1.45,1.82-.55.18-10,10-.12.35-9.88,5.65-2-8-16-8-14-2-10,2v-6h-8l-6,4-10,2-2-10-3.5-3.5,1.5-4.5,20-10-4-4-8,2v4h-14l-8-4-4,10-18,2-2-4-6-2-2.4,6h-1.6v4h-6l-7,3-21,7-2.82,2.12-5.18,1.88-20,6-6,4-12,4-10,6-20,8-26,4-2,6-10,6h-22v-4h-8l-5.33,1.33-6.67.67,1.09.73-5.09,1.27h-4l-12,4-32,14-.06.25-3.94,1.75v10l-14,2,2,8-10-4-10-2-8,6-23.31,1.94,1.31-3.94,9-4.5,1,.5,2-2,10-6,8-8,4-8-6-4-2-8h-8l-16,14-2,6-12,4-2-10h-8l-5.71,5.71-3.71,1.71-20.57,8.57-10,12-10,6v-4l-10-2-2.92,2.27-1.08-.27-14,12-18,2-12,6-5.71,4.57-2.29,1.43-6,2h-10l-10,8-14,12-12,2,6-8,8-16,12-12,10-4,22-14,8-16,18-4,24-6,8-2,4-4-2-2v-2l-3.33-1.33-.67-.67-2-.4-4-1.6h-4l2.62-4.38,9.38-5.62,14-8,10-2,2-10-10-2-10.67,4h-19.33l-16,4-14,6-30-2-6,14-4,4h-14l-10-2-12,14h-18l-12,6-10,10-10,6v4h16l15.88-3.53-1.88,7.53-10,4-14,4-20,6-14-2-13.44,21.12-15.5,12.06-17.06,6.82-14,6-6,2-30,12-.4.4-9.6,3.6-32,12-26,6-2,1-4,1-8,5-2,1,.26.09-6.26,3.91-48,16-12,10-34,4-16,8-18,4-6,8-18,2-5.85,2.05-.15-.05-34,12-28,12-18,4-20,8h-18l-2,4-10.5,4.5-17.5,3.5-12,8-24,6-34,8h-24l-2,6-8,2-32,2-10,4-26,6-4,4-14,2-8-4-16,4-18,10-24,6-28,14-18,6-18,8-34,8-4,4-18,4-8,6-24,6-4,4-12,8-40,10-16,10-28,6-10,4h-12l-4,4-14,6-24,4,4-12h18l6-8h8l8,4,6-6,20-8,4-8h4l10-8,4-14h-4l-8,8-10-2-30,8-8,6-14,6-8,6-20,4-6,6h-12l-12,6-20,4-22,10-52,18-22,10-24,6-28,8-36,12-12,8-22,8-30,4-6,6-18,6-14,4-8,4-20,6-28,14-42,12-10,6-14,2-6,6-28,6-6,4-18,4-12,4-6,4-16,4-8,8-12-2-10,4-14,4-32,12-18,4-3,2h-1l-2,2-18,8-14,4-12,6-16,6-24,6-12,4-8,2-12,2-20,4-6,4h-30l-4-4,14-6,12-2,10-8,12,2,10-8,14,2,14-4,6-4v-4h8l6,6,2,.5v1.5h6l10-10,16-4,12-6v-.5l18-7.5,18-8,12-6,.6-1,2.56-1.42.84.42,2-2h10l6-2,1-2,7-4h12l8-6,8-2,10-4,12-4,20-8,40-12,4-4h12l20-8,18-6,2-.8,4-1.2.67-.67,23.33-9.33,16-4,6-4,18-4,8-6,32-8,6-4,18-2,6-4,18-8,18-6,14-6,22-8,24-10,20-6,8-10,14-2,4-4-4-8-10-2-4,4-24,8-26,8-20,8-14,4-22,8-32,10-18,6-10,6-14,6-18,2-12,6-18,6-28,10-6,2-30,10-12,6-10,2-4-8-8,4-8,12-10,2-10,4h-20l-6,8-26,8-20,10-12.75,4.25-1.25-.25-22,8-24,8h-12l-18,4-5.51,1.97-.49.03-22,8-2,1-8,3,1.33.33-11.33,5.67-20,4-18,8-32,6-8,6h-12l-8,6-10-2-8-2-8,10-2,12h-6l-8,6-14,2-14,6-14,8-24,6-22,10-3.6,1.6-8.4,2.4-2.4,2.4-3.6,1.6-22,8-2,8,8,8,1.41-.47.59.47,22-8,18-6,18-10,16-2,6-4h16l10-8h14l-14,18-18,6-2,6h-18l-6,4.5-14,3.5-12,10h-10l-14,8-14,6-16,8-12,14-12,8-4-10h-10l-32,12-16,10-24,12-18,6-8,8-24,4-16,6-4,14,2,6,10-2v-4l30-2,4,4-2,8-10,8,8,4,4,6,6,2,8-6,18-12,24-12,18-6,32-14,12-4,12-6,24-8h16l4-6,24-4,20-14v-4l8,2,8,2,2-4,10-6,10-2,2,8,1.38.46.62,1.54,1.33-.89,2.67.89,8-6,12,2,12-6,6,6h-4l-12,6-16,4-48,16-6,6h-14l-18,8-2,16-2,2-2,10-14,4v-8l4-4v-14l-2-2-2.29.57-1.71-.57-2.67,1.67-1.33.33-1.33,1.33-10.67,6.67-6,22-8-2-4-6h-8l-8,8-8-2-6,2v8l-4,10-10,4,2-6,4-10h-4l-8,6,2,12-12,4-3.2,6.4-3.47,1.16-9.33-1.56v-10h-6l-4,4-2,14-2,2-8,2-2-12-6,2-.86,1.43-1.14.57-4,8-5.33,5.33-2.92,1.17-15.75,3.5-2,2-10,4-2,1.33-8,2.67-12,4-32.31,9.69-1.69.31-.55.36-5.45,1.64-6,6-12,4-36,14-14,2-38,16-26,8-14,6-18,4-8,8-8,2-10.91,4.36-1.09-.36-62,26v.8l-18,7.2-6,6-10,6-26,10v4h8l26-10,26-6,42.95-19.68,25.05-10.32,10-4,4-8h14l10-4,32-10v-4l20-2,6-6,20-4,6-6,10-2,12-4,18-4,12-6,16-4,3.2-2.4.8.4,4-4h28l4-4h16l6-4,26-8-4,12-26,8-3.5,1-4.16,1.09-.34-.09-30,8-1.85,1.38-2.15.62-.57,1.43-3.43,2.57-18,10-24,4-6,4-16,4-10,6-14,4-6,8-10,2-30,10-8,12-8,2-4-6-3.35-.48-.65-1.52h-10l-32,12-32,14-14,4-12,8h-12l-28,12v12l2,4h2l2,2,38-2v8l-8,8,4,8h14l16.36-10.91,23.64-9.09,22-8,2-2,20-6,76-26-4-6-2-8,6-14h10v12l-6,12h12l4-2,16-4,20-8,16-2,2,2,18-6h14l2,6-8,4v10h12l6-2,16-2,10-6h12v10l-16-2-4,4v14l6,6,1.06-.71.94.71,4-4,10-10,16,2,4-6,20-2,18-4,6.55-8.18,5.45-1.82h10l-2,10-14,4-4,2-12,6-12,4-12,2-10,2-2,10,10,2,4-4h14l18-4h16l8-4h12l8-8h26l10,4-2,4-64,18-14,4-8,4-16,2-8,6-14,2-26,8-28,8-4,8-20-2-4,12-12,6v8l10-2,10,2,10,4v4h10l2-2v-12l10,2,6,10h-4l-10,6-26,14-18,10-8,10,2,6h10l14-4-2,12h-4l-8,6-30,12-24,6-12,10-10,6-4,16-14,4-16,8-20,6-10,8,2,14,12,6,10,2,9.79-6.53,32.21-9.47,8-10,14-6,22-10,36-10,40-8,22-2,2,6-28,12-32,12-14,8-22,12-16,10-24,10-20,4-14,8v4l28-4-2,6h-10l-10,6-4,8-22,16,4,8,18,4,12-2,8,8-14,6-10,10-10-2-8-10-12-4-16-2-18-4-12-6-8-4-18-8-10-2-4,4,2,8,1.68,1.2.32.8,2,.86,4.24,3.03-.24.12,2.5,1.5,3.5,2.5,1.06.24,2.94,1.76,10,1.11,4,.89h20l28,14,16,4,4,8,30,10,18,4v10l-12,8-2,6,16,6,8-2,14-2-2,12,12,2,4,6-2,8-12,10-26,6,2-6-2-4-10,2v10h-6l-8,4-30,6-6,4-24,8-24,10-10,6-16,2-2,2-20,8v6h6l26-8,22-4,10-4,30-2,2,2,2,8-34,2-16,4-20,10-8,14h-10l-12,8h-14l-12-8-10,2-4,10-18,2-10,6-28,4v4l6,6v10l-8,6v8l-10,8-10,6,4,10-6,6-10-2-2-8-4-4-4-10h4l6-8h-10l-18-2-6,2v10l6,10,2,10-4,6-10-2h-10l-6,4-10,2-8,2,6,6,2,2,2,10-18,6,2,10,18,2,4-2,12-2v12l-4,18-8,8v6l8,2,8-10,18,4,6,6v10l-6,2-8-2-2.18.55-3.82-.55-.4,1.6-1.6.4v6l-1.92,11.52-5.67,10.4-.41.08-4,8-16,6-6,14-6-2-10-4-10,8-4,10-20,14-10,22-8,8-10,14-2,14-2,2-2,18,6,10,4,18h-4l-2,1-6,1-14,10-4,20H24v6l6,6,18,2v16h1.33l.67,4h16v6h-6ZM766,940l-4,8-10,10h-10l-2-4,2-16,8-6,16,2v6ZM440,1200l-14,12-3-1-1-1v-16l2-4,6-2,.75-1.5,1.25-.5,8,2v12ZM166,2058l-12.44,14.22-3.56,1.78-4,12-6-2v-10l8-8-.71-.36,10.71-9.64,8-4v6ZM1138,796l12-2,8-4v6l-16,12-14,4-7.3,4.17-.7-.17-1.33,1.33-4.67,2.67h-8l-2-10,4-4,20-4,4-10,4-2,2,6ZM3290,136l-2,8,.36.18-.36,1.82-42,12h-8v-4.2l18-1.8,4-4,18-6,3-3,9-3ZM3804,256.67v-.67h-6v-4l8-2,13.75-1.25-1.75,5.25-10.64,3.04-3.36-.37ZM3404,2576l-32,14,2-4v-8h-12l-5,2h-1l-4,2-46,22-32,18-32,14-30,14-32,16-5.33,2.22-.67-.22-18,8-26,8-26,4,2-10,26-8-2.4-.8,14.4-7.2,18-4,10-4,24-16,24-8,67.27-26.91,2.73.91,76-38h12l10,6h14l6-2-4,6ZM570,1642v-4l12-8,18-4-2,8,1.11.56-2.59,1.62-.52-.17-14,8-12-2ZM918,944l-4,4-2-8,6,4ZM1026,856v-4l6-2v6h-6ZM1266,792l2-4,4,4h-6ZM2644,316l8-4,20-4-2,6,.44.22-.44,1.78-20,8h-8l2-8ZM3554,1108l2.8-.4-.8.4h12l2-2,4-8,4,2v18h-10v2h-4l-20,22-8,8-14,4-16,12,2,.5-2,1.5h-2l-4-4,8-16,8-8-2.18-.55,20.18-13.45,20-18ZM3594,1446l-1.43,2.86-2.57,2.14-5.5,2.75,3.5-15.75,8-2-1.12-.75,3.12-1.25.9-2.26,3.36-2.61,1.74.87,10-8,8-2v6l-6,2-10,10,1.26.63-13.26,7.37ZM3580,1422v8l-10,6h-2l-5.54-.69,1.36-2.03.18.73,8-10,1.33-.67,6.67-1.33ZM3424,2412v4l-16,2v-4l8-2h8ZM978,2350v-4l8.4-4.2,21.6-1.8,20-6h18l-4,2-52,12v2h-12ZM314,2240l6,2v12l-6,6h-4l-6-10,10-10ZM848,1088l2,6-10,8h-6l2-10,12-4ZM1029.43,924h-13.43l2-6,4-4,4-2v-2l2-2,2-20-10-2,5.74-7.66,10.92-2.34h3.33l6-2,3.14-6.29,6.86-1.71,12,4,4-8,6-2v4h4l-2,6-6,2-16,8-16-2-8,8,4,6-2,6v8h12l2-2,2-2,16-2,2-4h6v10l-12,2-6,4,1.33.44-9.33,1.56-20,8v1.79l-.57.21ZM2882,232v-4l6-2v8l-6-2ZM3390,512l-8,10h-4l-16-18,4-8h20l4,14v2ZM3472,1184l18-12-4,10h1.78l-2.22,2h-3.56l-20,18,.53.27-4.32,2.47-2.21-.74-2-6,18-14ZM3647.67,1263.33l2.33.67-4-10h10l4,10,6,8v54h-10l-4-10h-2l-2-18,2-30-2.33-4.67ZM3630,1416v-6h4v6h-4ZM3590,1420l7.37-10.32,2.95-2.53,1.68.84,10-8-2,6-12,10,1,.67-3.91,2.61-5.09.73ZM3506.67,1457.33l-6.67,2.67,4-6-.8-.4.8-1.6,8-4-1.33,5.33-4,4ZM3498,1426v-8l4-2v-16h4v18l-3.2,6.4-4.8,1.6ZM3118,1944v-2l2-2h2l4-4h8v4l-10,6-6.48-1.62.48-.38ZM876,2262l-5.33-1.33,4-2,3.33-.67-2,4ZM2271.93,2851.71l-9.93,2.29v1.33l-68,22.67-70,26-41.4,16.87-2.6-.87-36,14-18,4,1.45-2.91,2.55-1.09.12-.18,14.97-6.55,18.91-7.27,40-16,.86-.57,23.14-9.43,30-10,38-14,38-12,32-8,1.2-1.2,3.84-.64.89,3.55ZM1854,3006l8-6,4.92,1.23-6.92,2.77-3.33,2h-2.67ZM1870,2998l20-10,6,2-5,2.5-1-.5-17.27,6.91-2.73-.91ZM1952,2968l-6-2,6-2v4ZM924,1142v4l-8,4h-10v-8l12-6,4.5,1.5,1.5,4.5ZM900,1082l-16,4v-6l4-4,14-2-2,8ZM1200,2210l-16,4v1.14l-8-1.14,9.09-5.45,22.91-6.55-1.65,6.59-6.35,1.41ZM1689.13,2161.04l-3.13-1.04-20,10-24,6h-20l-46,10-4,2h-3.5l1.5-6,24-8,6-4h-.29l24.29-10,60-16,22-2,2,8-4,4-14.87,7.04ZM1404,762l4-6,12-2,2,6-6,4-12-2ZM1152,882v4l-12,6h-6v-8l18-2ZM1126,880l-10,4,2,12-12-4-14-2v-6h4l8-6-1-.33,5-1.67,3.13-4.17,2.87-1.83,12,2v8ZM1846,3012l-24,10-27.93,12.52-2.07-.52-14,6-18,6v-6l24-10,20-6,22-8,14-6.22,8-1.78-2,4ZM2728,292l-4,2-2-6h6v4ZM2934,238v-4h6l-2,4h-4ZM3327.5,165.5l3.41-1.14-.91,3.64-4,2,1.5-4.5ZM3424,824l2-4,8-2v6l-4,4h-4l-2-4ZM3536,1362l5.6-5.6,3.73.93.67.67-2,16-2.86,1.43-5.14-1.03v-12.4ZM3584.89,1315.56l-.89,4.44-10,10,1.26.42-2.76,1.58h-2.5l-12,6,2-6,8-8,16.29-10.86.6,2.41ZM2576,1896l14-14,14-2-10,10,.96.48-14.96,9.52h-5l1-4ZM3352,1486l2,.67-4,3.33-8,4-4,10h-4v-8l8-8,10-8,10-4-10,10ZM3200,258l1.4-2.8.47-.27,2.13,1.07,8-4,12-4,2.18.73-1.04,1.56-5.14,1.71-20,8v-2ZM3028,1984l22-16-8,12,.4.2-5.6,4.2-10.8,3.6,2-4ZM3300,642l6-2-2,6-4-4ZM3290,1518l12-14,14-16,9.88-1.65-3.88,11.65.96.32-2.2,1.68h-2.77l-19.5,15-10.5,7,2-4ZM3266.07,586.93l7.65,2.78,8.29,8.29-16,2-6,4-14,12-18,12,4-18,10-6-2.45-.82,4.45-3.18,10-4v-10l4-2,2,.73v1.27l6.07.93ZM3258,1024v8l-14,12h-8v-6l12-12,10-2ZM3250,582l-12-2v-8l8,2,4,8ZM3126,1668l4.8-6.4,2.7-1.35.5.75v3l-2.29,1.71-5.71,2.29ZM2885.14,1693.71l-2.14-.71,3-1-.86,1.71ZM2772.92,1091.85l2.08-.35,1,.5h5.5l-1.5,1.2-18,10.8-8,2,4-4-1.09-.55,16.01-9.61ZM2680,1806l36-26v-2.12l2.56-1.88h3.44l16-10v8l9.84,3.28-7.84,6.72-2,4-10,8-24,18-48,32-6-2v-16l30-22ZM3060,1680.5v1.5l-10,8v-6l6-2-.86-.29,4.86-1.21ZM3150.67,1647.33l-2.67,2.67-7.64,6.36-2.36-2.36,14-12-1.33,5.33ZM3289.5,1553.5l.21-.36,2.29-1.14,22-28,2-4,5-2h1v4l.8.4-4.8,9.6h-4v4l-24,24-1.6-3.2,1.1-3.3ZM3302,560v20h-6l-6-6-4-10-1.2-1.2-.8-2.8-4-2-2-2-4-10,10-2,8-6h-1l12.75-6h10.25l-2,14-6,4-4,10ZM2644,1848l2,2-2,6-16.65,12.11-11.35,1.89,2-10,16-12h10ZM2912,2572l-16,6-20,16,.57.29-9.03,6.02-13.54,1.69-12-6-14-2,2-4,20-2,12-4,6.67-6.67,3.33-2.33,2,1,8-6,8,2h10l16-4,14-2,2,4-20,2ZM3210,590l6-2,2,8h-8v-6ZM3032,2516l.67-.67,13.33-3.33h3l3,2,2,4-22,4v-6ZM3268,1566l-12,14-16,12-.8,2.4-3.2,1.6-20,8-18,12v4h-4l-12,8-26,4,1-4h1l2-4,22-18,16-13,14-11-.35-.09,2.35-1.91,20-12,10-6,30-20,2,8-6,10,1.2,3.6-1.2,2.4h-2ZM3370,1466v6h-4l4-6ZM3364.38,184.49l-5.05,1.51h-.33l-3-2v-4l10-2-1.62,6.49ZM3334,2442h8l-2,6h-6v-6ZM3382,1436v4l-4,2-4,4-2,1.67v-1.67l-17.14,15.71-8.41,6.73-12.44,3.56,2-6,8-10,14-14h-2l4-4v2l22-22-1.05-.53,16.65-14.27,6.4-3.2,14-6-2,8-6,6,2,1-6,7-16,16-8,4ZM3521.33,1461.33l-3.33,6.67-1-1-1-3,5.33-2.67ZM3584,1378l-8,6v.67l-4,3.33-10,4-2,4-12,4-8,12-10,3.33v-11.33l6-8h10v-4l10-10,6-14h-4l-2-4,2-8,24-22,10,2,1.44,6.48-1.44-.48,2,12v14l-2,6-6,2,2.67.67-2.67,1.33h-2ZM2984,558h-6l-2-10,8-4,4,6-4,8ZM2850,256l-2-8,8-2,2,10h-8ZM2954,2544h4l30-8,6-10,12-4h24l-4,8,1.14.57-3.43,2.29-1.71-.86-9.82,8.42-24.18,5.58-20,12-10,4-4-18ZM3066,2006v-4l8-10,12-4-2,6,1.17.58-3.78,2.65.62-1.23-16,10ZM3188,1730l-6,4-1.85,4.62-.15.13v-.75l-10,6v-4l12-14,8-2-2,6ZM3644,1316l-4,6,1.2,4.8-1.2,3.2h-2l-12.44,16h-5.56v-16l-2-18v-28l4-8,6-2,4,10,6,10,4,14,4,6-.75,2h-1.25ZM3359.43,623.71l.57-1.71-12,2-8,10v10l-.4.4-1.6-.4-4,4-10-2-.67-1.33-.78-3.89.5-6.46,2.95-10.32,4-4h14v-20l-2-2-1.71-11.97,17.71,1.97v4l8,18,2,10-8,2v1.6l-.57.11ZM3366,558l-2,4h-8l-6-6-18-4v-4l26,2,8,4v-1.6l.92.37,1.08,3.23.62.31-.12.19-2.5,1.5ZM3376,550l2-6-.57-1.14.57-2.86h4l3.5,5.25-9.5,4.75ZM2802,261l4-3h12l-2,8,1,.5-7,3.5-8-2v-7ZM2748,296h-8v-6l.77-2.31,9.23-3.69-2,12ZM1234,816v4l-4,2h-12l-2-2,2-6,14-8,12-2,2,8-12,4ZM1170,884h-6l-2-8,10-4,2,8-4,4ZM1142,874h-12v-4l10-8,8-2,2,8-8,6ZM882,994h8v8h-6l-2-8ZM698,1066v-6l12-4v4l-6,6h-6ZM734.5,1125.5l3.5-3.5,12-2-5.05,11.79-8.95-1.79-1.5-4.5ZM798,1116l-14,4-2,2-16,2,2-10h4l-.5-1,3.5-1h3l1.2-1.2,2.8-.8,16-8,12-2,2,6-6,6-8,4ZM662,1134l8,2-2,12-8,2-2-6,4-10ZM714,1130l14-2-4,12-14,4v-10l4-4ZM688,1148l4-8,5.82-1.45,2.18,1.45,2,6,1.33.44-5.33,3.56-10-2ZM780,1148h-6l2-6h8l-4,6ZM944,2372l1,1-7,3,6-4ZM900,2360l-1.33-4h9.33v6l-8-2ZM926,2350l-6,6h-4v-8l10,2ZM886.67,2390h-14.67v-6l14-2,14,2v2l-13.33,4ZM918,2378l4-2,10,2-4,4h-10v-4ZM958,2342l-4-2,4-2v4ZM2834,2674l-36,14-36,12-32,8v-8h6l28-8,30-12,34-12,52-22,38-20v-6l-10-2-34,14-40,14-32,14-20,8-20.57,8-5.43,2-38,12-13.41,5.65-6.59,2.35v.42l-18,7.58-40,14-36,14-12-2-4-8h14l3.5-3.5,3.5-1.5,3,1,10.67-4.67,28-11.2,43.33-12.13,3.6-1.2,10.4-2.8,12-4.67,4-1.33,44-16,18-6,6-2,1.5-1,7.5-3h1l.25-.5,3.75-1.5,24-10,30-12,40-12,18-6,34-12,2-4-2.11.63,3.44-1.96,2.67,1.33,6-8v-12h12l40-12,30-10,3-1,5-1,20-8,32-12,22-10,4.96-2.35,1.04.35,32-16,30-14,26-10,2-4h18l70-24,10-2v6l-6,2,2,.67-8,5.33-42,16-22,6v10h14l10-2-44,20-26,12,2.52.84-2.52,1.16-2.13.93-1.87-.93-28,12-18,8-26,12,.86.57-34.86,17.43-68,32-46,14-20,8-72,24-50,18ZM3478,1490l.8.4-.8,1.6-2-4h1.33l.67,2ZM3538,1454l-6-2,6-2v4ZM3550,1440l6-2-2,6h-4v-4ZM3576,1404l-6,10-14,4-.6,3-2.4,4-3,3-6,2,2-6,8-10,16-12,10-2,2-2-.4-.13,4.08-5.45,3.65.91.67.67-2,10h-12ZM3632,1388h-6v-8h8l-2,8ZM3464,128l-20,12-16,4-2,2-8,4h-2l-8-8,6-2v-4l1.33-1.33.67,1.33,2-2,16-8,7.27-5.45,14.73-6.55h22v2l-2,2-12,10ZM2752,276h14l2.29-3.43,5.71-3.57,4-1,14-2v8l-14,2v2h2l-4,1.33v-1.33h-10l-16,4,2-6ZM2706,292v8l-12,6h-8v-4l10-10h10ZM2628,328l-36,12-10,6,.55.18-4.55,1.82-2.29,5.71-1.71,2.29-16-4v-8h8l6.55-1.45,5.45-.55,1.5-1,4.5-1,30-12,16-4-2,4ZM1206,780l-6,6h-6l-2-6,14-4v4ZM1192,772h-4l-2-4,8-4-2,8ZM1176,794h-4v-6l12-4,2,4-10,6ZM1152,834l12-4,6-4,12-6,18-2,2-6h4l4,8-8,12-14-2-2,4-16,10h-14l-4,4-14,4-13.33,3.33-2.67-1.33-22,8-14,4,2-8,10-6,26-6h6v-4h8l14-8ZM976,876l6,2v8h-8l-2-8,4-2ZM1008,924l-2,6h-4v-4l6-2ZM732,1154l18-6-2,6-8,4-8-1.33v-2.67ZM772,1164l8,2-2,8h-8l2-10ZM864,2260v4l-8-2,8-2ZM951.6,2303.2l2.4.8,10-4,10-2-6,4-10,6-14,4,2-6,5.6-2.8ZM1653.58,3101.19l8.48-2.18,3.94.99,22-8,60-24,66-28,17.59-8.21.41.21,12-6,44-18,58-26,64-24,54-18,58.73-22.45,27.27-9.55,21-7.5,13-4.5,56-20,36-16,8-4,1-2,3.67-2.44,1.33.44,8-6,1.25-1,8.75-5,8-3.33,8-2.67,4.8-2.67,3.2-1.33,14.93-8.14,29.57-12.86,19.5-7.8,32-11.2v-.45l30-9.55,3.38-1.23,8.62-2.77,21-8,11-4,3.23-1.42,6.77-2.58,10-4.67,30-13.33,20-8-6,10-22,14-34,14-10,8-16-2-12,2-8,8-14,4-20,8-28,10-54,18-12,4-.31.92-7.69,3.08-2,6h8l20-2,11.33-2.67,22.67-4.53v1.07l-4.57,2.13-24.59,10.76-46.84,11.24v.15l-8,1.85-68,26-112,40-60,24-48,20-60,22-52,22-84,32-32,14-66,26-66,22-15,6h-1l-34,14-12,2-2-10,28-8,36-10-2.42-.81ZM2474,2948l1.5,3,.2,1.18-9.7,5.82h-18v-4l10-6h16ZM3310,1636l-6,6-18,14v4h-4l-2,4-22,22-4,4-16,14-2.67,6.67.67-2.67-8,6-2.67,2.67-3.33,1.33v2l-2,2-14,10-6.5,8.12-7.5,1.88,2-6,8-6,1.8-2.4,4.2-3.6-1.09-.55,7.09-9.45,8-8,16-12,4-2v-2l2-2,4-4,22-18,18-18,16-16,10-10,1.05-2.63,2.95-3.37-.73-2.18.73-1.82-1.45-.36-.55-1.64-3,.75-3-.75-1.84,1.96-.16.04-8,8.67-20,21.33-10,10-12,14-12,8,2-12,4-6,4-6,18-18,16-12,12-16,24-12,8-10,8-12,14-20,12-4v8l4,4,6-4,2-10-4-4-4-14h-14l6-8,4-4,4-2,2-4,12-10,4-10,10-2-2,6-6,4-2,8,14,2,16-10,12-10,2-10-4-10,9.75-8.12.25.12,2-2,4-8h4l10-10,5-1.25,5,1.25,4,4-2,8,4,4,10-10,8-8,10-2v6l-8,12-8,4-4,12,10,2-2,8-4,2-8-2-10,2,2-6-4-14h-8l-14,10-2,6h4l-2,12-6,10,6,6-4,12-6,2-10,6-4,12h-4l-2,2-16,14-3.85,4.62-6.15,5.38-10,2-4,10-8,6-10,14-16,14-28,26h1l-5,2ZM3634,316l-16,4-18,8-8-2,2-6,14-6,16-8,10,2v8ZM3644,300l10,2v8l-8-2-2-8ZM3594.4,208h5.6v4h-6v-3l.4-1ZM3600,148h-8l4-8,10-2v6l-6,4ZM3504,76l-4,6-10,4v-4l8.35-4.87,5.65-1.13ZM1378,768l-2,8-4.31,1.23-3.69-1.23-20,6-12,6-18,4-2,2-12,4-6,4-18,8-2,2h-2l-22-2-1.67-8.33,1.38-1.38,10.29,1.71,8,2,1.78-3.56,2.22-.44h4l10-8,10-2,6-6h12l10-8,14,4v-4l4-2,16-4,4-4,12,2ZM1162,786h-6l-2-8,4-2,8,2-4,8ZM919.25,871.5l8.75-3.5v9.6l-8,6.4-6-2,5.25-10.5ZM974,958h14l6-6,14-4,19.68-7.16,2.32,1.16,38-12-.27-.53,10.27-1.47v8l-6,6-26,8-18,6-24,10-18-2-12,14-24-2-16,8v2.86l-2,1.14-14,2-10,8-10-2v-6l6-6,14,2v-4l6-6,14-2,6-2,14-6,16-8ZM810,1012h6l10,2,4-2,2.86-5.71,5.14-4.29,10-2,4,4-2,8-20,8-10,6-28,6-5-2-3-2v-6l16-2,2,4h4l4-12ZM707.61,1165.96l.39.04.53-2.11,9.47-1.89-6,12h-4l-1.11-4.44.72-3.6ZM612,2960l-29.33,8.15-16.67,1.85-12,6-2,8-16,2-18,6-30,12-5.71,4.29-.08.03-.21-.32-8,2-20,4-4-4v-6l8-6-.39.06,52.39-18.06,44-10,36-12,22-6v8ZM1384,3076l8-4,18-2v2l-16,8h-10v-4ZM1682,2932l-48,12-24,4h-14l-28,4,24-10,64-20,108-30,24-4,9.82-4.36,8.18-1.64v2l-16,4-40,16-.62.62-3.38,1.38,1.5.5-.83.83-6.67,2.67-58,22ZM2498,2936v-4l-8-6-8,2-12,6-8,6-20,4-5.14,3.43-6.86.57-4.9,1.4-5.1.6v.86l-18,5.14v-4h4l6.77-3.08,3.23-.92,1.85-1.38,10.15-4.62,54-18,25.71-12.1.29.1,8-4,20-6-6,8,.73.36-2.73,1.64-18,16-4,8h-8ZM3461.2,2384.4l-3.2,1.6h-2v1l-3.6,1.8-2.4-.8-2-8,6-8,10,2-.29-.57,4.29,2.57-2,6-6,2,1.2.4ZM3466,1524v-6h4v6h-4ZM3471,1541l1-3,7.5-8.75,2.5-1.25v-1.67l2-2.33,12-8,2-2h2l4-6,12-4,6-12,11.43-15.24,4.57-.76,4-8h4v-4h4l4.67-5.33-.67,1.33,6-4,16-12,2,12-.4,1.2-1.6.8v4h-14v8l-6,6-15,12-9,6,1.14.29-1.59,1.27-1.56.44-4,4-10,4-4,12-8,6-12,6-6,8-14,6-.31,1.08-.69-2.08ZM3650,1372v4l-6,6-6-2v-8l2.67-4,3.77-3.39,11.57-6.61,10-4,2,8-8,6-10,4ZM1788,556l14-2,4-6h8v8l-14,4-10,6-6-2,4-8ZM1360,716l14-4,10-4,22-8,14-4,14-2,20-8,4-4,20-4,12-6,14-4,16-4,4-4,10-2,8-4,14-4,12-6,6,2-4,8-18,10-16,4-18,10-22,8-20,8-24,10-16,2-14,6-18,8-16,6-24,10h-8l-4-4-2-10,10-6ZM1302,746l4-8h12l8-6,18-4v12l-12,10-22,6-8-2-12,2v4l-12,2-10,2-16,6h-6l2-6,10-10h16l12-10,16,2ZM1236,764v6l-6,4-12,2v-6l4-4,6-4,8,2ZM1052,828l4-4h10l7.5-6h16.5l-4,8-12,4h-4l-6,8h-24l-2-6,14-4ZM1016,814l8-2-2,8h-6v-6ZM846,920l-4-2v-12l6-12h4l6,8,2,10-14,8ZM884,902l-6-2,6-2v4ZM950,894l2-6,10-2v6l-4,2h-8ZM966,920h4v-4h20l10-6-2,12-10,4-8,12-8,4v-4l-4.29-1.43-1.71-2.57h-4l4-14ZM948,926h6l-4,12-12,4-4-2-4-8,8,4,10-10ZM884,944l10,4v6l-14,6-8,6h-6l2-12,16-10ZM802,992l-2,8h-4l-2-8h8ZM588,1156l2-16,10,2,2,6-8,8h-6ZM642,1166h-8v-8l4-4,8,2-4,10ZM694,1178l-12,6v-4l3.2-9.6,4.8-2.4v-.57l10-1.43-6,12ZM584,1516l-2,6-6-2,8-4ZM510,1652h6v6h-6v-6ZM384,1736h10l12-6,8,8v14l-2,2h-12l-18-8,2-10Z"/>
      <polygon class="cls-1" points="1746 524 1764 516 1776 516 1782 512 1796 510 1812 504 1830 494 1848 494 1854 490 1872 484 1890 476 1908 472 1916 466 1930 464 1940 458 1964 452 1976 446 2018 432 2028 426 2056 418 2074 410 2106 398 2112 392 2100 390 2092 396 2074 394 2062 402 2040 406 2030 414 2014 414 1986 428 1968 432 1966 434 1944 446 1926 448 1914 452 1900 458 1862 472 1844 476 1838 480 1824 484 1818 488 1800 494 1780 502 1766 504 1760 508 1742 512 1738 516 1734 524 1742 526 1746 524"/>
      <path class="cls-1" d="M1204,694l10-6,4-14h4l2,10,8-2,14-4,4-4,16-6,2-12,2-4,2-2,16-6,4-4,14-4,20-8v-4h4v-4l-20,2-2-6-6,6h-10l-12,2-10,14-10,2-6-6-2-2-3.33.67-2.67-.67-10,4-.18,1.09-5.82,2.91-.35,1.06-1.65.94-36,16-8,8,2,18-12,14-4,8h8l26-12ZM1194,680l8-2,2,10h-10v-8Z"/>
      <polygon class="cls-1" points="2216 396 2236 392 2254 386 2272 382 2282 378 2298 374 2308 370 2322 366 2354 356 2374.57 346.86 2378 346 2390 340 2394 332 2382 330 2356 342 2336 346 2314 350 2266 368 2248 374 2232 382 2214 388 2210 396 2214 398 2216 396"/>
      <polygon class="cls-1" points="58 2032 62 2028 82 2024 84 2018 78 2016 82 2004 83.75 2000.06 84 2000 90 1986 106 1968 108 1958 100 1956 86.13 1968.8 70 1982 62 1992 60 1994.44 46 2010 46.37 2011.11 44 2014 44 2026 46 2030 58 2032"/>
      <polygon class="cls-1" points="2654 252 2670 246 2710 236 2731.33 228 2732 228 2742 224 2745 223 2756 220 2758 218.67 2765 216.33 2768 216 2790 208 2796 206 2798 198 2794 194 2784 194 2768 202 2754 208 2747.71 210.29 2742 212 2722 218 2721.2 219.6 2714 222 2658 238 2644 244 2642 252 2654 252"/>
      <polygon class="cls-1" points="455.08 2894.62 450 2896 448.62 2896.92 440 2900 438 2908 446 2910 458 2908 484 2900 504 2892 506 2884 502 2880 498.8 2880.4 498 2880 497.08 2880.62 486 2882 486 2876 494 2868 494 2860 484 2858 468 2864 467.33 2864.67 464 2866 462.67 2869.33 460 2872 460.62 2874.46 460 2876 461.41 2877.65 462 2880 464.5 2881.25 472 2890 468 2890 455.08 2894.62"/>
      <polygon class="cls-1" points="2282 3028 2272 3028 2248 3036 2234 3040 2196 3050 2176 3058 2156 3064 2156 3068 2166 3068 2182 3064 2236 3048 2237.1 3046.9 2240 3046 2252 3046 2252 3056 2262 3058 2270 3054 2288 3048 2288 3044 2280 3044 2282 3028"/>
      <polygon class="cls-1" points="1968 3132 1974 3132 1996 3124 1996 3121.68 2006 3118 2020 3112 2028.8 3108 2030 3108 2032.57 3106.29 2042 3102 2072 3090 2086 3084 2138 3058 2164 3048 2179.72 3043.86 2180 3044 2202 3038 2218 3032 2218 3028 2206 3028 2198.54 3029.95 2198 3030 2195.78 3030.67 2160 3040 2134 3050 2109 3060 2108 3060 2088 3068 2088 3068.24 2074 3074 2036 3092 2024 3100 2023.69 3100.62 2016 3106 1996 3112 1963.41 3122.37 1914 3136 1909.08 3137.85 1908 3138 1908 3138.25 1882 3148 1879.71 3149.71 1864 3156 1852 3162 1831 3172 1804 3184 1780 3190 1770 3194 1768 3204 1772 3208 1786 3208 1794 3202 1812 3196 1841.65 3184.47 1844 3184 1848 3182 1868 3178 1870 3176 1874 3164 1882 3166 1886 3170 1900 3170 1902 3168 1902 3166 1904 3162 1898 3152 1918 3146 1936 3144 1942 3154 1954 3158 1952 3136 1968 3132"/>
      <polygon class="cls-1" points="1232 482 1262 490 1266 498 1274 506 1286 508 1302 504 1330 490 1326 488 1298 500 1276 502 1272 500 1266 486 1258 482 1264 478 1272 462 1268 460 1260 474 1238 474 1221.75 470.25 1222 470 1212 468 1170 464 1170 472 1188 476 1232 482"/>
      <polygon class="cls-1" points="2834 194 2854 186 2872 180 2886 178 2894 172 2890 164 2886 154 2882 154 2878.8 165.2 2874 170 2846 176 2820 186 2806 192 2806 200 2824 200 2834 194"/>
      <polygon class="cls-1" points="2130 412 2098 424 2094 436 2096 440 2106 440 2114 432 2128 432 2132 424 2146 424 2156 418 2158 412 2162 412 2164 406 2154 404 2140 412 2130 412"/>
      <polygon class="cls-1" points="356 3082 382 3080 386 3078 398 3068 402 3060 396 3058 384 3060 374 3064 350 3072 339.33 3076.44 338 3076 326 3082 324 3088 334 3090 342 3088 341.83 3087.15 356 3082"/>
      <polygon class="cls-1" points="3170 2752 3154 2758 3154 2752 3152.8 2753.2 3152 2750 3148 2750 3144 2751.33 3140 2752 3136 2754 3130 2756 3129.33 2757.33 3128 2758 3128 2760 3126 2764 3128 2764.5 3128 2766 3150 2768 3162 2764 3162.1 2763.6 3172 2760 3206 2744 3208 2738 3198 2738 3170 2752"/>
      <polygon class="cls-1" points="1316 532 1336 532 1366 528 1386 524 1390 516 1386 514 1374 514 1314 524 1316 532"/>
      <polygon class="cls-1" points="758 880 774 880 794 874 800 868 802 854 794 854 786 860 772 864 762 870 744 876 742 882 750 884 758 880"/>
      <polygon class="cls-1" points="1694 548 1694 544 1702 544 1728 534 1730 524 1720 524 1704 528 1688 536 1678 540 1670 542 1668 552 1674 552 1694 548"/>
      <polygon class="cls-1" points="2974 2780 2992 2772 2992 2762 2984 2758 2972 2766 2958 2770 2944 2776 2942 2784 2950 2786 2974 2780"/>
      <polygon class="cls-1" points="2834 2804 2804 2816 2804 2820 2816 2820 2814 2832 2800 2834 2788 2842 2772 2850 2770 2858 2780 2858 2790 2856 2812 2848 2836 2834 2840 2820 2862 2812 2863.18 2810.35 2864 2810 2865.33 2807.33 2872 2798 2874 2788 2866 2788 2834 2804"/>
      <polygon class="cls-1" points="588 2452 590 2456 606 2452 642 2440 668 2430 678 2424 670 2422 604 2444 588 2452"/>
      <polygon class="cls-1" points="2594 206 2606 206 2610 202 2610 192 2606 188 2586 190 2578 196 2576 210 2584 212 2594 206"/>
      <polygon class="cls-1" points="3252 2712 3222 2722 3220 2730 3230 2732 3250 2724 3272 2718 3274 2708 3264 2706 3252 2712"/>
      <polygon class="cls-1" points="3244 126 3262 118 3278 114 3278 113.2 3282 112 3318.67 93.67 3320 94 3337.33 85.33 3352 80 3368 76 3382 68 3402 60 3402.27 59.47 3420 52 3427 49 3444 42 3443.62 41.88 3448 40 3476 28 3478 22 3472 22 3467.2 23.8 3466 24 3444 28 3446 16 3442 16 3418 26 3422 34 3396 46 3395.95 46.16 3392 48 3372 54 3366 58 3358 56 3350 64 3340 68 3336 71 3334 72 3320 78 3317.5 80.5 3314 82 3313.5 84.5 3310 88 3296 86 3288 94 3264 108 3242 112 3226 120 3222 130 3232 132 3244 126"/>
      <polygon class="cls-1" points="2434 2988 2420.74 2992.19 2420 2992 2396 3000 2392 3006 2404 3006 2416 3004 2419.08 3002.77 2432 3000 2454 2992 2458 2984 2450 2984 2434 2988"/>
      <polygon class="cls-1" points="3126 2558 3148 2548 3151.56 2545.78 3152 2546 3164 2538 3184 2528 3208 2514 3210 2506 3198 2506 3190 2510 3136 2540 3118 2552 3116 2558 3120 2560 3126 2558"/>
      <polygon class="cls-1" points="3258 1736 3248 1748 3228 1768 3236 1770 3252 1756 3286 1724 3284 1718 3272 1728 3258 1736"/>
      <polygon class="cls-1" points="2994 2812 2970 2822 2944 2832 2936 2838 2942 2842 2952 2838 2966 2832 2998 2818 3024 2808 3028 2802 3014 2806 2994 2812"/>
      <polygon class="cls-1" points="2076 446 2080 444 2084 436 2082 428 2078 426 2066 426 2052 432 2052 436 2062 442 2076 446"/>
      <polygon class="cls-1" points="3484 2068 3486 2054 3484 2040 3478 2040 3476 2044 3466 2052 3466 2062 3472 2068 3482 2070 3484 2068"/>
      <path class="cls-1" d="M2166,3078l-14,6-24,10-20,8-14,6-28,12-32,12-30,12-22,8-28,6-8,8-18,2-20,10-20,6-14,6-46,14-36,10-36,12-58,22-12,2-4-16-10-2-18,8-3.33,2.67-2.67,1.33v.8l-4,3.2.67,2.67-.67,1.33,1.71,2.86.29,1.14,1,1,3,5,3,1,1,1,1.37-.21.63.21,4.5-1,19.5-3-2,4-10,6-18,8-20,2-4-8-10-2-8,4,2,12,2,10-7,2h-1l-20,6-24,12-4,8h4l4-2,16-4,36-14,2.29-1.71,5.71-2.29,20-6h20l1.88,5-1.88,15-16,8-22,12,2,6,8,2,22-6,52-16,42-12,14-6,2-8-6-6-4-4-3.85-1.54-.15-.46-6-2v-4h-6l-10,6-34,4-12,4-10-2,1.14-9.14,6.86-6.86,14-2,2,2,10,2,3.33-2h.67l10.5-6,13.5-6,20-10,26-10,14.5-5.5,7.5-2.5,16-6,16-6,.78-.78,3.22-1.22,16-4,12-6,18-4,6-4,12-4h4l18-6,1.22-.7,4.78-1.3,11.53-8.24.47.24,3.56-2.67,10.69-4.58,23.75-4.75,1.4-1.4,2.6-.6,4.55-2.48,1.45.48,16-10h14l2-2,2-2,9.6-6.4,9.07-2.27,13.33-1.33,8.4-5.6,11.31-4.11,10.29-2.29,16-10,50-20,20-4,2-2-2-12-10-2ZM1728,3250l-4,2h-2v-4h5.33l.67,2ZM1714,3252l-2,4-6-2,8-2Z"/>
      <polygon class="cls-1" points="2232.8 3059.6 2230 3060 2226.67 3062.67 2224 3064 2213.23 3068.31 2212 3068 2204 3072 2204 3078 2212 3080 2232 3072 2232.92 3070.15 2237.37 3067.68 2238 3068 2244 3064 2244 3058 2236 3058 2232.8 3059.6"/>
      <polygon class="cls-1" points="296 1214 286 1214 276 1222 280 1236 290 1236 296 1232 296 1214"/>
      <polygon class="cls-1" points="1440 584 1464 574 1464 566 1452 566 1446 572 1432 576 1422 586 1432 588 1440 584"/>
      <polygon class="cls-1" points="1354 596 1356 594 1354 593.5 1354 592 1350.4 592.6 1348 592 1343.71 593.71 1342 594 1340.86 594.86 1338 596 1337.69 597.23 1334 600 1320 604 1310 612 1310 616 1320 616 1328 610 1342 606 1345 604 1346 604 1348 602 1354 598 1354 596"/>
      <polygon class="cls-1" points="614 1232 634 1234 642 1226 640 1218 630 1216 614 1224 614 1232"/>
      <polygon class="cls-1" points="686 2482 692 2476 682 2474 658 2480 654 2480 650 2482 648 2488 656 2490 670 2488 686 2482"/>
      <polygon class="cls-1" points="2598 260 2596 268 2604 268 2632 258 2634 250 2630 248 2616 252 2598 260"/>
      <polygon class="cls-1" points="2646 2906 2614 2918 2612 2924 2618 2924 2630 2922 2658 2910 2662 2902 2654 2902 2646 2906"/>
      <polygon class="cls-1" points="2486 306 2502 302 2518 294 2520 286 2514 286 2510 290 2496 294 2492 298 2478 300 2470 304 2468 310 2472 310 2486 306"/>
      <polygon class="cls-1" points="612 1184 612 1174 606 1172 596 1180 582 1186 582 1192 596 1194 600 1190 612 1184"/>
      <polygon class="cls-1" points="664 1216 680 1216 682 1214 682 1208 660 1208 652 1214 650 1224 658 1226 660 1224 664 1216"/>
      <polygon class="cls-1" points="3492 1758 3488 1766 3498 1768 3504 1762 3526 1748 3530 1740 3522 1740 3518 1744 3492 1758"/>
      <polygon class="cls-1" points="484 2416 508 2408 508 2404 496 2404 482 2408 460 2416 458 2422 464 2424 484 2416"/>
      <polygon class="cls-1" points="606 988 614 982 614 972 606 970 602 974 598 982 588 984 586 992 594 992 606 988"/>
      <polygon class="cls-1" points="3437.41 2626.47 3419.25 2636.25 3386 2652 3385 2653.5 3356 2668 3340 2676 3340 2680 3350 2680 3348 2688 3352 2688 3370 2680 3370.62 2679.54 3374 2678 3376 2675.5 3378 2674 3388 2668 3418 2664 3422 2662 3425.33 2656.67 3426 2656 3436 2641 3440 2636 3456 2632 3460 2618 3460 2612 3438 2626 3437.41 2626.47"/>
      <polygon class="cls-1" points="3096 2760 3090 2766 3076 2768 3072.5 2769.75 3062 2772 3054 2780 3058 2790 3068 2790 3082 2780 3098 2776 3104 2768 3102 2762 3096 2760"/>
      <polygon class="cls-1" points="640 1190 632 1190 618 1196 614 1206 628 1208 636 1200 640 1190"/>
      <polygon class="cls-1" points="548 1612 546 1598 532 1596 526 1604 528 1612 548 1612"/>
      <polygon class="cls-1" points="632 1038 638 1034 632 1028 642 1018 632 1016 622 1020 620 1028 624 1038 632 1038"/>
      <polygon class="cls-1" points="3264 2684 3260 2692 3266 2694 3272 2692 3284 2680 3288 2672 3280 2672 3264 2684"/>
      <polygon class="cls-1" points="278 3140 282 3146 294 3148 300 3142 302 3132 290 3132 278 3140"/>
      <polygon class="cls-1" points="2696 178 2710 174 2716.12 171.38 2718 172 2724 168 2722 160 2690 164 2685.33 166 2684 166 2676 170 2674 180 2682 182 2696 178"/>
      <polygon class="cls-1" points="3600 1472 3598 1482 3590 1484 3590 1492 3596 1494 3604 1488 3610 1476 3608 1468 3600 1472"/>
      <polygon class="cls-1" points="2916 86 2918 80 2926 68 2930 60 2922 60 2906 76 2908 84 2916 86"/>
      <polygon class="cls-1" points="1916 500 1918 504 1930 504 1940 492 1932 484 1924 486 1926 496 1918 496 1916 500"/>
      <polygon class="cls-1" points="708 904 728 896 732 888 722 888 712 894 696 900 694 906 704 906 708 904"/>
      <polygon class="cls-1" points="578 1218 586 1218 600 1216 602 1214 606 1204 598 1202 582 1210 578 1218"/>
      <polygon class="cls-1" points="124 1952 126 1950 128 1940 124 1930 116 1932 114 1950 124 1952"/>
      <polygon class="cls-1" points="3468 648 3468 652 3474 660 3482 664 3486 660 3488 652 3478 644 3468 648"/>
      <polygon class="cls-1" points="284 3104 286 3096 282 3096 256 3104 256 3110 266 3110 278 3108 284 3104"/>
      <polygon class="cls-1" points="1004 3154 990 3154 964 3160 962 3166 966 3168 996 3160 1004 3154"/>
      <polygon class="cls-1" points="3668 1430 3668 1440 3678 1442 3682 1438 3684 1428 3674 1424 3668 1430"/>
      <polygon class="cls-1" points="1096 3138 1102 3134 1070 3136 1044 3144 1044 3146 1056 3146 1072 3144 1096 3138"/>
      <polygon class="cls-1" points="614 1292 606 1294 596 1300 594 1308 604 1308 616 1300 614 1292"/>
      <polygon class="cls-1" points="2614 190 2616 200 2624 202 2640 196 2642 188 2636 178 2622 182 2614 190"/>
      <polygon class="cls-1" points="114 1920 114 1912 110 1896 102 1898 104 1918 114 1920"/>
      <polygon class="cls-1" points="3222 2708 3202 2712 3200 2720 3210 2720 3224 2716 3222 2708"/>
      <polygon class="cls-1" points="2512 236 2514 228 2506 214 2498 212 2504 234 2512 236"/>
      <polygon class="cls-1" points="424 2640 414 2640 386 2644 386 2644.42 376 2646 371.52 2647.38 368 2648 366.71 2648.86 324 2662 322 2672 336 2672 342 2670 377.71 2660 380 2660 392 2656 397.65 2653.88 398 2654 424 2644 424 2640"/>
      <polygon class="cls-1" points="2134 386 2142 378 2134 376 2120 382 2112 390 2118 392 2134 386"/>
      <polygon class="cls-1" points="2036 452 2028 452 2014 454 2014 458 2000 458 1986 462 1980 468 1968 470 1964 474 1948 476 1946 478 1946 490 1954 494 1962 488 1970 480 1978 482 1986 480 2000 476 2010 468 2020 470 2033.68 461.79 2034 462 2040 458 2060 454 2060 450 2040 446 2036 452"/>
      <polygon class="cls-1" points="2724 2868 2724.21 2868.21 2708 2874 2700 2880 2698 2888 2710 2888 2746 2872 2746 2864 2736 2864 2724 2868"/>
      <polygon class="cls-1" points="668 2358 648 2364 646 2370 654 2370 676 2362 682 2356 668 2358"/>
      <polygon class="cls-1" points="2830 138 2832 128 2822 128 2816 132 2812 140 2828 140 2830 138"/>
      <polygon class="cls-1" points="362 3044 378 3040 386 3034 376 3032 358 3036 354 3042 362 3044"/>
      <polygon class="cls-1" points="2714 2852 2706 2854 2696 2858 2688 2860 2686 2868 2692 2868 2696 2866 2712 2860 2714 2852"/>
      <polygon class="cls-1" points="2622 26 2624 24 2624 0 2620 0 2616 6 2612 16 2618 26 2622 26"/>
      <polygon class="cls-1" points="532 1320 530 1328 540 1328 548 1324 552 1316 540 1316 532 1320"/>
      <polygon class="cls-1" points="308 3136 318 3140 324 3134 326 3124 312 3128 308 3136"/>
      <polygon class="cls-1" points="552 1196 550 1204 554 1204 570 1200 574 1192 568 1192 552 1196"/>
      <polygon class="cls-1" points="94 1952 92 1942 70 1944 72 1950 94 1952"/>
      <polygon class="cls-1" points="1480 568 1484 566 1484 560 1480 556 1470 556 1468 560 1470 568 1480 568"/>
      <polygon class="cls-1" points="3354 1584 3366 1578 3368 1570 3360 1572 3360 1576 3356 1576 3346 1582 3340 1590 3346 1592 3354 1584"/>
      <polygon class="cls-1" points="8 2080 14 2076 16 2068 8 2066 2 2070 0 2080 8 2080"/>
      <polygon class="cls-1" points="3230 2508 3234 2504 3230 2496 3220 2496 3216 2504 3220 2506 3230 2508"/>
      <polygon class="cls-1" points="3080 2726 3062 2728 3046 2732 3030 2738 3028 2744 3034 2746 3052 2740 3072 2734 3080 2726"/>
      <polygon class="cls-1" points="2570 214 2568 206 2558 208 2554 216 2562 220 2570 214"/>
      <polygon class="cls-1" points="3534 390 3538 390 3566 380 3566 376 3534 384 3534 390"/>
      <polygon class="cls-1" points="2910 2844 2908 2850 2920 2850 2930 2844 2930 2840 2916 2840 2910 2844"/>
      <polygon class="cls-1" points="546 1230 558 1230 566 1220 552 1220 548 1222 546 1230"/>
      <polygon class="cls-1" points="1386 594 1376 604 1386 606 1396 596 1386 594"/>
      <polygon class="cls-1" points="3196 1782 3202 1784 3206 1778 3206 1766 3196 1768 3196 1782"/>
      <polygon class="cls-1" points="1150 518 1146 510 1132 508 1130 514 1134 516 1150 518"/>
      <polygon class="cls-1" points="448 2424 438 2424 426 2428 426 2434 434 2434 446 2430 448 2424"/>
      <polygon class="cls-1" points="2570 276 2572 268 2562 268 2554 272 2554 278 2562 278 2570 276"/>
      <polygon class="cls-1" points="592 1240 594 1238 596 1230 582 1232 578 1240 592 1240"/>
      <polygon class="cls-1" points="3306 1706 3316 1706 3320 1698 3318 1692 3308 1698 3306 1706"/>
      <polygon class="cls-1" points="3372 92 3372 98 3378 100 3386 96 3388 88 3382 88 3372 92"/>
      <polygon class="cls-1" points="1758 3204 1752 3202 1740 3208 1740 3212 1746 3214 1754 3212 1758 3204"/>
      <polygon class="cls-1" points="1388 580 1384 578 1370 584 1370 588 1376 590 1384 588 1388 580"/>
      <polygon class="cls-1" points="522 1214 528 1214 532 1212 534 1202 524 1204 522 1214"/>
      <polygon class="cls-1" points="308 3090 296 3092 294 3098 302 3100 308 3096 308 3090"/>
      <polygon class="cls-1" points="1698 3232 1700 3226 1692 3224 1684 3232 1694 3234 1698 3232"/>
      <polygon class="cls-1" points="554 1240 552 1242 548 1250 554 1250 562 1246 564 1240 554 1240"/>
      <polygon class="cls-1" points="2316 3032 2324 3034 2334 3028 2334 3024 2322 3026 2316 3032"/>
      <polygon class="cls-1" points="1334 620 1348 620 1350 612 1340 612 1334 620"/>
      <polygon class="cls-1" points="2178 410 2176 402 2170 400 2166 410 2176 412 2178 410"/>
      <polygon class="cls-1" points="492 1224 500 1224 502 1222 502 1212 494 1216 492 1224"/>
      <polygon class="cls-1" points="514 2734 514 2728 504 2728 500 2736 510 2736 514 2734"/>
      <polygon class="cls-1" points="2466 250 2466 246 2450 248 2446 252 2452 256 2466 250"/>
      <polygon class="cls-1" points="558 1294 564 1290 562 1284 558 1284 550 1292 558 1294"/>
      <polygon class="cls-1" points="3326 1684 3330 1684 3334 1682 3338 1672 3328 1676 3326 1684"/>
      <polygon class="cls-1" points="710 2408 702 2408 690 2416 694 2418 710 2412 710 2408"/>
      <polygon class="cls-1" points="384 2898 376 2894 374 2904 380 2906 384 2898"/>
      <polygon class="cls-1" points="2770 156 2774 154 2776 146 2768 146 2764 150 2766 156 2770 156"/>
      <polygon class="cls-1" points="1144 712 1146 710 1146 702 1138 704 1136 712 1144 712"/>
      <rect class="cls-1" x="482.88" y="1466.88" width="8.25" height="8.25" transform="translate(-1058.19 1586.69) rotate(-75.96)"/>
      <polygon class="cls-1" points="674 2392 682 2392 682 2384 678 2382 672 2384 674 2392"/>
      <polygon class="cls-1" points="3468 64 3470 56 3462 56 3458 62 3468 64"/>
      <polygon class="cls-1" points="3558 78 3558 74 3548 74 3542 80 3554 80 3558 78"/>
      <polygon class="cls-1" points="584 1266 588 1268 592 1266 594 1260 586 1258 584 1266"/>
      <polygon class="cls-1" points="574 1286 582 1288 586 1282 576 1280 574 1286"/>
      <polygon class="cls-1" points="494 1594 500 1594 504 1586 496 1586 494 1594"/>
      <polygon class="cls-1" points="502 1624 514 1616 506 1614 498 1620 502 1624"/>
      <polygon class="cls-1" points="2442 214 2444 206 2438 206 2434 214 2438 216 2442 214"/>
      <polygon class="cls-1" points="1358 608 1358 612 1362 614 1366 612 1370 604 1364 604 1358 608"/>
      <polygon class="cls-1" points="1530 3332 1538 3334 1542 3332 1542 3326 1536 3326 1530 3332"/>
      <polygon class="cls-1" points="3680 332 3686 336 3690 332 3688 326 3682 326 3680 332"/>
      <polygon class="cls-1" points="1406 596 1414 592 1414 588 1410 588 1398 594 1406 596"/>
      <polygon class="cls-1" points="356 1626 348 1628 342 1634 352 1634 356 1626"/>
      <polygon class="cls-1" points="3310 2660 3316 2662 3322 2660 3324 2654 3318 2654 3310 2660"/>
      <polygon class="cls-1" points="2236 3024 2224 3024 2222 3028 2230 3030 2236 3028 2236 3024"/>
      <polygon class="cls-1" points="2432 324 2432 320 2424 318 2422 324 2428 326 2432 324"/>
      <polygon class="cls-1" points="1406 572 1398 572 1396 580 1402 580 1406 572"/>
      <polygon class="cls-1" points="528 1240 532 1232 524 1232 522 1238 528 1240"/>
      <polygon class="cls-1" points="494 1268 502 1268 506 1260 494 1264 494 1268"/>
      <polygon class="cls-1" points="3554 1720 3554 1724 3560 1724 3564 1722 3566 1716 3560 1716 3554 1720"/>
      <polygon class="cls-1" points="524 2338 516 2336 516 2344 524 2344 524 2338"/>
      <polygon class="cls-1" points="412 3028 412 3024 402 3024 400 3030 408 3030 412 3028"/>
      <polygon class="cls-1" points="2138 3072 2146 3074 2152 3072 2156 3068 2144 3068 2138 3072"/>
      <polygon class="cls-1" points="2544 220 2536 220 2532 226 2542 226 2544 220"/>
      <polygon class="cls-1" points="310 1356 306 1344 300 1344 304 1356 310 1356"/>
      <polygon class="cls-1" points="1044 722 1038 722 1036 728 1042 730 1044 722"/>
      <polygon class="cls-1" points="530 1256 536 1256 538 1250 532 1248 530 1256"/>
      <polygon class="cls-1" points="562 1268 554 1268 552 1274 560 1274 562 1268"/>
      <polygon class="cls-1" points="964 748 956 748 954 752 962 754 964 748"/>
      <polygon class="cls-1" points="674 914 664 918 664 922 668 924 674 914"/>
      <polygon class="cls-1" points="738 1002 730 1000 730 1006 736 1008 738 1002"/>
      <polygon class="cls-1" points="2582 2934 2586 2934 2590 2932 2590 2928 2584 2926 2582 2934"/>
      <polygon class="cls-1" points="3392 38 3388 38 3382 44 3392 44 3392 38"/>
      <polygon class="cls-1" points="782 2316 770 2316 770 2320 780 2320 782 2316"/>
      <polygon class="cls-1" points="3328 2696 3336 2696 3340 2690 3328 2692 3328 2696"/>
      <polygon class="cls-1" points="2718 2842 2710 2842 2710 2848 2716 2848 2718 2842"/>
      <polygon class="cls-1" points="496 1244 498 1248 504 1246 506 1240 496 1244"/>
      <polygon class="cls-1" points="3088 72 3084 70 3082 78 3086 78 3088 72"/>
      <rect class="cls-1" x="3700" y="156" width="6" height="6"/>
      <polygon class="cls-1" points="1404 544 1402 540 1396 546 1402 548 1404 544"/>
      <polygon class="cls-1" points="1380 626 1384 626 1388 624 1388 620 1382 620 1380 626"/>
      <polygon class="cls-1" points="892 924 888 924 886 932 890 932 892 924"/>
      <polygon class="cls-1" points="1500 428 1494 426 1492 430 1498 432 1500 428"/>
      <polygon class="cls-1" points="1498 552 1504 554 1506 550 1500 548 1498 552"/>
      <polygon class="cls-1" points="462 1232 454 1236 460 1238 462 1232"/>
      <polygon class="cls-1" points="612 2760 608 2760 606 2766 612 2766 612 2760"/>
      <polygon class="cls-1" points="330 2966 324 2960 322 2966 330 2966"/>
      <rect class="cls-1" x="1988" y="3132" width="8" height="4"/>
      <polygon class="cls-1" points="3628 346 3634 348 3634 344 3628 342 3628 346"/>
      <polygon class="cls-1" points="1436 608 1442 604 1436 602 1436 608"/>
      <polygon class="cls-1" points="3526 1560 3522 1558 3520 1564 3526 1564 3526 1560"/>
      <polygon class="cls-1" points="2664 184 2656 186 2662 188 2664 184"/>
      <rect class="cls-1" x="1288" y="552" width="6" height="4"/>
      <polygon class="cls-1" points="1406 618 1408 612 1402 614 1406 618"/>
      <polygon class="cls-1" points="1090 708 1086 704 1084 710 1088 710 1090 708"/>
      <polygon class="cls-1" points="844 964 838 966 846 968 844 964"/>
      <polygon class="cls-1" points="436 1242 430 1244 430 1248 434 1248 436 1242"/>
      <polygon class="cls-1" points="574 1314 580 1310 570 1312 574 1314"/>
      <rect class="cls-1" x="3472" y="2082" width="6" height="4"/>
      <rect class="cls-1" x="386" y="2796" width="6" height="4"/>
      <polygon class="cls-1" points="906 774 900 772 900 776 904 776 906 774"/>
      <polygon class="cls-1" points="292 1254 292 1250 286 1252 292 1254"/>
      <polygon class="cls-1" points="3386 1516 3380 1514 3380 1518 3384 1518 3386 1516"/>
      <polygon class="cls-1" points="3460 2540 3462 2538 3456 2536 3456 2540 3460 2540"/>
      <polygon class="cls-1" points="360 2716 354 2718 360 2720 360 2716"/>
      <polygon class="cls-1" points="2260 3116 2264 3116 2266 3114 2260 3112 2260 3116"/>
      <rect class="cls-1" x="3654" y="350" width="4" height="4"/>
      <rect class="cls-1" x="1036" y="532" width="4" height="4"/>
      <rect class="cls-1" x="3474" y="1596" width="4" height="4"/>
      <polygon class="cls-1" points="3358 1658 3352 1658 3356 1660 3358 1658"/>
      <rect class="cls-1" x="3220" y="1756" width="4" height="4"/>
      <polygon class="cls-1" points="3302 2668 3304 2666 3298 2666 3302 2668"/>
      <rect class="cls-1" x="2258" y="3102" width="4" height="4"/>
      <polygon class="cls-1" points="3440 132 3440 128 3436 130 3440 132"/>
      <polygon class="cls-1" points="2474 242 2470 244 2474 246 2474 242"/>
      <polygon class="cls-1" points="2310 332 2306 334 2310 336 2310 332"/>
      <polygon class="cls-1" points="460 1494 458 1490 456 1494 460 1494"/>
      <polygon class="cls-1" points="478 1596 480 1600 482 1598 478 1596"/>
      <polygon class="cls-1" points="248 3116 248 3112 244 3114 248 3116"/>
    </g>
  </g>
</svg>