<?xml version="1.0" encoding="UTF-8"?>
<svg id="Layer_2" data-name="Layer 2" xmlns="http://www.w3.org/2000/svg" viewBox="0 0 458.16 316.02">
  <defs>
    <style>
      .cls-1 {
        fill: #9b957c;
      }
    </style>
  </defs>
  <g id="Layer_1-2" data-name="Layer 1">
    <g>
      <path class="cls-1" d="M307.85,241.4c.72.38,2.27,3.52,3.53,3.96,1.57.55,5.28.66,6.73,1.1,13.74,4.16,26.05,11.21,38.81,14.16,2.46.57,2.53,3.62,6.17,2.4l-1,2.98c2.22.03,4.4.81,4.01-1.98h.98c-.44,4.61,2.38,3.31,4.89,4.6,2.33,1.2,4.61,3.63,5.91,4.3,4,2.07,7.02-1.52,4.22,7.08,2,.29-.17-2.56,2.48-2,1.46.31,4.34,5.41-1.49,3.01,3.36,3.26-1.72,5.23.99,9.99-1.36-.47-8.67-2.66-9-3-.41-.43,1.15-2.97,1-3.98-1.26-.6-1.15,4.26-2.99,1.99-.39-.48.66-2.97-.52-3.01-1.48-.06-3.53,1.34-5.81.04-.78-.44-1.51-6.27-6.66-3.54l1.99,2.49c-3.87,1.47-4.61-2.42-5.2-2.7-3.94-1.88-11.89-5.72-15.57-7.23-2.27-.94-14.66-3.53-15.23-4.07-2.66-2.54,4.64-.44,2-2.98-.22-.22-4.48-.44-6.01-1.5l.52-3.49c-4.46,4.73-10.55.12-15.04-2.01l-1.46,1.99-.51-3.01c-3.26,5.62-1.62.48-1.76-.35-.67-4.01-3.77-.99-4.8-1.11-.93-.1-6.62-1.36-6.84-1.64s-.93-6.92-.86-7.28c1.05-5.62,11.83-7.7,16.51-5.24ZM329.09,260.02l-3.99-1.01v4s3.99-2.99,3.99-2.99Z"/>
      <path class="cls-1" d="M25.93,132.25c.54.44-.49,2.18,1.15,1.76.9-5.53,3.21.04,3.51.02,1.01-.06.16-1.52.6-1.87,2.28-1.81,6.68,5.7,7.61,5.91,2.67.59,5.23-1.82,6.83-2.03.5-.07.33,1.45.97,1.68,3.71,1.28,6.31.99,10.18,2.63.37.16.34,1.67.94,1.73,1.12.11,2.86-1.2,3.25-.93.31.21.17,1.98,1.78,2.68s7.33.63,8.15,1.37c.65.59.51,3.81,1.2,5.06,1.62,2.94,4.52.58.99,7.75l3.99,1.51c-1.34,2.09-3.63,1.06-5.3,1.52-1.29.36-.03,2.39-1.68,1.98.24-5.88-4.13-3.46-8.01-2.99v-3.01s-4.01,1-4.01,1l.99-1.96c-2.43-.44-5.13-2.62-5.06.88l-1.41.08-1.53-3.99c-4.1-.32,1.23,2.33-3.49,2.59l-21.94-7.47-11.51,1.93.96,7.97,2.98-1.01c-.65,1.33,1.55,5.92,2.26,6.68,1.1,1.18,3.49.68,3.81,1.96.63,2.51-.16,5.41-3.05,5.38-.45,1.71,1.45.61,1.89,1.07.17.18-1.47,3.59-.89,4.91h7c1.46,1.11.04,1.91-1.51,2.05-3.81.33-8.35-.97-12.29-.25-.92-3.76-10.5-9.27-11.54-12.05-.69-1.86.1-3.49-.33-4.74-1.55-4.63-4.36-6.31-3.11-12.27.35-1.68,4.91-9.33,6.2-10.79,2.09-2.38,4.4-2.16,6.51-3.5.99-.63,1.29-2.46,2.08-2.97.46-.29,10.41-.57,10.83-.23ZM50.09,141.02c-1.87-.26-3.46,0-3.99,1.98h3.99s0-1.98,0-1.98ZM53.59,143.01v1c.65-.33.65-.67,0-1ZM58.04,146.06l-8.95,5.94,5.99,1.01-1.99-2.99c.68-.54,5.12,2.54,6.99-1.51.22-.47-2.57-.65-2.04-2.45ZM63.59,147.01v1c.65-.33.65-.67,0-1ZM32.59,148.01v1c.65-.33.65-.67,0-1ZM70.1,150.02c-.62-.16-7.14-.58-5,1.99.46.55,3.28.1,3.53.21.93.4-.2,2.21,1.45,1.8v-3.99ZM57.59,152.01v1c.65-.33.65-.67,0-1ZM67.07,154.03c-2.9-.81-1.69,2.09-2.98,3.97h5.99s-3.01-3.97-3.01-3.97Z"/>
      <path class="cls-1" d="M237.1,110.01c-2.02,4.85.91,2.79,1.81,3.32.49.28-.45,2.12,1.16,1.67.21-5,5.34-2.19,7.11.49.76,1.15-.17,2.4-.06,2.46.53.3,2.47-.09,3.89.62,2.11,1.05,14.26,11.04,16.09,12.92.41.42,1.35,1.23.98,1.51l-2.99,1c3.36-.38,2.72,3.72,3,4.02.99,1.04,3.11-2.27,4.47-2.01.42.08,2.1,4.75,2.55,5,.6.33,1.53-1.53,2.46-1.67.65-.1,10.07,7.31,10.31,7.92.45,1.12-1.21,1.99-.31,2.73,4.17-2.89,3.2.69,4.95,2.05,1.46,1.14,6.1,2.45,5.57,4.46-.26.98-6.65,4.56-7.19,6.27-4.94-2.29-2.34,5.79-8.8,1.22l1.99-1.98c-1.65,1.02-7.5-2.24-7.78-3.17-.32-1.06,2.44-5.08-.72-6.84-.5.64-3.82,4-4.11,4.03-1.76.22-8.9-5.41-10.7-7-.9-.79-.48-2.29-.93-2.73-4.64-4.5-12.97-7.98-18.64-12.95-3.54-3.1-7.76-6.14-7.11-11.36l-1.98,1.01c-1.06-4.8,1.82-1.57,2.99-4l-2.81-.23-2.18-3.77,5.99,1.98c1.35-7.45-3.37-1.1-5.98-4.97,2.67-1.29,3.35-2.9,6.99-2.02ZM267.09,140.02c-1.4-.72-2.67.63-1.99.98,1.4.72,2.67-.63,1.99-.98ZM269.09,144.02c-1.4-.72-2.67.63-1.99.98,1.4.72,2.67-.63,1.99-.98ZM265.09,147.02c-1.4-.72-2.67.63-1.99.98,1.4.72,2.67-.63,1.99-.98ZM266.59,147.01v1c.65-.33.65-.67,0-1ZM289.09,159.02h-2.99v1.99h2.99v-1.99Z"/>
      <path class="cls-1" d="M137.81,58.35c.57.5,2.19,5.27,2.41,5.47,1.11.97,6.43-1.11,7.15,4.91,3,2.21,23.81,12.25,24.55,13.43.67,1.07-.04,3.45.17,4.84,1.65.43.43-1.74,1.64-2.01,1.36-.3,3.06.28,4.65-.17,1.73-.5,2.38-3.19,5.2-2.9,2.15.22,1.98,2.2,2.83,2.75,1.13.74,2.74.65,3.8,1.79,1.29,1.38-2.52,3.37,4.86,2.56.84,3.66-3.36,1.31-4,2-1.9,2.02,2.4,3.6,3.01,4.99-4.06.66-3.5-2.87-4.28-3.71-.19-.21-4.45-2.46-5.13-2.29-2.25.58-2.42,4.26-1.53,6.26.56,1.26,2.72.05,1.93,2.74l-8.99,1v-3s1.99-1.99,1.99-1.99c-3.52-.91-2.01,4.85-4.48,3.99-3.78-1.31.56-2.39.56-2.57-.08-5.03-2.65-2.17-4.35-2.57-2.53-.6-2.27-4.57-3.74,2.15h-.97c.36-4.15-3.53-.94-5.44-.97-.67-.01-.57-1.68-1.26-2.03-9.89-4.95-17.47-9.71-25.83-15.98-1.06-.79-7.25-6.02-7.47-6.53-.58-1.3,5.69-5.41,3.43-6.49-4.22,1.23-6.38-4.2-1.9-4.96,2.63-.45.33,1.53,1.43,3.25.4.63,1.85.6,2.03,1.4.7,3.24-1.73,8.78,5.38,7.4,1.94-.38-.04-5.93,4.63-3.09l-8.03-5.68-.96-8.32c1.52,2.22,5.45,3.25,6.71,4.34ZM188.09,86.02h-2.99c.76,4.04,1.85,3.79,2.99,0Z"/>
      <path class="cls-1" d="M336.23,197.87c2.45,1.52,7.25-3.51,6.88,3.15,5.13-3.61,5.14.02,5.58.07,1.55.19,3.46-1.73,5.42-.65,1.21.67,1.34,2.43,2.35,3.27,3.96,3.27,13.89,8.04,16.39,12.57.71,1.28-.55,4.44,2.77,4.74.6.05-.06-3.13,2.48-2.02l1.02,6.01c4.37-2.47,6.01,3.63,2.99,6.98,6.08-3.12,3.98,3.12,1.01,1l-.02,4c-1.45.39-1.83-3.8-2.97-2.98-.07.05.24,1.23-.39,1.63-.76.48-2.08.19-2.41.56-.8.87.68,3.14-1.21,2.8-.29-6.67-4.23-2.63-4.91-3.08-1.33-.89-1.73-6.93-7.1-3.91.82-4.38-1.6-2.38-3.97-3.51-3.69-1.76-2.33-7.03-3.18-8.34-.5-.77-8.99-1.86-10.37-4.16-1.28,4.27-1.26.44-2.81-.66-2.5-1.78-6.31-3.38-9.05-5.5-1.76-1.36-4.61-5.61-5.83-6.55-.21-.16-3.34.25-3.79-.28-2.25-2.65,3.6-1.79,4.01-2,.18-.09-.95-2.87,0-3.98,1.68-.6.37,5.27,2.97,2.99,1.27-1.12,1.72-5.28,1.03-6.99,2.21.17,2.53,4.49,3.12,4.86Z"/>
      <path class="cls-1" d="M155.09,33.01c-.16,1.63-3.9-.1,0,4.51-4.19,1.45-2.37-7.38-6.98-8.51,3.12,4.67-3.98,7.82-5.76,3.72-1-2.31.46-.58-1.98-4.03-.62-.88-.11-2.5-.28-2.7-.14-.16-2.27,1.33-4.23.85-3-.73-8.16-6.91-9.96-7.58-.84-.31-2.98,1.27-3.79.74-.6-.4.62-5.58-3-5.01-.46-1.82,2.13-.37,2-1.49-.06-.51-3.11-.56-2.02-3.49-1.69-.22-.97,2.46-2.6,2.96-1.29.4-3.92-1.36-4.39-.96-2.21,1.92,2.57,1.69,1.99,2.99-2.25.73-3.9-1.96-5.51-2-5.17-.12-4.11,14.35-5.5,18.01-2.48-.11-.8-5.72-1.05-5.92-.23-.19-1.59.12-2.56-.44-1.04-.6.08-2.67-4.38-.63l2.99-2.99c-1.4-.71-4.82,1.18-4.99.99-2.03-2.42,9.59-7.81,8-.99l2.99-1.02c.41-1.69-1.37-.63-1.79-1.11-.27-.3.33-6.09-1.21-7.88,5.22.86,1.22-2.33,3.01-6,4.33.82,3.29,2.86,6.98-.02,1.23-1.34-5.28-.49-2.99-2.97.24-.25,5.94-1.97,6.63-2.01,2.87-.19,4.18,1.65,4.87,1.64,1.35-.02,2.04-3.02,5.91-.51,1.1.72,1.41,2.4,2.32,2.96,1.25.77,3.1-.11,4.28.4,11.06,4.81,19.62,13.11,28,21.5-5.1-.61-4.11.39-3.99,5.01,2.21-.14,1.41-3.76,2.57-4.07,3.06-.82,6.2,1.34,7.42,4.06-1.52.44-3.92-1.52-5.05-.58-2.36,1.97,1.9,4.77-5.95,2.59l-.98-6.99c1.02,2.78-4.88,1.35-3.01,4,.48.68,1.36-2.55,1.98.5.15.75-.26,2.12.02,2.49.16.22,1.54-.13,1.99,0ZM99.59,20.01v1c.65-.33.65-.67,0-1ZM143.09,28l-1.01-2.98h-.98c-.1,2.41-.64,3.48,1.99,2.98ZM146.59,29.01v1c.65-.33.65-.67,0-1Z"/>
      <path class="cls-1" d="M213.09,210.02c-1.31,2.23-.63,3.71.01,6,3.22-1.45,6.85-1.37,10.19-2.31,1.14-.32,2.16-1.69,2.3-1.69.79.04,1.13,2.44,1.7,2.83.41.29,8.54.7,9.79.15-.86,4.42,1.97,2.51,4.8,3.68,1.33.55,1.4,3.63,5.22,2.33.63,3.87-1.97.66-2.85,1.22-.21.14,0,1.69-.74,1.77-.62.06-1.75-.89-2.74-.68-4.14.86-3.3,4.48-5.67,7.17,2.35,3.16,4.03.53,5.01-1.97,1.11-2.83-3.27,1.09-2.01-2.51,4.82-1.19,2.13,2.81,3.92,5.39.3.44,6.89,3.31,7.08,5.6-4.17,1.49-6.33-.18-9.73-.77-7.05-1.22-14.68-3.77-20.99-7.2-1.89-1.03-6.43-1.44-6.31-4.52.03-.73,3.11.05,2.02-2.5-5.55.92-10.68-13.88-.99-11.99ZM211.08,213.01c.72-1.4-.63-2.67-.98-1.99-.72,1.4.63,2.67.98,1.99ZM221.24,219.94c-1.15-.85-1.6-4.77-6.12-3.45,2.06,8.89,3.06,2.4,3.45,2.51.7.2,5.25,3.37,5.51,3.01l-.48-2.98c-.62.37-1.82,1.31-2.37.91Z"/>
      <path class="cls-1" d="M192.09,63.01c1.71.26,1.44,3.69,2.01,4.99v-3.51c1.52-2.27,3.57,2.77,3.74,4.19.35,2.83-4.53,4.3-2.75,6.33,1.65,1.88,2.64-3.34,3.98-2.99.18,1-.37,3.52.05,3.95.29.3,7.93,1.12,8.34,1.02,1.19-.3-.08-2.4,1.61-1.97l1.02,3.47-3.99-.48c.63,4.94-4.56,3.43-8,5.01.49,1.95,5.88.84,6.99,2,1.34,1.42-2.35,3.22-2.96,3.32-3.89.65-7.31-2.08-11.03-2.35-.32-1.66,2.5-.97,2.75-2.41.05-.28-.57-5.37-.77-5.57-.32-.33-3.02.17-3.99-.02-.43-1.64,1.73-.46,2.01-1.63,1.39-5.78-3.33-6.84-2.03-12.36l-2.97,2.51c1.7-1.18.45-10.18-1.01-8.51l-2.01,3.99.99-5.99c-2.49.37.67,3.12-2.41,2.93-3.48-.21-9.08-2.06-10.55-5.48-.2-.48,3.17-4.23,3.66-6.27.41-1.7-.35-4.27.32-6.19,1.59,2.23,5.58,1.01,5.84,1.18.32.2,4.55,4.05,5.39,4.81,5.26,4.78,2.73,4.41,4.43,8.73.44,1.11,3.73,3.09,4.32,4.79-.22,1.1-2.24.1-2.91.58-.39.27,0,1.4-.09,1.92-.63-.1-1.35.03-1.99,0-.28,2.09-.1,2.27,1.99,1.99.08-.65-.09-1.36,0-1.99ZM183.09,51.02c-2.86-1.78-2.86,4.76,0,2.98v-2.98ZM182.08,57.01c.72-1.4-.63-2.67-.98-1.99-.72,1.4.63,2.67.98,1.99ZM198.09,77.02c-4.36-.04-2.83,5.19-2.99,7.99l2.99-7.99Z"/>
      <path class="cls-1" d="M137.09,190.01c.07.66-.05,1.35,0,2.01l1.99.99-3.01,3-1-2.99c-1.6-.06-1.73,2.72-2.07,2.97-.29.21-6.68-1.71-6.92-1.97-.32-.34,1.51-4.64,1.02-5.99.25-.3,4.92,3.05,4-.99h-4c-.42-1.81,2.93-.14,1.99-2.49-1.94-4.84-10.75,2.2-4.97-5.5,1.78-.42.64,1.68.99,1.99.54.47,2.02-2.31,3.47-2.01,2.02.42,1.68,5.45,3.75,6.36,2.42,1.07,10.61-.02,14.1.68.67.13.7,1.54.94,1.63.46.18,1.23-.51,1.49-.32.65.48,2.45,3.58,2.81,3.67,3.3.78,2.06-1.45,2.46-2,.8-1.13.81,1.69,1.69,1.97,3.1,1.02,7.95-.24,10.3,3.52-4.25,1.65-.74.54,0,2.48l-3.99,2,5.99-.99c.39.41-.71,3.45-1.24,3.79-.99.63-3.06-.62-2.74,1.19l4.99,1.5-7.99,4.5c-.22-.2,2.7-4.51-.52-5.98-2.06-.94-1.37,3.25-2.47,1.98-.27-.32-.38-2.51-1.52-2.99-1.95,5.11-2.44.43-2.69.28-.34-.21-1.23.66-1.62.43s-.07-1.59-.2-1.7c-.51-.4-1.59,1.55-2.61,1.73-1.57.28-4.36-1.33-6.37-.75-.47-3.2,3.11-1.11,2-4.99-4.76.94-2.11-2.05-3.27-3.77-.99-1.46-2.58,1.78.26-4.23-.14-.21-4.29.94-4.99,1-.07-.65.05-1.34,0-1.99-2.93-.5-3.38,2.27,0,1.99ZM133.59,187.01v1c.65-.33.65-.67,0-1ZM132.59,189.01v1c.65-.33.65-.67,0-1ZM132.59,191.01v1c.65-.33.65-.67,0-1ZM161.09,200.01v-3.99c-3.08.77-2.45,3.78-5.98,2.49l5.98,1.51Z"/>
      <path class="cls-1" d="M104.09,194.01c.53.61-1.64,4.28,3.36,2.98.47-.12.86-2.81,5.65-1.47,4.45,1.24,4.94,4.74,6.99,5.86.84.46,1.94-.46,1.99-.37.99,1.58-3.13,6.01-4.68,6.81-2.33,1.19-10.14,2.49-12.81,2.25s-12.03-2.15-15.1-2.86c-2.08-.48-8.6-2.81-6.39-5.2,7.62,3.6,4.91-5.44,10.99-4.99.54,1.39-4.04.89-1.99,2.98,1.17,1.19,5.84-.46,4.49,2.99,1.61-4.43,4.62-1.36,7.5-4.49l-3.01-1c-.08-1.2,1.61-5.11,3.01-3.49ZM107.09,199.02c-1.4-.72-2.67.63-1.99.98,1.4.72,2.67-.63,1.99-.98Z"/>
      <path class="cls-1" d="M61.84,180.3c.45.7.21,1.86.26,2.71l2.5-1.98c-1.86,5.03,1.93,4.26,2.46,5.02.67.95-1.46,2.59-1.6,3.46-.31,1.97,2.41,2.47,2.6,3.18,1.6,6.05-4.89,1.43-8.97,3.31-.35-.35.4-3.73.9-4.41.79-1.06,4.23.01,3.09-2.08-.66-1.2-6.14-5.74-7.99-4.52l2.51-2.97c-2.97,1.98-7.66,2.82-7.52,6.98-2.02-2.52-5.02-6.54-1.99-8.99l-7,1.98,2.01-9.99c3.12,2.25,17.32,6.08,18.74,8.29ZM64.09,192.02c-1.09-1.09-3.08.9-1.99,1.99s3.08-.9,1.99-1.99Z"/>
      <path class="cls-1" d="M397.43,287.73c.37.6,2.09-.29,1.66,1.27l-3.99,1.52c3.79,1.01,1.08,2.55,1.01,5.49.43.53,2.54-2.53,2.98-2,2.43,2.92-10.45,4.47-11.99,2.99s4.11-3.17,4.01-6.54c-.1-3.59-6.6-.39-3-7.44l1.49,2c.91,0-.1-3.02,1.99-2,1.9.92.59,4.03,2.5,3.98l1.5-4.98c1.97,1.5.63,3.72,1.85,5.71Z"/>
      <path class="cls-1" d="M310.11,183c1.91,1.59,2.31-2.29,3.49-2.97-1.31,3.06,3.42,6.08,5.48,4.97,1.34,4.19-2.01,2.97-1.98,6,2.9-3.69,5.42,4.46,4.99,5-1.68,2.05-1.98-1.85-2.5-2.01-2.6-.77-.11,1.45-.98,1.99-1.23-1.44-5.3-2.68-6.06-3.99-.68-1.18.79-2.84.11-3.98s-5.74-3.05-5.53-6.52c.28-4.48,2.8,1.35,2.99,1.5Z"/>
      <path class="cls-1" d="M112.09,159.02c3.27,3.06-5.03.41-4.98,2.49.04,1.88,5.27,4.72-4.03,4.49l1.02-1.99h-4.01c-.44-4.2,4.69-3.25,2-7,1.52.33,9.63,1.65,10,2Z"/>
      <path class="cls-1" d="M97.87,154.22c.34.27.17,1.84,1.2,2.3-5.13-.85-2-.26-1.93,1.91.02.68-2.11.49-2.1,1.14.01.88,1.11,2.05,1.09,2.88,0,.35-3.47.63-1.06,5.55-1.96.33-.53-2.54-.99-3-1.73-1.74-3.39,1.96-3.63,1.96-.67,0-1.43-.83-1.91-.86-.41-.02.85,5.52-5.46.4,3.48-.74.46-2.47,1-5.49l2.98,1,.02-4c6.15,1.67-.52,1.81,0,6.99,1.7.44.61-1.48,1.11-1.88.41-.33,6.56,2.91,6.54-5.45,0-3.04-1.34-2.82-2.65-4.65,1.45.21,4.79.41,5.77,1.2Z"/>
      <path class="cls-1" d="M409.86,247.3c.51.31-.23,3.07,2.75.74l.49,2.96c1.65.43.47-1.71,1.61-2.02,4.46-1.24,3.6,2.93,5.7,4.71,1.4,1.18,3.26,2.51,5.02,3.98.56.47,5.28,2.92,5.52,3.53.42,1.02-1.25,2.45-.87,2.8,1.89,1.76,2.05-2.02,2.5-2.02,3.39-.02,8.81,8.42,11.61,10.42,1.92,1.38,4.49-.65,1.92,4.14,5.16-1.97,11.97,11.56,11.84,15.03-.08,2.16-1.54,2.89-1.88,3.97-.18.57,1.89.33,2.06,1.1.24,1.06-3.3,10.87-3.97,11.73s-2.14.62-2.94,1.3c-4.69,3.92-3.89,2.7-9.4,4.43-.89.28-.7,1.8-1.37,1.88-3.16.37-6.51-1.05-8.88-1.46-1.02-.18-2.5.8-3.81.41s-8.18-8.35-6.67-10.9c2.2,1.3,4.33,2.3,6.99,2.01l-2.99,2.01c-.89,2.71,1.7,1.8,2.45,2.93s-2.63,2.77,4.54,2.05l-2.98-1.49c1.56-4,1.79-1.56,3.44-2.02,1.06-.3,2.18-1.66,3.02-1.5,1.14.22,2.9,11.45,8.53-2.98-5.42-1.16-10.55-.74-15.99-.02l5.99-2.98c-3.06,0-5.57-1.32-7.98-3.01l.5,3.99c-3.17-.54-2.24-3.68-2.51-4-.25-.3-2.56,1.45-2.99,1.02-.17-.17.17-3.56-1.57-3.97-10.09,5.38-6.46-3.26-2.11-2.78,3.29.37,4.15,3.03,5.47,3.64,1.09.51,8.49,3.77,8.97,3.89,3.8.91,10.35-2.15,10.24-6.17-.13-4.85-3.19-5.56-5.71-7.99-.42-.41-.09-1.94-.51-2.36-2.21-2.23-8.23-.52-6.79-9.29-1.55,1.56-3.14.6-1.98-.97.34-.47,3.79-.31,2.99-3.01l-8.99,1c1.27-4.84-3.45-1.26-3-5,2.65,1.81,5.93,1.04,3.56-2.07-.97-1.27-3.6-.51-4.37-1.13-.49-.4-.32-2.44-1.1-3.37-1.11-1.32-3.07-1-3.81-1.71-1.49-1.43-4.48-10.73-9.28-9.73.32-1.77,5.83-2.27,6.76-1.7ZM434.59,265.01v1c.65-.33.65-.67,0-1ZM444.09,302.02c-1.4-.72-2.67.63-1.99.98,1.4.72,2.67-.63,1.99-.98ZM439.59,313.01v1c.65-.33.65-.67,0-1Z"/>
      <path class="cls-1" d="M411.09,292.01c1.23,2.19,1.28,3.34.99,6.01-2.21-2.09-2.13,1.08-2.47,1.01-2.23-.48-2.49-1.96-2.52-4.01.18.02.92-.64,1.69-.66,1.53-.04,3.79,1.77,2.31-2.34Z"/>
      <path class="cls-1" d="M411.09,292.01c-.02-.07-.93-.98-1-1,.32.32.8.65,1,1Z"/>
      <path class="cls-1" d="M410.09,291.01c-.67-.24-2.09.15-3,0-.01,1.33-.02,2.67,0,4-2.2-.28-3.36-2.38-5.99-1,2.16-2.22-1.51-6.31-1-6.99,1.81-2.39,8.38,2.35,9.99,3.99Z"/>
      <path class="cls-1" d="M164.08,43l.51,8c-1.36-1.07-10.72-7.56-9.5-8.99,2.8,1,6.1,2.27,8.98.99Z"/>
      <path class="cls-1" d="M79.67,197.43c.35.22.54,1.23,1.15,1.63,1.79,1.18,3.88-1.54,3.28,1.94-4.65.86-7.58,2.55-12-.5l4.99-.5-2.99-4.98c2.46-.44,3.82,1.29,5.58,2.41Z"/>
      <path class="cls-1" d="M125.08,191.01c-1.65.4-.39-1.54-1.69-1.98-1.59-.53-4.4-.04-6.29-1.03-.3-1.54,1.66-.86,2.46-2.02.72-1.05.41-2.8.55-2.97.99-1.24,7.61,4.04,4.98,8Z"/>
      <path class="cls-1" d="M174.09,208.01c-1.84,1.76-.73,5.7-4.43,4.98-2.8-.55-.52-4.7-.69-4.91-.34-.42-2.31.66-1.88-1.06,1.64-1.04,5.55.07,6.41-.21,1.52-.5.86-3.4,5.09-2.77-.27,4.69-1.46,1.05-4.51,3.96,3.64-.11,4.13,2.07,5,4.99-4.02-.1-5.82-.68-5-4.99Z"/>
      <path class="cls-1" d="M114.9,175.85c-.4.56-.75-.94-1.87,2.6-1.4,4.43-1.99-.37-3.36-1.51-.65-.55-5.6-1.09-3.57-2.92.45-.41,4.5,1.2,5.36,1,.81-.19.32-2.72,2.12-1.99.81.33,2.03,1.84,1.32,2.83Z"/>
      <path class="cls-1" d="M93.26,27.77c.86.69,2.69.14,3.83.24-.21,7.8-12.21,2.89-4.02-1.99-.03.52-.15,1.48.19,1.75Z"/>
      <path class="cls-1" d="M299.73,163.43c1.7.99,2.43,3.51,3.34,5.09-4.77-1.81-2.61,1.28-5.97,1.48l1.98-5.99-1.49,2.01c-.72.11-3.11-5.66,2.14-2.59Z"/>
      <path class="cls-1" d="M35.35,177.81c.26.47,2.71-.38,1.74,2.2-2.88-1.35-4.27.62-6.99.99-.43-1.66,1.75-.42,2.02-1.66.62-2.84-1.54-4.21,2.96-5.33.06,1.26-.38,2.61.27,3.8Z"/>
      <path class="cls-1" d="M389.08,242.03c1.98,2.86-3.35,5.13-4.99,2.97-.14-.19.85-3.88,1.02-4,.21-.15,3.85.86,3.97,1.03Z"/>
      <path class="cls-1" d="M74.08,187.01l-2.99,2.01c-.33,1.64,2.65,1.09,2.81,2.43.13,1.11-1.98,4.62-1.88,6.01.08,1.08,2.52-.15,2.06,1.55-2.42.88-4.14-1.13-4.06-3.41.03-.72,2.31-.13,2.11-2-.23-2.2-2.31-4.49-3.04-6.58h4.99Z"/>
      <path class="cls-1" d="M175.09,40.01l-6.99-.98c1.29-1.34,3.6-1.21,3.79-1.32.46-.28-.2-1.98.7-1.69.77.25,3.31,3.29,2.5,3.99Z"/>
      <path class="cls-1" d="M402.09,298.02c.11.1.35,2.15-.48,1.98l-2.51-.99c1.58,5.75-7.04,1.57-2.62-.1,1.05-.4,5.13-1.32,5.61-.89Z"/>
      <path class="cls-1" d="M408.79,303.8c-.3.49-1.88-.18-1.7.71l2.99,2.49c-6.04.17-4.16-3.97-1.98-6.98,1.79-.25,1.13,3.04.69,3.78Z"/>
      <path class="cls-1" d="M191.08,208.02c.17.12,1,3.27,1.01,3.98l-2.01-2.99c-2.73,1.99,1.25,3.92-3.99,1.98-.59-.5,3.29-4.16,4.99-2.98Z"/>
      <path class="cls-1" d="M341.09,191.99l-3.02,3.02c-5.24-2.67.72-7.34,3.02-3.02Z"/>
      <path class="cls-1" d="M332.1,192.01c-.17-.12-1.22-3.78-1.01-3.99,5.18-.11,3.51,5.76,1.01,3.99Z"/>
      <path class="cls-1" d="M30.09,167.02c-.66,2.22-2.87,5.56-3.99,2.48-.65-1.79,2.3-2.37,3.99-2.48Z"/>
      <path class="cls-1" d="M120.21,53.92c.38.44,2.27-.66,1.88,1.08-4.48,1.43-3.48-3.69-1-4.98.35,1.08-1.13,3.6-.87,3.91Z"/>
      <path class="cls-1" d="M116.09,56.02c-.36,3.4-7.27-.41-6.99-3.01l6.99,3.01Z"/>
      <path class="cls-1" d="M281.09,246.01c-1.04,1.02-4.01-1.99-2.99-2.99s4.01,1.99,2.99,2.99Z"/>
      <path class="cls-1" d="M246.09,225.02c.23.2-2.38,5.28-4,3.98,1-1.36,2.32-5.42,4-3.98Z"/>
      <path class="cls-1" d="M286.09,245.02c-.53,1.99-2.13,2.25-4,1.98.53-1.99,2.13-2.25,4-1.98Z"/>
      <path class="cls-1" d="M171.09,97l-3.98.52c1.34-2.97,2.09-3.94,3.98-.52Z"/>
      <path class="cls-1" d="M322.08,186.01l-2.99-2.99c1.82-.34,3.32,1.1,2.99,2.99Z"/>
      <path class="cls-1" d="M420.09,305l-4.99,1c1.48-2.13,3.45-4.81,4.99-1Z"/>
      <path class="cls-1" d="M203.09,90.02c.73,2.5-1.77,2.56-3.99,2.99.63-1.15,3.05-3.93,3.99-2.99Z"/>
      <path class="cls-1" d="M252.09,236.02c1.09,1.09-.9,3.08-1.99,1.99s.9-3.08,1.99-1.99Z"/>
      <path class="cls-1" d="M97.09,25.02c.49.38-1.75,2.65-3,1.98-.49-.38,1.75-2.65,3-1.98Z"/>
      <path class="cls-1" d="M135.08,70.01c-2.18-.85-2.37-1.66-.49-2.99l.49,2.99Z"/>
      <path class="cls-1" d="M405.09,303.02c1.09,1.09-.9,3.08-1.99,1.99s.9-3.08,1.99-1.99Z"/>
      <path class="cls-1" d="M116.09,181.02c-.85,2.18-1.66,2.37-2.99.49l2.99-.49Z"/>
      <path class="cls-1" d="M241.09,110.02v.98c-4.16.5-4.16-1.48,0-.98Z"/>
      <path class="cls-1" d="M441.09,308c-2.09.29-2.28.1-1.99-1.99l1.99,1.99Z"/>
      <path class="cls-1" d="M306.09,165.02l-1.99,1.99c-.29-2.09-.1-2.28,1.99-1.99Z"/>
      <path class="cls-1" d="M404.08,252.01c-.35.68-1.7-.59-.98-1.99.35-.68,1.7.59.98,1.99Z"/>
      <path class="cls-1" d="M160.09,40.02c.68.35-.59,1.7-1.99.98-.68-.35.59-1.7,1.99-.98Z"/>
      <path class="cls-1" d="M118.08,57.01c-.35.68-1.7-.59-.98-1.99.35-.68,1.7.59.98,1.99Z"/>
      <path class="cls-1" d="M425.09,313.02c.68.35-.59,1.7-1.99.98-.68-.35.59-1.7,1.99-.98Z"/>
      <path class="cls-1" d="M199.09,64.02c.68.35-.59,1.7-1.99.98-.68-.35.59-1.7,1.99-.98Z"/>
      <path class="cls-1" d="M205.08,75.01c-.35.68-1.7-.59-.98-1.99.35-.68,1.7.59.98,1.99Z"/>
      <path class="cls-1" d="M196.1,89.02c.47-.97,1.93,1.98,1.5,2.97-1.08-.89-1.83-1.51-1.5-2.97Z"/>
      <path class="cls-1" d="M91.09,155.02c.68.35-.59,1.7-1.99.98-.68-.35.59-1.7,1.99-.98Z"/>
      <path class="cls-1" d="M76.59,153.01c.65.33.65.67,0,1v-1Z"/>
      <path class="cls-1" d="M100.59,156.01c.65.33.65.67,0,1v-1Z"/>
      <path class="cls-1" d="M89.59,157.01c.65.33.65.67,0,1v-1Z"/>
      <path class="cls-1" d="M30.59,176.01c.65.33.65.67,0,1v-1Z"/>
      <path class="cls-1" d="M342.59,193.01c.65.33.65.67,0,1v-1Z"/>
      <path class="cls-1" d="M119.59,197.01c.65.33.65.67,0,1v-1Z"/>
      <path class="cls-1" d="M170.59,202.01c.65.33.65.67,0,1v-1Z"/>
      <path class="cls-1" d="M173.59,203.01c.65.33.65.67,0,1v-1Z"/>
      <path class="cls-1" d="M262.18,231.94c.64.48,2.37-1.13,2.79-.76.16.14,0,3.4,2.1,1.8.22-.17-.66-2.25,1.46-2.02,1.66.18,3.23,1.75,5.16,2.04,2.13.32,5.94-1.12,7.67-.03.24.15,2.88,4.78,2.72,5.03s-3.43.03-2.47,3.98c-5.41-1.09-6.12.64-4.53-5.95l-1,2.99c-5.82,2.11-4.69-6.45-8.42-4.91-2.79,1.14-1.33,6.33-4.57,5.94v.97c2.78-.39,2,1.81,1.98,4.01-5.08,1.86-8.36-6.4-4-7.01v-.97c-4.44.31-.25-4.43.02-7,1.71-.44.6,1.57,1.08,1.93Z"/>
      <path class="cls-1" d="M411.59,260.01c.65.33.65.67,0,1v-1Z"/>
      <path class="cls-1" d="M166.59,40.01c.65.33.65.67,0,1v-1Z"/>
      <path class="cls-1" d="M161.59,41.01c.65.33.65.67,0,1v-1Z"/>
      <path class="cls-1" d="M173.59,46.01c.65.33.65.67,0,1v-1Z"/>
      <path class="cls-1" d="M180.6,60.03c1.01.9-1.51,2.54-1.49,1.49l1.49-1.49Z"/>
      <path class="cls-1" d="M41.59,135.01c.65.33.65.67,0,1v-1Z"/>
    </g>
  </g>
</svg>