<?xml version="1.0" encoding="UTF-8"?>
<svg id="Layer_2" data-name="Layer 2" xmlns="http://www.w3.org/2000/svg" viewBox="0 0 1122.16 127.02" preserveAspectRatio="none">
  <defs>
    <style>
      .cls-1 {
        fill: #181718;
      }
    </style>
  </defs>
  <g id="Layer_1-2" data-name="Layer 1">
    <path class="cls-1" d="M506.14,0c3.76,3.54,10.52,1.68,15.49,2.01,4.15.28,14.67,2.41,17.88,2.04.73-.09.14-1.85,2.06-2.13,6.58-.94,19.88,1.25,27.07,1.17,60.89-.69,121.66-.8,182,.92,20.73.59,41.95-2.53,61.05-2.05,61.48,1.53,123.19,1.17,183.94,1.12,26.88-.02,53.99.64,80.98.88,7.48.07,16.92-.74,24.04.05,1.18.13,10.01,2.75,10.37,3.15.47.51.04,2.01.13,2.85l3.99-1.99c.12.24-.09.66,0,1,1.47,5.24,2.96,12.74,3.88,18.62.49,3.14-1.32,11.74,3.12,12.38.04.66-.03,1.34,0,2-1.85,7.39-1.38,15.84-2.1,23.4-.54,5.58-4.14,12.64-.9,18.6-.1,2.65.07,5.34,0,8-2.29,4.47.52,17.35-4.01,20.49-1,.69-2.89.4-3.92,1.08-13.33,8.73-22.54,9.11-37.85,8.72-9.24-.24-15.49,1.05-23.79,1.64-42.25,2.97-85.52.61-127.96,1.04-88.88.91-177.09,3.31-266,1.08-63.25-1.59-127.45,1.74-190.92-1.08-98.29,3.81-200.22-4.92-298.08,0-2.61.13-5.46,0-7.46,2.04-.99-.06-2.01.06-3,0,.48-2.4-1.06-2.26-2.75-2.7-7.15-1.86-16.3-.46-23.75-.32-36.05.69-73.35,2.87-109-.18-1.93-.17-9.59-1.08-10.29-2.09-.4-.59.04-2.15-.35-2.51-.64-.6-2.88.04-3.9-.64-.76-.51-2.72-15.74-2.95-18.07-1.47-15.05-1.37-29.98-2.02-44.98-.1-2.29-1.31-4.59-1.11-7.05.16-1.9,2.05-1.39,2.01-1.89-.82-10.39,1.02-21.59,4.89-31.29.47-1.17,6-6.74,1.22-6.28.34-.3.63-.78,1-1,4.69-2.79,5.37-.83,8.51-1.18C82.38-.35,153.46,4.51,218.6,4.05,313.66,5.58,408.12.64,503.14,0c1,0,2,0,3,0Z"/>
  </g>
</svg>