<?xml version="1.0" encoding="UTF-8"?>
<svg id="Layer_2" data-name="Layer 2" xmlns="http://www.w3.org/2000/svg" viewBox="0 0 259.19 298.66">
  <defs>
    <style>
      .cls-1 {
        fill: #1d2425;
      }

      .cls-2 {
        fill: #131d1f;
      }

      .cls-3 {
        fill: #fef8e8;
      }

      .cls-4 {
        fill: #df602a;
      }

      .cls-5 {
        fill: #192a2b;
      }
    </style>
  </defs>
  <g id="Layer_1-2" data-name="Layer 1">
    <g>
      <path class="cls-1" d="M251.17,88.77c6.08-.82,9.17,3.11,7.63,8.96-2.14,8.09-6.89,18.78-9.95,26.91-15.04,40-30.84,79.73-45.98,119.7-3.69,9.74-6.91,19.73-10.79,29.38-2.07,5.16-4.14,9.89-10.81,8.32-15.25-5.7-30.04-13.85-45.23-19.52-1.53-.57-3.07-1.47-4.79-1.16-.97.18-5.26,4.29-6.34,5.29-10.05,9.36-19.78,20.85-30.21,29.55-2.31,1.93-3.89,3.02-7.14,2.18-1.82-.47-2.64-2.84-3.15-4.49-5.23-16.78-8.02-36.26-12.54-53.53-.5-1.91-.79-4.03-2.06-5.58-1.43-1.75-6-3.39-8.25-4.37-6.4-2.77-13.04-5.06-19.48-7.75-12.33-5.16-27.01-10.49-38.74-16.37-1.34-.67-2.03-.79-2.73-2.25-1.46-3.1-.24-5.98,2.73-7.49,82.46-36.26,165.2-71.89,247.82-107.77ZM216.73,117.58c1.24-.19,3.68-2.02,2.84-3.32-.95-1.47-2.29-.42-3.39-.03-.7.25-.95-.32-.78,1.03-.11.01-.22,0-.33,0-.26,0-.64-.12-.83-.32l.17.66c-.2.1-.48.23-.66.33-.2-.67-.99,0-1.33.16-.66.3-2.35.68-2.32,1.5-.22.1-.43.22-.66.33-.11-.4-2.12.18-2.24.24-2.58,1.18-5.23,2.6-7.85,3.8-.49.23-1.03.18-.86.94-.35.15-.71.21-1,.33l-.16-.66c-.51.85-2.03.66-1.83,1.66-.09.04-.24-.04-.33,0-.22.09-.31.32-.33.33-.09.04-.24-.04-.33,0-.19.08-.28.31-.33.33-.35.15-.71.21-1,.33l-1.73.04-1.93,1.62c-.1.03-.23-.03-.33,0-.22.07-.31.33-.33.33-.1.03-.23-.03-.33,0-.67.19-2.2-.18-1.99,1-.1.03-.23-.03-.33,0-3.71.89-6.1,2.25-9.47,3.89-.4.19-2.27.21-2.15,1.42-.1.03-.23-.03-.33,0-.74.23-2.78.06-2.66,1.33-.1.03-.23-.03-.33,0-1.06.35-3.7.57-3.98,1.99-.32.09-.67.22-1,.33-.19.07-1.89.24-2.65.57-.54.23-2.39.99-2.33,1.76-.11.02-.23-.02-.33,0-.45.1-2.05-.47-1.99,1-.1.03-.23-.03-.33,0-2.2.61-3.94.96-5.82,1.99-.45.25-.97.31-.82,1-.1.03-.23-.03-.33,0-.82.28-2.24.38-3.32.9-.51.25-1.82.68-1.66,1.43-.11.02-.22-.02-.33,0-.4.06-.97-.36-1.73.01-.3.15-.3.59-.67.76-.43.19-.73-.11-.76-.1-.11.04.2.63.17.65-.09.07-1.55-.44-1.99.67-.11-.03-.24.04-.33,0-.03-.01-.04-.33-.17-.33s-.11.27-.17.33c-.1.1-.28.25-.33.33l-1.72.38-.6.95c-.19.08-.37.23-.66.33-.96-1.09-1.32.17-1.49.25-.46.19-2.24.19-2.16,1.41-.11.02-.22-.02-.33,0-1.03.16-3.02-.38-2.66,1.33-.36.16-.73.22-1,.33-.4-.4-1.37.02-1.83.19-1.51.55-3.15,1.47-4.61,2.2-.48.24-1.04.15-.87.94-.36.15-.71.21-1,.33-.28-.15-1.67.02-1.83.09-.73.29-2.34,1.12-3.32,1.57-.49.22-1.67.61-1.49,1.33-.1.03-.23-.03-.33,0-.22.08-.31.32-.33.33-.1.03-.23-.03-.33,0-1.08.34-4.69.36-4.32,1.99-.1.03-.23-.03-.33,0-1.31.4-2.91.41-4.32,1.17-.66.36-.81.12-.66,1.16-.11.01-.22-.01-.33,0-3.28.38-10.23,4.06-14.05,5.71-1.97.85-8.79,3.24-9.86,4.25-.11.11-.22.22-.33.33-.67-.93-1.94.8-2.08.87-.58.28-1.94.49-2.46.73-9.27,4.24-18.92,8.49-28.3,12.5-.36.15-1-.51-.36.52-.19.08-.4.22-.66.33-.06-.34-1.75,0-1.84.04-.11.04.2.61.18.63-.12.09-.61-.25-1-.13-.26.08-1.9.85-1.65,1.46-.11.02-.23-.02-.33,0-5.13,1.09-10.07,4.24-15.35,6.41-1.16.48-2.12.31-3.25,1.23-.1.08-.21.22-.33.33-1.16-.89-1.21.57-1.43.88-.18.25-.71.29-.85.66-.51,1.41.28.97.62,1.12.22.1.44.24.66.33-.1,1.37-.16.65.49.86.92.29,1.86,1.01,2,1.05.34.11,1.32-.06,1.83.08.1.03.23-.03.33,0-.17.81.38.71.9.91,4.11,1.64,7.73,2.95,12.05,4.4.1.03.23-.03.33,0-.12.89,1.58,1.18,2.3,1.52.47.22.74,1.05.69-.19.33.12.66.21,1,.33-.04.97.37.68.83.87,7.99,3.25,15.69,6.52,23.41,9.43.31.12.32,0,.33,0,2.16.8,4.64,2.25,6.84,2.3,1.18.03,4.71-.81,5.11-2.3.09-.03.22.02.33,0,.17-.03,1.83-.98,1.92-1.07.18-.21,0-.76.11-.87.23-.22,1.04.12,1.26-.1.12-.11-.07-.7.1-.88.11-.11.42-.23.93-.74.1-.1.23-.3.33-.33.21-.08.76.14.96-.04.15-.13-.02-.53.03-.62s.25-.3.33-.33c.21-.08.76.14.96-.04.15-.13-.02-.55.03-.62.1-.13.23-.22.33-.33,1.39,0,1.71-.37,1.99-1.66.18-.14.49-.19.66-.33.26-.2.63-.37,1-.66.17-.14.36-.42.66-.66.71.07,1.65.06,1.66-.83l-.33-.17c17.96-14.18,36.42-27.84,54.78-41.5,1.66.73.66-.21,1.06-.6.26-.25.2.22.93-.73.28-.35.4-.41.66-.66l2.33-.82c.11-1.57,1.91-1.47,2.65-1.99.32-.23.28-.88.7-1.32,1.48-1.57,5.51-2.98,6.61-4.83.24-.08.67.05,1-.17.41-.27.24-.67.33-.83,2.66-.93,1.93-1.28,3.32-2.66.11-.11.22-.22.33-.33.8.52.75.46,1.22-.28s3.96-3.25,5.09-4.37c.11-.11.23-.22.33-.33,1.55.44,1.44-.8,1.66-1,1.77-1.54,3-1.96,4.65-3.65.11-.11.22-.22.33-.33,1.33.46,2-1.38,2.42-1.56s1.08-.01,1.22-.12-.04-.72.02-.98c.02-.07.25-.3.33-.33.2-.08.76.14.96-.04.15-.13-.02-.55.03-.62.09-.13.24-.22.33-.33,1.55.45,1.44-.81,1.66-1,1.59-1.37,3.51-2.69,4.98-3.98.12-.1.22-.23.33-.33,1.05.21,2.2-.84,2.85-1.47.13-.13,1.04-1.42,1.13-1.51.1-.1.23-.3.33-.33.21-.08.76.14.96-.04.15-.13-.02-.53.03-.62s.25-.3.33-.33c.21-.08.76.14.96-.04.15-.13-.02-.55.03-.62.09-.13.23-.22.33-.33,1.37.98,1.08-.59,1.41-.91.28-.28,1.06-.16,1.38-.38.1-.07,1.03-1.51,1.19-1.69.25-.28.41-.42.66-.66,1.11,1.19,1.16-.65,1.43-.9.65-.59,2.13-.97,2.57-1.25.48-.31.21-.93.32-1.17.04-.08.25-.3.33-.33.21-.08.76.14.96-.04.15-.13-.02-.55.03-.62.09-.13.25-.22.33-.33,1.45.2,1.22-.16,1.66-1,1.83-.7,2.97-1.81,3.98-3.32.09-.14.26-.23.33-.33ZM238.31,114.59c-.11.03-.24-.03-.33,0-1.2-.35-.93.61-1,.66-.22.19-1.16.05-1,1-.27.23-.59.65-1,1-1.26-.22-2.42.72-2.32,1.99-.18.16-.44.45-.66.66-1.39-.06-1.15.77-1.33,1-.5.61-.89.86-1.33,1.33-1.5-.04-1.53,1.12-1.99,1.66-.24.29-.52.49-.66.66-1.44-.25-1.29.87-1.66,1.33-.25.32-.52.48-.66.66-1.44-.25-1.29.87-1.66,1.33-.26.33-.49.46-.66.66-1.32-.27-1.07.66-1.33,1-.4.51-.68.65-1,1-1.09.04-2.49.76-2.32,1.99-.12.1-.21.23-.33.33-1.44-.25-1.29.87-1.66,1.33-.25.32-.52.48-.66.66-1.44-.25-1.29.87-1.66,1.33-.51.63-.89.86-1.33,1.33-.98.29-2.65.8-2.32,1.99-.22.21-.43.44-.66.66-1.09-.09-2.11.95-2.32,1.99-.3.28-.6.64-1,1-1.5-.05-1.54,1.13-1.99,1.66-.38.44-.7.67-1,1-1.28-.02-2.75.94-2.66,2.32-.11.11-.22.22-.33.33-1.06.03-2.81,1.12-2.66,2.32-.11.1-.21.23-.33.33-1.6-.03-1.77,1.36-2.32,1.99-.49.57-.91.88-1.33,1.33-1.07.28-2.51.63-2.32,1.99-.21.19-.4.42-.66.66-.53.13-1.41.36-1.8.7-.54.47-.42,1.01-.61,1.21-.23.23-1.27.25-1.93.9-.54.53-.5,1.17-.73,1.42-.45.51-2.26.69-2.23,2.09-.19.17-.39.42-.66.66-.75.26-1.74.64-2.34,1.15-.82.69-.75,1.37-1.07,1.75-.4.46-1.04.75-1.9,1.76-.25.3-.48.46-.66.66-.99.07-2.3.53-1.99,1.66-.22.21-.43.44-.66.66-1.29-.02-2.74.93-2.66,2.32-.42.4-.83.87-1.33,1.33-1.35-.24-1.5,1.01-2.1,1.55-.48.44-1.82.24-1.55,1.77-.33.31-.66.67-1,1-1.2.44-2.51,1.53-3.33,2.49-.25.29-.25.76-.32.83-9.77,10.72-23.47,20.91-34.2,31.21-.75-.12-1.01.24-1.51.65-3.12,2.59-7.46,7.23-10.29,10.3-.93,1.01-2.19,2.44-2.82,3.66-.11.11-.22.22-.33.33s-.22.22-.33.33c-1.68,1.67-3.7,4.4-5.64,5.64-.13.08-.99.12-.99.5,0,1.22,2.91,2.1,3.71,2.53,10.74,5.75,22.63,10.45,33.73,15.47,10.24,4.63,20.52,10.19,31.29,13.71.1.03.23-.03.33,0,.07,1.47,1.94,1.33,2.56,1.58s2.96,1.61,3.44,1.25c.29-.22.23-.75.31-.84.2-.23.73-.43,1-.66.04-.04.34.04.55-.12.22-.17,2.3-4.16,2.36-4.43.08-.38-.26-.7-.25-.76.02-.11-.02-.22,0-.33.69.15.75-.35.98-.82,1.33-2.59,2.18-6.23,3.16-8.81,4.06-10.64,8.25-22.2,12.28-32.88.25-.65,1.26-1.5.51-2.31.1-.27.27-.49.33-.66l1.24-1.5c10.53-29.05,21.57-57.66,32.55-86.38,1.71-4.47,3.47-8.92,5.33-13.32.23-.81-.22-.87-.27-1.06s-.23-.46-.33-.66c-.08-.15.19-.59-.18-.68-.72-.18-1.38-.09-1.15.68ZM126.42,198.92c-.67-1.07-.81.42-1,.66-.1.12-.23.22-.33.33-1.85-.36-1.09.62-1.4.93-.26.26-.24-.3-.93.73-.06.09-.25.3-.33.33-.21.08-.76-.14-.96.04-.15.13.02.55-.03.62-.09.13-.24.22-.33.33-1.58-.4-1.36.69-1.66,1-.24.25-.32.28-.66.66-.11.12-.23.22-.33.33-1.76-.42-1.36.88-1.75,1.25-.24.22-.37.2-.9.74-.1.1-.23.3-.33.33-.21.08-.76-.14-.96.04-.15.13.02.53-.03.62s-.25.3-.33.33c-.21.08-.76-.14-.96.04-.15.13.02.55-.03.62-.1.13-.24.22-.33.33-1.53-.41-1.24.59-1.33.66-.64.56-.49.43-1,1-.09.1-.25.3-.33.33-.22.08-.78-.13-.97.03-.14.12.03.54-.03.63-.18.3-.3.53-.66.66-.22.08-.77-.14-.96.04-.14.13.02.56-.03.63-.1.13-.23.22-.33.33-1.46-.71-1.01.33-1.33.66-.21.22-.25.18-.66.66-.1.12-.23.22-.33.33-1.49-.23-1.21.23-1.66,1-1.69.56-.78.46-1.33,1-.45.43-.5.44-1,1-.09.1-.25.3-.33.33-.22.08-.76-.14-.96.04-.15.13.02.55-.03.62-.1.13-.23.22-.33.33-1.74-.28-1.71.75-2.32,1.66-.06.09-.26.31-.33.33-.23.08-.76-.14-.96.04-.15.13.02.55-.03.62-.09.13-.23.22-.33.33-.76.24-1.62.76-2.26,1.22-1.24.9-2.49,1.89-3.38,2.76-.26.26-.4.38-.66.66-.11.11-.22.22-.33.33-1.18-.87-1.3.42-1.66,1.33-.55.25-.74.27-1.33.33-.02,0-.1-.27-.18-.26-.47.09-.54.82-.49,1.26-.17.14-.47.2-.66.33-.14.09-.24.27-.33.33-.34.21-.65.46-1,.66-.26.15-.79-.27-1.27.55-1.41,2.38-.35,6.66.23,9.3,1.15,5.25,2.72,10.86,4.01,15.63l1.4,7.51c.19.63.74.41.95.54s.46.2.66.33c.11.07.24.56.5.66.33-.19-.16-.42-.17-.66,0-.38.2-.26.33-.33.16-.08.46.19.67-.21.4-.73.53-3.44.74-4.51.89-4.52,1.75-9.1,2.54-13.73.41-2.36.5-4.43.84-6.79.21-1.45.85-2.81.84-4.3.95-1.31,2.69-3,3.98-3.98.36-.27,1.24,0,1-1.33,5.24-5.69,14.02-15.44,19.92-19.92.12-.09.22-.22.33-.33,3.04-4.01,12.08-11.31,16.26-15.11,7.19-6.53,14.7-12.75,21.58-19.59-.35-.56-.73.15-.99.33-.77.54-1.54,1.13-2.29,1.69-9.36,7.05-19.62,14.31-28.59,21.71ZM103.51,248.73c-.13.13-.48.19-.66.33-.25.19-.68-.26-1,1-.03.1.02.23,0,.33l-1.2,2.23c-.94,6.73-2.25,13.47-3.48,20.15-.19,1.01-1.55,3.42-.3,3.85.19.14.5.2.66.33.06.05-.15.58.16.67,1.14.35.71-.47.83-.67.63-1.09,1.75-1.83,2.66-2.66,1.01.11,1.85-.68,1.99-1.66.09-.06.16-.22.33-.33,1.27-.84.67-.56,1.33-1.33,1.01-1.18,1.89-1.95,2.99-2.99,1.44.24,1.29-.86,1.66-1.33,2.71-3.41,6.31-6.16,9.3-9.3.21-.22.42-.21.66-.66.37-.7.23-.69,0-1.33-.41-1.15-.65-.75-1.76-1.33-.22-.12-.24-.59-.28-.61-.18-.08-.66.31-.95.28-.11-.01-.23.02-.33,0-.16-.68-.27-.72-.81-1.06-2.13-1.33-2.87-1.4-5.17-1.93-.1-.02-.22.02-.33,0,.17-.77-.39-.71-.87-.95-1.21-.6-1.75-.67-2.86-1.05-.42-.15-.55-1.11-2.38-.66-.39.1-.16.63-.21.68Z"/>
      <path class="cls-5" d="M67.65,221.83h-.33v-.33c.1.04.23-.04.33,0v.33Z"/>
      <path class="cls-4" d="M113.88.45c1.54-1.54,5.36,1.23,6.58,2.39,8.23,7.85,9.8,16.19,6.71,27-2.28,7.98-6.05,10.81-3.24,20,2.64,8.65,12.41,14.49,13.13,24.06.26,3.43.09,7.57-.77,10.87-1.18,4.52-5.89,12.41-5.9,16.37-.02,6.41,7,11.54,7,16.27,0,1.63-1.34,4.62-2.49,5.81-2.33,2.39-15.21,7.66-18.57,7.99-6.65.65-2.39-2.66-1.53-5.85,1.78-6.63-3.13-11.46-5.12-17.08-3.43-9.69,4.61-18.11,5.47-27.72,1.03-11.56-11.61-19.1-12.29-31.52-.79-14.42,13.69-23.62,12.62-36.86-.18-2.27-2.88-10.41-1.58-11.71Z"/>
      <path class="cls-4" d="M78.2,43.93c2.96-.72,2.79,3.94,2.73,5.75-.13,4.13-.96,7.22-.24,11.53,2.43,14.44,17.91,17.58,12.69,34.78-2.65,8.73-9.83,16.92-7.32,26.59,1.34,5.14,8.39,11.01,5.17,17.09-2.25,4.25-15.44,10.2-20.13,10.75-6.78.79-1.63-2.91-.81-5.79,3.46-12.33-11.74-18.58-5.91-33.13,2.58-6.43,10.13-14.71,9.88-21.6-.14-4.04-5.4-11.09-6.95-15.3-3.4-9.22.17-17.22,5.51-24.71.82-1.16,4.3-5.68,5.37-5.94Z"/>
      <path class="cls-4" d="M156.54,35.62c2.85-.77,6.54,6,7.22,8.27,1.66,5.59.19,10.06.5,15.44.53,9.24,10.77,12.23,9.6,23.85-.69,6.88-6.91,14.62-13.12,17.43-7.29,3.3-3.24-6.04-2.6-9.24.54-2.7,1.05-5.73.81-8.47-1-11.75-13.9-14.06-8.54-28.81,1.54-4.25,5.54-9.11,5.59-13.7.01-1.22-1.16-4.3.54-4.76Z"/>
      <path class="cls-3" d="M239.64,114.59c.1.2.29.49.33.66-7.69,19.89-15.57,39.74-23.16,59.68-5.38,14.13-10.37,28.43-15.69,42.58-.07.18-.23.39-.33.66-2.41,6.41-5.15,12.74-7.55,19.17s-8.37,19.76-9.38,25.65c-.02.11.02.22,0,.33-1.36,1.3-1.87,3.6-2.66,5.31-.27.24-.79.44-1,.66-2.28.07-4.21-1.32-6.31-1.99-.1-.03-.23.03-.33,0-14.08-7.03-28.73-12.99-43.06-19.53-7.39-3.37-16.13-6.9-23.14-10.72-.85-.46-1.67-.74-1.54-1.95,1.95-1.25,3.96-3.97,5.64-5.64l.33-.33c.11-.11.22-.22.33-.33,4.87-4.83,9.67-9.87,14.61-14.61,10.73-10.3,24.43-20.49,34.2-31.21,1.51-.54,2.47-2.19,3.65-3.32.34-.33.67-.69,1-1,1.19-1.12,2.45-2.2,3.65-3.32.5-.46.9-.93,1.33-1.33.76-.71,1.76-1.49,2.66-2.32.24-.22.44-.45.66-.66.51-.48,1.15-.72,1.99-1.66.18-.2.41-.37.66-.66,2.05-1.05,3.63-3.16,5.31-4.65.27-.24.48-.5.66-.66,2.33-2.06,4.92-4.12,7.3-6.31.26-.24.46-.47.66-.66.74-.69,1.4-1,2.32-1.99.42-.45.84-.76,1.33-1.33,1.13-.06,1.64-1.38,2.32-1.99.12-.11.22-.23.33-.33.88-.79,1.72-1.45,2.66-2.32.11-.11.22-.23.33-.33.92-.86,1.64-1.21,2.66-2.32.29-.32.62-.55,1-1,1.04,0,1.41-1.14,1.99-1.66.4-.36.69-.72,1-1,.65-.59,1.5-1.23,2.32-1.99.24-.22.44-.45.66-.66.64-.61,1.53-1.15,2.32-1.99.44-.47.82-.7,1.33-1.33.88,0,1.19-.77,1.66-1.33.15-.18.41-.35.66-.66.95.05,1.19-.91,1.66-1.33.12-.1.22-.23.33-.33.89-.77,1.4-1,2.32-1.99.32-.34.6-.49,1-1,.82.03.94-.56,1.33-1,.18-.2.4-.34.66-.66.88,0,1.19-.77,1.66-1.33.15-.18.41-.35.66-.66.89,0,1.19-.77,1.66-1.33.14-.17.42-.37.66-.66,1.01-.04,1.41-1.04,1.99-1.66.44-.46.82-.72,1.33-1.33.84.07.96-.64,1.33-1,.23-.22.48-.5.66-.66.76-.67,1.55-1.32,2.32-1.99.4-.35.73-.77,1-1,.46-.39.94-.95,1-1,.05-.04.94-.65,1-.66.1-.03.22.03.33,0,.36-.09.92.06,1.33,0Z"/>
      <path class="cls-3" d="M216.73,117.58c-.07.1-.24.19-.33.33-1.61.9-3.12,1.69-3.98,3.32-.96.37-.82-.12-1.66,1-.08.11-.24.2-.33.33-.48,0-.84.2-1,.66-.08.03-.3.25-.33.33-1.57.76-3.07,2.12-4.32,3.32-.25.24-.42.39-.66.66-1.44.64-2.96,1.83-3.98,2.99-.1.12-.24.2-.33.33-.48,0-.84.2-1,.66-.08.03-.28.24-.33.33-.48,0-.84.2-1,.66-.1.04-.23.23-.33.33-1.59.59-2.78,1.92-3.98,2.99-.12.1-.22.23-.33.33-1.56.83-3.28,2.06-4.63,3.18-.31.26-.3.76-.35.8-.29.25-.88.04-1.66,1-.1.12-.24.2-.33.33-.48,0-.84.2-1,.66-.08.03-.32.26-.33.33-1.36.54-2.62,1.65-3.65,2.66-.11.11-.22.22-.33.33-1.45.74-3.04,1.82-4.3,2.85-.31.26-.3.76-.35.8-.27.24-.85.1-1.66,1-.1.11-.22.22-.33.33-2.15,1.27-4.52,2.92-6.31,4.65-.11.11-.22.22-.33.33l-3.16,1.99c-.2.23-.1.56-.16.67-.22.08-.62-.11-1,.16-.32.23-.23.66-.33.83-2.48.83-10.09,6.89-12.28,8.96-.27.25-.39.31-.66.66-.87.09-1.36.86-1.99,1.33-18.37,13.66-36.82,27.32-54.78,41.5-.42.33-.88.64-1.33,1-.3.24-.49.52-.66.66-.48,0-.85.19-1,.66-.17.14-.48.19-.66.33-.73.57-1.34.95-1.99,1.66-.11.11-.24.2-.33.33-.48,0-.84.2-1,.66-.08.03-.28.24-.33.33-.48,0-.84.2-1,.66-.1.04-.23.23-.33.33-1.42.87-3.67,2.09-4.32,3.65-.11.02-.24-.03-.33,0-1.73.52-3.12,1.72-5.13,1.67-1.11-.03-5.54-1.52-6.82-2-.1-.04-.24.04-.33,0-8-3.06-15.83-6.97-24.24-9.96-.33-.12-.67-.22-1-.33-.87-.31-1.88-.95-2.99-1.33-.1-.03-.23.03-.33,0-3.99-1.72-8.76-4.25-12.95-5.31-.1-.03-.23.03-.33,0-1.27-.88-2.89-1.4-4.32-1.99-.23-.09-.44-.23-.66-.33-.78-1.59.9-1.47,1.58-2.08.16-.14.04-.54.08-.58.12-.11.23-.25.33-.33.59.45.93.3,1.55.08,2.33-.83,7.25-2.83,9.32-3.98.62-.34.73-.99.79-1.02.08-.04.7.3,1.28.15,1.42-.37,4.21-2.13,5.65-2.86.11-.02.22.02.33,0,1.43-.24,3-1.44,4.32-1.99.26-.11.47-.25.66-.33,4.42-1.87,8.88-3.87,13.32-5.77s10.75-3.75,14.82-6.1c.61-.35.73-.99.79-1.02.13-.07.66.31,1.04.22,1.42-.36,2.42-1.16,3.23-1.93.12-.11.22-.22.33-.33l1.56.08c7.3-3.67,15.14-6.26,22.35-10.04.11-.01.22.01.33,0,1.05-.12,3.9-1.74,4.98-2.32.1-.03.23.03.33,0,1.4-.42,3.13-1.13,4.32-1.99.1-.03.23.03.33,0l.33-.33c.1-.03.23.03.33,0,2.34-.79,4.4-2.05,6.64-2.99.28-.12.64-.18,1-.33,2.47-1.05,4.86-2.24,7.3-3.32.26-.12.64-.18,1-.33.87-.38,1.97-.53,2.66-1.33.11-.02.22.02.33,0,1.58-.27,1.47-1.15,1.7-1.27.1-.05.95-.04,1.95-.39.29-.1.47-.25.66-.33,1.39-.57,1.3.16,2.32-1.33.05-.08.23-.23.33-.33h.33c.09.04.23-.03.33,0,.09.03.02.37.65.2,1.27-.34,3.13-1.54,4.34-2.19.11-.02.22.02.33,0,1.37-.22,3.76-1.54,4.98-2.32.1-.03.23.03.33,0,2.23-.76,4.69-1.69,6.64-2.99.1-.03.23.03.33,0,.74-.19,1.48-.36,1.99-1,.11-.02.23.02.33,0,1.43-.28,3.67-1.57,4.98-2.32.32-.11.68-.24,1-.33,1.37-.41,2.84-1.13,3.98-1.99.1-.03.23.03.33,0,.96-.3,1.93-.59,2.66-1.33.1-.03.23.03.33,0,3.85-1.25,7.98-3.54,11.62-5.31.1-.03.23.03.33,0,.75-.18,1.48-.37,1.99-1,.1-.03.23.03.33,0l.33-.33c.1-.03.23.03.33,0,1.44-.5,2.42-1.14,3.65-1.66.29-.12.65-.19,1-.33l.33-.33c.09-.04.24.04.33,0l.33-.33c.09-.04.24.04.33,0,.78-.33,1.4-.74,1.99-1,.28-.12.65-.18,1-.33,3.69-1.61,7.32-3.3,10.96-4.98.24-.11.45-.23.66-.33,1.29-.6,2.26-.91,3.65-1.66.18-.1.47-.24.66-.33.18-.09.55.03.66-.33.11,0,.23.01.33,0,.75-.1,3.39-1.84,3.65-.49.16.81-1.88,2.18-2.33,2.81Z"/>
      <path class="cls-3" d="M126.42,198.92c8.97-7.4,19.23-14.66,28.59-21.71.75-.57,1.52-1.15,2.29-1.69.27-.19.65-.89.99-.33-6.89,6.84-14.4,13.05-21.58,19.59-4.18,3.8-13.23,11.1-16.26,15.11-.09.11-.25.2-.33.33-5.9,4.48-14.68,14.23-19.92,19.92-.33.36-1.07.49-1,1.33-1.29.99-3.04,2.67-3.98,3.98-1.18,1.63-1.16,2.95-1.56,4.92-1.64,8.15-2.4,16.49-4.09,24.63-.14.07-.34-.05-.33.33h-.33c-.21-.13-.46-.2-.66-.33l-6.6-28.43c-.37-2.1.13-3.45,1.29-5.11.35-.2.66-.46,1-.66l.33-.33c.2-.13.49-.2.66-.33.36-.29.71-.34.66-1,.59-.06.77-.08,1.33-.33.69-.31,1.14-.8,1.66-1.33.11-.11.22-.22.33-.33.83.26.62-.63.66-.66,1.96-1.37,3.83-1.92,5.64-3.98.1-.12.24-.2.33-.33.49,0,.84-.2,1-.66.07-.02.27-.24.33-.33.93-.19,1.69-.97,2.32-1.66.11-.11.24-.2.33-.33.48,0,.84-.2,1-.66.09-.03.24-.23.33-.33.88.22.92-.94,1-1,.51-.36.46.48,1.33-1,.24-.08.6,0,.98-.18.42-.2.46-.57.68-.82.1-.12.23-.21.33-.33.83.26.62-.63.66-.66.25-.18.74-.02,1.33-.66.11-.12.23-.2.33-.33l1-.66c.36-.13.48-.36.66-.66.48,0,.84-.2,1-.66.08-.03.24-.23.33-.33.89.22.9-.93,1-1,.2-.15.62.22,1.33-.66.09-.11.24-.2.33-.33.48,0,.84-.2,1-.66.08-.03.28-.24.33-.33.48,0,.84-.2,1-.66.1-.04.23-.23.33-.33,1.1-.26,1.91-1.19,2.66-1.99.11-.11.23-.22.33-.33.83.26.62-.63.66-.66.51-.35.85-.01,1.66-1,.1-.12.24-.2.33-.33.48,0,.84-.2,1-.66.08-.03.27-.24.33-.33.93-.19,1.69-.97,2.32-1.66.11-.11.24-.21.33-.33.66.1.74-.45,1-.66Z"/>
      <path class="cls-3" d="M109.82,250.72c.11.02.23-.02.33,0,1.49.82,4.41,2.72,5.98,2.99.11.02.22-.01.33,0,.82.79,1.86,1.44,2.99,1.66.23.64.37.63,0,1.33l-.66.66c-2.99,3.14-6.59,5.88-9.3,9.3-.95-.03-1.18.88-1.66,1.33-1.1,1.04-1.98,1.81-2.99,2.99-.77.04-1.29.54-1.33,1.33-.17.11-.25.27-.33.33-.97.7-1.12.86-1.99,1.66s-2.02,1.56-2.66,2.66h-1c-.16-.13-.47-.19-.66-.33,2.16-8.62,3.07-17.58,4.98-26.23.02-.11-.03-.23,0-.33l1-1c.18-.14.53-.2.66-.33,2.21-.32,4.35,1.68,6.31,1.99Z"/>
      <path class="cls-2" d="M105.83,235.11c-.14,1.21.69,1.49,1.54,1.95,7.01,3.83,15.76,7.35,23.14,10.72,14.33,6.54,28.98,12.5,43.06,19.53-10.77-3.52-21.05-9.08-31.29-13.71-11.09-5.02-22.99-9.72-33.73-15.47-.79-.43-3.71-1.31-3.71-2.53,0-.37.86-.41.99-.5Z"/>
      <path class="cls-2" d="M200.79,218.18c.75.81-.27,1.66-.51,2.31-4.03,10.69-8.22,22.24-12.28,32.88-.98,2.58-1.83,6.22-3.16,8.81-.24.46-.29.96-.98.82,1.01-5.89,7-19.26,9.38-25.65s5.14-12.76,7.55-19.17Z"/>
      <path class="cls-2" d="M82.92,231.46c-1.16,1.66-1.66,3.01-1.29,5.11l6.6,28.43c-.21-.13-.75.09-.95-.54l-1.4-7.51c-1.29-4.77-2.86-10.39-4.01-15.63-.58-2.63-1.64-6.91-.23-9.3.49-.82,1.02-.4,1.27-.55Z"/>
      <path class="cls-2" d="M95.21,235.45c0,1.5-.63,2.86-.84,4.3-.35,2.36-.44,4.43-.84,6.79-.8,4.63-1.65,9.21-2.54,13.73-.21,1.07-.35,3.78-.74,4.51-.22.4-.52.13-.67.21,1.69-8.14,2.45-16.49,4.09-24.63.4-1.97.38-3.29,1.56-4.92Z"/>
      <path class="cls-2" d="M101.85,250.39c-1.91,8.65-2.82,17.61-4.98,26.23-1.25-.43.11-2.84.3-3.85,1.24-6.68,2.54-13.42,3.48-20.15l1.2-2.23Z"/>
      <path class="cls-2" d="M103.84,164.39c-7.21,3.79-15.05,6.38-22.35,10.04l-1.56-.08c1.06-1.01,7.88-3.4,9.86-4.25,3.82-1.65,10.77-5.33,14.05-5.71Z"/>
      <path class="cls-2" d="M67.32,221.5v.33c-7.71-2.91-15.42-6.18-23.41-9.43-.46-.19-.88.1-.83-.87,8.41,2.99,16.24,6.91,24.24,9.96Z"/>
      <path class="cls-2" d="M79.6,221.83c-.4,1.49-3.93,2.32-5.11,2.3-2.2-.05-4.67-1.5-6.84-2.3v-.33c1.28.48,5.71,1.98,6.82,2,2.01.05,3.41-1.16,5.13-1.67Z"/>
      <path class="cls-2" d="M67.32,221.83h.33s-.02.12-.33,0Z"/>
      <path class="cls-2" d="M126.75,214.2c-4.94,4.74-9.74,9.78-14.61,14.61.62-1.21,1.89-2.65,2.82-3.66,2.82-3.07,7.16-7.71,10.29-10.3.49-.41.75-.78,1.51-.65Z"/>
      <path class="cls-2" d="M38.76,209.88c-4.32-1.45-7.95-2.76-12.05-4.4-.52-.21-1.07-.11-.9-.91,4.19,1.06,8.96,3.59,12.95,5.31Z"/>
      <path class="cls-2" d="M186.18,128.2c-3.64,1.77-7.77,4.07-11.62,5.31-.12-1.21,1.75-1.22,2.15-1.42,3.37-1.65,5.76-3.01,9.47-3.89Z"/>
      <path class="cls-2" d="M41.09,191.62c-1.44.72-4.23,2.49-5.65,2.86-.58.15-1.2-.19-1.28-.15-.06.03-.17.68-.79,1.02-2.07,1.15-6.99,3.15-9.32,3.98-.62.22-.96.38-1.55-.08,1.12-.91,2.09-.75,3.25-1.23,5.28-2.17,10.22-5.32,15.35-6.41Z"/>
      <path class="cls-2" d="M79.6,174.69c-.82.77-1.82,1.57-3.23,1.93-.38.1-.91-.28-1.04-.22-.06.03-.18.67-.79,1.02-4.07,2.35-10.37,4.18-14.82,6.1s-8.9,3.9-13.32,5.77c-.64-1.03,0-.37.36-.52,9.38-4,19.03-8.25,28.3-12.5.52-.24,1.89-.44,2.46-.73.14-.07,1.41-1.8,2.08-.87Z"/>
      <path class="cls-2" d="M209.42,117.91c-3.63,1.68-7.26,3.37-10.96,4.98-.17-.76.37-.72.86-.94,2.62-1.21,5.28-2.62,7.85-3.8.12-.06,2.13-.64,2.24-.24Z"/>
      <path class="cls-2" d="M129.74,153.1c-2.44,1.08-4.83,2.27-7.3,3.32-.17-.79.39-.7.87-.94,1.46-.73,3.09-1.65,4.61-2.2.46-.17,1.43-.59,1.83-.19Z"/>
      <path class="cls-2" d="M216.73,117.58c.45-.64,2.49-2,2.33-2.81-.27-1.35-2.9.39-3.65.49-.16-1.35.09-.78.78-1.03,1.09-.39,2.44-1.44,3.39.03.84,1.31-1.61,3.13-2.84,3.32Z"/>
      <path class="cls-2" d="M158.62,140.49c-1.95,1.3-4.41,2.22-6.64,2.99-.15-.69.37-.75.82-1,1.88-1.03,3.62-1.38,5.82-1.99Z"/>
      <path class="cls-2" d="M180.2,269.31c-.08.09-.03.63-.31.84-.48.36-2.85-1.01-3.44-1.25s-2.48-.11-2.56-1.58c2.1.67,4.03,2.06,6.31,1.99Z"/>
      <path class="cls-2" d="M103.51,248.73c.05-.05-.18-.58.21-.68,1.83-.45,1.96.52,2.38.66,1.11.39,1.65.45,2.86,1.05.48.24,1.03.18.87.95-1.95-.31-4.1-2.31-6.31-1.99Z"/>
      <path class="cls-2" d="M110.15,250.72c2.3.53,3.04.6,5.17,1.93.53.33.64.38.81,1.06-1.56-.27-4.48-2.17-5.98-2.99Z"/>
      <path class="cls-2" d="M183.86,263.34c-.01.06.33.38.25.76-.06.27-2.14,4.26-2.36,4.43-.21.16-.5.08-.55.12.79-1.71,1.3-4.01,2.66-5.31Z"/>
      <path class="cls-2" d="M121.44,156.76c-2.24.94-4.3,2.19-6.64,2.99-.18-.72,1.01-1.11,1.49-1.33.99-.45,2.59-1.28,3.32-1.57.16-.06,1.55-.24,1.83-.09Z"/>
      <path class="cls-2" d="M216.39,117.91c-1.01,1.51-2.16,2.62-3.98,3.32-.44.83-.21,1.19-1.66,1,.84-1.12.7-.63,1.66-1,.86-1.63,2.37-2.42,3.98-3.32Z"/>
      <path class="cls-2" d="M109.15,162.07c-1.08.59-3.93,2.21-4.98,2.32-.16-1.03,0-.8.66-1.16,1.41-.76,3.02-.77,4.32-1.17Z"/>
      <path class="cls-2" d="M166.26,137.17c-1.31.75-3.55,2.04-4.98,2.32-.07-.77,1.79-1.53,2.33-1.76.77-.33,2.46-.5,2.65-.57Z"/>
      <path class="cls-2" d="M151.65,143.48c-1.22.79-3.61,2.11-4.98,2.32-.16-.75,1.15-1.18,1.66-1.43,1.07-.51,2.5-.62,3.32-.9Z"/>
      <path class="cls-2" d="M113.8,160.08c-1.19.87-2.91,1.57-4.32,1.99-.37-1.64,3.23-1.65,4.32-1.99Z"/>
      <path class="cls-2" d="M167.26,155.43c-1.39,1.37-.66,1.73-3.32,2.66-.09.16.07.56-.33.83-.33.22-.75.08-1,.17-1.09,1.85-5.12,3.27-6.61,4.83-.42.44-.38,1.09-.7,1.32-.74.52-2.54.42-2.65,1.99l-2.33.82c2.19-2.07,9.8-8.13,12.28-8.96.1-.17.01-.6.33-.83.37-.27.77-.08,1-.16.06-.11-.04-.44.16-.67l3.16-1.99Z"/>
      <path class="cls-2" d="M173.23,171.7c-.9.84-1.89,1.61-2.66,2.32-.08-1.39,1.37-2.35,2.66-2.32Z"/>
      <path class="cls-2" d="M197.14,132.85c-.09.09-1,1.38-1.13,1.51-.65.64-1.8,1.68-2.85,1.47,1.2-1.07,2.39-2.4,3.98-2.99Z"/>
      <path class="cls-2" d="M25.48,204.57c-.51-.14-1.48.03-1.83-.08-.13-.04-1.08-.77-2-1.05-.65-.2-.59.52-.49-.86,1.42.6,3.05,1.11,4.32,1.99Z"/>
      <path class="cls-2" d="M193.15,125.21c-1.23.52-2.21,1.16-3.65,1.66l1.93-1.62,1.73-.04Z"/>
      <path class="cls-2" d="M189.83,157.09c-2.39,2.19-4.97,4.24-7.3,6.31-.03-1.39,1.78-1.58,2.23-2.09.23-.26.19-.89.73-1.42.66-.65,1.71-.66,1.93-.9.19-.19.07-.74.61-1.21.39-.34,1.27-.57,1.8-.7Z"/>
      <path class="cls-2" d="M202.45,145.8c-1.02,1.11-1.74,1.46-2.66,2.32-.09-1.39,1.37-2.35,2.66-2.32Z"/>
      <path class="cls-2" d="M213.74,115.92c-1.39.75-2.36,1.06-3.65,1.66-.03-.81,1.66-1.2,2.32-1.5.34-.16,1.13-.83,1.33-.16Z"/>
      <path class="cls-2" d="M171.24,134.84c-1.14.86-2.61,1.59-3.98,1.99.29-1.42,2.92-1.65,3.98-1.99Z"/>
      <path class="cls-2" d="M181.86,164.06c-1.68,1.49-3.26,3.6-5.31,4.65.86-1.01,1.5-1.29,1.9-1.76.33-.38.25-1.05,1.07-1.75.6-.51,1.59-.88,2.34-1.15Z"/>
      <path class="cls-2" d="M199.46,148.46c-.93.87-1.78,1.53-2.66,2.32-.15-1.21,1.6-2.29,2.66-2.32Z"/>
      <path class="cls-2" d="M164.6,179.67c-1.18,1.13-2.14,2.78-3.65,3.32.07-.07.07-.54.32-.83.83-.95,2.13-2.05,3.33-2.49Z"/>
      <path class="cls-2" d="M173.9,150.45c-1.13,1.13-4.61,3.62-5.09,4.37s-.42.8-1.22.28c1.78-1.73,4.16-3.38,6.31-4.65Z"/>
      <path class="cls-2" d="M133.39,151.44c-.68.8-1.79.95-2.66,1.33-.36-1.71,1.63-1.17,2.66-1.33Z"/>
      <path class="cls-2" d="M234.99,117.25c-.77.67-1.56,1.32-2.32,1.99-.1-1.27,1.07-2.21,2.32-1.99Z"/>
      <path class="cls-2" d="M42.08,211.21c.06,1.23-.21.41-.69.19-.73-.34-2.42-.63-2.3-1.52,1.11.37,2.12,1.02,2.99,1.33Z"/>
      <path class="cls-2" d="M180.54,145.47c-1.64,1.69-2.88,2.11-4.65,3.65-.22.19-.11,1.44-1.66,1,.81-.89,1.39-.76,1.66-1,.05-.04.03-.55.35-.8,1.26-1.03,2.85-2.11,4.3-2.85Z"/>
      <path class="cls-2" d="M116.46,253.71c.28.03.76-.36.95-.28.04.02.06.49.28.61,1.11.58,1.35.18,1.76,1.33-1.13-.22-2.17-.87-2.99-1.66Z"/>
      <path class="cls-2" d="M219.71,130.53c-.92.99-1.44,1.22-2.32,1.99-.17-1.24,1.24-1.95,2.32-1.99Z"/>
      <path class="cls-2" d="M208.76,140.16c-.82.77-1.68,1.4-2.32,1.99.22-1.05,1.23-2.09,2.32-1.99Z"/>
      <path class="cls-2" d="M146.34,145.8c-1.21.65-3.07,1.85-4.34,2.19-.63.17-.56-.17-.65-.2.44-1.11,1.9-.6,1.99-.67.03-.02-.29-.61-.17-.65.04-.01.34.28.76.1.38-.17.37-.61.67-.76.76-.37,1.33.05,1.73-.01Z"/>
      <path class="cls-2" d="M192.82,154.43c-.92.99-1.59,1.3-2.32,1.99-.19-1.36,1.26-1.71,2.32-1.99Z"/>
      <path class="cls-2" d="M140.36,148.12c-1.02,1.49-.94.76-2.32,1.33l.6-.95,1.72-.38Z"/>
      <path class="cls-2" d="M196.47,151.11c-.68.61-1.19,1.93-2.32,1.99.55-.64.73-2.02,2.32-1.99Z"/>
      <path class="cls-2" d="M99.19,219.51c-.63.69-1.4,1.47-2.32,1.66.62-.91.58-1.94,2.32-1.66Z"/>
      <path class="cls-2" d="M84.25,218.18c-.51.51-.81.62-.93.74-.18.18.02.76-.1.88-.23.22-1.03-.12-1.26.1-.12.11.07.66-.11.87-.08.1-1.74,1.04-1.92,1.07.65-1.56,2.89-2.78,4.32-3.65Z"/>
      <path class="cls-2" d="M45.74,189.63c-1.32.55-2.89,1.75-4.32,1.99-.25-.61,1.39-1.38,1.65-1.46.39-.12.88.22,1,.13.03-.02-.29-.58-.18-.63.09-.03,1.78-.37,1.84-.04Z"/>
      <path class="cls-2" d="M175.89,169.37c-.84.94-1.48,1.18-1.99,1.66-.31-1.13,1-1.59,1.99-1.66Z"/>
      <path class="cls-2" d="M184.52,142.48c-.06.25.12.88-.02.98s-.79-.07-1.22.12-1.09,2.02-2.42,1.56c1.04-1,2.3-2.12,3.65-2.66Z"/>
      <path class="cls-2" d="M103.18,272.63c-.14.98-.98,1.77-1.99,1.66.87-.8,1.02-.96,1.99-1.66Z"/>
      <path class="cls-2" d="M169.25,175.35c-1.21,1.12-2.46,2.2-3.65,3.32-.27-1.53,1.07-1.33,1.55-1.77.6-.55.75-1.79,2.1-1.55Z"/>
      <path class="cls-2" d="M174.23,133.52c-.73.74-1.7,1.03-2.66,1.33-.12-1.27,1.92-1.1,2.66-1.33Z"/>
      <path class="cls-2" d="M229.34,122.23c-.58.62-.98,1.62-1.99,1.66.46-.54.49-1.7,1.99-1.66Z"/>
      <path class="cls-2" d="M205.44,143.14c-.58.52-.95,1.66-1.99,1.66.45-.53.49-1.71,1.99-1.66Z"/>
      <path class="cls-2" d="M211.75,137.5c-.79.84-1.68,1.39-2.32,1.99-.32-1.19,1.35-1.7,2.32-1.99Z"/>
      <path class="cls-2" d="M209.09,123.55c-.11.24.16.87-.32,1.17-.44.28-1.92.66-2.57,1.25-.27.25-.31,2.09-1.43.9,1.24-1.2,2.75-2.56,4.32-3.32Z"/>
      <path class="cls-2" d="M197.47,123.22c-.59.26-1.22.66-1.99,1-.2-1,1.32-.81,1.83-1.66l.16.66Z"/>
      <path class="cls-2" d="M118.45,204.9c-.74.8-1.56,1.73-2.66,1.99.54-.54.67-.51.9-.74.39-.37,0-1.68,1.75-1.25Z"/>
      <path class="cls-2" d="M22.16,199.59s.08.43-.08.58c-.68.61-2.36.49-1.58,2.08-.33-.16-1.13.28-.62-1.12.13-.37.66-.4.85-.66.22-.31.28-1.76,1.43-.88Z"/>
      <path class="cls-2" d="M224.36,126.54c-.47.56-.78,1.33-1.66,1.33.37-.46.22-1.58,1.66-1.33Z"/>
      <path class="cls-2" d="M204.11,127.54c-.16.18-1.09,1.62-1.19,1.69-.33.23-1.1.11-1.38.38-.33.32-.04,1.89-1.41.91,1.02-1.16,2.54-2.35,3.98-2.99Z"/>
      <path class="cls-2" d="M217.06,132.85c-.47.42-.71,1.37-1.66,1.33.37-.46.22-1.58,1.66-1.33Z"/>
      <path class="cls-2" d="M214.73,134.84c-.47.56-.78,1.33-1.66,1.33.37-.45.22-1.58,1.66-1.33Z"/>
      <path class="cls-2" d="M160.95,139.49c-.52.63-1.25.81-1.99,1-.06-1.47,1.54-.9,1.99-1Z"/>
      <path class="cls-2" d="M137.37,149.78c-1,.35-1.85.34-1.95.39-.23.12-.12,1-1.7,1.27-.08-1.23,1.7-1.22,2.16-1.41.18-.07.53-1.34,1.49-.25Z"/>
      <path class="cls-2" d="M226.69,124.55c-.47.56-.77,1.33-1.66,1.33.37-.46.22-1.58,1.66-1.33Z"/>
      <path class="cls-2" d="M104.84,215.19c-.22.24-.26.61-.68.82-.39.18-.74.1-.98.18-.86,1.48-.81.64-1.33,1-.08.05-.12,1.22-1,1,.49-.55.55-.56,1-1,.55-.53-.36-.43,1.33-1,.45-.76.17-1.22,1.66-1Z"/>
      <path class="cls-2" d="M109.48,266.66c-.37.47-.22,1.57-1.66,1.33.48-.45.71-1.36,1.66-1.33Z"/>
      <path class="cls-2" d="M89.56,226.48s.16.93-.66.66c.27-.28.4-.41.66-.66.89-.87,2.15-1.87,3.38-2.76.64-.46,1.5-.99,2.26-1.22-1.81,2.07-3.69,2.61-5.64,3.98Z"/>
      <path class="cls-2" d="M88.57,227.48c-.52.53-.97,1.02-1.66,1.33.36-.91.48-2.2,1.66-1.33Z"/>
      <path class="cls-2" d="M104.84,270.97c-.66.76-.06.49-1.33,1.33.04-.79.55-1.29,1.33-1.33Z"/>
      <path class="cls-2" d="M192.82,136.17c-1.47,1.29-3.39,2.61-4.98,3.98-.22.19-.11,1.44-1.66,1,.78-.95,1.37-.75,1.66-1,.05-.04.03-.54.35-.8,1.35-1.12,3.08-2.36,4.63-3.18Z"/>
      <path class="cls-2" d="M89.23,214.2c-.28,1.29-.6,1.67-1.99,1.66.65-.71,1.26-1.09,1.99-1.66Z"/>
      <path class="cls-2" d="M121.1,202.91c-.81.98-1.15.64-1.66,1-.05.03.16.93-.66.66.35-.38.42-.42.66-.66.3-.3.08-1.4,1.66-1Z"/>
      <path class="cls-2" d="M188.5,127.21c-.52.63-1.25.81-1.99,1-.21-1.18,1.32-.81,1.99-1Z"/>
      <path class="cls-2" d="M91.55,212.54c.45-.36.9-.66,1.33-1l.33.17c-.01.89-.95.89-1.66.83Z"/>
      <path class="cls-2" d="M222.04,128.53c-.39.44-.51,1.03-1.33,1,.26-.33,0-1.26,1.33-1Z"/>
      <path class="cls-2" d="M125.09,199.92c-.64.69-1.4,1.47-2.32,1.66.69-1.03.67-.48.93-.73.31-.31-.46-1.28,1.4-.93Z"/>
      <path class="cls-2" d="M99.19,231.46c-.08-.84.67-.97,1-1.33.24,1.33-.64,1.05-1,1.33Z"/>
      <path class="cls-2" d="M238.31,114.59c-.24-.77.43-.86,1.15-.68.37.09.1.53.18.68-.41.06-.96-.09-1.33,0Z"/>
      <path class="cls-2" d="M232,119.9c-.37.35-.49,1.06-1.33,1,.18-.22-.06-1.05,1.33-1Z"/>
      <path class="cls-2" d="M237.98,114.59c-.06.02-.95.63-1,.66-.06.05-.54.61-1,1-.16-.95.77-.8,1-1,.06-.06-.21-1.01,1-.66Z"/>
      <path class="cls-2" d="M107.16,213.53c-.58.64-1.07.48-1.33.66-.05.03.16.93-.66.66.41-.48.46-.45.66-.66.32-.34-.14-1.37,1.33-.66Z"/>
      <path class="cls-2" d="M112.8,209.22c-.71.88-1.13.51-1.33.66-.09.07-.11,1.21-1,1,.51-.57.35-.44,1-1,.09-.08-.2-1.07,1.33-.66Z"/>
      <path class="cls-2" d="M126.42,198.92c-.26.21-.33.77-1,.66.19-.24.32-1.74,1-.66Z"/>
      <path class="cls-2" d="M98.53,276.95c-.12.21.31,1.02-.83.67-.31-.1-.1-.62-.16-.67h1Z"/>
      <path class="cls-2" d="M85.58,229.14c.05.66-.3.71-.66,1-.05-.43.02-1.17.49-1.26.07-.01.16.26.18.26Z"/>
      <path class="cls-2" d="M96.53,221.5c-.16.46-.51.66-1,.66.05-.07-.11-.49.03-.62.2-.18.73.04.96-.04Z"/>
      <path class="cls-2" d="M185.85,141.48c-.05.07.11.49-.03.62-.2.18-.76-.04-.96.04.16-.46.51-.66,1-.66Z"/>
      <path class="cls-2" d="M85.58,217.18c-.05.09.11.49-.03.62-.2.18-.75-.04-.96.04.16-.46.51-.66,1-.66Z"/>
      <path class="cls-2" d="M149.66,168.71c-.73.94-.67.47-.93.73-.4.39.6,1.33-1.06.6.63-.47,1.12-1.24,1.99-1.33Z"/>
      <path class="cls-2" d="M115.46,207.22c-.16.46-.51.66-1,.66.05-.09-.11-.49.03-.62.2-.18.75.04.96-.04Z"/>
      <path class="cls-2" d="M114.13,208.22c-.16.46-.51.66-1,.66.05-.07-.11-.49.03-.62.2-.18.75.04.96-.04Z"/>
      <path class="cls-2" d="M110.15,211.21c-.16.46-.51.66-1,.66.06-.09-.11-.51.03-.63.19-.17.75.05.97-.03Z"/>
      <path class="cls-2" d="M108.49,212.54l-1,.66c.05-.07-.11-.5.03-.63.2-.18.75.04.96-.04Z"/>
      <path class="cls-2" d="M210.42,122.56c-.05.07.11.49-.03.62-.2.18-.76-.04-.96.04.16-.46.51-.66,1-.66Z"/>
      <path class="cls-2" d="M122.43,201.91c-.16.46-.51.66-1,.66.05-.07-.11-.49.03-.62.2-.18.75.04.96-.04Z"/>
      <path class="cls-2" d="M198.47,131.85c-.05.09.11.49-.03.62-.2.18-.75-.04-.96.04.16-.46.51-.66,1-.66Z"/>
      <path class="cls-2" d="M199.79,130.86c-.05.07.11.49-.03.62-.2.18-.75-.04-.96.04.16-.46.51-.66,1-.66Z"/>
      <path class="cls-2" d="M86.91,216.19c-.05.07.11.49-.03.62-.2.18-.75-.04-.96.04.16-.46.51-.66,1-.66Z"/>
      <path class="cls-2" d="M100.52,218.51c-.16.46-.51.66-1,.66.05-.07-.11-.49.03-.62.2-.18.75.04.96-.04Z"/>
      <path class="cls-2" d="M102.84,249.06l-1,1c.32-1.26.75-.81,1-1Z"/>
      <path class="cls-2" d="M90.89,213.2c-.37.29-.74.46-1,.66.14-.48.51-.66,1-.66Z"/>
      <path class="cls-2" d="M215.07,115.25c-.12.36-.48.24-.66.33l-.17-.66c.19.21.57.33.83.32Z"/>
      <path class="cls-2" d="M194.15,124.88s.15-.25.33-.33l-.33.33Z"/>
      <path class="cls-2" d="M194.81,124.55s.11-.24.33-.33l-.33.33Z"/>
      <path class="cls-2" d="M141.03,147.79h-.33c.05-.05.03-.33.17-.33s.13.31.17.33Z"/>
      <path class="cls-2" d="M120.11,210.21c.08-.14.25-.22.33-.33-.11.11-.21.24-.33.33Z"/>
      <path class="cls-2" d="M111.48,229.47c.11-.11.22-.22.33-.33l-.33.33Z"/>
      <path class="cls-2" d="M83.92,230.8c.1-.06.19-.24.33-.33l-.33.33Z"/>
      <path class="cls-2" d="M239.97,115.25c.05.19.5.25.27,1.06-1.86,4.4-3.62,8.85-5.33,13.32-10.98,28.72-22.02,57.33-32.55,86.38l-1.24,1.5c5.32-14.15,10.31-28.45,15.69-42.58,7.59-19.94,15.47-39.79,23.16-59.68Z"/>
      <path class="cls-2" d="M114.13,160.08s.11-.26.33-.33l-.33.33Z"/>
      <path class="cls-2" d="M118.78,257.36l.66-.66c-.24.45-.45.44-.66.66Z"/>
      <path class="cls-2" d="M88.9,265.33h.33c0,.23.5.47.17.66-.26-.1-.39-.59-.5-.66Z"/>
      <path class="cls-2" d="M188.84,127.21s.11-.26.33-.33l-.33.33Z"/>
    </g>
  </g>
</svg>