<?xml version="1.0" encoding="UTF-8"?>
<svg id="Layer_2" data-name="Layer 2" xmlns="http://www.w3.org/2000/svg" viewBox="0 0 312.11 311.94">
  <defs>
    <style>
      .cls-1 {
        fill: #1c2627;
      }
    </style>
  </defs>
  <g id="Layer_1-2" data-name="Layer 1">
    <path class="cls-1" d="M261.22,9.95c.94.93,12.47-9.7,16.68-9.76.39,0,7.09,2.48,7.32,2.79.52.69-2.6,7.39-2,7.97,4.47-1.59,8.12-3.29,12.85-.85,2.38,3.82-4.03,14.86-6.85,17.85,3.66-1.55,17.37-5.16,14.24,2.69-1.94,4.84-1.64,6.78-3.01,11.06-2.72,8.48-24.85,25.42-31.76,32.24-18.17,17.92-33.72,38.3-50.96,57.04-3.17,3.44-21.22,19.17-20.44,22.39.34,1.41,19.07,16.36,21.94,19.09,7.85,7.45,15.07,15.64,22.97,23.03,19.77,18.5,48.57,40.87,64.99,62.01,2.98,3.84,6.36,8.32,4.26,13.22-2.95,6.9-8.69,2.82-9.24,3.27,9.14,12.73,2.74,24.96-12.99,17.99.33,3.48,1.8,7.99,1.06,11.45-.22,1.04-2.3.16-2.88.74s.3,2.66-.74,2.88c-10.84,2.31-24.53-8.99-32.46-15.56-32.77-27.13-62.55-61.48-94.98-88.02-1.09-.89-4.24-3.58-5.37-3.38-2.16.37-26.59,27.9-30.16,31.88-18.52,20.69-35.45,43.24-55.45,62.55-6.07,5.86-22.04,20.7-30.82,16.8-3.6-1.6-1.79-12.86-1.71-16.33-5.04,5.28-22.97,20.26-27.57,8.57-2.76-7.01,1.61-10.21,5.07-15.56-1.81-1.43-15.91,9.43-12.76-7.27,1.74-9.23,26.77-36.18,34.24-44.75,23.68-27.14,48.82-53.12,72.28-80.47.3-3.78-44.13-45.88-50.28-52.5-11.49-12.39-32.27-34.66-40.51-48.49-5.53-9.27-8.67-21.7,7.02-15.53-3.53-8.07-7.02-18.48,6.02-16.99-.94-2.04,1.95-7.84,3.38-9.1,4.24-3.75,10.8,4.22,15.59,3.07.25-.8-.24-2.6.03-2.99.16-.24,5.44.55,5.77.66,10.86,3.37,30,22.3,38.25,30.83,18.63,19.24,36.32,42.86,55.33,61.17.88.85,2.15,1.42,3.16,2.13L221.7,25.95C226.34,21.46,246.73-.27,251.72,0c1.32.07,2.35,1.56,3.29,1.68,6.41.81,11.26-1.05,6.2,8.27Z"/>
  </g>
</svg>