<?xml version="1.0" encoding="UTF-8"?>
<svg id="Layer_2" data-name="Layer 2" xmlns="http://www.w3.org/2000/svg" viewBox="0 0 220.07 144.67">
  <g id="Layer_1-2" data-name="Layer 1">
    <path d="M32.59,140.66c-.64.26-.85,3.07-2.43,3.42-4.31.98-19.07,1.02-21.75-2.12-7.01-8.22,3.12-16,3.28-21.08.09-2.88-6.5-21.45-7.4-27.47C1.85,77.11-1.61,47.97.84,32.35c3.05-19.41,22.62-12.8,33.22-2.46,10.29,10.04,19.78,24.28,34.12,30.13,4.62-11.82,14.56-20.12,17.55-32.61,6.1-3.49,12.1-18.43,18.55-20.33,19.76-5.8,24.23,30.14,32.75,41.74,10.78-9.99,43.4-62.6,60.95-45.4,6.87,6.73,10.97,56.3,13.93,70.3,5.24,24.79,21.53,38.46-15.05,43.79-53.87,7.86-113.09,2.77-164.26,23.14ZM182.47,35.55c-2.92-3.06-19.82,18.17-22.1,21.11-6.14,7.91-14.49,27.3-23.53,27.67-18.78.76-18.77-34.17-28.62-44.31-1.4-.02-14.41,18.34-16.18,21.46-7.37,13-7.97,34.83-27.85,24.73L22.88,53.28l4.42,62.07c24.46-1.05,47.73-10.48,72.07-13.29l92.1-7.65c2.41-1.63,2.14-3.99,2.02-6.49-.66-14.46-11.33-36.45-11.02-52.37Z"/>
  </g>
</svg>