<?xml version="1.0" encoding="UTF-8"?>
<svg id="Layer_2" data-name="Layer 2" xmlns="http://www.w3.org/2000/svg" viewBox="0 0 1536.47 1016.1">
  <defs>
    <style>
      .cls-1 {
        fill: #9b957c;
      }
    </style>
  </defs>
  <g id="Layer_1-2" data-name="Layer 1">
    <g>
      <path class="cls-1" d="M1100.79,399.05c4.15,1.32,9.14,1.29,13.1,2.82,3.65,1.41,4.34,4.78,6.53,6.02,7.15,4.06,14.28,1.95,17.15-5.69l11.25,4.81c3.37-8.12-3.36-13.72-10.58-16.69-11.92-4.91-32.98-6.4-37.45,8.72Z"/>
      <path class="cls-1" d="M999.89,387.41l-.31,4.05c8.31,6.94,15-2.32,19.3-2.58,4.11-.25,7.56,5.12,12.22,4.95l1.94-9.4c-15.14-8.68-36.37-20.11-49.19-2.15,3.25,8.45,10.07,2.37,16.04,5.12Z"/>
      <path class="cls-1" d="M437.55,183.59l15.29.27c6.99,12.57,17.26,12.65,18.63-3.09l14.11,2.82c.85-19.51-23.67-19.07-38.17-16.98-8.52,1.23-11.09,9.33-9.86,16.98Z"/>
      <path class="cls-1" d="M546.47,186.41l8.6,1.26c4.41,3.02,1.57,16.55,13.82,12.72.32-3.79,3.98-9.67,7.28-11.13,5.38-2.4,4.2,5.07,6.94,7.13,4.31,3.24,5.82-.05,8.59-2.93-3.5-21.11-44.15-33.38-45.23-7.04Z"/>
    </g>
    <g>
      <path class="cls-1" d="M.47,794.1c1.83-15.35,11.35-39.9,15.51-55.99,18.32-70.9,34.16-154.15,70.3-217.7,1.86-3.27,8.93-11.39,9.6-13.27.59-1.66,1.6-9.32,3.82-10.81.79-.53,2.71-.17,4.32-1.16,4.33-2.68,13.75-15.69,19.44-20.57,27.96-24.02,59.02-46.04,91.52-63.48,44.84-24.07,89.63-48.87,135.45-71.55,7.77-3.84,16.48-9.15,25.05-9.46-6.65-14.92-6.41-33.35-6.95-49.53-.07-2.14-1.03-4.06-1.05-5.96-.03-2.5,1.8-15.6,1-16.5-3.5.29-4.79,2.87-8.33.89-16.18-9.07-27.2-50.71-26.52-68.26.41-10.41,4.97-22.72,17.36-22.71,5,0,7.88,3.4,12.5,4.07-.85-1.71-3.12-2.53-4.29-4.26-13.15-19.53,6.22-44.7,8.04-63.45.8-8.21-.63-14.1,1.1-21.85,9.45-42.19,37.5-60.84,75.98-75.1C463.02.48,486.03-.1,505.97.01c6.79.04,21.82,2.02,28.95,3.14,1.21.19,17.6,11.1,20.82,13,10.12,5.97,23.43,12.09,33.26,19.96.91.73,1.19,2.45,1.7,2.75,1.12.66,3.81.13,6.17,1.35,3.31,1.73,1.4,3.75,1.61,3.87.42.25,5.24-1.88,8.77-.33,1.33.59,1.47,2.37,2.91,3.11,4.36,2.25,10.35,3.12,14.57,5.48.77.43,6.34,4.59,6.54,4.95.65,1.15.07,4.19.43,6.07,1.73,8.9,1.04,15.5,1.78,24.3,1.9,22.42,7.68,44.39,6.04,66.98-.3,4.19-1.66,8.29-2.04,12.45,2.71-1.4,9.87.89,11.95,2.55,1.45,1.15,1.26,2.79,2.02,3.72s2.08,1.12,2.82,2.4c4.12,7.16,2.15,23.59,1.15,31.78-1.34,10.95-4.37,24.68-10.53,34.47-3.68,5.85-8.18,9.65-14.28,12.72-1.07,21.63-2.34,44.03-6.75,65.24-.57,2.75-1.34,6.79-1.94,9.22-3.32,13.38-8.25,26.27-16.42,37.42,6.66-1.66,12.51,2.71,18.25,5.51,10.9,5.33,19.68,10.31,31.71,15.5,38.72,16.69,78.67,36.44,111.44,63.11,24.74,20.14,50.33,42.16,66.78,69.67,3.25,5.43,8.48,9.95,11.21,15.79,3.05,6.55,3.47,14.9,6.06,20.98,4.11,9.7,8.2,19.17,11.07,29.89s4.8,20.64,6.47,31.03l4.72-11.77c13.12-65.57,13.15-132.65,27.92-198.08,8.92-39.53,30.66-100.68,55.37-132.63,32.11-41.51,65.44-71.49,121.95-55,6.36,1.86,17.75,5.27,16.04,13.47,11.05-13.26,28.17-12.14,43.62-8.13,50.62,13.14,70.4,58.9,82.9,105.1,17.28,63.89,29.66,153.25,23.94,219.02-1.15,13.25-3.18,27.28-6.46,40.01,6.5-1.61,13.45,3.76,19.71,5.79,8.48,2.75,17.22,5.31,25.07,8.13,35.8,12.87,66.23,24.23,98.12,45.68,14.51,9.76,24.23,24.58,33.06,38.94,21.07,34.23,38.47,70.2,60.19,103.81,5.54,8.58,13.56,17.51,18.87,26.13,4.35,7.07,6.18,12.23,4.81,20.87-2.4,1.18-11.99,10.82-11.67,12.99.15,1.02,2.52,3.27,3.22,4.78,18.64,39.91,32.17,69.6,40.55,113.44,1.55,8.11.21,18.43,6.05,25.45v8c-9.22,3.7-12.92-4.09-14.89-11.61-3.3-12.65-4.32-27.67-7.39-40.61-5.22-22.01-15.8-47.94-25.56-68.44-2.12-4.45-7.36-15.18-10.12-18.61-.88-1.1-2.01-1.56-3.4-1.53-18.73,17.27-38.27,32.37-59.52,46.44-16.06,10.63-32.77,19.6-49.11,29.95l32.02,47.88c3.76,9.95,11.32,18.03,13.96,28.54h-14c-5.21-7.31-8.46-15.87-12.97-23.53-3.42-5.81-28.71-45.95-31.73-46.48-.88-.15-2.23.6-3.46.5-2.2-.17-4.17-3.18-4.85,1-2.39,14.63-3.83,32.04-4.99,47.01-.45,5.76,2.81,20.52-6.48,19.52-.89-.1-6.46-4.35-6.55-4.74-.44-1.79-.14-7.54.03-9.78.84-10.85,1.98-22.15,3-33,2.17-23.06,5.03-27.03-1.3-50.73-6.67-24.97-15.87-50.32-21.61-75.39-1.27-5.55-4.52-23.72-2.38-28.17,1.53-3.18,7.26-3.82,9.82-1.27s3.86,20.54,4.95,26.05c5.11,25.82,15.8,64.64,25.43,87.74.62,1.49.59,4.11,1.31,5.02,1.23,1.54,7.71,1.72,9.71.68,44-23.99,86.97-50.99,121.05-87.94l7.87-11.81c-11.66-17.34-23.81-34.51-34.7-52.36-17.95-29.42-33.28-62.77-52.95-91.05-7.3-10.49-15.55-19.61-26.69-26.24-1.98-.16-6.15,4.33-8.22,5.77-39.25,27.32-71.54,82.98-74.04,131.97-.23,4.61,4.14,18.18-4.31,16.82-3.53-.57-3.27-2.35-4.98-4.12-.84-.87-2.55-1.31-2.77-1.68-.69-1.14.5-17.49.8-20.29,4.98-45.71,33.55-96.93,67.97-127.02,4.11-3.59,8.92-6.36,12.99-9.99-32.32-20.84-69.33-32.59-105.74-44.34-3.19-.33-8.91,9.65-10.79,12.8-3.4,5.71-4.76,11.72-9.79,16.71-.66.65-2.49.33-3.59,1.89-.63.89-3.13,9.17-3.79,11.22-7.34,22.94-19.48,81.46-11.78,103.22,1.12,3.17,6.8,7.6,1.23,10.28-7.94,3.82-14.81-12.62-15.19-18.76-.92-14.82,2.3-40.73,4.58-55.9,4.3-28.67,17.29-54.57,22.63-82.37,16.13-83.9,7.12-182.47-14.84-264.47-10-37.35-22.97-78.67-60.89-98.3-9.8-5.08-28.07-11.14-38.87-7.82-5.28,1.62-4.69,6.85-11.57,6.28-4.62-.38-4.01-4.33-5.6-7.93-1.91-.25-.27,1.97-1.62,3.1-.34.29-4.39,1.95-4.82,1.96-.61,0-.52-1.54-1.27-2.04-26.51-17.64-67.42-10.02-90.84,9.93-46.36,39.48-73.32,112.33-85.2,170.8-7.39,36.37-12.14,73.61-14.68,110.11-3.38,48.5-12.36,96.83-31.37,141.84-2.35,5.55-5.13,12.67-8.66,17.37-1.35,1.8-4.42,2.07-4.54,5.93l17.66-11.83c6.64-3.6,19.99-9.76,24.35-15.65,2.86-3.86,13.43-28.45,15.69-34.31,5.75-14.89,8.61-34.77,10.29-50.71,3.17-29.95,1.75-59.89,5.12-89.88,2.68-23.82,10.69-46.31,11.94-70.11,1.71-32.74,5.9-55.62,18.78-86.17,17.15-40.67,68.19-89.21,114.66-90.13,4.87-.1,16.26,2.21,15.08,8.83-1.45,8.11-9.75,3.64-16.07,3.98-73.01,3.93-117.82,91.42-121.51,156.49-2.2,38.73-1.63,76.99,24.48,107.5,33.67,39.35,69.29,49.23,119.3,34.27,80.69-24.14,96.73-147.31,82.92-217.49-5.84-29.71-28.62-67.15-58.48-77.52-4.52-1.57-15.71-1.49-13.57-10.08,1.77-7.14,7.94-4.85,13.38-3.73,14.43,2.97,33,16.3,42.49,27.51,12.8,15.11,23.44,39.65,29.2,58.8,2.77,9.23,1.87,34.83,2.23,45.77,1.12,34.31,4.85,66.66,7.03,100.97,4.09,64.21-13.34,99.77-33.65,157.33-12.35,34.98-23.18,70.37-20.33,108.16,1.26,1.65,1.82-.1,2-1.48.4-3.12-.32-6.77.01-10,3.07-30.29,26.2-69.92,38.04-98.96,12.78-31.35,20.84-54.43,26.05-87.95.53-3.4,2.49-15.9,4.88-17.11,2.99-1.51,6.54.46,7.76,3.22,2.47,5.55-.84,21.77-2.21,28.33-9.9,47.47-31.99,87.48-49.72,131.28-4.19,10.34-9.22,21.81-10.8,32.69,3.41-2.45,4.86-5.91,9.56-3.06,5.36,3.25,1.46,8.96,1.54,13.46.05,3.06.78,13.52,1.42,16.08.8,3.17,10.01,15.48-.03,15.44-7.41-.03-13.24-20.5-13.39-26.53-.09-3.3,1.82-7.64.89-11.39-5.38,4.4,1.46,21.38-6.51,22.98-1.37.27-5.19-.25-5.47.03-.5.47,2.07,5.34-.7,7.1-1.34.85-7.52-.24-8.66-1.02-.67-.46-3.39-7.03-3.79-8.43-16.03-55.93,30.62-134.86,44.87-189.44,4.45-17.03,5.34-34.63,6.27-52.22-5.93,3.76-12.42,9.49-19.99,7-.61,5.96-2.77,12.99-4.69,18.82-11.89,36.19-31.01,68.5-42.6,104.4-2.59,8.01-3.82,16.45-6.55,24.41-.52,1.52-2.03,1.4-2.03,1.82,0,1.11,1.09,2.87.96,5.06s-1.47,5.3-1.17,6.82c.18.9,5.85,2.87,5.85,5.97,0,6.13-3.05,6.75-7.5,9.16l1.73,16.56c3.46-2.47,2.03-12.12,5.26-14.73s8.37-.47,9.81,3.19c-.97,8.33-2.02,16.66-3.16,24.94s-1.76,12.29-.9,21.08c.48,4.98,3.86,18.24,2.79,21.8-1.73,5.78-8.92.94-10.88-2.71-3.94-7.33-2.37-24.44-2.86-32.96-11.59-4.71-13.03-21.6-14.07-32.62-7.72,3.24-16.72,6.38-24.95,8.54-29.87,7.81-51.9,11.06-79.36-5.71-11.42-6.97-19.45-14.91-24.46-27.54-4.55-11.47-3.01-19.33-2.22-31.28l-17.89,9.6-42.76,26.74c-4.9,7.79-10.32,16.99-14.05,25.45-4.54,10.27-7.38,21.23-11.27,31.73-4.73,2.83-11.4-3.98-10.08-9.02l14.57-36.49c-13.49,8.86-28.2,16.63-38.34,29.6-19.55,25.02-15.01,66.01-16.13,95.91-1.5,40.15-9.26,75.76-14.91,115.09-2.83,19.68-7.9,49.74-1.87,68.61.92,2.87,3.79,2.47,2.53,8.04-1.49,6.59-10.73,4.76-12.78.95-.83-1.55-2.31-8.76-2.72-11.02-2.26-12.57-1.43-25.98-.29-38.7.92-10.25,2.85-20.43,3.98-30.51-4.18.04-7.96,2.34-11.99,0,.19,10.16-.27,20.37-.05,30.54.29,13.51,1.22,27.2,1.18,40.84,0,2.61,1.84,8.21-2.14,10.18-.69.34-7.49-.61-8.06-1-1.05-.7-.86-1.94-.99-3.01-1.33-10.72.35-25.71.09-37.09-1.31-57.77-2.68-112.91-.66-170.79.47-13.51,7.07-16.79,13.01-26.78,25.44-42.75,22.41-108.96,23.98-156.99.19-5.89-.67-22.5,5.58-24.46,12.51-3.91,5.97,15.8,5.96,21.06-.13,61.81.86,129.11-35.82,182.09-3.24,37.89-5.66,75.89-3.08,113.9.23,3.42,1.3,7.05,1.47,10.53l11.02-1.01,2.43-1.57c4.1-21.12,8.16-42.45,10.06-63.94,4.05-45.82-5.86-96.57,19.01-137-3.31-1.29-3.05-6.02-2.06-9.02,3.45-10.47,13.17-19.24,18.41-28.63,2.46-4.41,12.74-25.74,12.57-29.37-.07-1.56-2.23-3.83-2.69-6.21-2.21-11.26-2.93-20.76-5.73-32.28-4.95-20.33-10.74-40.8-17.44-60.55-2.98-8.77-20.56-32.41-27.11-39.91-32.28-36.96-78.3-68.38-122.06-90.92-15.73-8.1-35.9-13.51-50.94-22.06-2.21-1.25-3.78-2.67-5.45-4.55-1.84,16.65-7.8,35.22-16.12,49.86-2.07,3.64-11.6,17.88-13.93,20.07-1.88,1.76-3.95,1.56-5.36,2.64-53.41,41-109.25,35.61-166.74,6.58-28.08-14.18-59.27-30.78-74.36-59.43-7.07-11.25-15.51-24.02-20.45-36.76-.84-2.17-1.23-4.65-1.56-6.94-1.51-1.28-18.9,7.91-22,9.43-7.47,3.65-14.09,7.63-21.45,11.55-59.2,31.55-117.27,60.07-166,107-1.29,1.24-9.96,11.1-10.06,11.87-.45,3.51,14.14,20.16,16.98,24.19,26.11,37.04,52.02,75.23,77,113,3.36,5.08,22.59,36.14,22.28,39.45-.06.67-1.57,1.68-2.14,2.61-.53.86-.46,2.58-.67,2.78-.79.72-7.99-1.54-8.64-2.17-1.5-1.44-5.37-11.14-6.87-13.62-4.68-7.73-11.25-19.52-16.37-26.36-1.14-1.52-4.49-4.15-6.01-5.74l13.74,47.75c1.34,17,8.08,37.04,7.86,53.92-.11,8.51-3.59,16.79-11.39,7.6-2.32-21.79-3.38-43.8-8.92-65.08-3.91-15.02-11.63-31.15-15.05-45.95-.43-1.85-1.51-9.18-1.27-10.69.43-2.76,4.28-4.05,3.95-5.93l-71.95-105.63c-.91-.62-10.33,14.83-11.18,16.31-28.11,49.4-40.83,108.69-55.07,162.87-2.96,11.27-5.48,22.43-8.42,33.65-8.54,32.6-16.8,65.25-27.32,97.16,8.98-2.01,17.3,3.53,25.78,5.72,20.11,5.18,42.82,7.49,63.44,11.56,30.45,6,60.56,15.49,92.05,14.95l4.72,3.3c1.29-2.67,3.66-5.67,4.73-8.28,16.75-40.87,26.66-85.04,36.92-128.08,8.33-34.93,18.19-71.27,17.21-107.53-.3-10.96-2.99-24.63-2.76-35.02.25-11.36,11.28-11.25,12.88-3.09,1.08,5.52.93,19.58,1.06,26.03.58,28.11-2.12,55.85-7.32,83.68-3.37,18.06-8.89,35.82-12.72,53.77,3.45-3.35,7.94-6.02,11.51-9.03,6.74-5.67,13.33-12.06,20.99-16.96,7.04-4.5,32.02-18,39.25-18.83,10.74-1.23,10.91,12.68,4.49,13.6-1.76.25-3.27-.9-4.69-.72-9.9,1.25-34.82,16.22-43.51,22.51-5.28,3.82-10.3,8.47-15.06,12.94,16.18,1.41,32.2-2.85,48.47-2.48,5.7,2.39,8.16,9.8,1.48,12.42-3.56,1.4-11.38-1.12-16.49-.48-2.65.33-4.37,1.84-6.94,2.06-8.01.69-29.56,2.92-36.08,2.01-5.2-.72-3.05-3.54-6.44-6.04-6.3,17.73-8.96,36.41-14.07,54.44-6.36,22.43-15.81,39.68-24.43,60.57-2.19,5.3-8.02,27.77-11.51,29.51-2.86,1.42-6.38-1.02-7-.51-.18.15.88,1.49.47,2.87-2.74,9.09-8.64,17.88-9.02,26.57-.46,10.83-2.58,23.79-2.53,34.07.06,13.36,3.99,29.73,3.97,43.08-.01,8.76-5.78,11.35-11.85,4.61l-3.03-53.2c-.83,8.23-9.15,19.33-9.94,26.59-.61,5.59.46,22.56.94,28.91.14,1.86.94,3.62.99,5.5h-10c-3.67-5.92-3.62-13.46-4.08-20.48-.18-2.66.95-5.01.89-7.03-.09-3.27-2.34-5.91-1.63-9.73s6.68-8.88,6.79-9.46c1.75-8.73,1.69-8.14,4.74-16.08,6.8-17.72,13.07-35.65,20.29-53.21l-145.47-33.06c-2.2-.17-1.28.2-1.51,1.54-4.13,23.83-9.67,47.39-12.52,71.49-2.39,20.17-1.53,40.81-3.53,60.5-.19,1.91,1.2,4.07-1.96,3.52v-100c2.76-11.67,9.09-28.57,7.06-40.42-.16-.91-5.69-1.19-7.06-1.58v-14c10.47,3.91,21.16,8.32,31.93,11.37,32.55,9.21,66.15,14.3,99.18,21.25,14.84,3.12,29.25,8.19,44.33,10.4,1.09-.1,7.8-19.34,7.63-20.42-.37-2.34-15.44-1.64-18.4-1.99-24.29-2.83-48.48-10.3-72.54-15-22.14-4.32-46.02-6.94-66.89-12.24-8.54-2.17-17.03-4.59-25.24-7.38,1.09-12.64-1.47-27.67,0-40ZM388.47,64.09c1.67,1.61,8.72-8.77,7.99-10.99-4.08,2.83-7.08,5.98-7.99,10.99ZM425.97,59.12l-5.01,8.96c2.43-1.22,8.04-5.96,5.01-8.96ZM602.46,59.1c-.27-.33-7.76,1.79-8.36,2.15-1.85,1.1-1.18,2.87-2.32,3.92-3.82,3.52-18.15-.34-23.8-.1l-.7,2.78c-7.01,2.06-14.44,3.59-21.82,4.26,4.02,7.27-10.45,11.31-15.95,12.54-22.8,5.11-35.75-3.46-55.82-8.28-4.12-.99-9.54-.62-13.5-1.5-3.13-.7-12.63-5.96-14.18-5.82-5.19.47-16.15,21.62-21.04,25.06-4.19,2.96-14.4,7.24-19.52,7.99.28,4.58,2.02,10.86,1,15.34-.3,1.3-.58,1.7-1.15,4.89-1.63,9.25-6.51,33.78-14.49,38.61-3.85,2.33-4.1,1.82-7.37.69-3.61-1.24-.21,2.96.08,3.9,2.01,6.57-.44,27.67-.69,35.89-1.15,37.97-6.48,78.14,1.92,115.88,3.45,15.47,26.15,51.59,38.06,62.44,2.6,2.37,6.34,4.19,9.16,6.35,2.46,1.88,2.95,4.31,7.01,5.99,2.59,1.07.79-7.69.4-7.97-.31-.22-1.94.79-2.92.38-4.54-1.9-7.94-4.26-5-9.38-1.19-.89-7.94,3.17-11.91-3.66-1.93-3.32,2.49-14.79,1.92-15.34-1.3-1.25-9.59-.6-9.57-7.52.02-3.96,7.14-18.13,8.55-23-11.61-3.39-1.77-15.72.51-23.49,3.57-12.12,7.46-37.74,17.78-45.71,2.12-1.64,4.2-.72,5.99-1.36.9-.32.75-1.88,1.38-1.98,1.78-.3,5.92.34,7.76,0,7.09-1.29,8.36-1.1,15.27-1.35,7.74-.28,15.53-.83,23.32-.61-.3-1.85-3.42-1.53-4.97-2.54-7.27-4.72-7.97-17.41,4.23-14.2,2.28.6,4.27,3.54,6.52,4.48,5.88,2.46,19.22,3.82,25.47,2.02,5.43-1.57,9.64-6.8,7.09-12.59-4.2-6.89-8.24-14.17-11.38-21.61-2.09-4.95-7.12-17.56-7.71-22.32-1.16-9.38,7.23-14.83,12.22-5.18,2.21,4.28,2.88,11.21,4.76,16.23,3.59,9.59,9.54,18.29,12.95,27.05,4.08,10.49,1.68,21.54-8,27.57l-11.17,5.09c14.2,1.85,29.66,3.9,41.23,12.99,1.64,1.29,2.46,3.91,4.81,5.47,3.69,2.45,6.98,1.05,8.65,6.33,3.13,9.89-.99,18.55-1.47,27.73-.36,6.87,1.61,16.01,1.81,22.95.48,16.54-2.53,27.36-8.78,41.72-.26.61,1.25,2-.18,3.33-1.79,1.65-8.41,2.97-10.55,5.52-1.74,2.07-1.55,6.73-2.76,7.74s-10.61,3.56-11.54,4.51c-.42.43-.08,1.92-.51,2.36-1.55,1.58-4.5,3.3-5.7,5.35,28.51-9.74,58.31-31.7,68.47-61.01,10.74-30.97,9.61-67.03,11.53-99.47,2.8-47.34,9.26-101.38-1.43-147.41-2.35-10.11-2.24-16.7-8.64-25.33-2.2-2.97-6.38-3.39-4.95-8.77ZM508.47,63.11c-1.24-1.29-17.96-2.07-20.99-2.01-.5,2.93.71,1.61,2.33,2.12,5.24,1.62,11.72,2.9,17.14,1.86,1.24-.24,3.14-.28,1.52-1.96ZM535.47,74.09c-.35-2-2.16-1.59-3.47-2.02-9.29-3.03-8.33-.75-16.31,1.74-2.51.78-8.72-.64-8.21,3.28,9.39,1.12,18.86-.72,28-3.01ZM633.71,231.38c.53-.78,2.47-1.04,3.69-2.94,3.37-5.24,7.12-36.01,5.65-42.41s-7.59-8.55-8.58-.46c-1.22,9.94-2.64,24.76-2.66,34.59,0,4.34,1.33,9.33.67,13.92,1.8.32.56-1.73,1.23-2.71ZM360.87,187.72c-1.62-1.42-1.38-2.96-4.39-4.13-11.79-4.59-9.7,8.16-8.99,15.99.91,10.02,3.6,21.39,7.21,30.78,2.97,7.73,6.46,12.85,12.26,18.72,2.91.18,2.34-22.13,2.46-24.52.37-7.45,1.43-15.81,1.66-23.13.08-2.39-1.19-5.14-.56-7.75-4.87-.67-6.38-3.08-9.66-5.96ZM516.09,267.5c-2.02-.81-38.88-3.57-43.06-3.35-1.57.08-2.91,1.53-4.18,1.66-2.02.2-4.97-1.38-7.37-.7-.74,2.55,5.08,3.28,6.79,3.7,18.4,4.55,46.85,7.86,65.69,6.28,2.57-.22,6.49-.77,8.51-2.49-1.05-.8-3.27-1.19-4.61-1.38-7.79-1.08-15-1-21.76-3.72ZM464.46,280.1c-3.46,1.99-13.67-4.06-15.53-3.77-5.27.82-2.45,15.02-2.41,18.22.1,8.62.23,17.68-.06,26.04-.11,3.25-1.81,6.89-.99,10.5,11.96-3.78,9.19,3.77,10.52,11.48.18,1.02,1.23,1.89,1.4,3.05.28,1.87.58,11.86,1.08,12.47,13.09-7.64,11.94,15.6,14,17.01.4.27,4.69-1.45,9.25,1.03,3.88,2.11,3.44,7.62,3.74,7.97.22.25,4.07-1.16,5.52-1.12,1.88.05,1.51,2.01,1.98,2.14,3.68,1.01,2.19-2.2,3.73-3.81,3.12-3.28,12.51,3.95,14.11,3.63.76-.15,3.28-2.7,4.5-3.52s3.41-1.06,3.91-1.63-.15-2.12.89-2.72c3.6-2.08,8.08.19,11.81.07,7.42-.22,3.53-5.01,4.74-10.34.64-2.84,4.14-8.28,7.31-8.32,2.39-.03,4.88,5.82,6.47,4.61,9.3-24.27,12.25-50.18,14.54-75.97-3.34-3.17-6.06-7.79-11.21-6.29-5.52,1.61-4.06,5.23-5.95,9.13-5.8,11.95-20.73,25.13-34.13,26.87-6.06.79-27.53-.97-32.61-3.69-1.3-.7-.35-2.49-.64-3.06-.17-.34-2.42.95-3.37.78-.46-.08-6.81-4.52-7.65-5.25-4.21-3.66-12.89-16.61-9.05-21.88.92-1.27,4.75-.57,4.07-3.64ZM533.47,288.11l-23.22.72-37.77-5.73c1.03,1.43-.08,6.54.1,6.83.2.33,2.07.63,2.9,1.63,4.93,6,6.76,8.22,14.94,10.09,16.48,3.77,33.91,2.31,43.05-13.54ZM405.89,379.68c-6.84-8.4-9.46-15.4-14.76-23.74-1.2-1.88-10.35-14.41-11.17-14.83-4.84-2.45.7,7.66.84,8.17,4.41,15.46,7.39,26.36,17.25,39.74,25.12,34.06,97.23,55.32,137.79,48.96,20.47-3.21,50.58-20.62,52.68-43.37.13-1.36-.04-8.58-2.54-7.5-1.66.72-5.6,5.63-7.3,6.98-9.39,7.45-31.78,20.71-43.41,22.4-4.98.72-9.85,2.01-14.35,1.75-.55-.03.1,1.54-1.9,1.93-2.84.55-14.59,1.35-17.12,1.02-1.91-.25-1.39-2.05-1.86-2.02-4.75.36-8.54,2.24-14.78,1.64-29.18-2.81-60.92-18.47-79.37-41.13ZM438.46,354.09c-.11-3.65.76-7.81-1.49-10.99-2.49,2.98-2.83,6.55-.76,9.71.64.97-.09,1.8,2.25,1.28ZM369.47,346.09c-.99-.99-9.88,2.95-11.67,3.83-2.58,1.27-13.62,7.32-15.3,8.7-1.13.93-1.13,1.52-1.04,2.9.23,3.17,6.75,16.8,8.62,20.48,17.29,33.96,37.08,50.81,70.71,68.29,33.82,17.57,71.03,33.67,109.71,25.36,49.38-10.61,75.21-28.31,86.85-79.15.7-3.05.07-7.71.91-9.99.63-1.71,2.23-1.27,2.22-1.9-.07-4.21-20.35-6.07-16.04-14.02-2.16-1.88-3.43,3.59-5.75,5,.99,1.29,1.68,2.25,1.83,3.97,4.03,46.05-37.42,70.98-78.58,73.53-36.26,2.24-103.29-20.84-127.42-48.75-13.2-15.27-23.38-38.13-25.06-58.22ZM461.46,382.1c-1.57-2.04-1.76.88-2.09,1.44-2.81,4.73-7.2,10.68,2.1,9.56-.38-1.94.53-10.3,0-11ZM478.46,406.09c.71-.77-1.04-14.07-1.62-16.11-.27-.95-.02-2.18-1.36-1.88-1.36,5.85-6.18,10.13-9.99,14.49-.01,1.98,10.82,3.1,12.97,3.5ZM500.44,407.07l-1.47-10.97c-2.98,6.73-12.87,14,1.47,10.97ZM1182.85,493.46c.76-.99,3.24-1.14,2.69-3.79-.67-5.96-.59-12.12-1.08-18.05-.47-5.69-3.09-10.66-1-16.51l-17.98,48.51c6.79-.43,13.33-4.86,17.37-10.15ZM937.28,629.89c.25-.53,1.4-8.53,2.13-11.36,6.77-26.14,11.28-58.79,11.06-85.93-.02-1.94-1.19-3.92-1.08-6.01.18-3.29,3.24-5.74,3.91-8.85-6.56-12.59-13.18-24.24-14.32-38.66-.35,0-2.42,5.41-2.55,6.46-4.79,39.24-2.39,78.8-8.36,117.9-2.85,18.7-9,34.63-16.4,51.35-.48,1.09-1.37,1.97-2.19,2.8.36,1.17,2.15.39,2.96-.04,6.82-3.63,13.27-8.9,19.35-13.13.93-.65,7.48-1.88,5.68-4.31-.54-.73-3.03.89-3.08-4.51s2.54-4.95,2.9-5.71ZM1095.24,683.86c3.76-23.11,9.17-45.92,17.75-67.74,7.49-19.04,18.4-36.98,26.16-55.84,4.8-11.67,8.29-24.21,12.31-36.18-5.6,6.13-10.89,14.95-16.95,20.54-7.83,7.21-25.63,19.16-35.59,22.41-36.43,11.88-71.92,14.55-105.19-6.69-3.32-2.12-8.62-9.56-8.99-3-.79,14.18,1.51,29.75.24,44.76-2.36,27.92-20.07,50.18-.51,75.49,15.99,20.69,43.28,22.34,67.21,18.2,14.52-2.51,29.49-7.63,43.56-11.94ZM963.45,531.11c-2.16-1.85-2.84,4.12-2.97,5.5-2.78,28.14-.25,54.54-8.5,82.5-1.8,6.1-5.04,11.72-6.51,17.98,1.42,1.17,22.96-13.45,24.5-16.99,4.7-10.81,3.37-27.9,3.42-39.51.05-10.85,1.56-22.95-.01-33.9-.76-5.31-5.4-9.4-8.94-13.11-.74-.77-.87-2.37-.99-2.47ZM1158.46,729.09c.72-1.4-.63-2.67-.98-1.99-.72,1.4.63,2.67.98,1.99ZM1146.46,752.09c.31-1.38-.54-2.66-1.98-2.99v2.99s1.98,0,1.98,0Z"/>
      <path class="cls-1" d="M1115.48,480.09c1.95-.16,2-3.86,1.82-5.28-.22-1.75-13.01-16.71-1.4-15.69,3.59.32,12.13,10.68,13.1,13.93,1.69,5.62-2.51,16.11-4.31,21.81-1.18,3.76,1.36,5.85-6.52,4.02-6.76-1.57-4.09-7.58-3.69-12.29.11-1.35.04-1.95-1.5-1.48-.72.22-10.02,5.64-11.46,6.54-20.29,12.68-31.15,22.45-57.44,18.32-18.79-2.95-40.52-18.65-51.24-34.25-2.5-3.63-4.45-13.99-1.09-17.36,3.82-3.83,7.28-1.38,10.66-.92,27.53,3.78,53.6,8.43,81.57,10.63,10.17.8,31.12-2.82,31.5,12.01ZM1097.46,481.11l-41.49-2.01-50.51-7.99c5.33,6.02,10.98,12.34,17.86,16.63,7.29,4.55,17.85,8.93,26.11,9.88,17.51,2.01,28.98-3.67,43.33-12.71,1.36-.85,4.01-2.42,4.69-3.79Z"/>
      <path class="cls-1" d="M802.17,655.39c4.48,5.74,5.72,22.71-1.69,27.21,2.95,1.36,7.21,7.06,3.33,9.57-6.36,4.11-8.58-3.43-12.4-5.5-1.48-.8-3.37-.63-4.71-1.27-1.67-.8-.92-3.23-4.22-2.31,1.82,6.97-7.86,13.03-13.56,13.94-2.95.47-10.8-1.1-11.29-.81-.8.47-5.32,9.4-9.88,11.65-2.99,1.48-11.95,1.1-14.05-.99-2.95-2.93-2.23-15.5-3.38-19.12-.71-2.25-4.27-2.13-4.69-2.81-1.51-2.46-.77-9.29,1.29-11.9,10.14-12.82,26.19-6.41,23.55,10.05,2.94-3.26,4.5,4.18,6.99,2,1.01-.89-4.28-13.75-4.09-16.51.58-8.66,14.37-12.5,20.12-5.01,2.48,3.23,1.03,10.01,5.97,10.52-5.83-11.81,12.75-31.46,22.7-18.7ZM793.34,675.95c3.12-1.73,3.56-14.91-2.38-15.83-3.53,2.67-3.25,18.96,2.38,15.83ZM738.46,681.09c.58-.39,1.63-6.04-.49-5.98-3.83.11-4.07,9.06.49,5.98ZM773.46,685.08c1.93-2.68-5.56-3.68-7-2.98l1.02,6.99c1.35.09.9-1.33,2.21-2.34,1.07-.83,3.65-1.51,3.77-1.67ZM749.47,691.11c-.32-.38-8.67-.65-10-1.01l2,8c3.08.57,3.63-2.28,5.08-3.41.62-.48,5.11-.96,2.91-3.58Z"/>
      <path class="cls-1" d="M1187.46,915.1c.9-6.61,4.36-13.77,10.46-17.05,9.37-5.04,21.13-3.41,22.48,8.7.84,7.55-5.88,17.11,1.88,22.02l3.19,6.31c-2.67.49-4.42,2.33-7.41,2.02-3.87-.4-6.83-4.97-7.27-5.04-2.72-.43-6.29,1.82-10.61.82-3.65-.84-10.44-5.25-12.2-8.77-2.19,4.42-6.74,5.83-10.17,8.31-1.02.73-1.14,3.06-3.01,3.54-.7.18-13.67-2.05-14.33-2.36-5.93-2.8.17-12.64.85-16.27.31-1.7-.65-3.28-.45-4.57,1.88-12.13.33-19.28,16.12-17.68,7.23.73,13.51,5.51,10.24,13.23-1.28,3.01-5.32,3.67.25,6.77ZM1209.47,911.1c2.57-6.57-6.02-7.21-8.82-4.76-.37.32-.02,1.8-.5,2.39-.55.67-1.76.95-2.05,1.47-2.93,5.32-2.15,13.29,5.37,12.9-3.99-7.86-5.13-13.18,6.01-11.99ZM1178.47,918.11c-3.93-.76-7.1-1.68-10.99,0-.43,1.65,1.73.43,2.02,1.63.52,2.11-.21,4.42-1.03,6.35,2.15,1.5,11.31-4.23,10-7.98Z"/>
      <path class="cls-1" d="M1063.91,382.66c1.18,1.44,2.51,1.58,2,4.53-.68,3.91-6.61,17.03-8.73,21.11-1.44,2.76-3.14,5.54-4.88,8.12-3.46,5.13-9.37,9.99-11.76,15.6,3.89,2.67,6.46,5.22,11.52,5.98,6.55.98,21.82-1.21,26.2.74,2.19.98,4,7.5,2.32,9.75-1.56,2.09-25.73,2.03-29.6,1.58-5.09-.6-18.85-4.53-21.38-8.84-8.65-14.76,3.18-18.12,10.87-27.64,2.66-3.3,8.04-11.69,9.5-15.5,1.88-4.92,2.41-18.37,9.05-19.05,2.85-.29,3.46,1.86,4.9,3.61Z"/>
      <path class="cls-1" d="M766.13,622.44c.5.64,5.24,12.49,5.31,13.2.5,4.91-4.33,12.07-9.51,12.43-1.36.09-7.92-1.05-9.43-1.54-4.25-1.38-5.01-6.33-6.02-9.98-.44-1.6,1.07-2.95-2.01-2.44,1.64,10.26,4.56,17.44-8.63,18.87-13.93,1.5-14.38-3.54-15.42-16.43-.16-2.01,1.09-3.67,1.07-4.88,0-.39-3.67-.75-1.83-6.88,1.51-5.02,13.91-4.47,18-2.6,1.99.91,3.07,5.29,5.8,4.9.43-1.39-2.18-5.37-1.87-5.85.09-.13,1.38-.07,1.89-.85.69-1.07.46-2.16,1.7-3.35,4.09-3.9,9.65-3.11,14.2-.37.52.31,6.46,5.42,6.73,5.77ZM759.45,640.1c3.7-2.78-1.63-16.51-6.98-15.99.02,6.14.05,13.71,6.98,15.99ZM735.32,644.96c4.21-2.61-5.42-31.09-4.85.14,1.36-.2,3.86.48,4.85-.14ZM743.97,632.1v1c.65-.33.65-.67,0-1Z"/>
      <path class="cls-1" d="M1221.13,811.79c-.67,1.04-8.31,7.06-7.65,8.29,3.24,2.63,12.29,6.93,12.86,10.75.95,6.42-9.74,5-13.18,3.08-1.46-.81-5.81-6.74-7.4-8.53-.42-.47-.74-2.84-2.28-1.27-.32.32,1.48,5.89-.53,8.93-1.51,2.28-5.34,3.19-7.45,5.05-4.14-4.91-1.81-6.24-1.5-10.96s1.34-25.26,3.73-27.78c4.37-4.61,19.55-5.17,24.73-.73,2.45,2.1.27,10.7-1.32,13.17ZM1210.46,803.1c-4.74-.15-4.89,4.16-4.99,7.99,3.2,1,5.82-7.14,4.99-7.99Z"/>
      <path class="cls-1" d="M1156.06,375.51c3.63,3.13,8.79,7.54,4.88,12.57-4.13,5.32-8.7-1.81-12.73-4.22-11.49-6.87-24.42-10.06-37.8-7.32-7.35,1.51-15.27,11.47-20.63,4.26-7.68-10.32,14.27-16.15,21.15-16.74,15.87-1.35,32.8.81,45.13,11.45Z"/>
      <path class="cls-1" d="M675.47,643.11c-2.65,2.3,6.42,2.39,7,3,.51.73-1.75,7.57-3.99,7.01,0,2.06,3.09-.15,4.49-.06,4.33.28,2.88,7.57-1.23,8.82-3.04.93-10.93,2.2-11.77-1.77-2.98,5.63-6.22,5.06-10.49,1,.6,3.99-1.29,6.17-5.35,4.86-2.28-.74-4.76-11.29-6.15-13.85-7.53,1.47.9,12.73.47,14.43-.18.69-3.93,3.74-5.34,3.55-7.64-1.01-4.2-10.53-7.64-12.57-.53-.32-13.06.7-6.54-5.47,4.94-4.68,18.97-3.53,25.49-5.93.45.33.76,7.22,3.05,4.97.37-.36-1.19-7.9,2.21-9.77,7.91-4.36,3.99,11.64,9.78,13.77.48-3.65-3.63-11.89-1.82-14.83.85-1.37,14.49-6.41,11.75,1.25-.71,1.98-3.59,1.31-3.93,1.6Z"/>
      <path class="cls-1" d="M1098.36,861.2c3.41,5.09-6.53,4.45-7.89,7.41,12.18-1.18,6.75,6.1-1,9,3.31-.9,11.9,2.57,7.42,5.6-.5.34-9.98,2.93-10.97,2.96-3.02.09-5.19-2.25-5.43-2.07-.26.19-.38,3.82-3.32,3.81-1.21,0-4.68-1.68-5.27-2.79-1.13-2.13,2.17-3.54,1.57-4.01-3.02-2.39-2.49,6.51-3.92,7.56-3.82,2.79-8.02-3.77-9.07-2.57,2.16,5.97-6.45,5.89-7.04,3.33-.65-2.77-.05-8.56,1.04-11.32-4.44-.56-9.83.69-7.24-4.75,2.26-4.76,20.38-7.65,24.27-4.74,2.28,1.7-1.94,4.82,1.46,4.48,2.57-5.59,1.2-10.51,9.51-9.98l-1.5,17.99c3.33-3.91,1.54-14.27,3.78-17.72,1.49-2.29,12.05-4.52,13.62-2.18Z"/>
      <path class="cls-1" d="M1151.12,898.49c3.2,1.61,6.23,8.35,5.2,11.89-.43,1.48-2.72,2.25-2.9,4.26-.41,4.39,7.03,6.04,2.25,15.16-4.22,8.06-23.38,12.24-28.28,4.85-1.66-2.5,2.63-13.88,2.82-18.32.19-4.56-2.03-8.81.03-13.96,2.52-6.31,15.73-6.47,20.89-3.87ZM1141.07,904.18c-1.81.4-4.61,8.56-2.08,8.92,7.86-.09,7.94-10.23,2.08-8.92ZM1148.48,922.1l-12-1v8c.78.79,15.3-2.22,12-7Z"/>
      <path class="cls-1" d="M770.15,555.44c.34.15.48,1.24,1.05,1.66.87.63,2.57.57,3.06,1.21.35.46,1.34,6.32,1.29,7.3-.24,4.44-6.33,7.8-6.05,12.45,3.2.16,4.79,3.08,7.38,4.12,2.87,1.15,8.95.28,8.34,5.24-.36,2.94-5.33,5.82-8.18,5.67l-12.57-6.98c.44,3.35,2.77,6.56.87,9.87-5.94.56-9.94-.41-11.93-6.31-.83-2.44-5.7-24.41-5.42-25.69.77-3.56,12.15-8.78,15.5-9.43,2.13-.42,4.74.04,6.66.91ZM758.47,573.09c5.23-.75,5.46-5.71,4.99-9.99-6.23,3.21-4.29,4.06-4.99,9.99Z"/>
      <path class="cls-1" d="M1215.17,880.8c-3.54,3.67-20.48,4.47-23.24.34-3.01-4.5,1.57-10.72,2.13-13.97.21-1.23.49-9.78.5-11.64s-2.1-1.33-2.14-2c-.54-10.8,21.22-6.55,25.89.23,3.83,5.57,3.67,13.85,1.25,19.92-.19.48-4.09,6.82-4.38,7.12ZM1205.47,857.09c-.24,4.75-2.02,9.48-2.35,14.2-.09,1.24-1.09,1.57.86,2.81,6.88,1,10.38-17.89,1.48-17.01Z"/>
      <path class="cls-1" d="M1036.09,359.48c1.49,1.15,6.87,6.82,7.17,8.33.92,4.73-2.95,1.99-.79,6.28-2.38,2.14-12.11-5.9-15.11-7.38-3.48-1.71-17.62-7.95-20.64-8.4-6.41-.95-17.19,4.18-23.67,5.78-9.69-3.41-6.42-10.02,1.44-13.48,18.48-8.13,36.05-3.07,51.61,8.87Z"/>
      <path class="cls-1" d="M712.33,623.24c1.61,1.04,5.04,18.9,6.1,22.4,1.36,4.5,6.88,9.55.43,13.35-7.83,4.6-7.99-2.45-9.25-7.54-.25-1.01.39-3.16-1.63-2.34-8.1,3.32,4.97,16.02-9.37,16.9-3.38-5.04-3.18-11.44-4.81-16.74-1.41-4.57-9.18-15.9-2.32-19.66,4.57-2.5,6.83.61,8.72,4.26l1.76,8.21c9.25-3.5-.77-12.44,4.01-18,1.04-1.21,5.27-1.56,6.37-.85Z"/>
      <path class="cls-1" d="M1123.16,838.8c-3.97,4.46-10.53,3.51-14.76-.13-2.22-1.91-2.33-5.25-4.92-6.57-.21,3.55-1.99,13.29-5.5,14.01-1.02.21-4.68.27-5.36-.16-3.12-1.96,2.7-17.16,3.6-20.6.79-3.05-.11-10.89,4.67-11.16,12.77-.73,6.07,12.22,15.57,15.91,1.41-1.46,2.7-18.08,4.55-20.96,2.98-4.62,10.55,2.01,10.29,5.3-.17,2.11-3.12,3.66-3.62,5.37-1.49,5.09-.28,14.23-4.52,18.99Z"/>
      <path class="cls-1" d="M691.23,617.85c-1.27,1.48-7.13,1.61-9.05,1.04l-8.7-5.78c-.49.55,4.69,11.73-3.71,11.78-5.38.03-5.7-12.77-6.79-16.8-1.48-5.49-8.88-16.78,1.02-17.04,6.79-.18,4.57,2.56,7.15,5.82,1.3,1.65,8.46,10,10.33,8.22.75-.72-8.01-15.97-5-20,12.92-2.86,9.75,15.16,15.77,22.73.47,2.21.33,8.47-1.01,10.02ZM681.46,608.09c.72-1.4-.63-2.67-.98-1.99-.72,1.4.63,2.67.98,1.99Z"/>
      <path class="cls-1" d="M707.18,579.43c.27.1,4.6,2.44,4.83,2.61,6.49,4.68,11.63,12.03,10.4,20.49-.68,4.7-5.79,10.03-10.54,10.56-2.24.25-4.18-.91-5.74-.69-1.03.14-1.65,1.69-3.92,1.55-3.52-.22-2.22-3-3.37-3.94-.74-.6-2.28-.17-3.44-1.6-.59-.73-5.64-16.57-5.87-17.86-1.77-9.67,10.05-13.89,17.65-11.11ZM701.47,588.1c-.94,3.48,3.09,17,7.31,15.87,8.09-2.16.36-16.89-7.31-15.87Z"/>
      <path class="cls-1" d="M776.06,636.52c-4.84-4.32-11.21-22.59-9.38-28.72,1.13-3.8,10.98-3.12,14.23-2.63,13.37,2,22.44,24.17,9.52,32.39-6.09,3.88-9.46,3.34-14.37-1.04ZM784.27,616.35c-.37-.36-6.48-3.55-6.79-3.24-.97,2.74,2.84,6.36,2.94,6.73.79,2.81.35,7.14,2.07,10.26,2-.82,3.81-3.49,4.01-5.6.07-.8-1.88-7.82-2.22-8.15Z"/>
      <path class="cls-1" d="M740.29,568.29c4.05,7.16-10.88,6.38-10.68,10.13.42,8.02,7.33-4.48,12.4.63,8.08,8.14-9.69,6.9-6.53,15.05,4.44-3.36,16.06-3.38,13.8,4.28-.36,1.21-2.3,3.16-3.52,3.51-1.33.38-15.78,2.29-16.58,2.06-3.22-.93-6.06-13.39-7.28-16.77s-2.68-5.76-3.75-8.28c-4.39-10.35,19.19-15.83,22.14-10.61Z"/>
      <path class="cls-1" d="M628.08,614.45c-.07-.25-1.25-.32-1.52-1.13-.97-2.89-1.39-8.2,1.59-10.05,9.96-6.19,8.51,23.69,15.35,19.37s-2.43-22.7-1.75-26.89c.91-5.67,8.39-6.97,10.48.09,2.04,6.91,4.89,22.89,3.01,29.53-2.14,7.56-14.28,10.59-20.17,4.63-4.54-4.59-5.27-9.84-6.99-15.54Z"/>
      <path class="cls-1" d="M1155.12,807.44c6.09,5.71,3.15,21.98-1.64,27.9-2.92,3.61-16.21,8.96-19.88,6.61-3.99-2.56-.3-19.79,1.15-24.07,2.91-8.58,11.11-19.11,20.37-10.44ZM1148.46,814.1c-2.22-.58-3.44,4.03-4,5.5s-4.46,12.05-3.99,12.5c4.15,3.89,11.26-14.11,7.99-18Z"/>
      <path class="cls-1" d="M1186.22,807.85c-1.5,1.74-10.49,2.38-11.74,4.77-1.03,1.98,1.58,1.37,2.5,1.46,3.74.36,11.53.54,7.58,6.57-3.42,5.22-9.29,2.24-13.07,3.97-4.59,2.1.47,5.89,3.54,6.44s17.45-3.47,12.34,5.39c-1.7,2.94-9.8,3.58-13.44,3.69-5.15.15-12.07-3.08-12.54-8.52-.36-4.14,2.27-9.83,2.99-14.12.95-5.69-2.35-10.43,4.55-13.45,3.31-1.45,16.08-4.41,18.13-.94.52.87-.26,4.11-.82,4.75Z"/>
      <path class="cls-1" d="M1161.47,866.1c.23-.16,1.43.34,1.85-.11.85-.91.98-6.94,1.62-8.92,3.29-10.16,20.21-9.39,23.06,0,1.2,3.96,1.35,13-.27,16.79-.97,2.26-8.83,8.21-11.22,8.81-4.08,1.02-12.15-3.9-14.07-7.28-1.7-2.98-.57-6.31-.96-9.29-2.16,1.53-2.07,7.3-3.27,10.22-1.74,4.22-9.41,9.35-13.97,8.58-13.03-2.22-13.49-13.44-7.74-23.28,2.99-5.12,10.48-9.29,16.4-8.48,8.42,1.16,7.63,5.85,8.58,12.96ZM1172.47,872.09c3.14,3.13,10.62-10.26,5.48-12.98l-4.53,8.45c-.43.94-1.42,4.08-.95,4.54ZM1151.47,863.1c-3.18-4.19-12.93,8.5-6.51,11.98,3.36-.31,7.27-10.96,6.51-11.98Z"/>
      <path class="cls-1" d="M1132.33,853.25c3.24,2.03-.92,9.94-1.58,12.63-.84,3.47-3.8,20.2-4.78,21.26-1.51,1.62-7.26-.76-8.05-2.03-1.33-2.12.78-6.68,1.55-9-8.96-.88-4.86,13.3-13.56,8.05-6.02-3.63-.14-11.4.5-15.62.79-5.18-2.46-11.38,5.77-11.17,7.14.18,2.87,7.62,3.79,11.72,8.19-2.02,5.22-6.42,7.77-12.23,1.32-2.99,5.86-5.33,8.59-3.62Z"/>
      <path class="cls-1" d="M1088.35,812.22c.42.27,1.13,3.53,1.16,4.41.37,8.7-8.54,33.26-17.35,36.75-4.26,1.69-9.85-.97-10.64-5.84-.49-3.04-1.08-12.72-1.06-15.95.02-5.33,6.06-9.98,8.51-6.51s-1.03,14.58.99,19.01c5.8-5.03,5.68-12.85,7.83-19.17.83-2.46,2.51-4.91,3.43-7.61.42-1.23-.09-3.25.41-4.04s5.73-1.66,6.72-1.04Z"/>
      <path class="cls-1" d="M1193.33,760.96c-2.63,1.2-5.94,1.79-8.64.42-.96-.49-4.51-5.7-4.94-7.01-2.99-9.23-4.82-31.48-2.06-40.55,1.96-6.45,10.05-3.82,11.6,2.04-.43,10.47-1.67,22.18.4,32.51.88,4.4,5.34,7.43,3.63,12.59Z"/>
      <path class="cls-1" d="M988.24,442.34c3.91,3.85-3.19,12.32-4.29,15.73-2.52,7.8.2,10.45,2.18,16.73,3.01,9.54-12.65,7.22-14.43-2.44-.81-4.39-.43-14.39.86-18.67,1.48-4.91,10.06-16.9,15.67-11.36Z"/>
      <path class="cls-1" d="M498.23,163.85c-3.4,3.41-7.37-.79-10.52-1.5-10-2.26-36.15-4.9-45.82-1.33-4.14,1.53-10.14,10.77-14.48,3.64-4.63-7.59,3.17-10.72,7.55-13.57,1.5-.97,2.27-2.81,4.23-3.77,8.48-4.16,44.74-.8,53.67,2.87,1.37.56,6.01,3.36,6.43,4.56.65,1.87.32,7.7-1.07,9.09Z"/>
      <path class="cls-1" d="M543.75,164.8c-3.91-3.3-1.77-8.58,1.26-11.65,7.5-7.61,38.8-3.79,48.85-.94,8.67,2.46,18.25,8.47,7.68,16.46-4.95,3.74-12.55-2.7-18.01-4.12s-23.3-3.75-28.36-2.24c-3.11.93-5.19,7.76-11.42,2.5Z"/>
      <path class="cls-1" d="M428.26,250.9c-.21.35-2.7,1.24-3.82,2.67-.79,1.01-6.59,10.61-6.77,11.24-.9,3.17.88,8.82-1.68,11.31-5.16,5.03-10.75-4.2-10.33-9.23.48-5.82,12.46-24.91,18.33-24.78,3.13.07,5.65,6.44,4.27,8.79Z"/>
      <path class="cls-1" d="M589.23,259.29c9.95-.81,15.13,34.04.85,25.69-4.87-2.84-2.2-6.99-2.76-10.39-.23-1.39-1.45-2.45-1.55-3.29-.2-1.6-1.35-9.11-1.22-9.58.38-1.29,3.45-2.33,4.68-2.43Z"/>
      <path class="cls-1" d="M421.38,196.23c3.15,4.62-15.22,8.31-14.47-.64.57-6.87,12.87-1.72,14.47.64Z"/>
      <path class="cls-1" d="M489.48,329.1c6.38-6.87,15.36-2.2,22.51-2.96,3.53-.37,4.68-1.07,8.96-1.26,4.61-.21,7.36-2.04,10.38,3.84,2.29,4.46-.58,13.62-2.69,18.06-5.18,10.93-11.16,1.22-17.7,1.28-3.77.04-5.28,3.15-8.18,3.82-8.8,2.03-8.23-3.39-9.85-3.78-2.41-.58-7.67,9.4-14.75,3.02-.68-.61-1.66-4.15-2.99-4.72s-3.5-.15-3.69-.32c-1.26-1.13,3.61-20.26,4.95-22.27,4.77-7.17,13.15-2.09,13.05,5.28Z"/>
    </g>
  </g>
</svg>