<?xml version="1.0" encoding="UTF-8"?>
<svg id="Layer_2" data-name="Layer 2" xmlns="http://www.w3.org/2000/svg" viewBox="0 0 211.34 151.55">
  <g id="Layer_1-2" data-name="Layer 1">
    <path d="M210.25,62.9c-.03-12.7.4-25.63.57-38.37.15-11.21,2.25-23.78-12.37-24.51-2.56-.13-4.65.55-6.84.57-59.6.52-119.18.23-178.81-.39C6.11,1.21,1.03,2.73.29,10.3c.11,37.2-.18,74.4.02,111.6.03,6.01-1.21,18.62,1.08,23.6,1.76,3.83,5.13,5.26,9.13,5.6,7.59.65,16.95-.03,24.78,0,44,.17,88.54.11,132.58-.04,10.1-.04,23.56,1.1,33.18.02,8.28-.93,9.34-9.2,9.76-16.03,1.41-23.16-.52-48.68-.57-72.15ZM33.16,15.28c12.08-.94,25.17,2.06,37.36,0l113.44.03c.92,1.33-4.05,5.93-4.98,6.85-19.82,19.62-41.9,39.2-62.91,57.61-4.11,3.6-7.17,9.9-13.32,6.49-6.83-3.78-17.23-15.99-23.51-21.75-11.8-10.83-23.52-21.72-35.26-32.63-2.21-2.06-15.8-13-15.82-14.73.21-1.62,3.59-1.75,5-1.86ZM17.41,126.37c-.65.42-1.05.65-1.86.5l-.45-99.12,1.22-.87c7.42,6.7,14.82,13.44,22.18,20.2,10,9.19,19.98,18.5,29.6,28.07.17.46.13.89,0,1.35-.25.92-11.61,11.89-13.33,13.55-10.46,10.09-21.07,21.4-31.58,31.05-1.28,1.18-4.72,4.59-5.78,5.27ZM182.88,136.32l-153.63-.82c-.49-1.74,4.63-6.28,6.01-7.59,2.22-2.11,5.19-4.17,7.4-6.29,12.08-11.6,23.5-23.9,35.89-35.2.45-.16.88-.09,1.34,0,1.41.28,8.24,7.29,10.14,8.86,5.56,4.56,11.88,10.45,19.49,7.94,5.22-1.72,14.25-9.95,18.9-13.72,3.24-2.63,2.75-4.83,7.12-1.31,5.09,4.1,11.76,11.4,16.65,16.24,7.61,7.53,14.76,15.6,22.54,22.99,1.4,1.33,9.74,7,8.15,8.91ZM194.23,125.27c-4.9-2.59-8.12-7.09-11.83-10.78-9.96-9.89-19.76-19.91-29.47-30-2.93-3.04-6.33-5.8-8.98-8.93,0-.85,2.66-3.23,3.42-3.96,12.27-11.65,24.54-23.2,37.13-34.45,2.49-2.22,6.28-7.18,8.65-8.72.64-.41,1.06-.66,1.86-.5.84,1.63.01,2.89-.02,4.45-.5,27.46,2.36,57.03.56,84.23-.19,2.87.86,6.48-1.32,8.65Z"/>
  </g>
</svg>