<?xml version="1.0" encoding="UTF-8"?>
<svg id="Layer_2" data-name="Layer 2" xmlns="http://www.w3.org/2000/svg" viewBox="0 0 735.09 934.67">
  <defs>
    <style>
      .cls-1 {
        fill: #1a1a17;
      }

      .cls-2 {
        fill: #e1e0db;
      }

      .cls-3 {
        fill: #1d1d19;
      }

      .cls-4 {
        fill: #f15a24;
      }

      .cls-5 {
        fill: #1b1a18;
      }

      .cls-6 {
        fill: #e1e0dc;
      }

      .cls-7 {
        fill: #191a17;
      }

      .cls-8 {
        fill: #1b1b18;
      }

      .cls-9 {
        fill: #191917;
      }
    </style>
  </defs>
  <g id="Layer_1-2" data-name="Layer 1">
    <g>
      <path class="cls-3" d="M734.93,557.53c-3.53-50.42-53.13-71.42-94.06-86.94-7.61-2.88-18.44-5.04-25.55-8.45-.9-.43-1.96-.54-2.4-1.64,16.01-28.48,32.43-56.6,37.29-89.61,4.8-32.59-6.34-72.54-20.62-102.04-16.55-34.19-62.55-87.46-58.59-125.16.91-8.69,8.51-21.76-.86-28.65-18.46-13.58-36.84,18.34-43.12,31.67-8.92,18.94-13.02,43.12-26.68,59.34-5.34,6.34-11.7,10.03-14.34-.63-3.45-13.93,4.73-39.18,4.66-55.1-.23-49.42-30.85-90.27-67.19-120.85-9.56-8.04-35.06-26.4-46.58-28.92-5.81-1.27-11.95-.45-16.53,3.5-9.77,8.44.86,22.07,4.27,30.75,13.36,33.93,3.61,96.12-20.79,123.73-17.35,19.64-28.39,3.38-29.95-15.98-.9-11.12,5.12-33.77-5.67-40.33-8.79-5.35-14.65.14-21.36,5.34-38.66,29.9-80.9,89.21-83.97,139.02-1.62,26.24,7.24,48.73,10.55,73.54,4.82,36.12-28.06,76.64-40.32,110.69-4.12,11.45-7.36,24.24-9.25,36.26-16.89-14.74-31.28-33.86-37.5-55.99-1.96-6.96-5.58-24.85-5.57-31.51,0-2.17.05-3.99,1.21-5.92,2.61-4.34,10.5-10.82,13.88-15.08,12.96-16.37,34.66-48.15,27.67-69.67-3.89-11.95-17.72-13.85-27.81-8.47-4.21,2.24-7.37,6.72-11.85,8.64,2.75-16.03,5.18-40.02-8.99-51.52-14.46-11.74-26.17,3.51-31.04,16.52-1.98,1.84-3.95-6.34-4.78-7.7-16.9-27.83-41.24-5.16-42.22,18.71C12.96,244.06,1.46,273.94.15,294.83c-1.79,28.75,12.17,68.59,34.83,86.65,4.09,3.26,8.9,5.97,13.43,8.57,1.87,19.24,5.12,38.29,11.47,56.53,9.43,27.1,26.16,53.87,47.48,71.48,18.36,15.16,38.41,24.71,61.02,32.02,17.24,58.35,63.93,100.52,119.51,122-20.73,42.33-44.79,84.31-53.21,131.4-.25,1.38-.39,2.26.2,3.58-1.5.4-1.65-.34-2.51-.97-7.46-5.45-14.38-13.6-22.16-18.84-19.07-12.85-51.37-19.34-60.8,7.85-9.91,28.55,10.33,59.05,31.01,76.95,10.72,9.28,24.38,18.69,37.47,24.04-.54,1.6-4.57,1.93-6.17,2.31-6.23,1.47-25.79,4.46-29.77,8.22-4.58,4.33-2.15,9.49,2.45,12.47,5,3.23,34.04,7.47,41.52,8.45,43.47,5.73,92.59,6.92,136.69,7.11,60.88.27,127.71-1.27,187.67-9.71,5.68-.8,25.89-3.57,29.99-6.01,5.99-3.57,6.6-12.58.58-16.28-7.15-4.4-25.37-6.55-34.18-7.82-2.68-.39-4.48-2.35-7.75-.76,17.72-18.33,30.58-45.99,31.56-71.72,1.09-28.58-26.52-31.37-46.27-40.06-36.05-15.88-43.17-48-35.02-84.43,1.48-6.61,4.13-13.16,6.4-19.53,20.33-9.44,39.62-21.21,56.32-36.24-7.52,34.06,16.25,79.38,54.5,79.06,9.82-.08,14.76-5.76,21.18-6.77,1.91-.3,7.12,1.87,10.84,1.77,17.61-.49,37.04-15.6,34.4-34.48-1.2-8.56-11.05-16.54-17.85-21.07,3.99-5.51,6.63-11.4,7.84-18.13.26-1.47-.26-4.72.21-5.28.57-.67,13.83-4.7,16.56-5.93,29.79-13.45,57.88-37.76,55.36-73.71ZM477.9,832.05c-21.51,13.3-49.69,26.16-54.04,53.97-13.21-.38-26.44.38-39.62.67-11.43.25-31.48,2.39-41.77,1.39-.69-.07-.51-1.93-.99-1.93-5,.08-11.99,1.63-17.09,1.89-10.15.53-20.33.85-30.49,1.01-.08-5.28,2.66-9.97,3.57-15.01,3.94-21.86,5.72-44.5,10.67-66.24,9.46-41.52,28.01-80.5,49.28-116.8l.91-.61c21.02,3.48,42.29,2.97,63.57,2.68-7.99,37.06-5.76,81.7,19.97,111.52,6.37,7.39,18.33,17.3,26.67,22.33.99.59,10.4,3.59,9.36,5.13ZM645.16,571.83c-15.9,6.6-35.15,6.36-51.26,13.23,5.66-16.58,11.58-34.06,10-52,15.82,5.14,33.37,10.1,46,21.49,10.03,9.04,6.25,12.71-4.75,17.27Z"/>
      <path class="cls-4" d="M579.36,525.5c-.19-3.82-.11-7.64.17-11.34.39-5.25,1.75-10.39,1.98-15.63.56-12.46,1.03-24.19,4.16-36.08.21-1.57.59-3.21,1.18-4.94,5.13-15.15,17.23-31,24.25-45.75,20.46-43,19.8-77.45,1.83-120.23-16.84-40.09-49.32-73.62-62.08-114.92-1.48-4.8-2.45-10.53-2.96-15.54l-10.96,30.53c-9.7,20.52-26.43,51.61-54.04,45.96-22.58-4.62-23.92-32.58-21.98-50.98,2.74-26.08,8.46-40.32.27-67.29-6.93-22.8-32.9-52.85-50.63-68.87l-18.64-13.35c8.38,36.67,2.82,75.7-12.83,109.67-10.93,23.72-31.74,54.71-62.4,44.05-20.52-7.13-27.86-32.04-28.27-51.72-10.77,8.87-20.19,20.33-28.34,31.66-16.89,23.5-31.01,51.22-32.21,80.79-1,24.61,8.25,45.58,9.41,69.45,2.43,49.77-27.23,74.82-41.83,118.13-54.25,160.89,104.04,243.66,242.83,228.83,56.59-6.05,123.87-50.56,138.39-108.61,2.31-9.25,1.19-22.73,2.7-33.83Z"/>
      <path class="cls-6" d="M607.28,483.72c.22,3.24.25,6.51.01,9.7-.35,4.79-2.6,8.77-3.65,13.21,9.52,1.94,30.91,12.09,39.57,16.62,18.11,9.48,49.42,28.09,36.07,52.7-12.23,22.55-60.65,21.27-82.72,36.28-30.38,20.67-29.58,64.55,1.42,84.25,1.34.85,4.32,3.21,5.91,2.09-5.14-4.98-8.41-11.32-11.01-17.99-3.45-8.84-8.7-25.41,6.72-23.73,5.36,5.21,7.78,13.03,12.48,19.53,7.51,10.37,16.46,18.24,30.23,16.6,3.21-.38,9.48-2.48,7.14-6.9-2.48-4.7-18.45-9.96-23.08-15.99-10.69-13.9,4.71-16.11,10.28-23.76,5.41-7.43.81-14.33,5.03-21.97.78-1.41,1.92-2.82,3.16-3.84,7.92-6.48,28.18-11.29,38.72-17.28,10.05-5.73,18.78-13.79,23.52-24.48,23.47-52.89-55.75-80.25-99.81-95.04Z"/>
      <path class="cls-6" d="M61.89,261.06c1.2,6.59,5.1,14,5.93,20.58,1.08,8.6-1.82,29.8,9.81,32.18,12.98,2.66,16.05-7.6,18.64-17.69,2.63-10.24,3.48-20.94,6.65-31.55.4-1.35-.13-3.13,1.97-3.52-.39,4.4.98,9.19.96,13.48-.02,4.91-.55,12.92-.97,18-.64,7.72-7.21,33.05-4.45,37.48,1.96,3.15,9.79,4.13,13.02,2.09,8.96-9.54,15.28-21.76,26.43-29.05-2.8,13.08-11.7,27-20.01,37.48-6.18,7.79-20.12,19.43-22.66,28.34-4.42,15.56,4.08,48.99,10.04,64.32,10.13,26.09,30.7,47.17,54.14,61.86l2.5,28.99c-2.97-1.91-6.55-2.35-9.67-3.82-47-22.05-70.57-64.94-80.69-114.08-1.73-8.38-1.18-19.63-5.07-27.16-3.74-7.22-7.34-6.77-13.28-10.72-18.51-12.31-28.13-37.81-30.65-59.44-.91-7.83-.56-15.89-.62-23.79,12.03,5.19,9.94,45.88,29.74,34.23,11.32-6.66,3.06-25.33,3.16-36.72.05-5.61,1.48-14.68,3.06-20.05.43-1.46-.56-1.74,2.02-1.46Z"/>
      <path class="cls-2" d="M333.9,685.07c-24.24,39.22-41.75,82.75-51.53,127.96-4.6,21.27-5.51,49.44-11.94,69.06-3.82,11.68-18.51,3.55-26.5.44-25.23-9.83-68.28-38.74-73.8-67.2-.41-2.12-1.05-12.56-.06-14.08.99-.61,2.22-1.02,3.39-1.09,14.68-.92,39.52,18.53,50.33,28.51,7.78,7.18,14.67,22.63,27.02,11.81.72-.63,1.53-1.09,2.1-1.89,2.28-3.17,5.91-30.69,7.47-37.53,9.95-43.68,29.43-82,51.47-120.56,1.01-.61,18.44,6.78,22.04,4.58Z"/>
      <path class="cls-2" d="M469.9,686.08c-11.95,32.45-9.61,69.29,13.03,96.46,7.14,8.56,19.16,16.63,29.73,21.27,17.42,7.63,37.42,3.74,31.96,29.49-4.33,20.44-19.51,47.72-38.84,57.16-13.38,6.54-39.87,11.67-53.15,4.38-13.55-7.43,7.23-24.84,13.94-29.6,11.06-7.85,36.86-18.01,43.76-28.24,10.24-15.19-12.53-21.52-21.48-26.39-9.56-5.21-22.03-13.88-28.95-22.33-20.73-25.34-22.59-65.12-13.81-95.52,2.41-4.03,18.91-4.24,23.8-6.68Z"/>
      <path class="cls-8" d="M455.03,413.2c-.17.1-.78,2.06-1.57,2.88-17.74,18.44-43.82,31.81-69.93,29.85-21.16-1.59-49.86-13.87-62.26-31.74-4.89-7.06-12.85-27.56.38-29.91,9.46-1.68,9.9,6.12,14.26,11.28,22.94,27.15,60.5,33.23,90.34,13.36,2.24-1.49,14.86-11.24,15.73-12.59,2.22-3.46-4.08-13.13,4.64-15.06,10.51-2.33,17.04,2.76,23.26,10.31,5.22,6.32,12.4,16.85,6.94,24.9-5.77,8.5-19.55-4.6-21.79-3.29Z"/>
      <path class="cls-7" d="M326.55,357.46c-12.63-9.72-10.02-32.56-1.06-44.3,7.04-9.22,19.36-12.68,26.84-2.02,8.61,12.26,3.26,40.56-10.75,47.11-3.51,1.64-9.61,2.76-13.22,1.41-1.18-.44-1.16-1.7-1.81-2.19Z"/>
      <path class="cls-9" d="M431.61,309.28c11.08-2.53,20.15,10.66,21.18,20.39,1.23,11.55-5.4,30.7-17.86,33.92-28.49,7.37-24.16-49.55-3.32-54.31Z"/>
      <path class="cls-1" d="M345.63,238.3c6.08-1.25,12.01,2.16,15.74,6.8,2.51,3.13,9.8,15.36,12.37,19.63,3.66,6.07,11.79,21.8-1.3,22.87-9.79.8-23.76-15.23-28.77-22.8-5.3-8.01-13.04-23.42,1.96-26.5Z"/>
      <path class="cls-5" d="M444.6,256.35c1.01,1.36,2.3,6.52,2.34,8.27.22,9.35-12.64,12.76-17.57,19.43-4.86,4.87-17.15,8.84-21.54,1.59-3.7-6.1,7.76-21.53,12.59-25.54,5.56-4.63,18.74-11.03,24.18-3.74Z"/>
    </g>
  </g>
</svg>