<?xml version="1.0" encoding="UTF-8"?>
<svg id="Layer_1" data-name="Layer 1" xmlns="http://www.w3.org/2000/svg" viewBox="0 0 14.1 64.09">
  <defs>
    <style>
      .cls-1 {
        fill: #df602a;
      }
    </style>
  </defs>
  <path class="cls-1" d="M12.65,60.66c-.15.33-2.6.94-1.62,3.35-5.1.9-4.17-6.06-5.51-9.99C4.36,50.61.38,45.56.04,42.43c-.66-6.08,7.94-12.08,5.78-19.7-.71-2.49-5.3-7.12-5.56-9.36C.08,11.88,4.53.25,5.55.01c1.64-.15,2.25,1.08,2.49,2.49.69,3.91-.67,7.86.67,12.33,1.05,3.48,4.87,6.37,5.31,9.75.69,5.29-3.69,12.34-5.8,17.1,2.34,6.88,7.79,11.52,4.42,18.98Z"/>
</svg>