<?xml version="1.0" encoding="UTF-8"?>
<svg id="Layer_2" data-name="Layer 2" xmlns="http://www.w3.org/2000/svg" viewBox="0 0 83.51 125.26">
  <defs>
    <style>
      .cls-1 {
        fill: #f15a24;
      }
    </style>
  </defs>
  <g id="Layer_1-2" data-name="Layer 1">
    <path class="cls-1" d="M71.63,82.76c-1.18-1.2-2.89,2.99-3.64,3.88-6.02,7.07-13.88,13.09-23.67,9.71-10.34-3.57-11.86-14.03-11.02-23.68,1.33-15.4,12.24-24.16,6.09-41.34-.44-1.24-2.92-7.15-3.47-7.83-.48-.6-.98-.27-1.59-.32.12,6.24-1.07,12.36-3.39,18.12-6.62,16.46-22.34,24.37-18.31,45.29,1.91,9.95,16.92,27.21,14.72,35.57-.87,3.31-3.98,4.06-6.51,1.82-2.18-1.92-8.26-11.13-10.24-14.11C2.08,97.12-1.79,87.58.79,71.77c2.18-13.32,10.84-20,17.48-30.7,6.3-10.15,6.26-16.71,3.99-28.37-.83-4.27-4.47-9.07.82-11.91,4.84-2.6,9.87,1.76,13.32,5.03,10.39,9.87,17.72,27.02,16.58,41.44-.8,10.04-7.78,20.43-7.26,30.08.61,11.43,12,6.03,14.5-2.12,1.42-4.63.72-22.76,10.37-16.53,5.05,3.26,11.42,18.45,12.41,24.38,2.17,13.03-2.39,27.49-11.84,36.76-2.71,2.65-10.73,8.02-10.92.99-.15-5.3,10.44-17.49,11.71-25.6.26-1.68.39-11.78-.29-12.47Z"/>
  </g>
</svg>