<?xml version="1.0" encoding="UTF-8"?>
<svg xmlns="http://www.w3.org/2000/svg"
     xmlns:xlink="http://www.w3.org/1999/xlink"
     viewBox="0 0 220.61 280.89"
     width="220.61" height="280.89"
     aria-label="Flickering flame">

  <defs>
    <!-- Flame 1 -->
    <symbol id="flame1" viewBox="0 0 220.61 280.89">
      <path fill="#181617" d="M126.11,163.46c10.45,10.98,26.11,3.69,30.17-9.63,4.95-16.24-2.57-36.54,3.95-56.05,2.22-6.63,18.92-26.71,25.99-26,7.08.71,2.73,12.09,2.49,16.49-.19,3.6-.24,8.47.06,12.03,1.69,20.01,18.54,33.75,25.75,52.25,21.54,55.32-16.96,107.36-69.76,122.77-68.1,19.87-163.03-13.32-141.71-99.71.82-3.33,4.83-14.82,6.64-17.09,1.57-1.98,5.97-2.22,8.06-1.21,3.37,1.64,4.02,10.88,5.49,14.51,3.14,7.75,8.92,19.51,14.09,25.91,5.85,7.25,14.39,14.35,22.41,19.08-.2-3.78.33-7.72,0-11.48-2.78-30.81-30.86-39.54-23.73-77.76,7.88-42.25,48.15-51.72,61.29-90.72.73-2.18-.62-5.52,2.44-5.05v-.98c-4.68-.24-.09-1.1.04-1.5.85-2.8-1.83-2.3-2.01-3.17-.47-2.19.27-4.95-.27-7.58-.68-3.31-4.75-12.89-4.72-14.28.08-4.32,5.76-5.24,9.36-3.34,18.51,9.75,36.43,41.04,38.5,61.49s-7.69,33.96-13.59,52.17c-4.28,13.21-11.69,37.56-.94,48.86Z"/>
    </symbol>

    <!-- Flame 2 -->
    <symbol id="flame2" viewBox="0 0 210.38 264.99">
      <path fill="#181617" d="M148.17,155.52c2.08,2.64,18.44-21.76,19.49-24,6.78-14.49,4.42-24.75,5.46-39.54,1.28-18.14,9.32-12.82,16.86-1.78,32.85,48.04,25.87,114.03-19.81,150.84C117.53,283.46,6.73,271.19.17,191c-.46-5.66-.56-28.42,7.49-28.41,4.99,0,11.69,15.08,15.52,19.4,1.63,1.84,11.87,10.85,13.41,10.51,2.53-2.65,4.16-6.9,4.57-10.48,2.16-18.92-8.18-23.52-15.18-38.83-13.02-28.48-3.3-60.49,18.21-82.18,3.13-3.15,10.73-9.83,14.89-6.94,4.89,3.4-1.41,10.98-2.64,15.23-1.59,5.47-2.75,15.04-2.72,20.72.17,26.95,25.73,39.24,28.93,65.51,1.22,1.57.98.71,2.02,0,4.69-3.17,10.04-19.69,10.53-25.48,1.81-21.73-11.49-46.1-10.02-67.02,1.59-22.53,17.13-43.37,35.05-55.95,4.06-2.85,12.81-9.56,17.01-6.14,5.57,4.53.32,8.65-1.56,13.59-2.26,5.92-5.91,14.37-6.5,20.49-2.24,23.11,21.52,51.5,25.76,76.22,2.79,16.28-2.34,28.92-6.76,44.27Z"/>
    </symbol>

    <!-- Flame 3 -->
    <symbol id="flame3" viewBox="0 0 183.4 248.16">
      <path fill="#181617" d="M123.93,131.03c14.28-11.84,19.5-28.13,17.97-46.48-.59-7.1-9.17-33.68,8.24-21.47,15.44,10.84,31.3,46.95,32.76,65.47,3.71,46.91-12.92,87.71-55.31,109.66-40.21,20.82-111.1,9.59-125.16-39.18-10.38-35.98,15.96-49.93,15.53-82.44-.07-5.37-7.49-20.96-.4-22.34,5.05-.98,22.62,18.29,25.8,22.85,8.43,12.13,12.71,29.4,14.57,43.93,1.63,1.68,6.7-7.83,7.37-9.12,19.9-38.44-21.77-56.44-17.3-94.3,1.99-16.82,22.01-50.08,37.91-56.13,1.62-.61,2.68,1.69,3.51-1.48,7.8,2.5,1.97,13.2,1.47,19.49-3.35,41.55,32.28,53.81,35.07,90,.54,7.08.3,14.88-2.03,21.54Z"/>
    </symbol>
  </defs>

  <!-- Flames stacked, only one visible at a time -->
  <use href="#flame1" width="220.61" height="280.89">
    <animate attributeName="display"
             values="inline;none;none;inline"
             keyTimes="0;0.33;0.66;1"
             dur="0.9s"
             repeatCount="indefinite"/>
  </use>

  <use href="#flame2" width="220.61" height="280.89">
    <animate attributeName="display"
             values="none;inline;none;none"
             keyTimes="0;0.33;0.66;1"
             dur="0.9s"
             repeatCount="indefinite"/>
  </use>

  <use href="#flame3" width="220.61" height="280.89">
    <animate attributeName="display"
             values="none;none;inline;none"
             keyTimes="0;0.33;0.66;1"
             dur="0.9s"
             repeatCount="indefinite"/>
  </use>
</svg>
