<?xml version="1.0" encoding="UTF-8"?>
<svg id="Layer_2" data-name="Layer 2" xmlns="http://www.w3.org/2000/svg" viewBox="0 0 779.07 686.92">
  <defs>
    <style>
      .cls-1 {
        fill: #212c2a;
      }
    </style>
  </defs>
  <g id="Layer_1-2" data-name="Layer 1">
    <g>
      <path class="cls-1" d="M204.75,607.69c-132.82-135.75-84.39-372.91,96.65-436.7,208.02-73.3,399.2,114.86,340.28,325.28-54.1,193.17-295.42,256.05-436.93,111.42ZM549.75,241.68c-66.81-59.66-162.95-77.61-246.55-43.89-115.56,46.61-172.68,170.61-139.35,290.29,6.6,23.7,17.78,47.22,31.93,67.13,32.64-22.94,62.69-49.93,93.91-74.92,52.21-41.81,104.86-83.17,157-125,39.93-32.04,80.44-63.55,119.4-96.67.27-1.56-14.03-14.87-16.34-16.94ZM589.04,288.41l-227.37,181.8c3.43,14.74,7.67,29.25,11.02,44.05,3.97,17.58,10.08,41.09,11.36,58.64s-16.53,21.69-21.37,10.37c-3.95-9.23-4.76-29.04-6.99-40.01-3.19-15.65-7.3-37.15-11.99-52.01-.68-2.15-1.19-4.41-3.02-5.96l-123.31,98.47c.35,1.15,1.14,2.05,1.82,3.01,3.13,4.38,15.85,15.61,20.52,19.48,144.52,119.56,352.37,37.03,384.37-144.57,9.05-51.36.28-110.18-24.52-156.28-1.23-2.29-9.52-16.38-10.51-16.98Z"/>
      <path class="cls-1" d="M414.18,77.26c1.74.24.94-2.27.99-3.48.54-14.66.55-29.64.68-44.01.06-6.26-2.74-23.59,1.77-27.55,4.87-4.28,20.25-1.31,21.49,6.61,1.51,9.56-.87,21.39-.88,30.98-.02,24.37,1.42,49.32-1.07,73.95-1.19,11.78-6.66,12.59-17.53,11.55-4.17-.4-6.83-1.06-9.47-4.53-3.49-4.58-9.01-17.3-11.85-23.15-7.88-16.25-14.22-33.38-22.64-49.37l.45,42.55c.29,7.96,3.49,21.49,1.83,28.74-1.45,6.34-14.18,6.42-19.02,4.45-7.39-3-4.38-15.18-4.67-21.23-1.32-26.85-2.39-54.28-2.19-81.11.04-4.68-2.56-14.35,1.53-18.46,3.59-3.61,22.27-5.07,25.58.56,12.57,24.03,23.55,48.92,35,73.5Z"/>
      <path class="cls-1" d="M80.29,270.38c-1.79,1.04-5.41,14.05-10.83,15.69-6.18,1.87-17.9-6.03-15.83-13.83,1.14-4.31,11.76-26.35,14.53-29.5,1.89-2.16,3.89-3.36,6.81-2.8,6.26,1.19,22.58,11.85,27.73,16.3,34.82,30.08,14.34,80.31-31.02,78.01-28.79-1.46-68.01-29.47-71.4-59.59-2.15-19.08,8.34-42.22,27.67-48.12,10.26-3.13,20.26,1.7,19.72,13.25s-12.1,7.6-17.85,12.63c-7.98,6.99-6.9,18.51-2.47,27.15,7.13,13.89,29.57,29.22,45.3,29.76,14.94.51,29.43-8.3,22.7-24.76-1.37-3.35-11.24-16.42-15.07-14.19Z"/>
      <path class="cls-1" d="M609.27,148.36c-1.62,1.39-6.01,36.33-7.56,41.94-1.87,6.79-4.87,7.86-11.8,6.72-15.12-2.48-9.36-15.85-7.42-26.94,1.54-8.8,4.2-17.45,5.28-26.36-.28-1.9-7.99-7.93-10.14-5.56-4.58,5.34-17.59,30.29-23.17,31.93-6.22,1.83-18.71-7.21-15.73-15.79,1.01-2.9,11.08-17.39,13.64-21.35,12.46-19.22,26.71-40.36,39.99-59.01,3.25-4.57,9.32-14.31,15.4-14.67,9.89-.6,35.92,23.45,40.3,32.61,12.72,26.63-8.29,60.02-38.78,56.48ZM593.42,120.01c1.92,1.86,12.37,5.11,15.29,5.28,6.64.38,13.8-1.72,17.32-7.66,5.75-9.72,1.75-16.89-5.84-23.87-1.34-1.24-6.5-5.82-8.01-5.05-4.32,2.19-14.7,23.37-19.26,27.87-.63,1.07-.33,2.62.51,3.43Z"/>
      <path class="cls-1" d="M150.93,76.45c3.07-.74,5.53,1.08,7.78,2.77,7.97,6,28.35,31.53,35.43,40.57,16.51,21.08,38.47,53.61,9.53,75.47-34.85,26.32-61.44-12.24-80.47-36.53-6.5-8.3-17.3-21.06-22.46-29.54-4.68-7.69-2.12-11.21,4.42-16.44,7.21-5.77,9.15-4.08,14.98,2.04,14.37,15.08,27.01,37.45,41.52,53.48,6.35,7.02,18.07,16.36,27.57,8.55,8.72-7.17,3.35-15.55-.89-23.23-8.29-15.03-23.26-29.39-34.14-42.86-2.4-2.97-13.78-16.55-14.39-18.67-1.47-5.11,6.33-14.45,11.13-15.62Z"/>
      <path class="cls-1" d="M287.25,39.35c-1.06,1.54,5.72,21.18,6.87,24.5,11.09-.83,28.15-12.14,32.59,3.37,5.42,18.92-15.42,15.11-27.13,21.01l5.72,23.9c1.69.47,3.43.13,5.11-.13,6.48-1,26.43-7.66,30.8-6.31,5.75,1.77,8.13,14.99,5.73,19.85-2.58,5.22-15.71,7.02-21.54,8.45-7.58,1.87-23.78,6.15-30.78,6.31-11.3.25-12.12-22.16-14.31-30.67-6.45-25.03-13.85-50.2-19.64-75.36-2.43-10.55-2.55-12.5,8-16.02,6.89-2.3,35.99-10.07,42.01-10.07,7.48,0,9.34,2.09,11.21,8.87.92,3.34,2.53,8.78.36,11.79-3.44,4.77-28.54,7.82-35,10.51Z"/>
      <path class="cls-1" d="M638.52,247.91c-2.94-2.51-6.45-8.23-9.33-11.17-6.55-6.72-16.18-14.31-22.02-20.98-2.61-2.98-4.85-7.52-3.58-11.54.77-2.45,29.14-29.32,33.56-33.47,13.5-12.7,31.32-30.5,45.54-41.46,4.02-3.1,7.06-4.25,12.22-2.27l31.25,32.75c9.22,6.66-5.72,21.36-11.8,19.84s-18.7-20.21-25.69-23.38c-1.17,0-16.37,14.04-16.26,15.55.14,1.73,16.27,14.45,17.56,20.21s-7.35,15.85-12.48,16.02c-5.59.18-18.19-15.95-22.97-19.67-7.85,4.13-12.57,12.04-19.92,16.92l.02,2.99c3.75,6.41,22.23,20.15,22.62,26.52s-10.77,19.95-18.74,13.15Z"/>
      <path class="cls-1" d="M759.45,253.97l-16.78-27.69-19.59,12.62c2.98,13.02,22.25,23.43,4,33.78-14.71,8.34-17.44-11.08-25.48-19.48-7.54,3.68-15.16,8.12-21.3,13.7-.48,2.47,13.99,22.34,16.05,26.69,2.91,6.15,2.9,7.67-2.17,12.19-6.31,5.62-12.16,8.29-17.97.73-6.37-8.3-18.19-27.19-23.25-36.53-6.02-11.13-1.77-12.81,6.69-18.73,22.55-15.77,53.74-36.02,77.61-49.39,4.09-2.29,10.06-6.27,14.89-4.07,2.89,1.32,12.95,18.84,15.19,22.81s11.11,19.19,11.66,22.43c1.21,7.02-13.72,15.73-19.55,10.95Z"/>
      <path class="cls-1" d="M519.25,97.33c-6.12,8.83-12.36,38.3-19.56,43.95-5.46,4.28-16.7-.69-18.99-6.03-3.06-7.15,7.81-23.42,10.67-30.29,9.71-23.34,17.44-47.63,28.63-70.37,3.94-8.01,5.73-12.27,15.99-9.64,7.77,1.99,33.48,13.08,40.88,17.11,5.81,3.16,4.87,6.91,3.07,12.47-3.6,11.11-7.32,10.89-17.29,7.74-5.69-1.8-19.04-9.44-23.18-9.85-1.45-.14-2.07.88-2.74,1.91-1.59,2.43-8.08,18.35-7.47,20.26,8.13,8.78,31.11,6.02,25.85,22.12-6.48,19.82-22.91,2.32-35.86.62Z"/>
      <path class="cls-1" d="M233.91,30.5c9.24-1.53,14.76,9.36,13.24,17.23-1.32,6.86-20.04,9.97-19.82,13.83,6.43,15.25,13.71,30.2,20.98,45.06,4.26,8.71,17.93,30.41,18.79,38.25,1.27,11.58-13.98,19.03-21.76,7.73-11.61-16.85-21.01-43.53-30.62-62.38-1.32-2.59-9.02-17.29-10.02-18.06-.66-.51-.64-.72-1.57-.49-8.33,2.03-18.74,14.65-26.39,4.52-5.42-7.17-5.35-13.52,2.09-18.77,8.51-6,28.04-15.55,37.98-20.02,3.86-1.74,13.56-6.32,17.1-6.9Z"/>
      <path class="cls-1" d="M51.88,172.46c1.73-.53,3.6-.43,5.25.35,24.5,18.29,48.48,37.48,72.01,57.06,1.57.81,2.27.22,3.56-.54,6.45-3.79,14.17-22.7,21.33-23.57,5.87-.72,17.66,9.58,13.68,16.56l-26,33.99c-8.55,8.72-16.52.46-24.02-5.07-15.85-11.7-31.57-25.61-47.05-37.95-5.82-4.64-25.73-17.69-28.53-22.47-2.95-5.05,5.64-17.11,9.77-18.36Z"/>
      <path class="cls-1" d="M334.18,294.26c1.52,2.03,1.74-.75,2.09-1.43,2.82-5.54,5.18-11.18,8.49-16.5,3.52-5.66,15.96-22.54,22.15-23.89,18.02-3.94,25.47,33.97,26.26,46.32,1.3,20.24-1.31,38.48-7.98,57.49,18.19-21.22,40.81-42.79,47.46,1.05-.45,1.19-17.51,16.32-18.98,16.95-2.12.9-1.37-1.64-1.46-2.51-.27-2.55-.2-4.49-.89-7.14-.26-.99.39-3.18-1.62-2.34s-10.64,11.27-12.34,13.66c-4.35,6.11-7.86,13.33-10.75,20.25l-28.93,23.07c-2.68.23-.9-.51-.76-1.76.71-6.62,2.63-12.83,4.27-19.23-5.17,4.35-10.2,9.17-16.88,11.12l3.42,17.86-38.18,29.86c-16.89-9.04-34.75-18.03-54.35-18.83,8.13,14.15,21.08,25.45,36,32-2.74,2.12-16.28,16-18.31,15.83-16.6-8.62-33.12-25.65-41.86-42.17s-9.73-23.57,10.67-26.77c32.2-5.06,59.5,7.67,86.01,24.1.04-5.91-4.39-11.72-4.51-18-10.99,3.33-22.46,1.04-33.21-2.28-35-10.8-67.52-39.06-76.35-75.65-1.3-5.4-3.13-14.76,1.61-18.52,12.12-9.62,49.37,1.93,62.95,7.45-10.55-25.9-16.01-58.48-4.48-84.98,8.99-20.66,20.18-19.71,35.5-5.53,14.37,13.3,19.59,27.91,24.74,46.27.35,1.25.06,4,.25,4.25ZM311.16,340.26c4.87-25.91,2.62-59.21-17.98-78-7.6,26.54.04,57.51,17.98,78ZM342.88,382.95c2.14-1.9,7.17-8.67,9.12-11.35,18.09-24.83,25.07-57.51,16.16-87.33-18.17,22.46-29.5,55.44-29.73,84.55-.02,2.67.39,11.99.88,13.81.55,2.06,2.31,1.45,3.58.32ZM315.17,401.25c-14.1-29.51-43.82-49.64-76-53.98,10.67,31.78,43.71,51.58,76,53.98Z"/>
      <path class="cls-1" d="M546.17,442.25c12.84-3.35,34.5-9.86,46.92-3.42,8.94,4.63,1.41,23.06-1.75,30.1-12.02,26.71-40.43,50.18-69.17,56.34-.19,1.71,3.44,1.09,4.54,1.04,9.98-.46,31.64-3.03,39.96,2.95,8.83,6.34-.53,21.99-5.09,28.91-22.5,34.08-75.33,52.93-114.32,40.14-9.82,15.26-17.75,31.67-26.44,47.6-9.76,6.75-22.6-.7-19.42-12.93l21.63-43.09c-35.67-23.47-43.61-79.05-29.58-116.85,13.94-37.57,41.78,13.3,48.2,29.24,4.58,11.35,5.83,21.87,8.53,33.49.36,1.54-.67,1.74,1.98,1.5-1.34-4.23,6.96-12.61,6.73-15.52-.09-1.09-11.92-13.01-14.14-16.57-12.44-19.96-21.13-66.5-8.44-87.27,1.17-1.91,23.05-19.42,25.9-21.1,2.28-1.34,5.56-2.87,8.21-2.39,8.16,1.47,17.22,25.39,19.29,32.79.7,2.49-.74,6.86,2.45,6.05,1.56-27.33,17.95-56.45,40.07-72.43,11.66-8.42,35.28-20.61,37.93,2.93,3.18,28.21-6.7,56.65-24,78.49ZM547.17,379.27c-.66-.76-4.34,2.33-5.19,3.02-2.45,1.97-8.3,8.41-10.32,10.97-10.79,13.65-17.96,31.46-17.48,49.01,1.73.45,2-.72,3-1.49,9.57-7.35,24.62-30.89,27.54-42.46.59-2.34,3.08-18.32,2.45-19.04ZM461.16,420.27c-2.9-2.25-7.17,13.36-7.52,14.96-3.84,17.79-1.18,41.59,9.1,56.97.82,1.23,6.19,8.19,7.43,7.06,5.06-20.36,3.66-41.2-2.28-61.21-.69-2.31-5.98-17.2-6.73-17.78ZM569.17,460.27c-27.37,2.76-51.1,19.64-67.98,40.51-.76.94-5.77,6.83-5.02,7.47,30.4-1.97,60.73-19.58,73-47.98ZM430.16,565.26c4.76-24.86-4.19-53.71-19.98-73-2.6,19.63-2.23,41.17,7.57,58.92,1.15,2.08,10.39,15.55,12.41,14.08ZM510.17,529.27c-9.6,1.55-19.74,1.53-29.34.09l-10.65,17.89,19.32-10.17,20.67-7.81ZM468.17,580.26h15.5c15.75,0,47.02-17.91,56.51-30.49.6-.79,2.01-1.73.47-2.53-6.22,1.44-12.32,1.11-18.66,2.31-16.87,3.19-41.7,13.82-52.33,27.7-.77,1.01-1.93,1.26-1.49,3.01Z"/>
    </g>
  </g>
</svg>