<?xml version="1.0" encoding="UTF-8"?>
<svg id="Layer_2" data-name="Layer 2" xmlns="http://www.w3.org/2000/svg" viewBox="0 0 768.87 651.17">
  <defs>
    <style>
      .cls-1 {
        fill: #212c2a;
      }
    </style>
  </defs>
  <g id="Layer_1-2" data-name="Layer 1">
    <g>
      <path class="cls-1" d="M213.76,580.46c-69.28-68.42-97.26-178.23-66.37-271.17,32.38-97.43,117.07-167.57,220.73-175.03,134.86-9.71,249.28,78.99,271,212.34,30.19,185.33-138.17,348.39-322.93,293.93-33.9-10-77.28-35.22-102.43-60.07ZM370.11,159.23c-180.83,11.52-270.03,223.17-167.53,368.91,98.82,140.5,304.42,126.87,386.21-22.45,52.78-96.37,34.33-218.45-48.36-291.39-47.77-42.14-106.86-59.11-170.32-55.07Z"/>
      <path class="cls-1" d="M592.42,139.8c1.21,1.32,8.44-7.78,9.41-9.08,9.45-12.54,17.9-28.59,27.14-40.85.93-1.24,2.23-3.01,3.92-3.05.85-.02,7.43,3.59,8.21,4.3,4.81,4.35,5.51,11.45,2.02,16.88-15.64,24.88-36.02,46.45-52.4,70.85-5.32,3.58-19.95-5.3-20.28-10.61l14.96-70.44-34.98,54.51c-9.66.67-19-4.42-14.4-15.39,8.13-19.39,31.29-49,44.01-66.99,2.09-2.96,4.87-10.75,8.91-11.16,4.56-.46,19.15,9.32,19.46,14.61.23,3.91-6.46,14.27-7.72,19.2l-8.27,47.22Z"/>
      <path class="cls-1" d="M401.21.1c29.78-1.7,53.72,18.05,44.52,49.52-2.57,8.8-14.03,17.19-13.84,23.7.09,3.11,8.28,17.69,10.01,22.5.79,2.2,2.6,6.13,2.33,8.25-.76,5.89-10.4,11.14-15.76,9.2-9.28-3.35-7.37-18.37-11.5-26.53-2.92-5.75-8.62-12.25-15.89-9.78-6.08,2.06.69,24.28-5.11,29.88-4.16,4.01-16.18,4.08-17.11-2.99.7-28.5-2.42-59.35-.48-87.61,1.13-16.56,7.84-15.3,22.84-16.16ZM405.17,20.02c-3.3.53-5.62,2.22-6.53,5.51-1.17,4.23-2.18,22.88-.7,26.25,2.53,5.75,14.28,3.17,18.85.9,17.75-8.82,6.38-35.55-11.62-32.66Z"/>
      <path class="cls-1" d="M213.42,88.81c-1.14,1.4,12.46,29.26,14.47,33.02,2.48,4.65,9.86,14.11,11.07,17.94,2.53,7.94-12.06,17.1-19,7.98-3.29-4.33-10.13-18.23-13.08-23.92-7.1-13.71-20.78-40.38-24.52-54.47-2.7-10.17,4.17-15.28,13.37-16.42l52.66,43.87c-6.68-18.92-16.74-36.3-24.95-54.57-2.38-8.19,10.96-13.8,16.96-10.93,2.22,1.06,6.24,13.83,7.82,17.17,8.95,18.96,17.14,38.21,27.37,56.63,4.16,7.5,15.12,17.34,1.81,24.2-7.77,4.01-12.49,3.31-19.02-2-10.58-8.59-20.88-19.56-31.51-28.49-1.26-1.06-12.93-10.68-13.46-10.03Z"/>
      <path class="cls-1" d="M671.08,126.03c2.75-.23,13.13,10.68,15.3,13.3,39.09,47.39-27.97,112.65-77.88,73.88-4.72-3.66-18.35-17.22-15.62-23.37.57-1.29,13.87-14.08,16.06-16.01,15.38-13.56,40.76-34.17,57.53-45.46,1.09-.73,3.47-2.25,4.61-2.34ZM666.16,154.04l-40.3,33.72c-1.55,2.23-5.45,4.81-3.54,7.58,3.72,5.4,15.45,7.67,21.58,7.55,9.55-.19,23.36-11.16,27.69-19.41,3.89-7.42,8.54-33.15-5.43-29.45Z"/>
      <path class="cls-1" d="M124.71,205.1c-1.56,1.37-5.04,7.44-6.3,8.25-3.67,2.35-12.98-7.29-11.82-12.81.28-1.34,15.09-21.1,16.27-21.78,6.88-3.99,9.34,2.87,13.01,6.1,17.42,15.32,33.64,40.35,10.03,58.93-36.04,28.35-93.06-17.92-88.48-59.48,1.58-14.38,23.62-32.02,38.02-25.01,4.88,2.37,5.54,12.29,2.92,15.95-2.42,3.38-18,3.63-19.49,14.51-2.2,15.98,23.79,40.29,39.01,40.09,3.65-.05,13.13-1.76,15.58-4.51,6.31-7.09-3.28-25.02-8.73-20.24Z"/>
      <path class="cls-1" d="M177.05,203.45c-4.05,3.8-9.87,6.34-14.12,1.33l-44.34-89.73c.98-6.53,13-18.23,19.78-15.7,3.82,1.42,12.62,9.1,17.13,11.87,9.97,6.13,20.61,11.24,30.44,17.56,7.93,5.1,24.67,16.75,30.96,23.04,5.56,5.55,3.89,11.4-1.99,15.98-12.97,10.1-18.58-11.36-29.45-4.45-2.17,1.38-10.34,9.88-10.85,12.17-2.26,10.22,14.03,17.08,2.45,27.92ZM148.42,128.81c-1.49,1.44,12.68,30.93,14.49,30.98,2.33-2.67,13.36-8.58,12.4-12.28-.46-1.77-20.4-16.73-23.18-17.92-1.26-.54-2.27-1.05-3.71-.78Z"/>
      <path class="cls-1" d="M104.15,360.56c-2.12,2.25-11.08,3.54-14.41,4.09-25.8,4.21-52.13,5.45-77.87,10.18-10.42,1.09-13.32-6.15-11.25-15.3,2.47-10.9,28.79-8.01,37.28-8.72,10.76-.91,23.88-1.4,33.51-5.49l-61.55-26.44c-3.11-2.81-.54-15.71,1.47-18.4,1.43-1.91,5.34-.88,7.27-.39,9.55,2.41,26.21,10.05,35.8,14.25,16.74,7.33,33.24,16.36,49.77,24.23,5.84,2.14,2.66,19.17,0,22Z"/>
      <path class="cls-1" d="M33.67,232.07c2.72-2.64,14.93.26,16.34,4.7,1.9,5.98-8.66,21.8-8.17,28.57.42,5.79,17.66,11.31,21.17,8.56,3.68-2.88,6.67-26.2,10.01-26.96,1.86-.42,17.71,4.75,17.24,9.11-.69,6.43-11.15,22.5-6.92,28.34,1.52,2.1,16.52,7.21,19.07,5.96,5.01-2.45,6.33-22.18,9.51-25.53,4.52-4.76,19.61.91,18.3,10.22-.46,3.28-11.64,34.58-13.26,36.8-1.93,2.65-5.81,5.53-9.3,4.31-18.77-7.09-37.27-14.91-55.99-22.1-6.16-2.36-32.58-8.87-33.25-15.77-.26-2.71,8.34-28.4,9.98-33,.84-2.37,4.21-12.18,5.28-13.21Z"/>
      <path class="cls-1" d="M521.63,70.6c1.43,2.49,16.7,6.03,19.74,7.75,6.57,3.72.66,16.65-4.67,18.26-9.14,2.76-21.2-17.99-28.48,1.5-4.16,11.16-4.17,13.01,6.5,17.88,3.33,1.52,16.81,4.85,17.47,8.41.08.42-.79,6.84-1.02,7.65-2.56,9.2-9.82,8.7-17.43,5.92-4.5-1.65-29.89-14.45-31.8-17.2-1.71-2.45-2.07-5.21-1.06-8.01,7.15-17.3,15.39-34.34,22.28-51.73,2.68-6.77,10.24-34.44,14.87-37.13,2.17-1.26,3.07-1.17,5.42-.72,4.81.93,32.07,13.43,36.67,16.39,7.55,4.86.11,17.46-5.26,18.24s-20.58-12.74-27.46-8.54c-2.94,1.79-7.66,18.02-5.77,21.3Z"/>
      <path class="cls-1" d="M360.28,24.68c-19.56,2.47-35.46,1.08-26.94,26.69,13.32,3.02,33.99-13.17,28.83,11.75-1.65,7.98-22.19,7.13-24.28,10.67-3.31,5.6,4.48,24.17,5.27,30.78,1.54,13.04-17.23,11.88-21.25,2.23-2.22-5.34-4.12-21.07-5.21-27.79-2.48-15.36-5.41-34.35-6.28-49.72-.78-13.79.43-16.56,13.98-20,5.03-1.28,23.93-4.77,28.37-4.4,11.75.96,10.85,11.08,7.51,19.79Z"/>
      <path class="cls-1" d="M747.79,279.19c-5.77,6.04-11.28,12.35-17.36,18.12,2.71,3.59,6.92,1.91,10.38,2.61,8.2,1.65,26.08,5.92,27.54,15.46,1.04,6.79,1.31,12.76-7.16,12.26-15.89-4.02-37.09-12.81-53.27-12.91-7.19-.04-41.49,11.95-44.61,7.51-1.34-1.9-2.64-15.08-.63-17.17,1.28-1.34,9.43-4.09,11.73-4.76,12.32-3.6,25.18-2.95,35.53-11.47,11.77-9.68,22.33-23.93,33.73-34.27,9.28-4.01,15.13,9.31,11.99,16.99-1.31,3.19-5.68,5.34-7.87,7.64Z"/>
      <path class="cls-1" d="M640.76,244.16c6.2-7.36,30.42-15.68,40.01-20.49,7.7-3.87,14.98-8.49,22.62-12.38,5.06-2.58,20.18-11.38,25.03-8.98,5.57,2.75,8.42,16.45.33,19.34l-62.41,32.59c-5.16,7.07,13.17,22.56,6.1,32.1-3.21,4.34-14.62,5.36-17.87.82-3.4-4.74-7.28-17.84-9.98-24.02-2.9-6.62-9.77-11.92-3.82-18.98Z"/>
      <path class="cls-1" d="M472.18,113.57c-2.97,3.5-13.4,1.21-16.74-1.29-3.77-2.82-3.28-7.68-2.9-11.86,1.31-14.4,6.88-36.12,10.17-50.82,2.21-9.91,5.2-25.81,8.24-34.79,2.05-6.06,8.11-6.09,13.95-4.98,6.31,1.2,4.91,8.76,4.4,13.35-2.17,19.7-7.81,40.85-11.56,60.43-1.05,5.49-2.98,26.93-5.55,29.95Z"/>
      <path class="cls-1" d="M381.76,559.15c-.76.56-1.02,2.18-2.38,3.1-4.42,2.99-15.88,6.04-20.93,4.01-42.58-28.94-86.22-51.89-119.01-92.98-26.68-33.44-37.5-61.06-34.06-105.01.58-7.38,5.76-24.75,12.1-28.93.71-.47,11.93-2.48,13.39-2.57,51.51-3.41,94.07,22.96,119.96,66.12,4.92,8.19,8.36,18.96,13.34,26.63.47.72.81,2.94,2.24,1.29.6-.69,2.75-15.22,3.5-18.01,16.32-60.84,48.17-105.85,105.83-133.17,14.35-6.8,41.61-17.51,57.16-16.89,13.19.52,9.91,22.28,10.48,30.61,6.08,88.94-18.15,151.26-83.94,210.97-24.68,22.4-51.57,35.64-77.67,54.83ZM389.42,527.81c48.88-28.91,97.72-72.6,118.74-126.75,12.44-32.04,15.07-61.85,14.26-95.76-.33-13.83,4-20.11-12.85-15.83-19.54,4.97-53.08,25.22-68.17,38.83-35.03,31.57-51.04,83.57-60.31,128.69-2.06,10.05-4.97,21.06-2.77,31.21-1.09,3.69-.62,7.3-.92,11.1-.07.86,1.8.67,1.99.51,2.01-1.7,6.27-16.82,8.5-21.01,15.42-28.96,32.63-59.03,50.1-86.9,6.69-10.68,18.26-30.12,25.99-39.01.92-1.06,7.73-7.24,8.44-7.57,4.65-2.18,13.47,3.58,12.98,8.89-.29,3.15-15.68,27.68-18.58,32.52-23.78,39.64-49.25,78.32-68.91,120.09-1.65,3.5-11.74,18.34-8.49,21ZM357.4,504.81c-.02-45.85-19.65-92.92-54.52-122.97-18.36-15.82-39.96-21.66-63.99-23.01-9.94-.56-9.36,1.68-11.19,10.77-7.27,36.08,9.65,67.13,32.19,93.22,25.11,29.06,55.7,51.88,89.5,69.99l-13.18-24.3c-15.67-25.47-33.44-48.41-53.29-70.71-5.6-6.29-17.98-14.53-17.58-23.47.43-9.59,7.56-9.64,14.75-6.7,17.48,7.15,51.9,56.87,62.94,74.06,4.86,7.57,8.39,16.26,14.36,23.13Z"/>
    </g>
  </g>
</svg>