<?xml version="1.0" encoding="UTF-8"?>
<svg id="Layer_2" data-name="Layer 2" xmlns="http://www.w3.org/2000/svg" viewBox="0 0 704.6 881.21">
  <defs>
    <style>
      .cls-1 {
        fill: #212c2a;
      }
    </style>
  </defs>
  <g id="Layer_1-2" data-name="Layer 1">
    <g>
      <path class="cls-1" d="M640.42,315.96c2.75,1.62,20.94-12.15,25.82-13.4,6.47-1.66,11.22-1.49,14.58,4.48,1.51,2.68,8.29,18.3,8.47,20.57.31,4.08-.17,6.11-2.99,9.01-4.37,4.52-28.98,16.28-29.88,20.17,10.06,33.07,15.06,67.18,13.87,101.84-7.43,216.52-235.14,343.72-426.69,244.62-27.72-14.34-51.06-35.41-74.63-55.45-4.59-1.95-24.24,17.57-33.13,9.21-2.41-2.26-15.1-22.74-15.35-25.66-.95-10.91,13.26-14.42,19.58-20.76-21.76-31.35-38.07-66.79-45.33-104.49-27.75-144.1,47.15-282.1,185.01-332.04,113.75-41.21,258.36-5.47,330.93,93.11,11.33,15.39,20.78,31.94,29.73,48.78ZM361.07,183.39c-103.89,5.75-201.94,79.69-232.51,179.49-17.16,56.02-18.04,120.09,1.97,175.46,7.42,20.55,17.73,41.67,31.43,58.67l455.18-267.51c.44-1.83-13.95-26.03-16.23-29.53-53.65-82.32-142.29-121.97-239.84-116.57ZM193.4,631.21l.81,3.45c106.88,107.94,290.2,101.32,389.04-14.09,49.17-57.42,72.65-149.53,56.77-223.72-.72-3.39-6.25-24.13-7.24-25.76s-1.22-.52-2.17-.18c-3.68,1.32-7.65,5.06-11.63,6.39l-82.54,51.46c-.53,14.28.14,28.6-.12,42.88-.74,41.16,1.44,87.2-1.05,127.95-.21,3.37-.96,12.18-2.22,14.78-1.48,3.05-6.18,6.2-9.09,7.91-9.85,5.79-21.84,10.4-32.01,15.99-18.23,10.04-36.86,22.6-55.65,31.35-10.47,4.87-13.63,3.94-24.65,1.61-53.59-11.31-107.55-30.09-161.36-41.64-11.24-4.56-10.61-13.97-10.01-24.48l-46.87,26.11ZM512.27,444.1l-75.95,44.53c-3.63,1.9-1.08,4.66-1.24,6.96-2.92,42.49-1,90-.36,133,.07,4.89-.41,10.51-.43,15.49l77.84-42.69.15-157.3ZM410.23,646.06l1.04-141.97c-49.18,26.57-97.36,55.09-144.74,84.75-1.28.76-2.33,1.73-2.81,3.19-.95,2.89-1.3,15.4,1.22,16.91l145.29,37.13Z"/>
      <path class="cls-1" d="M79.86,151.51c14.67,14.51,27.85,30.47,41.9,45.6,4.93,5.31,21.06,18.25,21.26,24.66.23,7.65-14.31,14.27-20.9,13.76-6.13-.47-24.45-6.95-31.63-9.15-14.38-4.4-28.25-10.83-43.21-13.28l52.26,52.31c1.35,3.56-5.18,11.96-8.32,14.1-4.54,3.1-6.9,2.81-11.44-.42-8.27-5.86-22.91-21.23-31.02-28.98-11.6-11.1-22.35-23.1-33.48-34.52-7.65-7.85-21.65-13.83-11.99-27s17.33-9.67,31.21-6.22c18.76,4.66,36.8,12.71,55.78,16.71-12.6-12.29-23.5-26.15-35.46-39.03-4.92-5.3-17-11.7-9.56-20.47,5.36-6.32,13.97-8.21,20.51-2.48,4.05,3.54,9.78,10.15,14.09,14.41Z"/>
      <path class="cls-1" d="M516.83,121.68c-9.52,10.2-25.21,17.07-39.06,18.4-8.58.83-36.07.69-39.04-8.93-2.63-8.51,6.58-30.57,9.05-40.05,5.67-21.73,10.15-45.85,16.99-67.01,3.5-10.82,5.04-14.71,17.56-12.55,54.6,9.44,70.69,71.36,34.5,110.14ZM466.28,115.09c19.98,2.61,37.41-8.04,42.49-28,2.14-8.43,2.7-22.96-.98-31-2.46-5.38-13.23-16.08-19.21-16.82-1.36-.17-1.3-.57-1.54,1.08-7.74,24.72-14.47,49.63-20.76,74.75Z"/>
      <path class="cls-1" d="M131.81,76.73c50.91-5.16,99.68,85.7,53.8,115.2-62.62,40.25-134.33-107.03-53.8-115.2ZM141.63,162.74c22.06,20.24,44.26,8.93,35.16-21.66-4.21-14.14-24.91-40.46-40.82-40.62-7.45-.07-11.86,3.83-14.15,10.65-5.19,15.46,8.35,41.1,19.82,51.62Z"/>
      <path class="cls-1" d="M369.08.39c51.33-5,79.82,38.71,64.66,85.66-7.28,22.55-26.24,38.95-50.04,41.96-6.39.81-28.82,1.9-30.39-6.44.1-12.33-.22-24.68-.07-37.02.21-16.94,1.43-33.88,2.08-50.92.22-5.71-1.19-25.9.89-29.11s9.22-3.77,12.87-4.13ZM402.93,34.43c-2.11-2.29-8.09-6.26-11.11-7.39-2.71-1.01-11.27-3.71-12.41-.31l-2.14,77.36c13.6-.77,27.95-9.8,32.46-23.05,4.81-14.15,3.76-35.15-6.8-46.61Z"/>
      <path class="cls-1" d="M436.53,875.83c-1.65-1.54-2.45-7.15-2.96-9.54-4.12-19.53-6.15-39.82-9.57-59.43-2.02-11.61-6.86-26.1-7.63-37.41-.25-3.67.1-7.19,3.15-9.71,6.21-5.13,31.14-10.05,39.42-10.27,35.03-.94,51.7,36.1,31.3,63.09-1.49,1.97-5.57,4.18-4.86,6.82.21.77,7.15,9.32,8.37,10.72,3.62,4.15,21.99,20.49,22.52,23.53,1.31,7.5-11.57,11-17.4,10.39-6.79-.7-15.77-11.36-20.64-16.41-5.34-5.53-10.47-11.73-15.44-17.63-1.69-1.46-10.02,1.12-10.4,2.68-.25,8.59,8.5,33.81,5.36,40.43-1.77,3.73-18.37,5.43-21.25,2.74ZM447.28,808.1c11.14-1.61,27.52-6.09,27.42-20.13-.13-17.68-19.01-17-31.3-11.76l3.88,31.88Z"/>
      <path class="cls-1" d="M665.79,98.57c9.57.24,28.38,23.42,32.49,32.02,26.64,55.76-36.18,109.79-92.05,82.05-7.71-3.83-21.64-11.76-16.85-21.95,8.8-12.37,19.16-23.61,28.31-35.68,11.59-15.31,23.04-34.12,35.61-48.39,3.19-3.63,7.26-8.18,12.49-8.04ZM659.9,139.73c-8.85,10.45-17.48,20.83-25.44,32.05-3.22,4.55-10.35,13.3-12.44,17.6-1.93,3.99,6.88,6.23,9.81,6.65,34.05,4.93,60.8-31.34,41.27-60.28-7.28-10.79-8.14-2.02-13.21,3.97Z"/>
      <path class="cls-1" d="M309.13,103.24c-.95-.6-2.92-.12-4.09.09-3.49.64-28.69,7.15-29.79,8.23-3.44,3.39,2.86,26.53-1.28,32.23-2.94,4.04-19.76,6.95-22.17,1.28-1.93-4.54-.83-30.21-.57-36.52,1.04-24.46,2.3-57.06,6.16-80.84,1.19-7.35,2.39-10.19,9.5-13.5,7.5-3.48,18.21-5.29,24.37,1.38,4.02,4.36,13.23,21.36,16.53,27.47,11.47,21.25,24.6,47.62,34.33,69.67,1.68,3.82,4.94,9.19,2.64,13.35-1.99,3.6-15.74,7.31-19.62,6.49-5.51-1.17-13-23.9-16.01-29.33ZM277.28,85.1c.99.97,19.8-4.5,20-5.53-5.76-10.83-9.76-22.81-17.51-32.47-2.34,12.48-2.61,25.32-2.49,38Z"/>
      <path class="cls-1" d="M202.01,710.26c1.73-.36,2.66-.15,4.29.28,28.79,7.65,53.64,35.35,51.65,66.19-3.04,47.15-64.67,74.15-101.7,44.88-11.57-9.14-.93-17.42,3.41-26.64,10.56-22.47,19.7-45.91,30.76-68.24,2.29-4.63,6.32-15.38,11.59-16.47ZM211.29,739.09l-30.61,65c-1.27,4.16,9.01,5.7,12.1,5.8,18.15.58,30.98-8.3,37.99-24.8s-2.54-39.4-19.48-45.99Z"/>
      <path class="cls-1" d="M245.54,859.84c-1.58-1.66-1.63-5.48-.49-7.47,10.6-18.32,19.77-37.47,30.05-55.95,6.22-11.18,16.74-32.81,24.17-41.83,7.38-8.96,29.08-4.56,32.17,5.82,3.26,10.94,1.99,26.9,5.7,38.3.54,22.82,5.94,47.33,6.02,69.98.02,6.47-2.95,9.45-9.39,9.47-2.42,0-11.18-1.77-13.05-3.03-6.51-4.39-1.65-26.58-5.97-31.03-2.84-2.93-25.86-5.48-31.14-7.95-1.59-.34-2.62-.19-3.86.93-1.9,1.71-8.36,19.37-11.29,23.71-1.66,2.47-3.09,4.34-6.43,4.09-2.47-.18-15.09-3.56-16.51-5.05ZM311.27,784.1c-1.39-1.68-5.57,6.29-6.17,7.32-1.49,2.59-11.06,20.91-10.79,22.11.63,2.84,15.65,3.33,18.48,5.54.98-.76,1.13-.81,1.1-2.04-.26-10.9-2.32-22.03-2.61-32.93Z"/>
      <path class="cls-1" d="M577.96,183.77c-6.11,5.09-14.58-1.09-20.54-4.33-8.74-4.75-22.21-11.71-30.06-16.94-13.23-8.81-5.62-13.34-.57-23.39,13.43-26.72,27.92-57.24,43.31-82.69,5.32-8.79,6.93-10.87,17.45-7.1,11.79,4.22,33.54,15.92,43.2,23.8,7.77,6.34,9.28,11.66,1.07,19.02-9.92,8.89-16.97-.46-25.87-5.22-2.72-1.45-17.13-9.2-18.67-8.4s-11.27,19.51-10.93,20.97l27.99,17.03c1.86,2.6,1.04,8.09-.29,10.84-8.76,18.03-28.48-2.3-40.29-6.17l-13.25,25.44,32.25,20.48c4.05,4.71-.88,13.4-4.79,16.66Z"/>
      <path class="cls-1" d="M497.62,740.44c3.38-3.49,13.73-8.38,18.7-6.89,2.66.79,14.64,9.79,17.88,12.13,2.56,1.85,17.42,14.65,18.57,14.41,2.99-.63.85-7.87.89-9.66.21-8.42-.48-33.11,2.41-39.04,2.56-5.24,16.37-10.03,20.23-5.81,2.62,2.85,2.1,18.56,2.02,23.06-.24,13.67-4.86,37.82-2.98,49.89,1.15,7.4,15.83,28.37,19.15,37.85,2.98,8.53.52,11.71-7.28,16.14-7.86,4.47-11.4,1.99-15.47-5.39-5.01-9.08-13.38-31.48-19.04-37.96-3.63-4.16-15.24-9.95-20.35-13.65-8.59-6.21-28.3-18.77-34.57-25.43-3.11-3.31-3.42-6.28-.16-9.65Z"/>
      <path class="cls-1" d="M395.05,878.86c-2.32,2.26-14.75,2.77-18.06,2.01-3.73-.86-5.17-4.99-5.63-8.37-2.59-19.29.72-47.84.83-67.91.05-8.65-3.3-38.23,1.01-43.84,1.37-1.79,14.84-1.79,17.42-.59,4.04,1.87,4.68,4.36,5.57,8.52-2.02,33.9,2.99,71.49.13,104.96-.13,1.52-.19,4.18-1.27,5.23Z"/>
      <path class="cls-1" d="M507.74,347.65c5.67,5.75,25.15,19.72,18.12,28.53l-111.36,64.73c-5.76,1.39-2.11-10.71-3.21-11.82l-147.05-26.58c-.99.72-.88,1.96-1,3.04-1.04,9.07-.35,23.35-.39,33.05-.11,29.69,1.24,59.33.45,89.01-.52,2.7-13.49,10.04-16.62,11.38-1.7.73-3.31,2.07-4.89.11-2.86-3.55-1.36-32.63-1.46-39.54-.41-27.63-.24-55.14,0-82.92.07-8.5-1.84-18.98-.78-26.78,1.8-13.29,21.58-41.03,28.91-54.09,4.5-8.02,20.45-34.08,22.38-40.62,3.8-12.9,1.25-35.47,2.58-49.42,2.13-22.41,15.08-17.77,32.22-15.49,23.5,3.13,47.02,8.54,70.42,12.59,25.21,4.36,50.83,6.65,75.59,13.41,4.52,2.57,5.99,11.46,6.62,16.38,1.88,14.75-1.23,30.19-.08,45.01,1.02,3.28,4.42,4.23,6.62,6.45,7.73,7.77,15.24,15.77,22.94,23.58ZM317.28,286.09l134.59,23.96c.83.21,2.41-1.03,2.41-1.46v-30c0-.61-.54-1.76-.52-2.55-45.13-9.4-91.3-14.3-136.48-23.95v34ZM446.28,332.1l-135.06-23.49-39.94,71.47,141.3,26.03,6.88-11.34,26.82-62.67ZM496.28,372.08c.41-1.51-.4-1.66-.98-2.5-2.47-3.57-21.68-21.82-25.5-24.5-.85-.6-1-1.38-2.5-.98l-24,58,52.99-30.01Z"/>
    </g>
  </g>
</svg>