<?xml version="1.0" encoding="UTF-8"?>
<svg id="Layer_2" data-name="Layer 2" xmlns="http://www.w3.org/2000/svg" viewBox="0 0 879.28 1463.46">
  <defs>
    <style>
      .cls-1 {
        fill: #f16223;
      }
    </style>
  </defs>
  <g id="Layer_1-2" data-name="Layer 1">
    <g>
      <path class="cls-1" d="M458.87,636c3.66,5.97-11.7,18.14-13.87,24.29-3.16,8.95.82,16.79,7.57,22.53,5.63,4.79,15.56,7.63,19.88,12.12,5.93,6.16,6.38,17.69,14.57,24.43,19.63,16.13,39.16-7.66,56.76-14.28,6.17-2.32,18.36-5.46,24.27-2.74,17.41,8.02-5.43,25.13-5.05,36.97.2,6.24,3.88,9.67,9.36,11.72,8.65,3.23,16.34-1.47,17.68,10.32,4.44,38.99-30.92,85.83-55.49,113.51-30.59,34.47-87.17,69.4-74.02,121.99,4.66,18.65,26.57,30.87,27.56,47.46,1.45,24.4-39.66,34.41-56.99,21.97-10.5-7.54-11.18-26.09-28.19-15.06-31.14,20.19-57.85,88.88-64.56,124.44-5.92,31.39-1.44,73.67-22.29,98.71-12.56,15.08-31.62,23.53-43.44,38.56-16.53,21.01-12.29,54.49-47.17,58.83-35.06,4.37-38.44-19.69-60.5-37.33-22.36-17.89-58.65-22.88-85.92-16.09-19.28,4.8-36.24,20.03-51.8-2.18-58.03-82.82-13.71-156.86,43.29-223.33,22.81-26.6,52.34-56.9,80.8-77.2,30.36-21.66,64.85-37.31,94.19-60.81,22.05-17.65,51.36-47.08,68.51-69.49,20.3-26.53,9.88-56.27,24.48-86.52,11.42-23.67,23.13-25.53,41.02-39.98,17.11-13.82,9.98-46.93,13.8-67.2,4.43-23.52,26.6-49.69,49.95-56.05,3.46-.94,13.44-3.08,15.61.44Z"/>
      <path class="cls-1" d="M435.81.02c4.57-.51,19.45,7.37,22.77,10.78,8.12,8.35,16.22,37.09,26.19,39.81,13.95,3.82,18.89,2.41,31.61,12.39,32.24,25.32,40.01,64.72,56.5,99.5,3.82,8.05,9.86,15.76,12.93,24.07,9.54,25.83-7.8,85.1,37.72,81.24,17.21-1.46,35.88-18.17,52.45-6.42,7.95,5.64,5.06,12.07,6.2,19.8,1.53,10.41,13.73,40.66,19.46,49.54,19.55,30.26,55.13,45.99,90.89,43.08,29.2-2.38,46.68-34.73,76.43-10.4,24.91,20.37-1.82,47.07-11.78,68.06-3.75,7.9-8,18.22-10.41,26.59-8.4,29.21,2.1,57.69-32.75,71.25-20.44,7.95-39.33,1.09-55.49,20.51-7.9,9.48-12.03,21-9.25,33.27,2.15,9.49,10.2,8.23,10.8,17.18-2.64,13.38-6.32,26.6-7.91,40.19-.84,7.19-.07,15.19-1.38,22.62-5.2,29.56-52.85,77.91-84.27,76.8-46.82-1.66-14.99-63.51-16.44-88.59-.68-11.72-6.91-27.79-13.63-37.37-18.52-26.41-41.17-22.51-67.93-33.07-33.42-13.18-56.77-39.35-30.45-73.5,15.16-19.67,31.44-38.7,46.37-58.63,10.42-13.92,13.79-26.28,17.94-43.06,10.39-42-45.96-45.68-46.33-79.34-.15-13.52,1.93-17.56-3.52-31.48-11.76-30.03-41.43-56.59-44.47-90.53-2.06-23.02,5.84-28.74-8.62-50.38-15.09-22.57-46.13-49.16-48.38-76.62-.7-8.59,1.28-19.06-.7-27.3-3.13-13.02-29.78-32.11-22.2-45.57,1.23-2.17,5.25-4.16,7.65-4.43Z"/>
      <path class="cls-1" d="M90.79,1354.07c13.25-1.87,37.91,16.87,44.42,28.1,15.55,26.8.35,61.02-24.86,75.47-14.46,8.29-37.41,10.2-39.35-11.27s9.15-43.48,10.08-65c.25-5.67-1.37-14.35-.86-18.77.61-5.24,5.95-7.88,10.57-8.53Z"/>
    </g>
  </g>
</svg>