<?xml version="1.0" encoding="UTF-8"?>
<svg id="Layer_2" data-name="Layer 2" xmlns="http://www.w3.org/2000/svg" viewBox="0 0 131.29 187.53">
  <g id="Layer_1-2" data-name="Layer 1">
    <path d="M128.66,156.12c-5.28-9.45-14.74-23.31-21.33-32.01-7.13-9.4-14.2-7.6-23.87-3.1-5.01,2.34-11.1,8.63-16.48,4.87-10.31-7.22-21.03-34.58-21.56-46.97-.19-4.51-.47-9.52,4.31-11.32,9.68-3.64,26.47-4.66,23.49-19.77-2.25-11.41-5.95-25.78-9.52-36.85-.79-2.44-2.17-6.74-4.04-8.48-.89-.83-2.29-1.35-3.47-1.66C40.24-3.4,19.97,9.19,11.21,22.09-4.99,45.92-.99,66.9,6.75,92.95c10.44,35.11,41.05,97.23,84.87,94.5,13.23-.83,28.17-6.17,36.7-16.65,4.32-5.3,3.48-9.06.34-14.68ZM52.91,15.61c1.41,5.74,3.38,11.64,5.04,17.48.15.53.3,1.06.44,1.59.58,2.12,1.11,4.23,1.54,6.32.23,1.11.52,2.35.74,3.63.1.55.18,1.1.25,1.64.09.73.15,1.45.15,2.15,0,2.09-.5,3.95-2.08,5.03-.26.18-.56.34-.88.47-.65.27-1.43.44-2.36.49l-4.74-15.37-7.12-23.05c-.06-.38-.07-.72-.06-1.03.17-4.72,7.41-2.81,9.09.65ZM95.29,174.7c-29.76,4-48.91-23.29-61.68-46.24-7.54-13.57-20.55-49.28-21.78-64.4-1.22-15.16,4.17-34.41,17.22-43.41,1.21-.84,3.39-2.64,4.78-1.36.78.72,4.09,15.98,4.92,18.67,1.83,5.93,4.43,11.66,6.19,17.62.02,1.08-4.69,3.22-5.86,4.24-11.05,9.55-3.66,34.44,1.23,45.94,4.79,11.26,17.56,34.71,31.96,32.81,1.75-.23,4.5-2.29,5.78-1.19l22.48,34.18c1.01,2.12-3.76,2.96-5.24,3.16ZM117.49,165.1c-1.21,1.77-4.13,5.53-6.21,3.06-4.7-7.08-9.52-14.12-14.2-21.23-1.56-2.37-3.1-4.75-4.62-7.14-.2-.31-.57-.88-1.02-1.56-.06-.09-.11-.17-.17-.26-1.23-1.86-2.91-4.42-3.32-5.31-.02-.04-.04-.08-.05-.11-.01-.03-.02-.06-.03-.09-.02-.06-.02-.12-.02-.18,0-.12.04-.24.12-.36.11-.18.29-.35.52-.52.16-.11.34-.22.54-.32.2-.1.43-.2.66-.29,2.63-.98,7.25-1.17,8.08,1.23,1.16,2.02,2.5,4.03,3.93,6.04.82,1.15,1.67,2.29,2.54,3.44,2.83,3.72,5.83,7.42,8.5,11.11.21.28.41.57.61.85,1.41,1.99,2.71,3.97,3.81,5.94.43.76.78,1.36,1.02,1.9.19.43.3.83.31,1.23.02.71-.27,1.47-1.01,2.56Z"/>
  </g>
</svg>