<?xml version="1.0" encoding="UTF-8"?>
<svg id="Layer_2" data-name="Layer 2" xmlns="http://www.w3.org/2000/svg" viewBox="0 0 853.08 104.11">
  <defs>
    <style>
      .cls-1 {
        fill: #1e201f;
      }
    </style>
  </defs>
  <g id="Layer_1-2" data-name="Layer 1">
    <path class="cls-1" d="M853.08,100.73c-4.14,3.57-9.77,1.68-14.17,1.37-2.56-.18-8.21-1.16-8.87-1.16-.45,0-2.27,2.14-7.99,2.09-6.69-.05-2.84.3-5.17.94-3.23.88-5.5-2.84-6.8-3.05-.83-.14-4.81-.59-4.54,1.06l4.99,2-12.49-3c.03,6.05-9.6,1.11-13.22,1.27-1.57.07-2.58,1.72-4.73,1.8-2.59.1-6.18-1.78-9.06-1.85-14.44-.37-30.34.04-45,0-3.95-.01-8.54,1.33-13.07.89-2.33-.23-.53-2.59-2.91-2.09l.5,2c-4.49-.21-9.07.29-13.56.07-42.25-2.12-84.27-.88-126.84-2.16-2.68-.08-13.68-2.14-15.05-1.8-1.46.36-1.29,3.23-2.05,2.9-.48-.21-1.01-1.44-2.17-1.67-4.39-.86-11.71,2.38-14.85-1.33-.85-.36-.1,1.66-1.11,1.96-1.53.44-10.44-.83-12.87-.74-92.71,3.19-187.03-.16-280.01-.2-75.7-.03-151.76,1.94-227,.92-4.24-.06-10.63,3.08-15.03-.21V4.46c1.13-.95,5.67-3.54,7.5-2.44.11.07-.39,1.45,1.24,2.28,6.79,3.45,7.82-1.25,8.45-1.35,3.82-.57,3.06.76,8.86-.96.28-.08-.51,1.13,4.53,1.33,1.7.07,4.06,1,5.32.75,1.12-.22.18-2.14,1.12-2.09,1,.06-.04,1.96,1.06,2.05.6.05,1.8-.84,2.93-.82s2.26.75,3.08.69c2.25-.16,2.95-2.59,3.92-2.65.79-.05,2.09,1.47,3.22,1.6,1.63.18,2.76-.87,3.74-.88s-.32,2.54,2.05,2.05c.94-.19.07-1.7,1.18-2.01,1.23-.33,9.8-1.27,10.68-1.04,1.13.29.21,2.08,1.14,2.05s.01-1.94,1.1-2.1c1.22-.18,3.71,1.16,5.85,1.13,46.41-.71,93.35-1.48,140.01-1.08,3.6.03,28.19,2.74,29.35,1.82,3.79-3.01,14.6-.87,20.64-.75,29.94.57,59.7-1.43,90.1-1.07,6.57.08,15.24.01,20.97,2.06.58.21-.08-1.82,1.9-2.09,3.83-.54,12.28.1,17.04.04,16.8-.21,34.02,1.22,50.53-.95l-1.48,4.01c6.66-2.7,15.79-4.73,22.75-1.95,1.12.45.47,2.28,1.23,1.94,1.08-.48,1.44-2.14,4-2.11,1.98.02,5.51,2.81,7.86,2.04.78-.25.63-1.9,1.25-1.99,2.08-.33,3.7,1.78,5.06,1.89s2.45-1.73,3.9-1.88c1.87-.19,2.98,1.56,4.77,1.76,6.93.77,19.32-1.94,26.01-1.36,24.48,2.11,51.75,1.43,76.32,1.28,4.87-.03,10.93-1.37,15.9-.71,1.94.26,1.38,2.13,1.96,2.14,2.52.03,9.2-5.28,11.97.96l.5-3.02c2.59-.97,1.69,1.71,2.46,1.82,3.35.45,6.9-1.6,10.02-1.81,12.81-.89,27.94.12,41.05.05,14.91-.08,30.42.95,45.94.72,3.11-.05,7.97-2.86,9.02,1.25.93.14.19-1.37.66-1.77.35-.3,7.78-.04,9.2.07,5.77.45,12.47.44,19.1.41,3.94-.02,12.84-2.46,14.04,1.29.92.15.19-1.45.68-1.76,2.18-1.39,15.27.62,19.32.64,4.65.01,9.38-.14,14.03-.13,4.13,0,37.57-2.02,38.04.7"/>
  </g>
</svg>