<?xml version="1.0" encoding="UTF-8"?>
<svg id="Layer_2" data-name="Layer 2" xmlns="http://www.w3.org/2000/svg" viewBox="0 0 323.56 268.04">
  <defs>
    <style>
      .cls-1 {
        fill: #182220;
      }

      .cls-2 {
        fill: #192320;
      }

      .cls-3 {
        fill: #192220;
      }
    </style>
  </defs>
  <g id="Layer_1-2" data-name="Layer 1">
    <g>
      <path class="cls-3" d="M319.22,36.99c-5.8,7.72-18.27,19.54-25.55,26.95-40.69,41.43-89.17,79.3-133.24,117.48-26.12,22.63-50.97,46.82-78.88,67.41-7.98,5.89-23.24,19.03-31.94,8.83-4.11-4.83-2.92-9.3-.85-14.61,5.14-13.16,27.43-31.69,37.9-42.08,58.48-58.05,119.16-115.15,184.02-166.01,7.36-5.77,25-19.01,32.97-22,6.79-2.55,12.24,1.12,16.4,6.53,5.39,7.01,4.07,10.95-.85,17.51Z"/>
      <path class="cls-2" d="M180.33,28.11c-8.01,11.01-22.48,22.44-32.67,31.82-21.65,19.92-44.93,39.67-67.53,58.52-15.72,13.12-41.49,36.69-58.56,46.4-5.39,3.06-7.47,3.08-12.86,0-13.3-7.61-9-14.16-2.7-24.56,18.79-31.01,66.89-69.57,95.19-93.82,12.78-10.95,25.53-23.36,39.53-33.46,3.21-2.32,16.12-11.39,18.88-12.12,18.7-4.9,32.23,11.4,20.72,27.23Z"/>
      <path class="cls-1" d="M288.99,193.77c-16.38,15.7-67.45,65.12-86.12,71.38-2.81.94-12.38,3.22-14.78,2.86-.52-.08-8.02-4.91-8.73-5.8-2.92-3.67-2.55-9.71-1.51-14.07,1.1-4.64,11.18-11.69,14.83-15.17,20.03-19.13,41.65-39,62.95-57.05,9.61-8.15,31.63-26.6,42.92-29.87,12.44-3.6,23.34,9.28,16.95,20.73-3.45,6.19-20.47,21.21-26.5,27Z"/>
    </g>
  </g>
</svg>