<?xml version="1.0" encoding="UTF-8"?>
<svg id="Layer_2" data-name="Layer 2" xmlns="http://www.w3.org/2000/svg" viewBox="0 0 954.38 862.43">
  <defs>
    <style>
      .cls-1 {
        fill: #fbf5e6;
      }

      .cls-2 {
        fill: #e56326;
      }

      .cls-3 {
        fill: #1a2222;
      }
    </style>
  </defs>
  <g id="Layer_1-2" data-name="Layer 1">
    <g>
      <path class="cls-3" d="M767.61,380.7c17.68,15.07,27.23,27.23,32.08,50.42,13.08,62.57,4.5,125.92-.72,188.74-2.25,27.08-3.67,53.36-9.88,80.12s-10.83,39.82-32.65,58.35c-8.28,7.03-7.93,6.65-18.48,10.52-1.84.68-3.14,2.36-4.99,3.01-7.83,2.78-17.79.95-26.02,1.48.81,17.93-7.66,34.57-18.46,48.06-20.88,26.08-44.6,36.97-78.91,32.82-28.01-3.39-50.86-16.99-62.82-43.18-4.66-10.21-6.16-23.6-5.8-34.7-16.57,1.07-32.92,2.16-49.55,2.06-41.22-.25-83.05-.94-124.09-1.88-3.87-.09-20.99-.63-22.4.29-3.15,7.8-2.5,16.86-4.81,25.19-17.95,64.63-111.04,81.38-154.15,30.86-1.29-1.51-2.01-4.89-3.67-5.41-2.03-.64-12.54,1.98-15.83,1.99-18.64.06-42.05-14.92-51.34-30.75-4.41-7.53-7.2-16.72-8.17-25.33-3.2-.85-6.7,1.02-9.49.99-19.33-.17-46.66-1.7-65.99-4.01-12.06-1.44-32.29-3.45-31.44-19.35.18-3.32,2.43-5.75,2.87-8.2,1.59-8.87-3.15-14.74,1.54-25.46,3.42-7.81,12.75-4.83,13.41-7.56-2.42-24.17.13-48.7.85-72.97.56-18.83-2.12-46.25,3.53-63.68,2.42-7.48,6.65-17.4,10.58-23.42,17.97-27.58,32.8-58.02,50.73-86.27,5.15-8.12,10.22-12.76,14.92-22.08,5.63-11.15,11.22-17.75,17.95-28.05,5.62-8.59,13.38-25.29,20.84-31.71,1.22-1.05,2.96-.33,3.73-.88,9.18-6.61,10.28-7.94,21.53-10.33,80.89-17.16,155.8-13.23,237.91-13.09,57.13.1,113.95,1.51,170.98,2.08,50.89.51,121.48-6.27,169.08,6.95,10.25,2.85,19.06,7.48,27.13,14.36ZM338.96,734.35c.81.5,16.19,0,19,0-.2-10.23.84-20.35,1.44-30.5,4.52-75.77,8.8-152,14.97-227.78,5.62-19.65,16.48-42.17,39.34-45.46,24.82-3.57,52.72-4.07,77.74-3.35,9.22.27,34.72,1.41,40.54,8.59.75.92.68,2.73,1.2,3.25.77.76,4.52.76,6.82,2.69,3.36,2.82,4.01,8.14,4.81,12.19,2.96,14.9,1.29,31.4,1.08,46.84-.96,72.71-4.74,145.47-7,218-.19,6.16.22,12.38.05,18.54,8.91-.12,10.82-11.81,14.82-18.67,11.77-20.19,53.32-51.8,77.43-48.09,7.33,1.13,9.09,1.67,17.09,2.11,23.12,1.27,47.31,35.02,56.81,53.98,4.96,9.89.69,12.48,14.35,8.68,22.94-6.38,25.26-35.41,28.36-55.64,9.18-59.8,13.39-122.29,10.13-182.89-1.69-31.47.74-58.94-24.04-81.96-1.44-1.34-2.17-3.53-3.44-4.56-4.47-3.6-27.36-6.98-34.15-7.85-46.63-5.95-97.53-3.03-144.92-4.08-41.49-.92-83.32-3.82-124.92-3.99-29.82-.13-59.57,1.34-89.04,1.87-36.49.65-73.29-1.53-110.04,1.14l-59.42-2.57c-5.4,4.77-9.74,10.39-13.66,16.4-1.02,1.56-6.79,10.42-6.97,11.05-1.31,4.61,4.29,1.99,7.04,2.02,13.81.19,27.49,2.32,41.1,3.09,33.67,1.91,67.49.86,100.9,2.91,10.08.62,27.42-1.15,35.89,4.21,1.4.88,10.01,7.47,10.68,8.32,3.59,4.56,1.76,15.87.53,21.57-3.59,16.7-12.56,33.85-16.25,50.75-8.02,13.3-10.24,36.26-18.47,48.53-.71,1.06-11.28,13.01-12.07,13.45-1.04.58-2.92-.17-3.59.37-.39.32-.32,2.36-1.1,3.38-5.34,6.95-53.94,8.01-64.58,8.45-42.1,1.77-83.33.64-125-.98-15.49-.6-30.98-1.08-46.44-1.96l-2.06,45.95c9.83.14,19.7-.18,29.54-.05,29.41.39,60.14,2.08,89.98,2.01,12.3-.03,50.28-4.8,59.41.62,3.3,1.96,8.03,13.38,7.98,16.94-.09,5.94-9.47,13.44-15.4,13.48-53.41-.28-106.96.68-160.16-.93-1.85-.06-11.02-.16-11.7.06-3.4,1.13-1.06,15.66-1.01,19.19.02,1.23-.73,2.67-.69,4.17.08,2.92,1.26,19.88,2.15,20.4,4.44-.78,9.54,1.09,13.46,1.14,32.87.48,70.43-2.24,102.82,1.09,3.62.37,15.75,4.03,17.04,3.93.36-.03,3.01-5.03,4.05-6.09,20.81-21.31,40.32-26.3,69.05-26.95,26.31-.6,53.06,13.26,68.32,34.66,2.07,2.9,9.28,17.77,10.17,18.33ZM166.96,459.36c-8.8-.1-17.69.08-26.46-.07-7.46-.13-14.11-3.71-19.39,4.7-8.55,13.63-15.13,29.17-24.54,42.46l-12.6,24.89c23.27-20,43.85-42.78,67.76-61.96l15.22-10.03ZM499.96,735.36c5.2-42.41,5.75-84.95,7.96-127.55,2.21-42.64,4.85-85.23,6-128,.16-5.83,3.72-17.4-4.66-19.25-4.19-.93-14.82-1.09-19.75-1.25-14.09-.47-31-.48-45.1.01-10.21.36-21.34,2.77-30.97,3.07-1.36.04-2.28-.65-3.46-1.03-1.29,11.14-2.83,22.37-3.76,33.55-4.49,54.37-5.34,110.13-7.57,164.94-1.02,25.13-2.94,50.28-3.69,75.51h105ZM172.96,554.35h17.5c3.15,0,40.95-37.58,47.54-41.46l25.55-11.56c4.07-.24,8.93,7.65,6.46,11.3-8.36,6.83-17.9,13.2-26.06,20.2-4.68,4.02-8.85,9.34-13.48,13.52-.54.49-10.28,6.48-8.5,7.99l50.04-1.45c11.74-20.85,15.93-44.87,25.08-66.92,2.82-6.78,8.11-12.38,8.88-20.05-7.27-1.89-21.66-6.33-27.93-1.01-27.27,23.17-55.22,46.43-82.55,69.45-7.59,6.39-14.8,13.68-22.52,19.98ZM165.96,479.33l-1.98-1.98c-1.76,5.01-8.36,7.21-11.02,11.99l10.52-9.01,2.48-1ZM176.97,493.34l4.95-1.54,9.04-9.45-5.49,3-8.49,7.99ZM149.96,492.35c-5.48,4.04-14.47,11.87-18,17-3.35,2.75-8.15,5.71-11.49,9.01-1.72,1.69-2.93,4.14-4.51,5.98l14.99-12.54c1.07-.48.75-2.08,1.01-2.45,8.09-6.63,11-9.17,18-17,.28-.31,3.04-.25,3-1.99-3.83-1.01-2.76,1.81-3,1.99ZM166.96,531.36c-1.81-.38-2.78.54-4.15,1.33-4.45,2.56-12.55,8.85-16.76,12.24-1.27,1.02-11.54,9.12-10.08,10.41,4.56.72,7.04-2.83,10.47-5.02l20.52-18.96ZM622.68,739.55c-3.75.85-10.49,8.14-12.52,11.49-6.65,11.01-7.75,39.62,9.47,39.92,16.19.29,27.33-14.31,25.09-29.89-1.58-10.94-8.86-24.52-22.04-21.53ZM270.69,753.62c-2.99-3.01-13.07-3.87-17.17-3.21-14.51,2.35-21.12,25.68-15.73,37.61,4.85,10.72,18.42,12.74,28.18,7.84,10.23-5.14,12.23-22.4,9.31-32.33-.46-1.56-3.79-9.11-4.59-9.91ZM205.95,773.34l2-18.99-2.89,7.59c.09,2.51-.59,5.07-.49,7.53.04,1.02-.13,4.14,1.38,3.87Z"/>
      <path class="cls-1" d="M338.96,734.35c-.89-.56-8.11-15.43-10.17-18.33-15.25-21.4-42.01-35.26-68.32-34.66-28.73.65-48.23,5.64-69.05,26.95-1.04,1.06-3.68,6.06-4.05,6.09-1.3.1-13.42-3.55-17.04-3.93-32.39-3.33-69.96-.61-102.82-1.09-3.92-.06-9.01-1.92-13.46-1.14-.89-.52-2.07-17.48-2.15-20.4-.04-1.49.71-2.94.69-4.17-.05-3.54-2.39-18.06,1.01-19.19.68-.22,9.85-.12,11.7-.06,53.21,1.61,106.75.65,160.16.93,5.93-.04,15.31-7.54,15.4-13.48.05-3.57-4.69-14.99-7.98-16.94-9.12-5.41-47.11-.65-59.41-.62-29.84.07-60.57-1.62-89.98-2.01-9.84-.13-19.71.19-29.54.05l2.06-45.95c15.46.88,30.95,1.35,46.44,1.96,41.67,1.62,82.9,2.75,125,.98,10.64-.45,59.24-1.5,64.58-8.45.79-1.02.71-3.06,1.1-3.38.67-.54,2.55.21,3.59-.37.79-.44,11.36-12.39,12.07-13.45,8.22-12.28,10.44-35.23,18.47-48.53,3.69-16.9,12.66-34.05,16.25-50.75,1.23-5.7,3.05-17.01-.53-21.57-.67-.85-9.28-7.44-10.68-8.32-8.47-5.36-25.81-3.59-35.89-4.21-33.41-2.05-67.23-1-100.9-2.91-13.61-.77-27.29-2.9-41.1-3.09-2.75-.04-8.35,2.58-7.04-2.02.18-.63,5.95-9.49,6.97-11.05,3.92-6.01,8.26-11.63,13.66-16.4l59.42,2.57c36.76-2.67,73.55-.49,110.04-1.14,29.48-.52,59.23-2,89.04-1.87,41.6.18,83.43,3.08,124.92,3.99,47.39,1.05,98.29-1.87,144.92,4.08,6.79.87,29.68,4.25,34.15,7.85,1.28,1.03,2,3.22,3.44,4.56,24.77,23.02,22.34,50.49,24.04,81.96,3.26,60.59-.96,123.08-10.13,182.89-3.1,20.23-5.41,49.27-28.36,55.64-13.66,3.79-9.39,1.21-14.35-8.68-9.51-18.96-33.69-52.72-56.81-53.98-8-.44-9.76-.98-17.09-2.11-24.12-3.71-65.67,27.9-77.43,48.09-4,6.86-5.92,18.55-14.82,18.67.17-6.16-.24-12.38-.05-18.54,2.26-72.52,6.04-145.29,7-218,.2-15.44,1.88-31.94-1.08-46.84-.8-4.04-1.45-9.36-4.81-12.19-2.3-1.93-6.05-1.93-6.82-2.69-.53-.52-.46-2.33-1.2-3.25-5.83-7.18-31.33-8.32-40.54-8.59-25.02-.72-52.93-.22-77.74,3.35-22.86,3.29-33.72,25.81-39.34,45.46-6.17,75.78-10.45,152.01-14.97,227.78-.61,10.15-1.65,20.27-1.44,30.5-2.81,0-18.19.5-19,0ZM732.7,561.14c.58-.47,3.91-8.89,4.18-10.38,1.73-9.83,1.94-40.4-.24-49.69-.51-2.16-3.42-6.28-3.55-7.4-.2-1.78,3.31-3.41,3.59-5.94.27-2.38-1.44-13.81-2.68-15.93-2.94-5.06-17.62-6.16-23.49-6.5-22.23-1.29-49.43,1.55-72.01,2.09-15.49.37-38.98-2.77-52.48,4.52-1.78.96-4.61,5.26-4.89,7.17-.86,5.77,7.71,7.85,7.81,8.75.05.48-4.06,4.59-4.74,8.24-2.15,11.46-3.73,25.5-4.29,36.7-.33,6.59-.97,25.52,1.63,30.48s15.33,6.5,20.93,7.07c21.18,2.14,44.6,2.11,65.98,3.02,14.2.61,32.1,3.1,46.05,2.03,7.95-.61,21.44-3.73,15.45-14.03.82-.03,2.14.28,2.75-.21Z"/>
      <path class="cls-1" d="M499.96,735.36h-105c.75-25.23,2.67-50.39,3.69-75.51,2.23-54.81,3.08-110.57,7.57-164.94.92-11.18,2.46-22.42,3.76-33.55,1.18.38,2.1,1.08,3.46,1.03,9.63-.29,20.75-2.71,30.97-3.07,14.1-.49,31.01-.49,45.1-.01,4.93.17,15.57.33,19.75,1.25,8.38,1.85,4.82,13.43,4.66,19.25-1.15,42.77-3.79,85.36-6,128-2.21,42.6-2.76,85.14-7.96,127.55ZM500.65,592.65c-7.19-7.8-29.99-10.75-31.74,4.17-2.25,19.23,14.12,24.18,28.39,14.37,5.32-3.66,7.66-13.86,3.35-18.53Z"/>
      <path class="cls-1" d="M172.96,554.35c7.72-6.3,14.93-13.58,22.52-19.98,27.33-23.02,55.28-46.28,82.55-69.45,6.26-5.32,20.65-.88,27.93,1.01-.76,7.67-6.06,13.26-8.88,20.05-9.15,22.05-13.34,46.06-25.08,66.92l-50.04,1.45c-1.77-1.51,7.96-7.5,8.5-7.99,4.64-4.18,8.8-9.5,13.48-13.52,8.16-7,17.7-13.37,26.06-20.2,2.47-3.65-2.39-11.55-6.46-11.3l-25.55,11.56c-6.59,3.88-44.39,41.46-47.54,41.46h-17.5Z"/>
      <path class="cls-1" d="M622.68,739.55c13.18-2.99,20.46,10.59,22.04,21.53,2.24,15.57-8.9,30.17-25.09,29.89-17.22-.31-16.12-28.91-9.47-39.92,2.03-3.36,8.76-10.64,12.52-11.49Z"/>
      <path class="cls-1" d="M270.69,753.62c.8.81,4.13,8.35,4.59,9.91,2.92,9.93.92,27.19-9.31,32.33-9.76,4.9-23.34,2.89-28.18-7.84-5.39-11.93,1.22-35.26,15.73-37.61,4.1-.66,14.18.19,17.17,3.21Z"/>
      <path class="cls-1" d="M166.96,459.36l-15.22,10.03c-23.91,19.18-44.49,41.96-67.76,61.96l12.6-24.89c9.41-13.29,15.98-28.84,24.54-42.46,5.28-8.41,11.93-4.83,19.39-4.7,8.77.15,17.66-.03,26.46.07Z"/>
      <path class="cls-1" d="M166.96,531.36l-20.52,18.96c-3.42,2.19-5.9,5.74-10.47,5.02-1.47-1.3,8.81-9.39,10.08-10.41,4.21-3.39,12.32-9.68,16.76-12.24,1.38-.79,2.34-1.71,4.15-1.33Z"/>
      <polygon class="cls-1" points="176.97 493.34 185.46 485.35 190.95 482.35 181.91 491.8 176.97 493.34"/>
      <path class="cls-1" d="M149.96,492.35c.24-.18-.83-3,3-1.99.04,1.74-2.72,1.68-3,1.99-7,7.83-9.91,10.37-18,17-.25.37.06,1.96-1.01,2.45l-14.99,12.54c1.57-1.85,2.79-4.29,4.51-5.98,3.34-3.3,8.14-6.26,11.49-9.01,3.53-5.13,12.52-12.96,18-17Z"/>
      <path class="cls-1" d="M205.95,773.34c-1.51.27-1.34-2.85-1.38-3.87-.1-2.46.58-5.03.49-7.53l2.89-7.59-2,18.99Z"/>
      <path class="cls-1" d="M165.96,479.33l-2.48,1-10.52,9.01c2.66-4.78,9.25-6.98,11.02-11.99l1.98,1.98Z"/>
      <path class="cls-3" d="M732.7,561.14c-.6.49-1.92.18-2.75.21,5.98,10.3-7.51,13.42-15.45,14.03-13.95,1.07-31.85-1.42-46.05-2.03-21.38-.91-44.8-.88-65.98-3.02-5.6-.57-18.23-1.91-20.93-7.07s-1.96-23.89-1.63-30.48c.56-11.2,2.14-25.24,4.29-36.7.68-3.66,4.8-7.76,4.74-8.24-.1-.9-8.67-2.99-7.81-8.75.29-1.91,3.11-6.21,4.89-7.17,13.5-7.3,36.99-4.16,52.48-4.52,22.59-.54,49.78-3.38,72.01-2.09,5.87.34,20.55,1.44,23.49,6.5,1.24,2.12,2.95,13.55,2.68,15.93-.29,2.53-3.79,4.16-3.59,5.94.13,1.12,3.05,5.24,3.55,7.4,2.17,9.29,1.97,39.85.24,49.69-.26,1.49-3.6,9.91-4.18,10.38ZM609.6,500.49c-1.3.33-1.43,1.22-1.64,2.36-1.08,5.88.18,16.4.03,22.94-.07,3.08-2.92,6.4.69,8.38.61.34,11.94,1.15,13.74,1.23,15.59.67,31.66.3,47.08.02,10.31-1.27,25.35,1.74,34.96-.06,4.41-.83,1.71-4.59,1.88-7.33.46-7.63,1.96-15.5,2.62-23.15l-2.7-3.32-96.66-1.06Z"/>
      <path class="cls-3" d="M500.65,592.65c4.3,4.67,1.96,14.87-3.35,18.53-14.27,9.81-30.64,4.87-28.39-14.37,1.75-14.91,24.54-11.97,31.74-4.17Z"/>
      <path class="cls-1" d="M609.6,500.49l96.66,1.06,2.7,3.32c-.66,7.65-2.17,15.51-2.62,23.15-.16,2.74,2.53,6.5-1.88,7.33-9.61,1.8-24.66-1.21-34.96.06-15.42.29-31.48.65-47.08-.02-1.8-.08-13.13-.89-13.74-1.23-3.61-1.98-.76-5.3-.69-8.38.14-6.53-1.12-17.06-.03-22.94.21-1.14.34-2.02,1.64-2.36Z"/>
    </g>
    <path class="cls-2" d="M826.77,289.08c-5.81,1.11-21.21,9.17-27.7,12.04-12.29,5.43-25.83,13.02-39.29,16.97-36.41,10.69,5.91-22.92,7.01-28.93.69-3.77-2.88-4.29-5.77-3.88-4.93.7-20.71,6.81-25.96,9.08-14.85,6.42-35.46,19.98-49.51,24.49-16.19,5.19-22.4,2-10.3-12.3,3.09-3.65,20.32-18.5,20.82-20.18,1.16-3.83.13-7.03-4.3-6.38-18.16,7.46-37.4,12.5-55.76,19.32-14.3,5.32-37.49,18.15-51.47,20.52-6.52,1.11-7.9.11-6.02-7.02,1.76-6.7,17.74-19.03,22.74-25.26,3.48-4.33,12.22-15.18,1.55-14.51-3.22.2-20.86,7.13-25.22,8.83-31.14,12.15-74.72,44-106.64,43.81-3.47-.02-10.19.12-9.71-4.08.53-4.63,25.14-21.63,30.05-26.02,2.69-2.41,14.12-12.22,7.28-14.3-9.12-2.78-25.5,9.44-35.29,9.78,3.22-3.8,8.82-4.71,12.74-7.7.82-.63,2.79-.72.77-2.28-7.02,2.41-12.66,7.7-19.14,10.86-9.39,4.58-20.67,7.94-30.25,12.75-8.74,4.38-40.89,25.87-46.74,26.34-5.5.44-5.07-3.56-3.91-8,1.67-6.41,10.37-22.76,14.11-28.88,20.74-33.95,46.12-26.81,75.33-45.67,19.6-12.65,36.57-55.76,49.67-76.33,7.67-12.04,19.56-26.25,29.89-36.11,20.36-19.43,48.65-20.01,74.71-25.29,5.27-1.07,34.19-11.86,27.73,2.53-4.77,10.62-28.26,29.84-37.42,39.78-10.87,11.77-27.87,35.42-19.89,51.92,7.79,16.11,32.63,16.44,46.31,8.51,5.05-2.92,20.87-17.26,23.93-22.07,3.08-4.85,2.87-9.78,4.66-14.34,17.15-43.54,31.54-76.85,73.58-101.42,15.46-9.04,32.99-14.32,48.62-23.38,3.12-1.81,23.16-14.43,24.3-15.74,1.22-1.41,1.92-7.41,3.02-1.46,7.85-6.05,5.75,8.33,4.69,13.2-5.95,27.28-54.15,49.3-57.26,74.75-.46,3.79,2.4,14.49,5.83,16.35,5.52,3.01,23.72,4.15,30.22,3.68,16.31-1.18,42.19-16.81,52.49-29.51,17.25-21.27,11.47-44.51,22.85-67.15,6.44-12.8,27.66-37.41,40.16-43.84,2.36-1.21,4.6-2.73,7.45-2.55,4.68.73-3.31,20.28-3.98,23.01-2.13,8.66-4.63,19.13-6.18,27.82-7.31,41.14,2.7,80.28-32.38,111.62-21.21,18.95-69.63,32.57-73.81,64.19-1.48,11.22,4.19,20.28,15.65,22.18,28.78,4.79,42.25-33.49,55.86-51.67,14.92-19.94,41.54-22.79,62.77-33.23,1.59-.78,5.83-2.51,6.72-3.38s-.2-2.4-.09-2.47c.36-.2,6.04,1.79,7.99,0-.17,2.02.38,4.33-.04,6.27-.19.85-8.76,12.6-9.98,14.2-18.14,23.84-36.53,42.33-39.85,74.15-1.33,12.77.01,22.02-3.84,35.16-6.6,22.52-18.46,33.16-33.84,49.19-.91.94-1.39,2.87-1.53,2.96-.32.21-2.48-1.35-2.91-.95-.18.17-.27,2.49-1.96,4.57-4.52,5.56-14.23,11.71-19.99,16.18-3.34,2.59-6.13,7.47-11.03,8.8-6.66,1.81-4.92-1.32-7.59-4.48-3.36-3.99-19.72-20.1-20.27-22.79-1.25-6.07,9.98-18.78,14.29-23.31,5.44-5.71,21.25-17.53,24.59-23.41,1.11-1.96,1.15-3.38.95-5.55-4.37.56-10.4-.78-14.5,0ZM420.26,295.09l-7.36,5.18-9.64,9.8,10.88-8.61,6.12-6.37Z"/>
  </g>
</svg>