<?xml version="1.0" encoding="UTF-8"?>
<svg id="Layer_2" data-name="Layer 2" xmlns="http://www.w3.org/2000/svg" viewBox="0 0 683.36 876.08">
  <defs>
    <style>
      .cls-1 {
        fill: #212c2a;
      }
    </style>
  </defs>
  <g id="Layer_1-2" data-name="Layer 1">
    <g>
      <path class="cls-1" d="M606.95,293.69c11.04-1.93,29.84-21.05,40.47-15,3.21,1.82,11.94,19.73,12.42,23.65.53,4.32-1.38,6.8-4.48,9.41-4.23,3.57-31.69,17.81-32.37,20.6,9.13,21.17,16.08,43.21,19.72,66.04,12.64,79.24-4.3,155.47-51.45,220.27-16.66,22.9-56.6,59.64-81.11,73.89-116.38,67.69-255.26,54.4-358.77-29.83-14.95-12.16-28.28-27.65-41.22-41.86-1.18-.3-16.1,6.8-18.69,8.01-4.66,2.17-9.61,6.75-15.16,6.93-7.99.25-12.84-6.57-16.27-12.74-2.68-4.81-7.7-15.62-5.07-20.67,2.94-5.64,30.39-18.05,30.86-20.19-15.07-24.37-26.11-54.86-30.68-83.26-24.37-151.48,68.34-301.7,217.26-340.11,101.88-26.27,221.97,4.42,293.94,81.91,14.73,15.86,29.2,34.56,40.57,52.96ZM383.01,379.6c19.83.17,39.14,4.71,58.88,5.69,13.45-7.22,26.76-14.71,40.02-22.01,33.74-18.57,67.48-37.14,101.05-56.02l.15-2.19c-11.29-15.78-21.66-32.97-34.73-47.35-31.9-35.11-88.17-63.77-133.5-76.5-64.41-18.08-160.68-1.86-215.92,36.1-99.18,68.17-152.93,208.82-105.26,323.08,4.15,9.96,9.8,19.47,14.19,29.33l109.98-60.01c0-1.51-3.01-1.86-4.22-2.25-14.09-4.6-30.77-7.48-44.28-12.72-17.93-6.95-13.3-20.13-15.61-36.39-1.38-9.72-3.51-19.53-4.75-29.25-2.31-18.04-7.24-46.77-7.12-63.88.02-2.34,1.01-10.18,1.66-12.34s3.33-5.4,4.83-7.17c10.62-12.56,32.4-28.01,45.53-39.47,8.95-7.82,19.13-21.82,31.6-23.4,19.69-2.5,48.95,6.4,69.14,9.63,17.48,2.8,38.64,3.79,55.47,7.53,4.27.95,8.17,1.59,9.56,6.44l23.35,73.15ZM330.87,318.75c-33.76-4.01-67.13-9.86-100.45-16.04-18.27,14.29-35.47,30.46-52.55,46.01,33.33,6.31,66.87,12.09,100.39,17.77,17.81-15.65,35.79-31.06,52.61-47.75ZM315.64,453.51c1.63-2.24,1.47-16,2.45-20.04,2.36-9.73,20.2-22.49,27.79-29.21,6.01-5.32,12-10.73,17.86-16.23l-18.38-55.28c-15.43,17.49-34.05,32.19-51.52,47.7,2.79,26.57,6.31,52.88,10.03,79.29,1.88-1.37,10.94-5.1,11.76-6.23ZM141.45,618.16c64.59,72.07,163.33,103.54,258.77,88.44,61.66-9.76,132.32-50.32,168.47-101.53,53.31-75.5,67.44-152.79,39.67-242.33-1.03-3.31-4.67-16.19-6.01-18-.8-1.08-1.32-1.25-2.52-.59l-100.96,58.1c12.3,6.99,43.04,2.76,46.55,19.44.97,4.6.74,12.7.43,17.54-2.18,33.94-8.65,67.82-11.24,101.76-1.62,7.21-4.3,13.16-9.73,18.27-16.49,15.47-44.15,33.03-63.23,46.53-5.6,3.96-9.53,9.35-17.51,10.72-9.92,1.71-11.25-1.76-19-4.52-35.15-12.55-70.84-24.47-105.25-38.75-8.79-3.65-16.85-7.04-17.05-18.03s3.37-26.36,4.03-37.96c.07-1.24.41-6.53-.5-6.5l-173.45,96.06c-1.49,2.16,6.75,9.37,8.54,11.37ZM179.05,476.56c21.32,4.63,42.09,11.24,63.34,16.23,14.89-5.37,27.75-15.28,42.06-22.04l-11.01-82.07-109.56-20.93,15.18,108.81ZM410.87,402.75c-9.52-.13-18.71-3.23-28.3-1.81l-33.7,28.79,8.26,1.83c17.53-10.13,37.23-17.16,53.74-28.8ZM511.86,425.74c-14.14-.99-28.03-6.1-42.05-6.6l-30.64,16.4-27.3,17.18c15.75,2.31,29.92,10.08,45.26,13.83,11-6.44,20.62-14.74,30.82-22.23,6.57-4.82,15.96-10.03,21.83-15.17,1.14-1,2.47-1.54,2.08-3.42ZM453.87,584.73l58.49-41c4.66-34.39,9.88-68.72,15.5-102.99l-57.79,43.7-16.19,100.3ZM431.86,591.74l12.91-80.6,1.68-24.44c-19.97-7.73-40.26-14.5-60.99-19.95-19.66,9.59-38.16,21.21-57.13,32.02l-4.33,52.85,107.87,40.12Z"/>
      <path class="cls-1" d="M43.88,172.74l39.4,51.09c9.41,8.84-5.72,26.29-16.1,17.59-14.23-19.04-30.46-36.78-44.73-55.76-5.37-7.14-15.56-20.21-19.62-27.38-1.05-1.85-2.52-4.2-2.78-6.31-.91-7.26,11.63-17.91,19.21-16.16l71.61,30.93c-9.91-13.18-21.34-26.25-30.81-39.68-2.25-3.19-10.21-14.24-10.96-17.07-1.83-6.95,7.55-15.42,14.04-14.07,4.52.94,13.82,16.25,17.34,20.73,17.74,22.59,35.55,45.12,53.26,67.74,4.8,9.24-6.98,21.87-16.3,20.3l-73.55-31.94Z"/>
      <path class="cls-1" d="M533.92,795.82c-1.33,1.89,14.75,29.77,13.93,36.32-.89,7.11-14.96,11.84-20,6.11-8.58-16.17-14.54-33.5-21.8-50.2-2.76-6.35-6.61-12.29-9.36-18.64-2.18-5.04-11.65-26.53-11.87-30.21-.38-6.5,3.86-8.99,8.72-12.29,7.74-5.27,23.56-12.28,32.83-13.17,35.48-3.39,55.05,32.9,32.51,60.49,8.34,5.37,16.81,10.56,25.31,15.67,4.68,2.81,15.21,5.87,15.65,12.39s-7.72,15.17-14.48,13.48c-14.52-6.21-27.76-15.73-41.49-23.64-1.41-1.27-9.64,3.24-9.96,3.68ZM524.88,774.74c32.76-14.89,22.95-53.83-13.94-31.4l13.94,31.4Z"/>
      <path class="cls-1" d="M378.65,0c71.61-.93,76.69,103.74,12.01,122.01-9.35,2.64-36.81,6.59-37.74-7.9-.59-9.18,3.19-23.97,3.95-33.89,1.72-22.46.38-47.07,2.98-69.02.28-2.34,1.83-6.85,3.64-8.36,2.54-2.13,11.58-2.8,15.16-2.84ZM379.88,99.73c26.48-3.88,38.62-34.45,28.19-57.69-3.74-8.33-13.45-17.09-22.73-18.29-2.02-.26-1.28.06-1.47,1.46-.77,24.89-4.72,49.59-3.99,74.52Z"/>
      <path class="cls-1" d="M435.17,133.43c-1.19-1.1-2.36-4.21-2.7-5.85-1.56-7.61,7.09-25.82,9.68-34.06,7.85-24.98,14.63-50.3,22.83-75.17,6.23-8.94,29.01.88,36.21,5.56,27.65,17.99,31.81,59.22,15.5,86.15-15.68,25.88-38.38,31.95-67.33,28.68-2.93-.33-12.21-3.48-14.19-5.31ZM458.87,115.73c41.52,7.11,60.4-53.97,25.35-73.87l-25.35,73.87Z"/>
      <path class="cls-1" d="M644.57,104.95c9.49-2.82,17.71,5.94,23.27,12.32,47.56,54.57-24.03,133.58-82.3,96.3-4.05-2.59-12.87-10.29-14.22-14.78-1.57-5.22.78-7.65,3.57-11.52,14.5-20.14,35.63-41.64,51.95-61.05,3.09-3.67,14.8-20.39,17.73-21.27ZM598.87,194.73c38.11,20.67,78.96-27.07,51.5-60.97l-51.5,60.97Z"/>
      <path class="cls-1" d="M112.22,59.09c7.9-8.3,19.97-10.96,30.89-9.1,45.77,7.79,78.56,93.32,35.06,117.55S76.1,97.08,112.22,59.09ZM132.58,72.95c-13.58,3.1-6.32,32.67-2.89,41.47,4.61,11.83,18.26,34.42,32.66,33.34,19.56-1.46,13.18-30.9,7.7-42.7-5.65-12.18-22.12-35.61-37.47-32.11Z"/>
      <path class="cls-1" d="M313.87,93.73l-32.56,6.95c-1.4,6.23-.76,26.98-6.05,29.95-4.43,2.5-18.03,3.02-19.95-2.83-1.71-5.21,2.68-23.75,3.54-30.57,1.98-15.61,4.32-28.65,6.91-44.09,1.83-10.93,2.38-23.61,4.55-34.45,2.86-14.26,23.05-22.12,32.98-9.87,11.31,13.94,26.75,58.61,32.86,77.14,2.06,6.24,7.8,22.68,7.8,28.29-.01,8.36-12.4,11.48-18.45,8.36-6.8-3.5-10.03-21.62-11.63-28.87ZM303.87,71.73l-13.99-32.99-6.01,36.99,20-4Z"/>
      <path class="cls-1" d="M368.87,826.74h-21.5c-4.01,0-5.18-15.98-.81-19.06,1.76-1.24,9.34-2.67,11.82-2.92,5.39-.54,24.63-1.29,28.87,1.09,3.72,2.09,4.31,9.34,4.6,13.4,1.64,23.01-8.27,50.66-33.14,55.82-59.78,12.42-70.66-93.85-20.12-115.11,17.05-7.17,38.94-5.77,48.13,12.42,2.58,5.11-1.15,9.34-5.36,12.35-10.84,7.76-11.7-3.84-21.97-5.02-6.05-.7-13.28,2.29-18,6.05-12.11,9.64-14.01,35.5-9.31,49.25,10.46,30.61,36.93,20.44,36.78-8.28Z"/>
      <path class="cls-1" d="M469.85,827.73l-33.55,8.94c-.17,3.44-1.04,7.26-1.24,10.56-.07,1.24.88,2.68.8,3.99-.16,2.8-.46,10.85-1.07,12.92-2.13,7.25-24.19,11.12-24.01-1.91.29-21.37,4-45.51,6.07-67.01,1.19-12.29.13-30.52,4.94-42.06,3.07-7.36,21.64-10.9,27.62-6.47,1.42,1.05,9.77,14.18,11.26,16.74,3.74,6.41,6.39,13.51,10.02,19.98,10.91,19.42,21.99,38.7,32.72,58.28,3.12,10.1-10.73,17.16-18.92,12.92-4.32-2.24-11.39-21.66-14.65-26.87ZM457.87,807.73l-8.83-17.67-9.16-14.32-2,36.99,19.99-5Z"/>
      <path class="cls-1" d="M233.58,740.95c5.86-1.34,16.05,1.29,16.35,8.3-3.88,14.97-10.08,30.33-13.77,45.27-2.4,9.72-6.56,33.83-.31,41.74,7.39,9.35,16.31,3.09,20.91-5.15,12.04-21.6,14.14-48.87,21.4-71.6,4.46-13.94,23.2-4.2,23.68,2.76-7.39,27.77-14.74,89.12-46.26,99.65-18.12,6.05-37.82-.49-44.17-19.22-6.8-20.06-.32-40.38,4.96-59.99,2.38-8.83,7.35-28.72,11.01-35.99,1.27-2.53,3.29-5.11,6.21-5.78Z"/>
      <path class="cls-1" d="M573.95,83.81c-.94.67-8.88,17.87-11.01,20.33,8.13,8.48,34.95,11.44,24.76,27.93-8.42,13.63-27.59-6.01-37.81-9.33-1.26,6.29-14.47,20.83-14.9,25.69-.11,1.24.5,1.69,1.5,2.18,6.1,4.02,30.38,14.73,32.87,20.15,2.59,5.63-5.5,16.63-11.9,15.97-2.56-.26-13.15-6.18-16.27-7.82-11.08-5.85-21.73-12.89-32.6-19.12-2.04-1.91-2.09-5.86-1.68-8.49,1.12-7.14,19.93-28.37,23.13-36.89,11.54-17.68,20.86-41.25,32.98-58.02,1.91-2.64,3.96-3.87,7.33-3.72,4.63.21,20.47,12.21,25.61,15.48,9.47,6.03,34.56,14.98,20.96,29.13-3.36,3.5-6.5,4.23-11.32,3.23s-28.78-18.74-31.64-16.7Z"/>
      <path class="cls-1" d="M168.61,711.98c5.61-.88,13.98-.46,19.46,1.06,15.13,4.19,40.06,37.64,15.84,42.28-14.5,2.78-10.02-22.26-28.55-20.62-13.62,1.21-11.77,14.33-5.93,22.98,8.82,13.07,19.66,21.23,18.47,39.61-2.26,34.73-46.12,45.01-67.01,19.94-8.18-9.82-18.18-31.44,1.73-34.26,11.04-1.56,9.14,6.41,12.43,13.09,4.06,8.25,14.44,15.44,23.32,9.69,17.49-11.32-7.35-32.55-13.05-43.96-9.93-19.9.63-46.27,23.28-49.8Z"/>
    </g>
  </g>
</svg>