<?xml version="1.0" encoding="UTF-8"?>
<svg id="Layer_2" data-name="Layer 2" xmlns="http://www.w3.org/2000/svg" viewBox="0 0 1673.1 1274.6">
  <defs>
    <style>
      .cls-1 {
        fill: #e4612b;
      }
    </style>
  </defs>
  <g id="Layer_1-2" data-name="Layer 1">
    <g>
      <path class="cls-1" d="M555.86,139.62c11.58-1,14.06.93,16.09,12.3,5.47,30.56,2.92,68.46,3.06,99.87.13,28.26-.9,56.63-.92,84.86-.03,39.28-.94,78.64-1.99,118.01-.17,6.16.46,13.25-.06,18.94-1.73,19-22.59,18.29-37.78,21.18s-38.28,8.46-52.67,9.29c-12.46.72-14.28-3.9-19.33-13.62-14.74-28.36-32.88-64.47-45.29-93.62-5.76-13.53-7.74-28.02-13.96-41.01-2.26-4.71-10.23-20.17-11.87-6.16-2.03,17.36-.29,44.68-.03,63.03.45,31.89,2.92,64.05,4.09,95.85.25,6.89,1.63,13.71-5.5,16.57-9.66,3.88-52.6,11-63.01,10.75-7.07-.17-18.5-3.7-21-10.77-7-19.76-2.47-64.68-2.44-87.5.04-32.79-2.25-65.91-3-98.94-.47-20.66,2.17-37.68,3-57.88,1.07-26-4.4-63.49,2.2-87.74,3.51-12.89,21.5-13.32,32.56-15.42,13.06-2.48,52.88-10.91,63.59-9.24,4.47.7,6.79,3.44,8.95,7.05,24.59,41.09,38.73,92.65,60.72,136.16,1.8,3.56,8.36,20.11,12.59,10.87,5.9-12.9-3.53-43.55-2.78-58.74.49-9.9,3.53-19.89,4.09-29.89,1.21-21.97-2.01-46.47-.08-68.04.89-9.99,4.92-13.38,14.02-15.96,15.12-4.28,41.08-8.83,56.77-10.19Z"/>
      <path class="cls-1" d="M232.55,201.97c2.52,2.75,7.91,3.18,11.07,1.21l8.09-12.88c7.33,7.86,10.12,20.05,10.13,30.64,0,6.3-2.27,12.85-2.61,18.84-2.07,37.29,2.72,67.63,4.97,103.93,1.18,19-6.04,40.24-6.03,61,.04,50.45,1.57,108.78-46.01,138.78-32.61,20.56-70.75,40.44-110.24,36.43-42.11-4.27-68.08-11.13-89-49.92-11.77-21.83-5.54-66.41-7.54-92.39-.66-8.55-4.32-17.43-5.02-25.96-1.96-23.87,4.58-43.67,5.02-65.9.23-11.66-3.5-23.38-4.02-35.03-.7-15.67,1.63-37.16,4.13-52.81,1.78-11.17,1.11-18.85,13.07-22.91,13.49-4.58,55.29-8.78,63.77-18.19,1.42-1.58,2.86-7.83,5.45-4.49,2.81,12.7,8.59,27.54,9.56,40.41,1.06,14.04-5.1,28.04-6.9,42.14-3.85,29.97.48,51.88,1.91,80.78.99,20.04-4.53,38.99-3.08,59.04.72,9.92,7.34,41.32,14,47.97,9.35,9.33,34.16,5.52,45.05,0,19.33-9.79,22.05-30.33,22.99-49.96,1.88-39.47-2.91-81.98-.08-121,.55-7.56,3.45-15.51,4.02-22.96,2.71-35.41-18.89-62.94-3.01-102.94,9.03-22.74,46.5-49.42,46.89-73.04.1-6.02-3.25-12.89-2.92-18.87.09-1.51-.71-2.92,1.51-2.5,21.4,20.45,26.21,51.61,19.83,79.76-1.83,8.05-10.96,24.32-5,30.84Z"/>
      <path class="cls-1" d="M416.45,917.5c-1.82-1.99-3.1-7.4-3.35-10.14-2.86-31.54.79-69.51.08-102.01-.13-6.09-1.87-13.78-2.08-19.9-1.4-41.32,3.36-83.24,2.08-125-.74-24.4-6.34-50.31-.55-74.42,2.56-10.64,6.46-15.04,17.28-17.7,13.95-3.43,38.63-8.12,52.71-9.25,11.85-.96,16.23,1.18,17.47,13.48,3.15,31.42-.12,63.47,3.14,94.8.8,7.68,2.94,15.41,3.86,23.13,1.04,8.79-2.78,13.23,9.52,14.46,10.88,1.09,44.93-2.2,53.8-8.14,12.1-8.11,4.39-28.59,3.62-40.27-1-15.15,1.77-29.99,2.08-44.97.4-18.89-3.12-37.81,1.21-56.75,2.29-10,7.37-12.88,16.73-15.25,12.72-3.22,45.59-10.17,57.65-10.1,5.67.04,10.36,1.87,11.64,7.79,3.93,106.05.53,212.83,1.73,319.15-1.44,11.24-1.26,20.64-13.83,24.15-14.09,3.92-42.24,8.96-56.8,10.16-6.26.52-11.71,1.5-15.21-4.52-3.92-6.73-1.57-17.98-2.16-25.82-1.15-15.33-4.06-30.6-5.03-45.94-.33-5.31,1.26-21.7-1.03-24.95-1.68-2.38-5.73-1.73-8.41-1.55-11.08.73-42.44,5.78-52.16,9.8-18.72,7.74-7.66,37.77-6.45,52.77.77,9.57-1.64,16.92-2.75,25.97-1.85,15.03,2.09,28.2-15.46,33.51-12.66,3.83-32.9,6.58-46.41,8.56-6.13.89-18.32,3.98-22.88-1.02Z"/>
      <path class="cls-1" d="M1130.59,431.42c6.31-.26,11.68,1.51,17.64,1.75,27.53,1.14,51.73.65,74.03,19.92,33.44,28.9,29.01,72.69,30.42,112.49.58,16.44.37,27.68,0,43.89-1.38,60.02,6.57,113.06-41.41,158.46-47.98,45.41-166.67,67.96-200.6-4.35-3.67-7.82-11.1-28.41-12.37-36.6-1.84-11.8,1.15-23.75,1.59-35.49,1.04-28.04-4.9-57.43-3.08-85.03.41-6.2,2.58-12.92,3.02-18.96,1.11-14.95-1.15-29.47,1.31-44.66,5.06-31.28,32.93-66.01,59.37-82.55,15.73-9.84,52.13-28.13,70.08-28.88ZM1127.54,521.33c-22.49,2.88-38.84,23.28-40.72,45.23s-.45,45.75-.06,66.98c.35,18.9-2.01,45.04,1.31,62.64,4.98,26.39,26.55,30.18,49.06,20.62,38.02-16.16,27.98-59.17,25.65-91.31-.73-10.04,2.32-19.16,2.97-28.97,1.06-15.89-2.15-46.71-7.04-61.89-4.19-13.02-19.23-14.82-31.17-13.29Z"/>
      <path class="cls-1" d="M1143.58,35.68c12.66-.76,14.21,4.68,15.17,16.21.95,11.34,1.43,51.86-1.93,61-2.67,7.27-8.32,8.17-15.04,9.95-22.79,6.02-47.2,7.54-70.18,12.77-11.31,2.58-18.55,7.16-29.01,10.97-9.02,3.28-21.71,4.57-29.16,7.82-8.76,3.83-7.99,22.56-3.83,29.61s17.76,3.98,24.56,3.11c20.4-2.62,48.92-11.63,68.17-11.86,8.52-.1,11.79,4.53,12.49,12.48,1.27,14.3,1.23,41.71,0,56.04-1.25,14.6-6.9,16.93-19.99,19.99-18.34,4.28-38.54,6.04-57.19,9.77-6.88,1.38-21.25,3.05-25.81,8.17-7.08,7.95-9.06,43.17,9.53,39.53,20.41-4.48,41.17-7.15,61.63-11.35,20.39-4.18,38.96-8.83,60.23-9.72,11.9-.5,14.66,2.86,15.57,14.49,1.12,14.28,1.12,38.76,0,53.04-.9,11.47-2.92,15.7-14.02,18.96-29.66,8.69-62.69,13.45-92.97,19.97-13.31,2.86-26.71,8.55-40.43,9.54-10.03.72-20.94-.75-31.01-.03-11.75.84-49.25,10.95-57.25,7.25-5.01-2.32-7.8-19.47-8.22-24.76-1.91-24.03,1.88-51.99,1.02-76.97-.41-11.91-2.63-24.07-3.08-35.89-.85-22.28,5.91-43.33,5.03-66.99-1.35-36.18-5.15-72.58-3.03-108.98.38-6.56,2.51-24.1,5.62-29.36,4.05-6.86,10.56-6.04,16.63-8.36,7.61-2.9,17.79-8.39,25.53-9.45s13.6.97,20.78.78c21-.55,46.57-10.96,68.23-14.71,14.78-2.56,29.71-3.39,44.53-5.44,15.11-2.09,32.52-6.68,47.41-7.57Z"/>
      <path class="cls-1" d="M860.71,484.39c40.59-1.7,78.6,12.84,93.18,53.15,8.45,23.36,7.15,48.53,7.94,73.01,1.27,39.69,1.67,81.11-.97,120.87-5.08,76.47-63.07,117.96-134.54,127.31-79.17,10.36-114.99-26.42-119.36-103.27-1.51-26.59,4.08-52.77,3.08-79.03-.41-10.75-3.26-21.46-4.02-31.95-1.12-15.31,3.75-36.32,7.47-51.46,17.54-71.35,76.33-105.66,147.23-108.62ZM838.7,573.32c-38.1,4.34-42.25,29.87-42.71,62.14-.45,31.73-1.56,64.47-1.05,95.98.52,31.69,13.81,47.19,46.6,38.6,31.39-8.22,30.99-28.35,32.32-55.63,1.22-25.13,3.23-58.14,1.08-82.94-.66-7.66-5.09-14.26-5.91-22.07-1.24-11.86,3.89-27.92-9.73-34.25-5.84-2.71-14.27-2.55-20.6-1.83Z"/>
      <path class="cls-1" d="M289.35,690.82l48.66-5.68c3.29,7.6,8.04,31.41,2.65,37.78-3.73,4.41-44.22,8.75-52.68,10.29-12.01,2.18-11.54,3.6-25.23,2.66-8.9-.61-10.5,3.72-11.57-9.39,1.86-38.39-2.34-78.87-.01-117.01.24-3.95.98-7.97,1.97-11.78,1.64-2.7,27.78-7.24,32.84-8.39,15.35-3.49,30.48-8.94,46.72-10.25,13.24-1.07,15.65,1.57,16.46,14.48.27,4.29.1,17.42-2.9,20.06-4.39,3.85-40.83,7.74-49.71,10.26-2.56.73-6.41,1.8-7.61,4.39-1.31,2.84-1.88,11.42,1.96,12.55,6.99,2.06,21.24-2.96,28.9-3.67,2.96-.27,8.54-1.05,10.3,1.45,2.03,2.88,1.88,28.12-.88,30.95-4.71,4.82-29.13,4.49-36.39,8.59-4.64,2.62-5.86,8.05-3.49,12.71Z"/>
      <path class="cls-1" d="M166.27,659.48c.03.46.89,1.66,1.04,2.96.97,8.23-1.81,10.28,9.33,9.4,8.33-.66,19.76-1.45,20.66-11.31,1.35-14.83-1.71-32.4-.05-47.02,1.24-10.92,11.04-11.78,20.51-12.47,3.66-.27,13.12-1.22,14.27,2.69,1.94,6.62,2.75,24.67,2.2,31.76-.26,3.37-1.84,6.38-2.03,9.97-1.46,28.72,2.63,60.92.08,89.02-.48,5.29-1.29,6.08-6.25,7.74-4.28,1.43-24.23,4.87-27.14,2.79-4.27-3.05.85-32.99-2.56-38.39-2.24-3.54-24.47.67-27.34,3.29-4.53,4.12-1.86,30.31-2.71,37.54-.73,6.17-3.83,5.68-9,6.99-4.13,1.04-22.9,5.26-25.08,1.82l-.68-133.51c.44-1.64.87-3.64,2.2-4.79,2.91-2.51,28.5-6.5,31.37-4.78.15.72,1.17,1.98,1.17,2.34,0,14.05-1.04,30.23,0,43.97Z"/>
      <path class="cls-1" d="M118,653.71c-4.8,5.85-31.52,3.06-35.56,10.9-1.01,1.96-2.2,12.23-2.22,14.86-.15,23.87.66,48.08.12,71.99-.06,2.56-.88,11.5-1.49,13.5-.31,1.02-1.18,2.31-2.02,2.98-2.89,2.31-27.49,6.27-30.53,4.48-1.8-1.61-1.84-3.74-2.03-5.96-1.52-16.99.91-34.28,2.03-51.03.92-13.75-2.79-28.57-2.43-42.52-.33-.97-.79-1.75-1.62-2.38-5.42-4.11-32.01,6.86-36.69,2.2-2.1-2.09-1.93-28.77.31-31.69,1.78-2.32,8.29-3.11,11.24-3.75,25.82-5.63,66.18-14.09,91.79-16.15,14.48-1.16,10.11,5.69,10.33,17.4.08,4.57,2.32,10.84-1.24,15.17Z"/>
      <path class="cls-1" d="M1636.77,847.11c5.87-5.95,6.42,7.17,7.88,11.11,3.12,8.41,10.54,16.92,15.03,24.94,16.72,29.87,20.45,56.03-4.14,83.14-7.61,8.39-14.06,15.96-21.2,2.15-9.74-18.83,2.03-32.27,5.73-49.6,4.03-18.91-3.87-41.02-4.53-60.52-.09-2.72-.56-9.42,1.23-11.24Z"/>
      <path class="cls-1" d="M1672.49,1103.21c-2.24-24.4-25.16-48.42-27.01-76.93-.55-8.48,1.36-15.27,1.89-23.38-3.02-1.41-4.25-1.7-6.92.3-6.98,5.23-10.53,22.66-10.97,31-.66,12.25,3.53,27.49,1.95,38.93-2.43,17.55-28.28,22.72-42.69,18.87-10.33-2.76-30.69-19.47-36.62-28.35-5.1-7.63-.76-14.22.29-22.56,3.57-28.33.47-54.98,2.1-82.85.7-12.03,4.5-25.04,5.03-36.94,1.03-23.04-7.24-75.73-17.49-96.42-37.19-75.04-171.62-43.86-215.35,10.51-14.92,18.55-37.23,70.43-37.09,93.93.07,11.67,5.32,24,6.12,35.92,4.07,60.59-19.06,164.14,52.95,192.9,27.93,11.16,70.55,7.53,99.15-.77,9.57-2.78,20.46-8.93,28.95-11.02,12.68-3.13,19.48,7.01,29.28,13.33,57.94,37.35,175.1,38.1,166.42-56.47ZM1466.59,1021.23c-1.47,16.33-11.37,10.72-24,13.98-21.87,5.64,6.78,15.2,6.12,26.02-.46,7.58-19.11,13.84-25.59,14.48-24.38,2.38-36.12-7.41-38.34-31.6-2.14-23.3.02-51.9-.09-75.86-.17-38.14-8.43-92.68,44.73-98.1,13.72-1.4,25.07,1.03,28.75,15.63,7.24,28.72,8.54,54.29,8.39,83.47-.08,16.44,1.46,36.03.02,51.99Z"/>
      <path class="cls-1" d="M941.35,1086.73c-5.34-4.62-14.53-6.69-11.69-14.76,2.78-7.92,9.84-17.41,13.24-26.73,15.17-41.49,13.63-118.43-31.32-141.61-20.77-10.71-58.61-10.81-81.85-9.51-21.7,1.21-39.94,8.62-59.39,10.58-7.3.73-15.21-.75-22.41.57-5.39.99-13.29,5.06-19.18,6.81-15.86,4.72-32.95,5.29-39.22,23.75-2.46,7.23-1.08,13.23-1.49,20.5-3.14,56.39,3.66,112.72,6.95,168.86.99,16.93-2.18,33.22-2.98,49.97-1.09,22.87.37,49.41-3.07,71.88-1.48,9.69-19.31,12.99-10.8,23.91,5.31,6.81,21.46.84,29.39,2.59,39.97,4.8,78.96-7.73,117.39-16.46,42.07-9.56,93.33-15.28,120.17-53.73,20.93-29.98,25.91-90.94-3.75-116.62ZM783.04,1003.34c.38-2.64,2.4-7.39,4.25-9.24,1.39-1.4,5.45-3.43,7.44-4.06,12.23-3.86,39.22-8.43,51.73-7.32,25.04,2.24,22.51,52.15,5.39,64.44-9.83,7.06-46.42,13.72-58.46,12.6-4.05-.38-7.31-1.97-9.22-5.77-3.89-7.75-2.53-40.91-1.14-50.65ZM835.12,1183.33c-10.79,2.44-30.13,6.19-40.79,6.22-5.38.01-11.04-4.35-12.15-9.63-1.33-6.34-.43-11.84-.23-17.78.31-9.29-1.45-19.54,7.67-25.31,6.96-4.41,35.94-9.08,45.12-9.86,15.64-1.32,30.96-3.12,33.06,16.31,2.96,27.46-8.37,34.54-32.67,40.04Z"/>
      <path class="cls-1" d="M1245.2,1033.76c-3.46-2.9-12.51-6.57-12.56-11.49-.02-1.72,13.07-25.46,15.09-30.98,15.27-41.76,12.78-117.82-32.62-140.3-19.69-9.75-45.54-17.06-67.55-14.82-11.99,1.22-18.28,6.44-28.57,9.41-32.6,9.4-73.03,9.23-105.16,18.78-12.22,3.63-14.36,13-16.7,24.28-5.86,28.35,1.81,57.86.75,86.7-.4,10.91-2.62,22.05-3.04,32.94-.67,17.35,2.9,33.98,3.98,50.97,3.16,49.66-3.54,101.65-.03,150.93.66,9.31,1.68,14.69,12.53,14.53,10.65-.16,25.92-5.35,38-6.06,9.57-.56,20.38,1,29.72-.27,7.77-1.05,18-7.18,26.53-9.45,46.76-12.44,111.61-12.89,142.96-56.93,21.64-30.41,27.6-92.26-3.34-118.22ZM1086.76,953.25c1.42-15.94,16.88-17.6,29.99-19.98,10.07-1.83,30.59-5.27,39.73-1.68,7.29,2.87,9.97,9.64,11.17,16.81,2.29,13.63,1.36,35.28-9.88,44.88-10.7,9.14-48.61,15.22-62.52,13.52-1.87-.23-3.79-1.08-5.11-2.39-1.84-1.82-3.05-5.56-3.35-8.15-1.14-10.07-.96-32.74-.04-43.01ZM1168.2,1116.62c-8.18,11.95-35.22,16-49.03,17.93-6.7.94-24.36,3.96-29.06-.19-4.75-4.2-4.8-23.75-4.35-30.21,1.26-17.86,7.36-21.38,23.98-24.99,12.42-2.7,38.97-7.6,50.46-4.38,15.64,4.37,15.42,30.99,7.99,41.85Z"/>
      <path class="cls-1" d="M1516.57,282.74c-1.09-17.4-11.68-33.58-10.99-51.48-12.97,7.78-10.14,17.69-12.26,30.2-1.94,11.48-5.69,22.47-15.24,29.73-16.99,12.91-23.08-8.62-31.04-18.88-2.15-2.77-5.35-4.92-7.38-7.61-6.58-8.72-24.2-35.03-25.03-44.95-1.16-13.91,19.1-42.51,25.18-56.78,10.84-25.45,10.8-52.68,7.7-80-10.14-89.36-69.58-89.55-144.01-77.28-26.63,4.39-61.15,10.34-86.93,17.01-9.63,2.49-18.12,4.83-19.72,16.26-1.29,9.27-2.84,23.71-3.07,32.9-.2,8.1,1.56,15.91,1.03,24.01-1.75,26.78-5.27,42.89-.34,70.21,5.62,31.17-2.8,73.83-1.74,107.67.84,26.88,1.15,55.11,3,81.95.71,10.35,1.8,19.83,14.48,19.47,11.61-.33,47.9-7.14,59.32-10.72,11.07-3.47,14.19-9.61,15.18-20.8,2.07-23.62-3.29-54.21.26-76.69,1.5-9.51,10.57-18.62,20.25-19.73,4.04-.47,10.05-.78,13.04,1.96,2.69,2.46,12.52,20.51,14.3,24.67,2.95,6.9,3.89,14.13,6.97,21.01,5.74,12.83,40.98,52.79,52.83,61.1,51.4,36.1,128.04-12.64,124.24-73.25ZM1346.61,152.75c-9.07,5.07-15.03,3.42-24.15,4.84-8.17,1.27-21,6.79-28.2,5.66-9.91-1.56-4.72-13.75-4.52-20.38.39-12.57-2.48-28.19,1.24-39.73,1.62-5.02,4.42-8.09,9.65-9.34,8.04-1.91,23.59-4.44,31.85-5.14,10.51-.89,21.5-.95,26.21,10.17,6.39,15.11,3.75,45.08-12.08,53.92Z"/>
      <path class="cls-1" d="M872.87,262.78c-1.05-49.85,13.96-136.24-47.4-156.47-39.85-13.14-114.69,4.41-156.83,12.15-11.53,2.12-39.3,4.92-45.45,15.52-4.92,8.48-1.88,21.44-2.1,30.81-1.73,75.44,1.38,151.67-3.04,226.88-1.23,21.01-.33,43.97,2,64.94.46,4.13,1.55,14.45,4.27,17.22,4.12,4.21,17.3,1.72,22.92.99,35.26-4.59,77.17-12.25,111.92-20.01,48.22-10.76,88.04-30.03,107.94-77.96,16.29-39.25,6.63-73.51,5.77-114.07ZM786,327.74c-.7,9.99-7.39,25.59-13.21,33.77-4.68,6.58-20.7,8.85-28.64,10.34-7.54,1.42-22.49,4.65-29.45,3.1-4.24-.95-5.41-4.37-5.76-8.23-1.97-21.93,3.88-44.97,4.08-66.96.24-25.52-5.86-52.42-4.02-77.98.61-8.54,1.92-21.83,10.99-24.99,9.13-3.18,31.9-6.69,41.77-7.2,13.37-.7,20.63,3.98,23.08,17.3-.1,39.01,3.87,82.08,1.15,120.86Z"/>
      <path class="cls-1" d="M1552.61,564.5c-1.54-49.98-2.2-89.65-35.05-129.85-21.3-26.07-43.55-33.79-76.44-37.49-24.91-2.8-41.75,1.07-65.97,2.98-29.9,2.36-63.82,1.1-92.93,5.02-6.18.83-15.98,3.18-15.29,11.25,2.76,13.56,11.36,27.68,14.32,40.67,1.89,8.3,1.32,16.86,2.62,25.37,4.45,29.29,10.9,53.03,10.8,83.06-.12,34.67-.16,69.36,0,104.02.1,21.89,1.44,39.35-2.24,61.62-1.48,8.93-7.1,23.2-7.49,30.54-.08,1.45.21,3.25,1.27,4.26,4.16,3.96,31.18-2.3,38.02-3.01,17.22-1.79,34.66-1.83,51.82-4.16,48.7-6.61,108.43-31.28,131.43-77.45,1.33-2.67,3.09-12.6,8.21-8.92,4.96,3.56-5.13,29.17-2.06,31.55,5.35-2.62,9.42-7.87,12.79-12.68,23.13-33,27.43-87.44,26.22-126.77ZM1462.57,559.51c-1.52,50.37,2.79,98.56-61.44,102.46-8.79.53-16.94.92-18.39-9.57-3.11-22.5,2.88-45.39,3.9-67.88.72-15.78-.01-34.2-2.12-49.83-1.49-11.07-10.96-42.21-3.55-50.28,5.47-5.96,32.44-2.76,40.44-.6,40,10.8,42.22,40.32,41.16,75.69Z"/>
    </g>
  </g>
</svg>