<?xml version="1.0" encoding="UTF-8"?>
<svg id="Layer_2" data-name="Layer 2" xmlns="http://www.w3.org/2000/svg" viewBox="0 0 758.92 309.63">
  <defs>
    <style>
      .cls-1 {
        fill: #f06a23;
      }
    </style>
  </defs>
  <g id="Layer_1-2" data-name="Layer 1">
    <g>
      <path class="cls-1" d="M717.41,276.21c4.31,4.25,12.02,6.56,17.17,2.39,4.58-3.71.92-19.38,7.91-24.09,6.22-4.19,1.9,2.43,1.61,4.61-2.07,15.32,9.97,26.97-.22,41.78-10.13,14.73-36.58,8.32-48.74-.92-2.95-2.24-7.62-8.74-10.79-9.23-2.82-.44-14.04,2.86-18.78,2.9-8.25.06-22.26-3.11-28.44-8.65-16.04-14.39-5.31-41.59-3.09-59.94.57-4.72-.35-9.46.47-14.53,1.39-8.62,11.67-23.92,18.54-29.46,19.21-15.49,66.3-15.97,69.9,15.12,2.09,18.02-4.54,41.38-8.38,59.4-.6,2.8-3.44,9.08-3.44,10.5,0,1.76,4.87,8.74,6.29,10.14ZM685.85,252.35c2.1-9.08,8.81-43.96,4.28-50.36-2.06-2.91-9.23-2.88-12.51-2.36-6.26.99-10.02,6.67-11.84,12.16-2.74,8.27-5.91,29.4-6.59,38.4-.95,12.6,3.07,16.5,16.14,14.1,7.55-1.39-1.92-9.1-.27-10.72,3.59-.1,7.51.63,10.79-1.22Z"/>
      <path class="cls-1" d="M247.56,34.57c1.1.34,1.64,2.3,1.55,3.45-3.29,36.37-11.67,72.15-18.97,107.88-.99,1.56-3.85,1.57-5.53,1.71-4.02.34-26.58.5-28.31-1.27-3.24-12.31-7.73-24.38-10.73-36.77-1.22-5.03-1.05-12.81-3.26-16.72-.63-1.13.07-1.71-2.23-1.28l-8.94,57.57c-7.21-.29-28.12,4.3-29.06-6.16,5.95-35.14,10.13-70.55,18.76-105.14.39-.91,1.01-1.63,1.84-2.16,2.74-1.76,30.2-1.84,32.17.14l15.72,53.75c1.71-1.76,2.14-5.27,2.39-7.62,1.18-11.11,3.7-32.62,7.2-42.8.44-1.27,2.53-4.57,3.43-4.57,4.83,0,20.84-.98,24,0Z"/>
      <path class="cls-1" d="M458.86,172.86c10.43-.55,29.09.24,39.23,2.17,4.05.77,10.16,2.27,13.67,4.33,18.6,10.88,11.69,44.82-1.63,57.85,4.53,5.57,7.98,10.19,7.99,17.86.05,36.31-37.92,36.17-64.53,36.54-11.78.17-23.63-.85-34.63-4.46-2.92-3.86,1.4-4.09,3.12-6.06,1.84-2.11,7.83-28.49,8.69-33.31,3.47-19.46,2.75-49.38,9.22-66.78,2.56-6.87,12.1-7.8,18.86-8.16ZM465.17,224.46c5.77,1.32,19.25,2.61,23.86-1.43,4.17-3.65,6.54-17.09.79-19.73-2.69-1.23-18.79-1.32-21.1.18-2.88,1.86-4.31,17.31-3.55,20.98ZM464.79,248.81c-7.6,1.36-9.66,15.26-6.78,17.3,3.3,2.34,18.96,1.6,23.05-.03,5.07-2.01,8.74-12.29,3.54-15.57-3.61-2.27-15.54-2.47-19.82-1.71Z"/>
      <path class="cls-1" d="M588.85,172.87c32.27-.69,43.98,26.66,29.73,53.72-1.29,2.45-7.22,9.6-7.39,10.67-.14.89,7.57,8.87,7.8,15.97.52,15.7-7.48,29.38-22.72,34.06s-50.01,5.11-65.73,3.3c-2.7-.31-5.77-1.01-5.53-4.46,2.47-15.08,5.58-30.09,7.92-45.19,2.64-17,4.15-35.78,7.39-52.61,1.82-9.48,3.13-13.84,13.26-14.74,5.13-.46,9.95,1.1,13.98.98,6.6-.2,14.55-1.56,21.29-1.7ZM590.75,222.26c2.79-3.06,4.93-14.68,1.87-17.75-2.73-2.74-20.94-2.9-23.3-.68-2.02,1.89-5.16,18.67-3,20.49,3.16,2.67,20.92,1.8,24.43-2.06ZM564.77,248.78c-6.16,1.38-8.53,15.36-5.75,17.33,3.27,2.32,19,1.32,23.09.01,5.09-1.63,8.05-12.2,3.49-15.6-3.15-2.35-16.93-2.61-20.83-1.74Z"/>
      <path class="cls-1" d="M440.56,146.57c-1.32-.43-2.11-3.85-2.14-5.31-.52-21.19,10.93-46.7,9.87-67.88,3.82-8.93,4.14-29.95,8.92-37.17.89-1.34,1.59-2.46,3.38-2.62,19.15.84,62.31-8.06,71.98,13.98,4.85,11.06,2.4,31.96-3.68,42.32-7.16,12.2-15.67,11.87-9,28.36.94,2.33,7.72,15.77,8.84,16.16,10.32,3.62,9.94-14.7,16.33-17.84-.37,5.7,1.4,10.77,1.04,16.54-1.3,20.75-30.75,32.12-45.03,16.96-2.25-2.39-10.98-16.86-12.06-19.94-1.87-5.36-1.44-20.01-9.37-19.54-13.43.8-7.25,35.98-16.08,35.98-4.47,0-20.22.91-23,0ZM486.77,60.78c-2.06.48-3.57,1.72-4.26,3.74-.52,1.51-3.3,16.3-2.95,17.09,1.64,3.71,7.22.91,9.99.86,3.96-.06,6.58,2.1,11.04-.87,4.18-2.78,7.15-13.8,3.95-18.03-2.76-3.64-13.59-3.76-17.77-2.79Z"/>
      <path class="cls-1" d="M248.3,146.33c-2.03-2.02.4-18.22,1.03-21.99,1.05-6.34,3.26-13.03,4.41-19.59,3.98-22.6,7.39-45.32,12.25-67.75,1.87-2.25,4.71-3.21,7.56-3.43,17.73,1.81,48.3-4.27,63,7,2.64,2.03,4.8,4.91,5.99,8.01,6.8,17.83-5.74,48.76-5.78,68.19-6.5,22.12-23.51,29.57-45.16,30.84-10.71.63-27.55.89-38.09,0-1.56-.13-4.09-.17-5.21-1.28ZM283.56,119.57c2.74.78,13.16,0,17,0,.99,0,6.64-8.01,7.24-9.76,1.99-5.87,7.07-37.3,6.3-42.79-.97-6.97-18.45-7-22.01-3.92-4.14,3.57-5.13,26.9-6.32,33.68-.77,4.38-5.57,17.91-4.23,20.77.2.43,1.72,1.94,2.02,2.03Z"/>
      <path class="cls-1" d="M366.06,277.56c-1.07-1.2,3.86-7.84,1.5-9.99-6.19,8.85-16.93,15.95-27.47,18.53-17.69,4.33-33.3.18-51.03.46,1.38-7.54,4.84-14.15,6.54-21.96,5.27-24.21,9.85-54.96,8.5-79.57-.31-5.72-5.8-16.51,3.33-16.39s20.97,2.84,30.14,3.92c11.1,1.3,19.52.33,30.49,5.51,27.39,12.96,21.17,58.03,12.03,81.02-2.68,6.74-6.92,15.5-14.02,18.47ZM347.74,255.25c6.12-5.1,12.14-32.15,11.05-39.92-1.28-9.13-14.59-18.56-23.1-15.63-4.05,1.4-2.37,18.73-2.77,23.24-.57,6.48-7.91,29.64-6.77,32.98,1.63,4.79,17.93,2.37,21.59-.67Z"/>
      <path class="cls-1" d="M142.24,34.79c3.17-1.87,3.81,3.39,3.72,6.17-.17,5.4-3.73,14.85-4.73,21.27-3.13,20.07-4.82,39.34-10.9,59.1-6.06,19.66-14.83,24.95-34.48,29.52-18.06,4.2-43.05-.87-48.1-21.47-2.05-8.37,1.3-16.24,2.17-24.46,1.83-17.43,4.13-34.98,7.61-52.39.52-2.62,4.11-15.1,5.44-16.32,2.74-2.5,16-1.08,20.36-1.88,2.8-.51,4.16-2.44,6.73-2.76-.87,4.49,1.22,9.14.94,13.35-.3,4.63-4.05,10.75-5.43,15.66-2.68,9.51-2.12,17.92-3.77,27.23-1.8,10.19-6.06,17.11-3.05,28.57,2.29,8.73,15.15,8.16,20.35,2.73,6.73-7.02,9.39-37.62,11.42-48.58.73-3.96,2.93-7.49,3.43-11.57,1.35-11.01-1.98-19.13,3.93-30.07,3.88-7.17,17.31-13.75,18.93-20.07.78-3.05-.36-15.74,4.28-3.8,2.61,6.7,2.34,12.56.26,19.34-.77,2.5-7.79,13.31-1.79,13.22,2.34-.03,2.09-2.46,2.67-2.8Z"/>
      <path class="cls-1" d="M57.06,252.57h-20.5c-4.77,0-4.22,16.71-4.59,19.41-.33,2.44-4.35,15.59-6.41,15.59H1.56c-2.1,0-1.52-6.78-1.37-8.38,2.31-25.3,9.55-53.77,13.74-79.25.6-3.63,1.65-25.37,6.63-25.37h24c2.02,0,1.63,7.82,1.54,9.54-.65,12.3-5.37,25.16-4.1,37.84.41,1.51,21.71,4.99,22.62-1.33l4.72-31.28c.65-2.94,2.41-12.04,4.19-13.81s16.91-2.27,20.07-2.01c6.41.54,7.84.82,7.34,7.4-2.42,32.04-14.09,67.41-17.15,99.86.26,1.67-3.2,6.77-4.23,6.77h-23c-.16,0-1.78-1.56-2-2.02-.12-10.81,1.93-22.02,2.5-32.98Z"/>
      <path class="cls-1" d="M252.86,168.82c6.4-.56,20.08,3.3,25.87,6.58,18.13,10.29,13.01,33.27,10.25,50.59-2.1,13.2-6.3,36.43-14.09,46.91-15.82,21.25-65.7,26.01-74.55-3.11-4.08-13.4-.31-18.38,1.59-30.86,2.04-13.39,3.81-38.63,11.72-49.28s25.55-19.64,39.21-20.84ZM259.76,200.85c-4.11-4.98-14.52-3.07-19.05.87-6.86,5.98-7.62,25.13-8.93,34.07-1.64,11.21-9.25,27.38,9.82,25.82,11.54-.94,13.75-11.08,15.33-20.67.94-5.73,1.94-11.46,2.87-17.13.8-4.85,2.78-19.55-.04-22.96Z"/>
      <path class="cls-1" d="M374.86,32.87c7.05-.65,13.7.83,20.74.74,11.53-.15,19.95-.76,31.92,0,3.93.25,15.25-1.75,16.4,2.68.61,2.32-3.32,22.75-5.44,24.2-3.61,2.47-21.96.52-27.91,1.09-4.1.39-8.86,2.13-13.12,2.88-4.91.86-8-2.07-9.14,4.87-1.19,7.25,2.84,6.77,9.22,7.29,4.5.36,23.08-2.27,24.42,1.6.8,2.31-3.05,23.25-4.91,24.84-4.57,3.9-25.64-.29-32.28,1.72-3.47,1.05-4.87,10.54-3.25,12.87,1.13,1.63,20.42.96,24.1.98,2.38.01,4.59-1.13,6.96-1.12,1.95,0,14.39,1.42,15.1,1.99,2.87,2.28.56,10.69-.07,14.12-2.51,13.53-3.14,13.18-16.98,14.02-17.93,1.09-32.77-.51-50.04-1.13-2.94-.11-12.82,3.04-14.36-1.55-1.87-5.55,2.65-22.28,3.7-29.03,2.28-14.68,4.68-29.16,7.29-43.71,1.71-9.5,2.57-21.75,5.36-30.64,2.43-7.77,4.55-7.96,12.32-8.68Z"/>
      <path class="cls-1" d="M152.86,170.87c26.11-2.06,44,6.66,42.19,35.19-.93,14.65-7.62,53.16-15.15,64.85-12.04,18.68-43.52,24.1-62.83,15.16-22.84-10.58-12.48-40.06-9.26-58.25,2.5-14.13,1.05-22.48,9.06-35.94s21.35-19.85,35.99-21.01ZM150.79,198.81c-6.08,1.03-9.31,5.25-11.21,10.78-2.43,7.09-7.15,33.15-7.46,40.62-.51,12.4,10.45,15.22,20,9.92,4.23-2.35,5.48-7.07,6.63-11.37,3.54-13.3,4.93-29.21,5.37-42.69.25-7.55-7.03-8.33-13.34-7.26Z"/>
      <path class="cls-1" d="M686.06,115.57c.07,3.04-.08,12.2-2.4,14.1-4.33,3.56-19.26-3.65-17.6,5.9h18.5c3.51,0,3.12,15.77-.73,17.34s-35.19.86-36.76-1.37l9.9-56.3c1.66-2.71,13.04-1.46,16.57-1.67,13.66-.8,29.56-6.59,21.58,14.58-2.64,1.91-18.99-.91-23.4.6-2.89.98-3.32,6.84-1.16,6.84h15.5Z"/>
      <path class="cls-1" d="M638.83,151.34c-1.71,1.76-11.22,1.85-13.37.3-2.82-2.04,2.04-13.19.6-17.07-3.5.56-10.11-1.54-11.81,1.7-5.02,9.55,3.72,20.93-17.77,15.34,1.88-6.57,7.28-55.35,9.72-56.9.97-.62,13.52-.45,14.45.82,1.51,2.09-4.24,19.17-3.46,22.47.63,2.69,11.8,1.79,12.71.4,1.83-2.82,1.71-20.82,4.4-23.59,1.56-1.6,12.14-2,13.33-.29,2.76,3.96-1.34,15.56-2.1,20.03-.85,5.05-5.11,35.17-6.7,36.8Z"/>
      <path class="cls-1" d="M599.56,94.57c2.58.79.49,11.63-.97,13.03-3.05,2.91-14.46.86-16.05,2.95l-7.74,39.26c-2.25,4.92-10.11,2.03-14.75,2.76.45-14.65,6.59-28.25,6.01-43.01-3.37-.34-13.78,1.19-15.53-1.94-.47-.85,1.46-13.06,3.02-13.06h46Z"/>
      <path class="cls-1" d="M751.56,202.59l5.99,16.99c3.73,8.93-.51,18.59-7.99,23.98-6.36,4.58-7.34-1.73-6.43-7.43.67-4.19,4.91-8.63,5.7-13.3.4-2.35-.18-20.25,2.74-20.24Z"/>
    </g>
  </g>
</svg>